<svg version="1.1" id="_x32_" xmlns="http://www.w3.org/2000/svg" x="0" y="0" viewBox="0 0 512 512" style="width:256px;height:256px" xml:space="preserve" opacity="1"><style>.st0{fill:#786a5b}</style><path class="st0" d="M256 0C114.84 0 0 114.844 0 256c0 141.164 114.84 256 256 256s256-114.836 256-256C512 114.844 397.16 0 256 0zm0 451.047c-107.547 0-195.047-87.492-195.047-195.047 0-107.547 87.5-195.047 195.047-195.047S451.047 148.453 451.047 256c0 107.555-87.5 195.047-195.047 195.047z" fill="#786a5b"/><path class="st0" d="M258.434 115.758c-12.81 0-23.195 10.383-23.195 23.195v105.008l-74.047 74.047c-9.061 9.054-9.061 23.742 0 32.804 9.058 9.055 23.744 9.055 32.804 0l87.635-87.633V138.953c0-12.812-10.385-23.195-23.197-23.195z" fill="#786a5b"/></svg>