<svg xmlns="http://www.w3.org/2000/svg" viewBox="0 0 512 512" style="width:256px;height:256px"><path d="M510.698 196.593c-3.61-11.2-14.034-18.795-25.794-18.795H329.21L281.791 30.155c-3.599-11.2-14.018-18.808-25.791-18.808-11.772 0-22.192 7.608-25.791 18.808l-47.418 147.642H27.097c-11.761 0-22.185 7.594-25.795 18.795-3.599 11.2.436 23.449 9.999 30.302l126.246 90.643-48.598 147.54c-3.694 11.193.278 23.47 9.801 30.398a27.1 27.1 0 0031.94-.058L256 403.594l125.312 91.824a27.099 27.099 0 0031.941.058c9.522-6.927 13.494-19.205 9.811-30.398l-48.61-147.54L500.7 226.895c9.562-6.853 13.598-19.103 9.998-30.302z" fill="#786a5b"/></svg>