<svg version="1.1" id="レイヤー_1" xmlns="http://www.w3.org/2000/svg" x="0" y="0" width="923.3" height="803.2" xml:space="preserve"><style>.st0{fill:#87c0c6}</style><path class="st0" d="M890.5 0H697.7c-18.1 0-32.8 14.8-32.8 32.8v154.8c0 14.1 11.6 25.7 25.7 25.7h41.1c14.1 0 25.7-11.6 25.7-25.7 0-.8.1-1.6.2-2.4.4-2.5 1.5-7.4 4.6-10.6 3.5-3.7 11-3.3 11-3.3h117.4c18.1 0 32.8-14.8 32.8-32.8V32.8c-.1-18-14.8-32.8-32.9-32.8zM44 690.3H16.3c-9 0-16.3 9.1-16.3 20.3v72.3c0 11.2 7.3 20.3 16.3 20.3H44c9 0 16.3-9.1 16.3-20.3v-72.3c0-11.2-7.3-20.3-16.3-20.3zM431.5 624.3H297.7c-9.2 0-16.7 7.5-16.7 16.7v67.5c0 9.2 7.5 16.7 16.7 16.7h133.7c9.2 0 16.7-7.5 16.7-16.7V641c.1-9.2-7.5-16.7-16.6-16.7z"/><path class="st0" d="M852.7 196.7h-46.9c-13.1 0-23.9 10.8-23.9 23.9v18.1s.3 4-2.6 6.8c-2.9 2.9-8.2 2.7-8.2 2.7h-73.7c-17.9 0-32.6 14.7-32.6 32.6v159.5s.5 5.1-3.9 9.5-10.5 3.9-10.5 3.9h-54.9s-10.9.6-15.1-3.6c-4.5-4.5-4.1-13.1-4.1-13.1v-10.6c0-16.3-13.3-29.6-29.6-29.6H539c-16.3 0-29.6 13.3-29.6 29.6v12.9s.3 4.6-4.7 9.6-9.6 4.7-9.6 4.7H317.2c-19.9 0-36.2 16.3-36.2 36.2V581c0 10.7 8.7 19.5 19.5 19.5H438c20.1 0 36.6 16.5 36.6 36.6v68.5c0 10.7 8.7 19.5 19.5 19.5h214.7c6.1 0 11-4.9 11-11V703c0-11.2-3.1-34.1 22.4-34.1h33.1c16.7 0 30.3 13.6 30.3 30.3v14.5s-.2 6.1 2.7 8.9c2.9 2.9 8.3 2.7 8.3 2.7h23.9c19.9 0 36.2-16.3 36.2-36.2V220.7c-.1-13.2-10.9-24-24-24z"/><path class="st0" d="M609.2 433.1h20.2c7.4 0 13.5-6.1 13.5-13.5V402c0-7.4-6.1-13.5-13.5-13.5h-20.2c-7.4 0-13.5 6.1-13.5 13.5v17.7c0 7.4 6.1 13.4 13.5 13.4zM213.9 481.4h-87.5c-23.1 0-41.9 17.9-41.9 39.7l-.2 228.2c0 11.7 10.1 21.3 22.5 21.3h72.4c12.4 0 22.5-9.6 22.5-21.3v-18.2c0-15.1 4.9-17.7 12.5-17.7h3.7c29.7 0 37.8-11.6 37.8-39.7V521.1c.1-21.8-18.8-39.7-41.8-39.7z"/></svg>