<svg xmlns="http://www.w3.org/2000/svg" width="90.129" height="90.129" viewBox="0 0 90.129 90.129">
  <g id="free_back" transform="translate(-3.55 22.396) rotate(-20)">
    <path id="パス_46459" data-name="パス 46459" d="M36.09,0a36.09,36.09,0,0,1,36.09,36.09,37.169,37.169,0,0,1-4.1,16.7c-.164.325-1.271.419-2.435,1.131-2.692,1.657-7.9,4.6-7.9,4.6s-10.663,6.488-17.358,10.6c-2.185,1.344-3.8,3.058-4.3,3.058A36.09,36.09,0,0,1,36.09,0Z" transform="matrix(0.999, 0.052, -0.052, 0.999, 3.778, 0)" fill="#e21c1c"/>
    <path id="パス_46460" data-name="パス 46460" d="M0,20.446,32.163,1.159S24.352-2.514,12.244,3.217,0,20.446,0,20.446Z" transform="matrix(0.999, 0.052, -0.052, 0.999, 37.112, 53.552)" fill="#963b3b"/>
  </g>
</svg>
