<svg xmlns="http://www.w3.org/2000/svg" width="74.197" height="57.177" viewBox="0 0 74.197 57.177">
  <g id="group_merit_deco" transform="translate(-419.803 -1322.505)">
    <path id="前面オブジェクトで型抜き_3" data-name="前面オブジェクトで型抜き 3" d="M74.175,28.532c0,2.01-1.932,3.585-4.122,3.585H65.93L66.02,50a6.974,6.974,0,0,1-.064.9V52.71c0,2.468-2.306,4.467-5.153,4.467H58.742c-.142,0-.283-.1-.425-.011-.18-.089-.361.011-.541.011H16.5c-.193,0-.386-.011-.58-.022-.155.011-.309.022-.464.022H13.4c-2.846,0-5.153-2-5.153-4.467V40.2c0-.1,0-.212.012-.313V32.117H4.129C1.806,32.117,0,30.543,0,28.532a3.4,3.4,0,0,1,1.289-2.68L34.318.9A4.069,4.069,0,0,1,37.152,0,4.788,4.788,0,0,1,39.87.783L72.758,25.852A2.882,2.882,0,0,1,74.175,28.532Z" transform="translate(419.803 1322.505)" fill="#3e71be"/>
  </g>
</svg>
