<svg id="homevisit_ttl" xmlns="http://www.w3.org/2000/svg" width="203.905" height="40.992" viewBox="0 0 203.905 40.992">
  <g id="グループ_7462" data-name="グループ 7462" transform="translate(27.085)">
    <path id="前面オブジェクトで型抜き_6" data-name="前面オブジェクトで型抜き 6" d="M42.906,19.553a2.441,2.441,0,0,1-2.384,2.457H38.137l.052,12.252a5.631,5.631,0,0,1-.037.62v1.24a3.021,3.021,0,0,1-2.981,3.061H33.979c-.082,0-.164-.069-.246-.008-.1-.061-.209.008-.313.008H9.545c-.112,0-.224-.008-.335-.015-.089.008-.179.015-.268.015H7.749a3.021,3.021,0,0,1-2.98-3.061V27.55c0-.069,0-.145.007-.214V22.009H2.388A2.4,2.4,0,0,1,0,19.553a2.519,2.519,0,0,1,.746-1.837L19.851.613A2.113,2.113,0,0,1,21.49,0a2.463,2.463,0,0,1,1.572.537l19.024,17.18A2.1,2.1,0,0,1,42.906,19.553Z" fill="#dbe3ff" opacity="0.709"/>
    <g id="グループ_7460" data-name="グループ 7460" transform="translate(13.358 2.511)">
      <path id="パス_46490" data-name="パス 46490" d="M14.064-53.645H5.876A1.984,1.984,0,0,0,4.343-53,2.043,2.043,0,0,0,3.7-51.467a2.043,2.043,0,0,0,.645,1.533,1.984,1.984,0,0,0,1.533.645h8.188a1.984,1.984,0,0,0,1.533-.645,2.244,2.244,0,0,0,.645-1.533A2.244,2.244,0,0,0,15.6-53,1.984,1.984,0,0,0,14.064-53.645ZM1.6-45.86a2.261,2.261,0,0,0,.686,1.613,2.044,2.044,0,0,0,1.573.686H14.951a2.261,2.261,0,0,0,1.613-.686,2.194,2.194,0,0,0,.686-1.613,2.194,2.194,0,0,0-.686-1.613,2.159,2.159,0,0,0-1.613-.645H3.859a2.012,2.012,0,0,0-1.573.645A2.261,2.261,0,0,0,1.6-45.86Zm16.135,26.7a3.31,3.31,0,0,0,2.259,1.129l.242.04a2.426,2.426,0,0,0,1.976-.968c2.783-3.429,4.639-8.108,5.607-14,0-.242.161-.363.444-.363h4.114a.366.366,0,0,1,.282.121.349.349,0,0,1,.121.242c-.242,6.212-.645,9.64-1.21,10.326a1.98,1.98,0,0,1-1.452.605h-1.17a1.7,1.7,0,0,0-1.452.807,1.77,1.77,0,0,0-.363,1.089,2.006,2.006,0,0,0,.121.645,4.565,4.565,0,0,0,1.331,2.057,3.077,3.077,0,0,0,2.057.807h.121a16.338,16.338,0,0,0,2.34-.2,7.351,7.351,0,0,0,2.017-.645,5.226,5.226,0,0,0,1.573-1.412c.565-.726,1.008-2.3,1.291-4.679a101.719,101.719,0,0,0,.726-11.9,3.105,3.105,0,0,0-.928-2.259,3.168,3.168,0,0,0-2.42-1.008H28.867a.366.366,0,0,1-.282-.121.366.366,0,0,1-.121-.282l.2-3.308a.412.412,0,0,1,.444-.4H37.3a2.649,2.649,0,0,0,1.936-.807,2.538,2.538,0,0,0,.847-1.936,2.563,2.563,0,0,0-.847-1.976,2.649,2.649,0,0,0-1.936-.807H31.933c-.242,0-.363-.121-.363-.4v-2.945a3.06,3.06,0,0,0-.887-2.138,3.06,3.06,0,0,0-2.138-.887,3.06,3.06,0,0,0-2.138.887,2.863,2.863,0,0,0-.887,2.138v2.945c0,.282-.121.4-.4.4H20.639a2.649,2.649,0,0,0-1.936.807,2.675,2.675,0,0,0-.807,1.976,2.649,2.649,0,0,0,.807,1.936,2.649,2.649,0,0,0,1.936.807h1.613a.366.366,0,0,1,.282.121c.081.04.121.121.121.282l-.242,4.518a37.849,37.849,0,0,1-.524,4.316,20.5,20.5,0,0,1-1.008,4.356,22.309,22.309,0,0,1-1.694,3.832C18.42-24.078,16.363-20.448,17.735-19.157ZM3.576-34.606a2.043,2.043,0,0,0,.645,1.533,1.984,1.984,0,0,0,1.533.645h8.39a1.984,1.984,0,0,0,1.533-.645,2.244,2.244,0,0,0,.645-1.533,2.244,2.244,0,0,0-.645-1.533,1.984,1.984,0,0,0-1.533-.645H5.755a1.984,1.984,0,0,0-1.533.645A2.043,2.043,0,0,0,3.576-34.606Zm0-5.566a2.043,2.043,0,0,0,.645,1.533,2.043,2.043,0,0,0,1.533.645h8.39a2.043,2.043,0,0,0,1.533-.645,2.244,2.244,0,0,0,.645-1.533,2.043,2.043,0,0,0-.645-1.533,1.984,1.984,0,0,0-1.533-.645H5.755a1.984,1.984,0,0,0-1.533.645A1.984,1.984,0,0,0,3.576-40.173Zm53.284-8.39v.645c0,.282-.121.4-.4.4H52.5c-.282,0-.4-.121-.4-.4v-.645c0-.282.121-.4.4-.4h3.953C56.74-48.966,56.861-48.845,56.861-48.563ZM46.293-19.4a2.8,2.8,0,0,0,.847,2.057A2.8,2.8,0,0,0,49.2-16.5a2.8,2.8,0,0,0,2.057-.847A2.8,2.8,0,0,0,52.1-19.4v-17.95c0-.282.121-.4.4-.4h6.413a3.292,3.292,0,0,0,2.42-1.008,3.292,3.292,0,0,0,1.008-2.42v-8.753a3.292,3.292,0,0,0-1.008-2.42,3.292,3.292,0,0,0-2.42-1.008h-9.2a3.292,3.292,0,0,0-2.42,1.008,3.292,3.292,0,0,0-1.008,2.42ZM52.1-42.552v-.686c0-.282.121-.4.4-.4h3.953c.282,0,.4.121.4.4v.686c0,.282-.121.4-.4.4H52.5C52.222-42.149,52.1-42.27,52.1-42.552ZM68.518-21.86q.424.908.847,2.057a4.645,4.645,0,0,0,1.694,2.38,3.423,3.423,0,0,0,2.38.887h.2a14.072,14.072,0,0,0,4.921-1.049,3.567,3.567,0,0,0,1.9-2.017,10.162,10.162,0,0,0,.565-3.671V-49.934a3.292,3.292,0,0,0-1.008-2.42,3.292,3.292,0,0,0-2.42-1.008h-9.6a3.292,3.292,0,0,0-2.42,1.008,3.292,3.292,0,0,0-1.008,2.42v8.793a3.292,3.292,0,0,0,1.008,2.42,3.292,3.292,0,0,0,2.42,1.008h6.7c.282,0,.4.121.4.4v13.956a1.027,1.027,0,0,1-.242.766,1.135,1.135,0,0,1-.807.242s-.778-2.645-2.985-2.373S68.726-22.752,68.518-21.86Zm1.613-20.612v-.766c0-.282.121-.4.4-.4h4.155c.282,0,.4.121.4.4v.766c0,.282-.121.4-.4.4H70.535C70.252-42.068,70.131-42.189,70.131-42.472Zm0-5.445V-48.6c0-.282.121-.4.4-.4h4.155c.282,0,.4.121.4.4v.686c0,.282-.121.4-.4.4H70.535C70.252-47.514,70.131-47.635,70.131-47.917ZM100.4-52.273a35.406,35.406,0,0,1-5.123,5.889A38.515,38.515,0,0,1,88.782-41.5a2.165,2.165,0,0,0-1.17,1.654,1.82,1.82,0,0,0-.04.524,2.535,2.535,0,0,0,.484,1.492,3.747,3.747,0,0,0,1.976,1.412,3.071,3.071,0,0,0,.847.121,3.157,3.157,0,0,0,1.492-.444c1.17-.686,2.138-1.331,2.945-1.9a.177.177,0,0,1,.2-.04.186.186,0,0,1,.121.2v3.469a22.308,22.308,0,0,1-.161,3.066,21.893,21.893,0,0,1-.645,3.066,12.781,12.781,0,0,1-1.492,3.267,13.037,13.037,0,0,1-2.622,2.985,2.445,2.445,0,0,0-.887,1.936,2.445,2.445,0,0,0,.887,1.936,4.352,4.352,0,0,0,2.461,1.049H93.5a3.166,3.166,0,0,0,2.138-.766,16.825,16.825,0,0,0,3.227-3.872,14.95,14.95,0,0,0,1.855-4.356,25.724,25.724,0,0,0,.766-4.074,36.366,36.366,0,0,0,.2-4.074v-1.21a3.292,3.292,0,0,0-1.008-2.42,3.292,3.292,0,0,0-2.42-1.008H96.849c-.081,0-.121-.04-.121-.081v-.121a36.08,36.08,0,0,0,8.551-8.955.369.369,0,0,1,.2-.121.186.186,0,0,1,.2.121,37.268,37.268,0,0,0,8.39,8.672c.04.04.081.121.04.161,0,.04-.04.081-.121.081H112.7a3.284,3.284,0,0,0-2.42.968,3.317,3.317,0,0,0-1.008,2.461v16.74a2.952,2.952,0,0,0,.887,2.178,3.083,3.083,0,0,0,2.178.887,3.083,3.083,0,0,0,2.178-.887,2.952,2.952,0,0,0,.887-2.178V-38.6a.186.186,0,0,1,.121-.2l.2.04c1.049.726,1.976,1.331,2.824,1.855a3.912,3.912,0,0,0,1.654.444,3.91,3.91,0,0,0,.928-.121,3.963,3.963,0,0,0,2.178-1.533,3.176,3.176,0,0,0,.444-1.533,2.528,2.528,0,0,0-.081-.645,2.5,2.5,0,0,0-1.371-1.734A32.816,32.816,0,0,1,110.16-52.314a6.548,6.548,0,0,0-2.138-1.936,5.734,5.734,0,0,0-2.783-.726,5.435,5.435,0,0,0-2.7.726A6.737,6.737,0,0,0,100.4-52.273Zm54.741,3.711V-48c0,.161-.081.2-.2.161l-.282-.04a1.641,1.641,0,0,0-.968.323,1.884,1.884,0,0,0-.887,1.049l-.282.686a.321.321,0,0,1-.363.282h-3.348c-.161,0-.2-.04-.121-.161l.4-.968q.121-.242,0-.363a.331.331,0,0,0-.2-.2h.726a1.818,1.818,0,0,0,1.129-.444,1.8,1.8,0,0,0,.444-1.089c0-.121.04-.2.161-.2h3.388C155.019-48.966,155.14-48.845,155.14-48.563Zm-27.792,2.7a2.261,2.261,0,0,0,.686,1.613,2.044,2.044,0,0,0,1.573.686h9.116a2.261,2.261,0,0,0,1.613-.686,2.159,2.159,0,0,0,.645-1.613,2.159,2.159,0,0,0-.645-1.613,2.159,2.159,0,0,0-1.613-.645h-9.116a2.012,2.012,0,0,0-1.573.645A2.261,2.261,0,0,0,127.349-45.86Zm1.533,26.5a2.171,2.171,0,0,0,.686,1.573,1.929,1.929,0,0,0,1.573.686h.887a1.2,1.2,0,0,0,.968-.4,1.311,1.311,0,0,0,.4-.968c0-.121.04-.161.161-.161h2.9a3.292,3.292,0,0,0,2.42-1.008,3.292,3.292,0,0,0,1.008-2.42v-5.607a3.292,3.292,0,0,0-1.008-2.42,3.424,3.424,0,0,0-2.42-1.008H132.31a3.292,3.292,0,0,0-2.42,1.008,3.424,3.424,0,0,0-1.008,2.42Zm.161-15.247a2.244,2.244,0,0,0,.645,1.533,1.984,1.984,0,0,0,1.533.645H137.8a1.984,1.984,0,0,0,1.533-.645,2.043,2.043,0,0,0,.645-1.533,2.043,2.043,0,0,0-.645-1.533,1.984,1.984,0,0,0-1.533-.645h-6.575a1.984,1.984,0,0,0-1.533.645A2.244,2.244,0,0,0,129.043-34.606Zm0-5.566a2.244,2.244,0,0,0,.645,1.533,2.043,2.043,0,0,0,1.533.645h6.373a2.6,2.6,0,0,0,1.694-.686,2.285,2.285,0,0,0,.686-1.654l.081-.121c.04-.04.081-.04.161,0a27.245,27.245,0,0,1,2.582,2.178.668.668,0,0,0,.484.2,1.118,1.118,0,0,0,.484-.2c0-.04,0-.04.04,0v4.235a3.168,3.168,0,0,0,1.008,2.42,3.168,3.168,0,0,0,2.42,1.008h15.933a1.561,1.561,0,0,0,1.25-.524,1.534,1.534,0,0,0,.524-1.21,1.561,1.561,0,0,0-.524-1.25,1.561,1.561,0,0,0-1.25-.524H157.56c-.242,0-.363-.121-.363-.4v-.081a.321.321,0,0,1,.363-.363h4.195a1.448,1.448,0,0,0,.968-.4,1.311,1.311,0,0,0,.4-.968,1.311,1.311,0,0,0-.4-.968,1.448,1.448,0,0,0-.968-.4H157.56a.321.321,0,0,1-.363-.363v-.04c0-.282.121-.4.363-.4h4.195a1.311,1.311,0,0,0,.968-.4,1.2,1.2,0,0,0,.4-.968,1.311,1.311,0,0,0-.4-.968,1.448,1.448,0,0,0-.968-.4H157.56a.321.321,0,0,1-.363-.363c0-.282.121-.4.363-.4H162.2a1.654,1.654,0,0,0,1.21-.524,1.677,1.677,0,0,0,.524-1.25,1.654,1.654,0,0,0-.524-1.21,1.654,1.654,0,0,0-1.21-.524h-4.155a.222.222,0,0,1-.2-.121.257.257,0,0,1,0-.242l.2-.363.242-.4a1.245,1.245,0,0,1,.2-.4c.04-.121.121-.161.282-.161h.04a1.8,1.8,0,0,0,1.089-.444,1.8,1.8,0,0,0,.444-1.089.191.191,0,0,1,.2-.2h2.461a1.858,1.858,0,0,0,1.452-.605,1.831,1.831,0,0,0,.605-1.412,1.98,1.98,0,0,0-.605-1.452,1.858,1.858,0,0,0-1.452-.605h-2.461c-.121,0-.2-.04-.2-.161a1.615,1.615,0,0,0-.484-1.17,1.526,1.526,0,0,0-1.129-.484h-1.976a1.465,1.465,0,0,0-1.129.484,1.615,1.615,0,0,0-.484,1.17c0,.121-.081.161-.2.161h-3.55c-.121,0-.2-.04-.2-.161a1.615,1.615,0,0,0-.484-1.17,1.436,1.436,0,0,0-1.17-.484h-1.9a1.526,1.526,0,0,0-1.129.484,1.616,1.616,0,0,0-.484,1.17c0,.121-.081.161-.2.161h-2.34a1.858,1.858,0,0,0-1.452.605,1.98,1.98,0,0,0-.605,1.452,1.831,1.831,0,0,0,.605,1.412,1.858,1.858,0,0,0,1.452.605h2.178c.242,0,.363.121.363.4v.484c0,.081-.04.121-.161.081a1.159,1.159,0,0,0-.887.121,1.205,1.205,0,0,0-.645.686,17.129,17.129,0,0,1-4.235,5.97l-.081.04c-.04,0-.04-.04-.04-.081a1.372,1.372,0,0,0-.323-.766,1.372,1.372,0,0,0-.766-.323h-7.664a1.984,1.984,0,0,0-1.533.645A2.043,2.043,0,0,0,129.043-40.173Zm.242-11.294a2.043,2.043,0,0,0,.645,1.533,1.984,1.984,0,0,0,1.533.645h6.212a1.984,1.984,0,0,0,1.533-.645,2.043,2.043,0,0,0,.645-1.533A2.043,2.043,0,0,0,139.207-53a1.984,1.984,0,0,0-1.533-.645h-6.212A1.984,1.984,0,0,0,129.93-53,2.043,2.043,0,0,0,129.285-51.467ZM133.4-23.554v-2.662c0-.242.121-.363.4-.363h1.049c.282,0,.4.121.4.363v2.662c0,.282-.121.4-.4.4H133.8C133.52-23.151,133.4-23.272,133.4-23.554Zm7.664,4.074a1.984,1.984,0,0,0,.2.807,3.81,3.81,0,0,0,1.452,1.533,2.633,2.633,0,0,0,1.452.4,1.82,1.82,0,0,0,.524-.04,46.682,46.682,0,0,0,7.7-2.017,1.242,1.242,0,0,1,.766,0,39.6,39.6,0,0,0,6.615,1.815,5.15,5.15,0,0,0,.686.081,3.5,3.5,0,0,0,1.694-.4,5.743,5.743,0,0,0,1.9-1.654,1.452,1.452,0,0,0,.282-.887,1.826,1.826,0,0,0-.121-.645,1.408,1.408,0,0,0-1.21-.928q-1.936-.242-3.751-.605-.121-.061-.121-.121a.237.237,0,0,1,.081-.2,16.386,16.386,0,0,0,4.195-4.316,1.452,1.452,0,0,0,.282-.887l-.04-.444a1.9,1.9,0,0,0-.928-1.089l-.887-.444a2.484,2.484,0,0,0-1.049-.242,1.58,1.58,0,0,0-.524.081h-16.3a1.98,1.98,0,0,0-1.452.605,1.98,1.98,0,0,0-.605,1.452,1.831,1.831,0,0,0,.605,1.412,1.98,1.98,0,0,0,1.452.605H147.4a.087.087,0,0,1,.081.081c0,.04,0,.04-.04.04a2.077,2.077,0,0,0-1.291,1.533l-.04.4a1.582,1.582,0,0,0,.766,1.371l.04.04c.121.04.121.121.081.2a.107.107,0,0,1-.121.121,42.453,42.453,0,0,1-4.477.766,1.469,1.469,0,0,0-1.17.887A2.193,2.193,0,0,0,141.063-19.48Zm7.825-15.045v-.081a.321.321,0,0,1,.363-.363h2.5c.282,0,.4.121.4.363v.081c0,.282-.121.4-.4.4h-2.5C149.009-34.122,148.888-34.243,148.888-34.525Zm0-3.55v-.04c0-.282.121-.4.363-.4h2.5c.282,0,.4.121.4.4v.04c0,.242-.121.363-.4.363h-2.5A.321.321,0,0,1,148.888-38.075Zm0-3.55c0-.282.121-.4.363-.4h2.541c.242,0,.363.121.363.4a.321.321,0,0,1-.363.363h-2.541A.321.321,0,0,1,148.888-41.625ZM150.1-25.53c.04-.04.081-.081.121-.081h5.445a.087.087,0,0,1,.081.081c0,.081,0,.121-.04.161-1.008.645-1.815,1.089-2.34,1.371a.771.771,0,0,1-.726,0,17.41,17.41,0,0,1-2.5-1.371C150.1-25.45,150.058-25.49,150.1-25.53Z" transform="translate(-1.6 54.976)" fill="#051a2b"/>
      <path id="前面オブジェクトで型抜き_4" data-name="前面オブジェクトで型抜き 4" d="M12.387,14.5H4a4,4,0,0,1-4-4V4A4,4,0,0,1,4,0h8.387a4,4,0,0,1,4,4v6.5A4,4,0,0,1,12.387,14.5ZM7.042,4.412a2,2,0,0,0-2,2V8.084a2,2,0,0,0,2,2h2.3a2,2,0,0,0,2-2V6.412a2,2,0,0,0-2-2Z" transform="translate(53.943 19.871)" fill="#e2740f"/>
      <path id="前面オブジェクトで型抜き_5" data-name="前面オブジェクトで型抜き 5" d="M12.387,13.235H4a4,4,0,0,1-4-4V4A4,4,0,0,1,4,0h8.387a4,4,0,0,1,4,4V9.236A4,4,0,0,1,12.387,13.235ZM7.042,4.028a2,2,0,0,0-2,2V7.207a2,2,0,0,0,2,2h2.3a2,2,0,0,0,2-2V6.028a2,2,0,0,0-2-2Z" transform="translate(0 23.985)" fill="#e2740f"/>
    </g>
  </g>
  <g id="homevisit_ttl-2" data-name="homevisit_ttl" transform="translate(-712.487 -373.933)">
    <g id="グループ_7756" data-name="グループ 7756" transform="translate(713.741 380.053)">
      <ellipse id="楕円形_13" data-name="楕円形 13" cx="4" cy="3.5" rx="4" ry="3.5" transform="translate(-0.194 0.427)" fill="#fff"/>
      <ellipse id="楕円形_14" data-name="楕円形 14" cx="3.5" cy="4" rx="3.5" ry="4" transform="translate(18.806 6.427)" fill="#fff"/>
      <rect id="長方形_1623" data-name="長方形 1623" width="8" height="13" rx="4" transform="translate(-0.194 7.427)" fill="#fff"/>
      <rect id="長方形_1624" data-name="長方形 1624" width="4" height="13" rx="2" transform="translate(1.806 20.427)" fill="#fff"/>
      <rect id="長方形_1625" data-name="長方形 1625" width="5" height="12" rx="2.5" transform="translate(19.806 13.427)" fill="#fff"/>
      <rect id="長方形_1626" data-name="長方形 1626" width="4" height="11" rx="2" transform="translate(31.806 21.427) rotate(90)" fill="#fff"/>
      <rect id="長方形_1627" data-name="長方形 1627" width="3.424" height="8.292" rx="1.712" transform="translate(34.936 28.359) rotate(155)" fill="#fff"/>
      <circle id="楕円形_15" data-name="楕円形 15" cx="7" cy="7" r="7" transform="translate(12.806 19.427)" fill="#fff"/>
    </g>
    <path id="楕円形_5" data-name="楕円形 5" d="M3.947,0A3.947,3.947,0,1,1,0,3.947,3.952,3.952,0,0,1,3.947,0Zm0,6.542A2.595,2.595,0,1,0,1.353,3.947,2.6,2.6,0,0,0,3.947,6.542Z" transform="translate(731.544 393.546) rotate(-76.717)" fill="#2b2f2f"/>
    <path id="パス_49393" data-name="パス 49393" d="M376.223,258.881A7.765,7.765,0,0,1,372,244.6a.676.676,0,0,1,.737,1.134,6.412,6.412,0,1,0,9.821,6.387.676.676,0,0,1,1.336.211A7.723,7.723,0,0,1,376.223,258.881Z" transform="translate(357.11 154.928)" fill="#2b2f2f"/>
    <path id="パス_49394" data-name="パス 49394" d="M409.35,238.882h0a2.151,2.151,0,0,1-1.906-1.143l-1.479-2.788h-6.973a3.274,3.274,0,0,1-2.408-1.036,2.124,2.124,0,0,1-.62-1.808,2.957,2.957,0,0,1-.02-.334v-5.965a3.18,3.18,0,0,1,3.493-3.162,3.247,3.247,0,0,1,2.863,3.24v3.428a.554.554,0,0,0,.554.554h3.653c.055,0,.11,0,.165.006s.114-.007.17-.007a2.149,2.149,0,0,1,1.905,1.142l2.474,4.663a2.189,2.189,0,0,1-.622,2.808A2.141,2.141,0,0,1,409.35,238.882Zm-10.228-14.9a1.827,1.827,0,0,0-1.825,1.825v5.965a1.784,1.784,0,0,0,.02.247.676.676,0,0,1,0,.2.792.792,0,0,0,.265.777,1.918,1.918,0,0,0,1.413.6h7.379a.676.676,0,0,1,.6.359l1.67,3.147a.8.8,0,0,0,.711.424.83.83,0,0,0,.464-.15.844.844,0,0,0,.212-1.073l-2.474-4.663a.8.8,0,0,0-.71-.423,1.844,1.844,0,0,1-.228.006l-3.76-.006a1.908,1.908,0,0,1-1.906-1.906v-3.428a1.883,1.883,0,0,0-1.642-1.894C399.243,223.986,399.182,223.983,399.122,223.983Z" transform="translate(337.075 170.864)" fill="#2b2f2f"/>
    <path id="パス_49395" data-name="パス 49395" d="M372.133,231.381a.677.677,0,0,1-.657-.519l-2.593-10.81h-4.691a.676.676,0,1,1,0-1.353h5.225a.676.676,0,0,1,.658.519l2.718,11.328a.677.677,0,0,1-.658.834Z" transform="translate(360.714 173.729)" fill="#2b2f2f"/>
    <path id="楕円形_6" data-name="楕円形 6" d="M2.153,0A2.153,2.153,0,1,1,0,2.153,2.155,2.155,0,0,1,2.153,0Zm0,2.953a.8.8,0,1,0-.8-.8A.8.8,0,0,0,2.153,2.953Z" transform="matrix(0.924, -0.383, 0.383, 0.924, 730.52, 404.88)" fill="#2b2f2f"/>
    <path id="楕円形_7" data-name="楕円形 7" d="M4.176,0A4.176,4.176,0,1,1,0,4.176,4.18,4.18,0,0,1,4.176,0Zm0,7A2.823,2.823,0,1,0,1.353,4.176,2.826,2.826,0,0,0,4.176,7Z" transform="matrix(0.23, -0.973, 0.973, 0.23, 712.487, 387.054)" fill="#2b2f2f"/>
    <path id="パス_49396" data-name="パス 49396" d="M327.294,213.384a4.259,4.259,0,0,1-4.255-4.255v-5.79a4.255,4.255,0,1,1,8.509,0v5.79A4.259,4.259,0,0,1,327.294,213.384Zm0-12.946a2.905,2.905,0,0,0-2.9,2.9v5.79a2.9,2.9,0,1,0,5.8,0v-5.79A2.905,2.905,0,0,0,327.294,200.438Z" transform="translate(390.217 188.027)" fill="#2b2f2f"/>
    <path id="パス_49397" data-name="パス 49397" d="M332.076,260.154a2.554,2.554,0,0,1-2.476-2.62v-10.5a.676.676,0,0,1,1.353,0v10.5a1.132,1.132,0,1,0,2.247,0v-10.5a.676.676,0,1,1,1.353,0v10.5A2.554,2.554,0,0,1,332.076,260.154Z" transform="translate(385.435 153.57)" fill="#2b2f2f"/>
    <path id="パス_49398" data-name="パス 49398" d="M342.357,212.807h-.011c-6.308-.1-6.772-3.98-6.789-4.145a.676.676,0,0,1,1.345-.143c.017.132.434,2.853,5.466,2.936a.676.676,0,0,1-.011,1.353Z" transform="translate(381.095 181.589)" fill="#2b2f2f"/>
  </g>
</svg>
