<svg xmlns="http://www.w3.org/2000/svg" width="36.189" height="34.882" viewBox="0 0 36.189 34.882">
  <g id="homevisit_ttl" transform="translate(-712.487 -378.926)">
    <g id="グループ_7756" data-name="グループ 7756" transform="translate(713.741 380.053)">
      <ellipse id="楕円形_13" data-name="楕円形 13" cx="4" cy="3.5" rx="4" ry="3.5" transform="translate(-0.194 0.427)" fill="#fff"/>
      <ellipse id="楕円形_14" data-name="楕円形 14" cx="3.5" cy="4" rx="3.5" ry="4" transform="translate(18.806 6.427)" fill="#fff"/>
      <rect id="長方形_1623" data-name="長方形 1623" width="8" height="13" rx="4" transform="translate(-0.194 7.427)" fill="#fff"/>
      <rect id="長方形_1624" data-name="長方形 1624" width="4" height="13" rx="2" transform="translate(1.806 20.427)" fill="#fff"/>
      <rect id="長方形_1625" data-name="長方形 1625" width="5" height="12" rx="2.5" transform="translate(19.806 13.427)" fill="#fff"/>
      <rect id="長方形_1626" data-name="長方形 1626" width="4" height="11" rx="2" transform="translate(31.806 21.427) rotate(90)" fill="#fff"/>
      <rect id="長方形_1627" data-name="長方形 1627" width="3.424" height="8.292" rx="1.712" transform="translate(34.936 28.359) rotate(155)" fill="#fff"/>
      <circle id="楕円形_15" data-name="楕円形 15" cx="7" cy="7" r="7" transform="translate(12.806 19.427)" fill="#fff"/>
    </g>
    <path id="楕円形_5" data-name="楕円形 5" d="M3.947,0A3.947,3.947,0,1,1,0,3.947,3.952,3.952,0,0,1,3.947,0Zm0,6.542A2.595,2.595,0,1,0,1.353,3.947,2.6,2.6,0,0,0,3.947,6.542Z" transform="translate(731.544 393.546) rotate(-76.717)" fill="#2b2f2f"/>
    <path id="パス_49393" data-name="パス 49393" d="M376.223,258.881A7.765,7.765,0,0,1,372,244.6a.676.676,0,0,1,.737,1.134,6.412,6.412,0,1,0,9.821,6.387.676.676,0,0,1,1.336.211A7.723,7.723,0,0,1,376.223,258.881Z" transform="translate(357.11 154.928)" fill="#2b2f2f"/>
    <path id="パス_49394" data-name="パス 49394" d="M409.35,238.882h0a2.151,2.151,0,0,1-1.906-1.143l-1.479-2.788h-6.973a3.274,3.274,0,0,1-2.408-1.036,2.124,2.124,0,0,1-.62-1.808,2.957,2.957,0,0,1-.02-.334v-5.965a3.18,3.18,0,0,1,3.493-3.162,3.247,3.247,0,0,1,2.863,3.24v3.428a.554.554,0,0,0,.554.554h3.653c.055,0,.11,0,.165.006s.114-.007.17-.007a2.149,2.149,0,0,1,1.905,1.142l2.474,4.663a2.189,2.189,0,0,1-.622,2.808A2.141,2.141,0,0,1,409.35,238.882Zm-10.228-14.9a1.827,1.827,0,0,0-1.825,1.825v5.965a1.784,1.784,0,0,0,.02.247.676.676,0,0,1,0,.2.792.792,0,0,0,.265.777,1.918,1.918,0,0,0,1.413.6h7.379a.676.676,0,0,1,.6.359l1.67,3.147a.8.8,0,0,0,.711.424.83.83,0,0,0,.464-.15.844.844,0,0,0,.212-1.073l-2.474-4.663a.8.8,0,0,0-.71-.423,1.844,1.844,0,0,1-.228.006l-3.76-.006a1.908,1.908,0,0,1-1.906-1.906v-3.428a1.883,1.883,0,0,0-1.642-1.894C399.243,223.986,399.182,223.983,399.122,223.983Z" transform="translate(337.075 170.864)" fill="#2b2f2f"/>
    <path id="パス_49395" data-name="パス 49395" d="M372.133,231.381a.677.677,0,0,1-.657-.519l-2.593-10.81h-4.691a.676.676,0,1,1,0-1.353h5.225a.676.676,0,0,1,.658.519l2.718,11.328a.677.677,0,0,1-.658.834Z" transform="translate(360.714 173.729)" fill="#2b2f2f"/>
    <path id="楕円形_6" data-name="楕円形 6" d="M2.153,0A2.153,2.153,0,1,1,0,2.153,2.155,2.155,0,0,1,2.153,0Zm0,2.953a.8.8,0,1,0-.8-.8A.8.8,0,0,0,2.153,2.953Z" transform="matrix(0.924, -0.383, 0.383, 0.924, 730.52, 404.88)" fill="#2b2f2f"/>
    <path id="楕円形_7" data-name="楕円形 7" d="M4.176,0A4.176,4.176,0,1,1,0,4.176,4.18,4.18,0,0,1,4.176,0Zm0,7A2.823,2.823,0,1,0,1.353,4.176,2.826,2.826,0,0,0,4.176,7Z" transform="matrix(0.23, -0.973, 0.973, 0.23, 712.487, 387.054)" fill="#2b2f2f"/>
    <path id="パス_49396" data-name="パス 49396" d="M327.294,213.384a4.259,4.259,0,0,1-4.255-4.255v-5.79a4.255,4.255,0,1,1,8.509,0v5.79A4.259,4.259,0,0,1,327.294,213.384Zm0-12.946a2.905,2.905,0,0,0-2.9,2.9v5.79a2.9,2.9,0,1,0,5.8,0v-5.79A2.905,2.905,0,0,0,327.294,200.438Z" transform="translate(390.217 188.027)" fill="#2b2f2f"/>
    <path id="パス_49397" data-name="パス 49397" d="M332.076,260.154a2.554,2.554,0,0,1-2.476-2.62v-10.5a.676.676,0,0,1,1.353,0v10.5a1.132,1.132,0,1,0,2.247,0v-10.5a.676.676,0,1,1,1.353,0v10.5A2.554,2.554,0,0,1,332.076,260.154Z" transform="translate(385.435 153.57)" fill="#2b2f2f"/>
    <path id="パス_49398" data-name="パス 49398" d="M342.357,212.807h-.011c-6.308-.1-6.772-3.98-6.789-4.145a.676.676,0,0,1,1.345-.143c.017.132.434,2.853,5.466,2.936a.676.676,0,0,1-.011,1.353Z" transform="translate(381.095 181.589)" fill="#2b2f2f"/>
  </g>
</svg>
