<svg xmlns="http://www.w3.org/2000/svg" xmlns:xlink="http://www.w3.org/1999/xlink" width="75" height="81" viewBox="0 0 75 81">
  <defs>
    <clipPath id="clip-path">
      <rect id="長方形_1638" data-name="長方形 1638" width="75" height="81" transform="translate(-498 8012)" fill="#fff" stroke="#707070" stroke-width="1"/>
    </clipPath>
  </defs>
  <g id="img_0yen" transform="translate(498 -8012)" clip-path="url(#clip-path)">
    <g id="グループ_7740" data-name="グループ 7740" transform="translate(-25.21 97.213)">
      <path id="パス_50574" data-name="パス 50574" d="M-6.914,7.708A1.448,1.448,0,0,1-7.99,7.245a1.514,1.514,0,0,1-.45-1.09V-14.126a1.514,1.514,0,0,1,.45-1.09,1.448,1.448,0,0,1,1.077-.463H13.04a1.448,1.448,0,0,1,1.077.463,1.514,1.514,0,0,1,.45,1.09V2.72q0,1.254-.041,1.963a5.7,5.7,0,0,1-.232,1.336,2.427,2.427,0,0,1-.436.9,1.912,1.912,0,0,1-.845.463,5.186,5.186,0,0,1-1.254.232q-.654.041-1.826.041-1.526,0-3.026-.055a1.624,1.624,0,0,1-1.118-.491,1.738,1.738,0,0,1-.518-1.118l-.027-.572a1.365,1.365,0,0,1,.409-1.049,1.338,1.338,0,0,1,1.063-.423Q7.915,4,9.006,4a2.269,2.269,0,0,0,1.063-.136q.164-.136.164-.954V-1.805a.193.193,0,0,0-.218-.218h-13.9a.193.193,0,0,0-.218.218v7.96a1.492,1.492,0,0,1-.463,1.09,1.492,1.492,0,0,1-1.09.463Zm12.1-19.49v5.97q0,.245.218.245h4.607q.218,0,.218-.245v-5.97q0-.245-.218-.245H5.407Q5.189-12.027,5.189-11.782Zm-9.3,0v5.97q0,.245.218.245H.719a.217.217,0,0,0,.245-.245v-5.97a.217.217,0,0,0-.245-.245H-3.888Q-4.106-12.027-4.106-11.782Z" transform="translate(-415.896 7972.281)" fill="#e87f17"/>
      <path id="パス_50573" data-name="パス 50573" d="M11.485-24.95a6.437,6.437,0,0,0-6.117-3.823A6.507,6.507,0,0,0-.784-24.95q-1.981,3.823-1.981,13.276T-.784,1.6A6.507,6.507,0,0,0,5.368,5.426,6.507,6.507,0,0,0,11.52,1.6Q13.5-2.22,13.5-11.674T11.485-24.95ZM20.521,8.276q-4.935,6.117-15.153,6.117T-9.82,8.276q-4.97-6.117-4.97-19.949t4.97-19.949Q-4.85-37.74,5.368-37.74t15.188,6.117q4.97,6.117,4.97,19.949T20.521,8.276Z" transform="translate(-455 7967)" fill="#e87f17"/>
    </g>
  </g>
</svg>
