<svg xmlns="http://www.w3.org/2000/svg" width="330.679" height="128.647" viewBox="0 0 330.679 128.647">
  <g id="main_title_homevisit" transform="translate(-235.271 -188.738)">
    <path id="パス_54853" data-name="パス 54853" d="M4.68-27.675a1.957,1.957,0,0,1-1.44-.585,1.957,1.957,0,0,1-.585-1.44,1.957,1.957,0,0,1,.585-1.44,1.957,1.957,0,0,1,1.44-.585H20.2q.405,0,.405-.36v-2.61a2.352,2.352,0,0,1,.7-1.732,2.3,2.3,0,0,1,1.687-.7,2.352,2.352,0,0,1,1.733.7,2.352,2.352,0,0,1,.7,1.732v2.61q0,.36.405.36h8.19a.106.106,0,0,0,.112-.09.109.109,0,0,0-.067-.135q-2.25-1.44-3.375-2.07a1.7,1.7,0,0,1-.877-1.193,1.665,1.665,0,0,1,.337-1.417,2.189,2.189,0,0,1,1.395-.877,2.284,2.284,0,0,1,1.62.292Q35.73-35.73,37.4-34.65a1.917,1.917,0,0,1,.787,1.215,1.71,1.71,0,0,1-.292,1.395q-.225.315.135.315h2.2a1.957,1.957,0,0,1,1.44.585,1.957,1.957,0,0,1,.585,1.44,1.957,1.957,0,0,1-.585,1.44,1.957,1.957,0,0,1-1.44.585H25.83a.358.358,0,0,0-.405.405v.585a1.813,1.813,0,0,0,.135.72,49.567,49.567,0,0,0,3.96,8.325q.135.315.495.045a56.7,56.7,0,0,0,5.94-6.12,2.2,2.2,0,0,1,1.485-.832,2.3,2.3,0,0,1,1.665.427,2.093,2.093,0,0,1,.9,1.463,2.032,2.032,0,0,1-.45,1.642,45.926,45.926,0,0,1-7.065,7.2q-.315.225-.045.585a54.478,54.478,0,0,0,9.18,9.855A2.252,2.252,0,0,1,42.48-1.8a2.263,2.263,0,0,1-.54,1.71,2.289,2.289,0,0,1-1.62.855,2.329,2.329,0,0,1-1.755-.54A55.042,55.042,0,0,1,25.6-16.335a.153.153,0,0,0-.112-.045q-.068,0-.068.045v13.41q0,4.41-1.012,5.467T19.35,3.6q-1.62,0-4.77-.135a2.251,2.251,0,0,1-1.53-.675A2.2,2.2,0,0,1,12.375,1.3a1.813,1.813,0,0,1,.54-1.44,1.813,1.813,0,0,1,1.44-.54q2.7.135,4.005.135,1.62,0,1.935-.337a3.794,3.794,0,0,0,.315-2.047V-27.27a.358.358,0,0,0-.405-.405ZM14.31-15.57a1.95,1.95,0,0,1-1.485.54,1.979,1.979,0,0,1-1.44-.72Q9-18.495,6.705-20.925a2.027,2.027,0,0,1-.563-1.485,1.963,1.963,0,0,1,.652-1.44A2.056,2.056,0,0,1,8.3-24.413a2.064,2.064,0,0,1,1.462.608q2.61,2.7,4.77,5.175a1.972,1.972,0,0,1,.495,1.553A2.424,2.424,0,0,1,14.31-15.57ZM3.645-1.485a2.049,2.049,0,0,1-.225-1.62,2.072,2.072,0,0,1,.99-1.3A75.642,75.642,0,0,0,15.8-12.6,1.811,1.811,0,0,1,17.28-13.1a1.839,1.839,0,0,1,1.35.765,2.363,2.363,0,0,1,.472,1.642A2.121,2.121,0,0,1,18.36-9.18,70.039,70.039,0,0,1,6.615-.675a1.983,1.983,0,0,1-1.62.2A2.339,2.339,0,0,1,3.645-1.485ZM48.96,1.44a1.868,1.868,0,0,1-.315-1.62,2.242,2.242,0,0,1,.99-1.35A32.026,32.026,0,0,0,61.718-13.792a35.6,35.6,0,0,0,4.208-17.483v-2.7a2.352,2.352,0,0,1,.743-1.755,2.411,2.411,0,0,1,1.732-.72,2.411,2.411,0,0,1,1.732.72,2.352,2.352,0,0,1,.743,1.755v2.7a35.443,35.443,0,0,0,4.23,17.483A32.192,32.192,0,0,0,87.21-1.53,2.242,2.242,0,0,1,88.2-.18a1.868,1.868,0,0,1-.315,1.62,2.784,2.784,0,0,1-1.53,1.08A2.354,2.354,0,0,1,84.51,2.3a32.538,32.538,0,0,1-9.4-8.3,41.288,41.288,0,0,1-6.39-11.722q-.09-.135-.225.045A39.377,39.377,0,0,1,61.965-6.03,34.539,34.539,0,0,1,52.335,2.3a2.354,2.354,0,0,1-1.845.225A2.784,2.784,0,0,1,48.96,1.44ZM94.725-17.5a1.929,1.929,0,0,1-1.305-.923,1.988,1.988,0,0,1-.225-1.6A100.159,100.159,0,0,0,95.22-32.67a2.052,2.052,0,0,1,.72-1.4,2.035,2.035,0,0,1,1.485-.495,2.132,2.132,0,0,1,1.395.675,1.888,1.888,0,0,1,.5,1.44q-.045.855-.225,2.475,0,.405.36.405h.63q.36,0,.36-.405v-4.1a2.3,2.3,0,0,1,.7-1.687,2.3,2.3,0,0,1,1.688-.7,2.3,2.3,0,0,1,1.688.7,2.3,2.3,0,0,1,.7,1.687v4.1q0,.405.36.405h1.98a1.957,1.957,0,0,1,1.44.585,1.957,1.957,0,0,1,.585,1.44,1.957,1.957,0,0,1-.585,1.44,1.957,1.957,0,0,1-1.44.585h-1.98a.318.318,0,0,0-.36.36v7.965q0,.36.315.27l1.17-.292q.81-.2,1.215-.337a1.537,1.537,0,0,1,1.395.225,1.673,1.673,0,0,1,.72,1.215v.405q0,.225.27.135a1.892,1.892,0,0,1,.855-.18h14.58a.318.318,0,0,0,.36-.36v-3.42a.318.318,0,0,0-.36-.36H111.15a1.957,1.957,0,0,1-1.44-.585,1.957,1.957,0,0,1-.585-1.44,1.957,1.957,0,0,1,.585-1.44,1.957,1.957,0,0,1,1.44-.585h7.92a.358.358,0,0,0,.4-.405V-28.53q0-.36-.4-.36h-6.615a1.9,1.9,0,0,1-1.395-.585,1.9,1.9,0,0,1-.585-1.4,1.9,1.9,0,0,1,.585-1.4,1.9,1.9,0,0,1,1.395-.585h6.615a.358.358,0,0,0,.4-.4V-34.92a2.374,2.374,0,0,1,.7-1.71,2.315,2.315,0,0,1,1.733-.72,2.3,2.3,0,0,1,1.687.7,2.352,2.352,0,0,1,.7,1.732v1.665a.358.358,0,0,0,.4.4h6.75a1.9,1.9,0,0,1,1.395.585,1.9,1.9,0,0,1,.585,1.4,1.9,1.9,0,0,1-.585,1.4,1.9,1.9,0,0,1-1.395.585H124.7q-.4,0-.4.36v4.185a.358.358,0,0,0,.4.405h8.28a1.957,1.957,0,0,1,1.44.585,1.957,1.957,0,0,1,.585,1.44,1.957,1.957,0,0,1-.585,1.44,1.957,1.957,0,0,1-1.44.585h-1.62q-.405,0-.4.36v3.42q0,.36.4.36h1.62a1.957,1.957,0,0,1,1.44.585,1.957,1.957,0,0,1,.585,1.44,1.957,1.957,0,0,1-.585,1.44,1.957,1.957,0,0,1-1.44.585h-1.62a.358.358,0,0,0-.4.405V-3.06q0,1.71-.045,2.678a7.128,7.128,0,0,1-.315,1.823,3.019,3.019,0,0,1-.63,1.215,3.2,3.2,0,0,1-1.17.652,5.922,5.922,0,0,1-1.733.338q-.922.045-2.5.045-1.98,0-3.6-.09a2.232,2.232,0,0,1-2.16-2.16,1.692,1.692,0,0,1,.54-1.373,1.79,1.79,0,0,1,1.395-.517q1.4.09,3.015.09,1.755,0,2.048-.315a4.622,4.622,0,0,0,.293-2.25v-8.37q0-.405-.36-.405H111.15a1.867,1.867,0,0,1-1.372-.563,2.2,2.2,0,0,1-.653-1.327q0-.315-.27-.135a1.161,1.161,0,0,1-.585.27q-1.8.54-2.7.765a.452.452,0,0,0-.36.5V1.71a2.225,2.225,0,0,1-.7,1.665,2.447,2.447,0,0,1-3.375,0,2.225,2.225,0,0,1-.7-1.665V-11.025q0-.4-.36-.315-1.755.4-4.5.99a1.722,1.722,0,0,1-1.485-.337,1.912,1.912,0,0,1-.765-1.373,2.2,2.2,0,0,1,.4-1.552,2.136,2.136,0,0,1,1.35-.877q3.24-.585,5.04-1.035.315-.045.315-.5v-9.135a.318.318,0,0,0-.36-.36H98.91a.425.425,0,0,0-.45.36q-.54,3.15-1.215,6.12a1.929,1.929,0,0,1-.923,1.305A1.988,1.988,0,0,1,94.725-17.5ZM118.98-5.58a2.074,2.074,0,0,1,.585,1.575,2.173,2.173,0,0,1-.72,1.53,2.056,2.056,0,0,1-1.507.562,2.139,2.139,0,0,1-1.507-.653q-1.8-1.935-3.78-3.78a2.139,2.139,0,0,1-.652-1.507,1.98,1.98,0,0,1,.607-1.508,2.326,2.326,0,0,1,1.575-.652,2.152,2.152,0,0,1,1.575.607Q117.135-7.56,118.98-5.58Zm21.24-16.6v-.09a3.7,3.7,0,0,1,.135-4.23A43.135,43.135,0,0,0,144.9-34.83a2.846,2.846,0,0,1,1.215-1.463,2.476,2.476,0,0,1,1.8-.338,1.881,1.881,0,0,1,1.372.878,1.72,1.72,0,0,1,.158,1.6,2.453,2.453,0,0,0-.112.292,2.453,2.453,0,0,1-.113.292q-.18.36.225.36h9.63a.525.525,0,0,0,.54-.36q.09-.18.248-.585t.247-.63a2.926,2.926,0,0,1,1.238-1.485,2.968,2.968,0,0,1,1.867-.45,1.8,1.8,0,0,1,1.4.855,1.732,1.732,0,0,1,.18,1.62l-.27.675q-.18.36.225.36H175.95a1.782,1.782,0,0,1,1.327.585,1.89,1.89,0,0,1,.563,1.35,1.89,1.89,0,0,1-.562,1.35,1.782,1.782,0,0,1-1.327.585H164.07a.318.318,0,0,0-.36.36v1.62a.318.318,0,0,0,.36.36h10.8a1.562,1.562,0,0,1,1.147.473,1.562,1.562,0,0,1,.473,1.147,1.562,1.562,0,0,1-.473,1.148,1.562,1.562,0,0,1-1.147.472h-10.8q-.36,0-.36.405v1.575q0,.405.36.405h10.8a1.562,1.562,0,0,1,1.147.472,1.562,1.562,0,0,1,.473,1.147,1.638,1.638,0,0,1-.473,1.17,1.527,1.527,0,0,1-1.147.495h-10.8a.318.318,0,0,0-.36.36v1.62a.318.318,0,0,0,.36.36h12.105a1.616,1.616,0,0,1,1.192.472,1.616,1.616,0,0,1,.473,1.193,1.693,1.693,0,0,1-.473,1.215,1.579,1.579,0,0,1-1.192.5h-13.1a.358.358,0,0,0-.4.4v1.26q0,.36.4.36h14.76a1.854,1.854,0,0,1,1.35.585,1.854,1.854,0,0,1,.585,1.35,1.782,1.782,0,0,1-.585,1.327,1.89,1.89,0,0,1-1.35.563H165.69q-.09,0-.09.045a.13.13,0,0,0,.045.09,81.447,81.447,0,0,0,13.14,4.5,2.13,2.13,0,0,1,1.372,1.035,1.987,1.987,0,0,1,.2,1.665A2.142,2.142,0,0,1,179.3,2.092a2.125,2.125,0,0,1-1.687.158A71.334,71.334,0,0,1,162.99-3.915a.15.15,0,0,0-.2-.023.221.221,0,0,0-.112.2v5.31a2.352,2.352,0,0,1-.743,1.755,2.444,2.444,0,0,1-3.465,0,2.352,2.352,0,0,1-.743-1.755v-5.31q0-.36-.36-.135a77.26,77.26,0,0,1-14.49,6.12,2.186,2.186,0,0,1-1.71-.158A2.128,2.128,0,0,1,140.085.81a2.036,2.036,0,0,1,.18-1.665,2.053,2.053,0,0,1,1.35-1.035,86.9,86.9,0,0,0,13.1-4.455q.09-.045.09-.112t-.09-.067h-12.6a1.89,1.89,0,0,1-1.35-.563,1.782,1.782,0,0,1-.585-1.327,1.854,1.854,0,0,1,.585-1.35,1.854,1.854,0,0,1,1.35-.585h15.21q.405,0,.4-.36v-1.26a.358.358,0,0,0-.4-.4H146.34a2.463,2.463,0,0,1-1.8-.765,2.463,2.463,0,0,1-.765-1.8v-8.1q0-.09-.068-.09a.153.153,0,0,0-.112.045,5.342,5.342,0,0,1-.315.517l-.315.473a1.4,1.4,0,0,1-1.372.72A1.584,1.584,0,0,1,140.22-22.185Zm8.28-6.8v1.62q0,.36.4.36h9.45q.405,0,.4-.36v-1.62q0-.36-.4-.36H148.9Q148.5-29.34,148.5-28.98Zm0,5.625v1.575a.358.358,0,0,0,.4.405h9.45a.358.358,0,0,0,.4-.405v-1.575a.358.358,0,0,0-.4-.405H148.9A.358.358,0,0,0,148.5-23.355Zm0,5.625v1.62q0,.36.4.36h9.45q.405,0,.4-.36v-1.62q0-.36-.4-.36H148.9Q148.5-18.09,148.5-17.73Z" transform="translate(304 313.335)" fill="#051a2b"/>
    <g id="グループ_7462" data-name="グループ 7462" transform="translate(35 -10.226)">
      <path id="前面オブジェクトで型抜き_6" data-name="前面オブジェクトで型抜き 6" d="M-2501.446-758.688a4.045,4.045,0,0,1-3.952,4.072h-3.952l.087,20.309a9.344,9.344,0,0,1-.062,1.027v2.055a5.007,5.007,0,0,1-4.941,5.074h-1.976c-.136,0-.271-.114-.407-.013-.173-.1-.346.013-.519.013h-39.574c-.186,0-.371-.013-.556-.025-.148.013-.3.025-.445.025h-1.977a5.008,5.008,0,0,1-4.94-5.074v-14.207c0-.114,0-.241.011-.355v-8.829h-3.957a3.97,3.97,0,0,1-3.959-4.072,4.176,4.176,0,0,1,1.236-3.044l31.668-28.349a3.5,3.5,0,0,1,2.717-1.017,4.083,4.083,0,0,1,2.606.89l31.533,28.476A3.482,3.482,0,0,1-2501.446-758.688Z" transform="translate(2810.424 990.063)" fill="#fff2c0" opacity="0.709"/>
      <g id="グループ_7460" data-name="グループ 7460" transform="translate(-2437.41 310.636)">
        <path id="パス_46490" data-name="パス 46490" d="M22.26-52.77H8.687A3.288,3.288,0,0,0,6.146-51.7a3.387,3.387,0,0,0-1.07,2.541,3.387,3.387,0,0,0,1.07,2.541,3.288,3.288,0,0,0,2.541,1.07H22.26a3.288,3.288,0,0,0,2.541-1.07,3.719,3.719,0,0,0,1.07-2.541A3.719,3.719,0,0,0,24.8-51.7,3.288,3.288,0,0,0,22.26-52.77ZM1.6-39.866a3.748,3.748,0,0,0,1.137,2.674,3.387,3.387,0,0,0,2.608,1.137H23.731a3.748,3.748,0,0,0,2.674-1.137,3.637,3.637,0,0,0,1.137-2.674,3.637,3.637,0,0,0-1.137-2.674,3.578,3.578,0,0,0-2.674-1.07H5.344a3.334,3.334,0,0,0-2.608,1.07A3.748,3.748,0,0,0,1.6-39.866ZM28.344,4.4a5.487,5.487,0,0,0,3.744,1.872l.4.067a4.021,4.021,0,0,0,3.276-1.6c4.613-5.683,7.689-13.439,9.294-23.2,0-.4.267-.6.735-.6h6.82a.607.607,0,0,1,.468.2.578.578,0,0,1,.2.4c-.4,10.3-1.07,15.98-2.006,17.116a3.283,3.283,0,0,1-2.407,1H46.931A2.825,2.825,0,0,0,44.524.986a2.934,2.934,0,0,0-.6,1.805,3.325,3.325,0,0,0,.2,1.07,7.566,7.566,0,0,0,2.206,3.41,5.1,5.1,0,0,0,3.41,1.337h.2a27.082,27.082,0,0,0,3.878-.334A12.185,12.185,0,0,0,57.161,7.2a8.662,8.662,0,0,0,2.608-2.34c.936-1.2,1.672-3.811,2.14-7.756a168.606,168.606,0,0,0,1.2-19.724,5.147,5.147,0,0,0-1.538-3.744,5.252,5.252,0,0,0-4.012-1.672H46.8a.607.607,0,0,1-.468-.2.607.607,0,0,1-.2-.468l.334-5.483a.683.683,0,0,1,.735-.669H60.771a4.391,4.391,0,0,0,3.209-1.337,4.208,4.208,0,0,0,1.4-3.209,4.249,4.249,0,0,0-1.4-3.276,4.391,4.391,0,0,0-3.209-1.337H51.879c-.4,0-.6-.2-.6-.669V-49.56A5.073,5.073,0,0,0,49.806-53.1a5.073,5.073,0,0,0-3.544-1.471A5.073,5.073,0,0,0,42.719-53.1a4.746,4.746,0,0,0-1.471,3.544v4.881c0,.468-.2.669-.669.669H33.158a4.391,4.391,0,0,0-3.209,1.337A4.434,4.434,0,0,0,28.612-39.4a4.391,4.391,0,0,0,1.337,3.209,4.391,4.391,0,0,0,3.209,1.337h2.674a.607.607,0,0,1,.468.2c.134.067.2.2.2.468l-.4,7.488a62.737,62.737,0,0,1-.869,7.154,33.972,33.972,0,0,1-1.672,7.221,36.979,36.979,0,0,1-2.808,6.352C29.481-3.761,26.071,2.256,28.344,4.4ZM4.876-21.212a3.387,3.387,0,0,0,1.07,2.541A3.288,3.288,0,0,0,8.487-17.6H22.394a3.288,3.288,0,0,0,2.541-1.07A3.719,3.719,0,0,0,26-21.212a3.719,3.719,0,0,0-1.07-2.541,3.288,3.288,0,0,0-2.541-1.07H8.487a3.288,3.288,0,0,0-2.541,1.07A3.387,3.387,0,0,0,4.876-21.212Zm0-9.227A3.387,3.387,0,0,0,5.946-27.9a3.387,3.387,0,0,0,2.541,1.07H22.394a3.387,3.387,0,0,0,2.541-1.07A3.719,3.719,0,0,0,26-30.438a3.387,3.387,0,0,0-1.07-2.541,3.288,3.288,0,0,0-2.541-1.07H8.487a3.288,3.288,0,0,0-2.541,1.07A3.288,3.288,0,0,0,4.876-30.438ZM93.2-44.345v1.07c0,.468-.2.669-.669.669H85.978c-.468,0-.669-.2-.669-.669v-1.07c0-.468.2-.669.669-.669H92.53C93-45.014,93.2-44.813,93.2-44.345ZM75.681,3.995a4.642,4.642,0,0,0,1.4,3.41,4.843,4.843,0,0,0,6.82,0,4.642,4.642,0,0,0,1.4-3.41V-25.758c0-.468.2-.669.669-.669H96.608A5.456,5.456,0,0,0,100.62-28.1a5.456,5.456,0,0,0,1.672-4.012V-46.618a5.456,5.456,0,0,0-1.672-4.012A5.456,5.456,0,0,0,96.608-52.3H81.364a5.456,5.456,0,0,0-4.012,1.672,5.456,5.456,0,0,0-1.672,4.012Zm9.628-38.378V-35.52c0-.468.2-.669.669-.669H92.53c.468,0,.669.2.669.669v1.137c0,.468-.2.669-.669.669H85.978C85.51-33.714,85.309-33.915,85.309-34.383Zm27.212,34.3q.7,1.5,1.4,3.41a7.7,7.7,0,0,0,2.808,3.945,5.674,5.674,0,0,0,3.945,1.471h.334A23.325,23.325,0,0,0,129.169,7a5.912,5.912,0,0,0,3.142-3.343,16.844,16.844,0,0,0,.936-6.084V-46.618a5.456,5.456,0,0,0-1.672-4.012,5.456,5.456,0,0,0-4.012-1.672H111.652a5.456,5.456,0,0,0-4.012,1.672,5.456,5.456,0,0,0-1.672,4.012v14.576a5.456,5.456,0,0,0,1.672,4.012,5.456,5.456,0,0,0,4.012,1.672h11.1c.468,0,.669.2.669.669V-2.558a1.7,1.7,0,0,1-.4,1.27,1.881,1.881,0,0,1-1.337.4s-1.289-4.384-4.948-3.933S112.866-1.562,112.521-.084ZM115.2-34.249v-1.27c0-.468.2-.669.669-.669h6.887c.468,0,.669.2.669.669v1.27c0,.468-.2.669-.669.669h-6.887C115.4-33.581,115.2-33.781,115.2-34.249Zm0-9.026v-1.137c0-.468.2-.669.669-.669h6.887c.468,0,.669.2.669.669v1.137c0,.468-.2.669-.669.669h-6.887C115.4-42.607,115.2-42.807,115.2-43.275Zm50.17-7.221a58.688,58.688,0,0,1-8.491,9.762,63.842,63.842,0,0,1-10.764,8.09,3.589,3.589,0,0,0-1.939,2.741,3.017,3.017,0,0,0-.067.869,4.2,4.2,0,0,0,.8,2.474,6.211,6.211,0,0,0,3.276,2.34,5.09,5.09,0,0,0,1.4.2,5.233,5.233,0,0,0,2.474-.735c1.939-1.137,3.544-2.206,4.881-3.142a.294.294,0,0,1,.334-.067.309.309,0,0,1,.2.334v5.75a36.975,36.975,0,0,1-.267,5.081,36.287,36.287,0,0,1-1.07,5.081A21.186,21.186,0,0,1,153.665-6.3a21.609,21.609,0,0,1-4.346,4.948,4.053,4.053,0,0,0-1.471,3.209,4.053,4.053,0,0,0,1.471,3.209A7.214,7.214,0,0,0,153.4,6.8h.535a5.248,5.248,0,0,0,3.544-1.27,27.888,27.888,0,0,0,5.349-6.419A24.78,24.78,0,0,0,165.9-8.107a42.64,42.64,0,0,0,1.27-6.753,60.281,60.281,0,0,0,.334-6.753v-2.006a5.456,5.456,0,0,0-1.671-4.012,5.456,5.456,0,0,0-4.012-1.672h-2.34c-.134,0-.2-.067-.2-.134v-.2a59.806,59.806,0,0,0,14.174-14.843.611.611,0,0,1,.334-.2.309.309,0,0,1,.334.2c3.142,4.814,7.823,9.628,13.907,14.375.067.067.134.2.067.267,0,.067-.067.134-.2.134h-2.14a5.443,5.443,0,0,0-4.012,1.6,5.5,5.5,0,0,0-1.672,4.078V3.727a4.893,4.893,0,0,0,1.471,3.61,5.166,5.166,0,0,0,7.221,0,4.893,4.893,0,0,0,1.471-3.61V-27.831a.309.309,0,0,1,.2-.334l.334.067c1.738,1.2,3.276,2.206,4.68,3.076a6.484,6.484,0,0,0,2.741.735,6.481,6.481,0,0,0,1.538-.2,6.568,6.568,0,0,0,3.61-2.541,5.265,5.265,0,0,0,.735-2.541,4.191,4.191,0,0,0-.134-1.07,4.148,4.148,0,0,0-2.273-2.875,54.394,54.394,0,0,1-20.125-17.049A10.854,10.854,0,0,0,178-53.773a9.5,9.5,0,0,0-4.613-1.2,9.01,9.01,0,0,0-4.48,1.2A11.167,11.167,0,0,0,165.366-50.5ZM256.1-44.345v.936c0,.267-.134.334-.334.267l-.468-.067a2.72,2.72,0,0,0-1.6.535,3.122,3.122,0,0,0-1.471,1.738l-.468,1.137a.533.533,0,0,1-.6.468h-5.549c-.267,0-.334-.067-.2-.267l.669-1.6q.2-.4,0-.6a.549.549,0,0,0-.334-.334h1.2a3.013,3.013,0,0,0,1.872-.735,2.991,2.991,0,0,0,.735-1.805c0-.2.067-.334.267-.334h5.616C255.9-45.014,256.1-44.813,256.1-44.345Zm-46.067,4.48a3.748,3.748,0,0,0,1.137,2.674,3.387,3.387,0,0,0,2.608,1.137h15.11a3.748,3.748,0,0,0,2.674-1.137,3.578,3.578,0,0,0,1.07-2.674,3.578,3.578,0,0,0-1.07-2.674,3.578,3.578,0,0,0-2.674-1.07h-15.11a3.334,3.334,0,0,0-2.608,1.07A3.748,3.748,0,0,0,210.037-39.866Zm2.541,43.927a3.6,3.6,0,0,0,1.137,2.608,3.2,3.2,0,0,0,2.608,1.137h1.471a1.982,1.982,0,0,0,1.6-.669,2.173,2.173,0,0,0,.669-1.6c0-.2.067-.267.267-.267h4.814a5.456,5.456,0,0,0,4.012-1.672A5.456,5.456,0,0,0,230.83-.418V-9.712a5.456,5.456,0,0,0-1.671-4.012,5.675,5.675,0,0,0-4.012-1.672H218.26a5.456,5.456,0,0,0-4.012,1.672,5.675,5.675,0,0,0-1.672,4.012Zm.267-25.273a3.719,3.719,0,0,0,1.07,2.541,3.288,3.288,0,0,0,2.541,1.07h10.9a3.288,3.288,0,0,0,2.541-1.07,3.387,3.387,0,0,0,1.07-2.541,3.387,3.387,0,0,0-1.07-2.541,3.288,3.288,0,0,0-2.541-1.07h-10.9a3.288,3.288,0,0,0-2.541,1.07A3.719,3.719,0,0,0,212.845-21.212Zm0-9.227a3.719,3.719,0,0,0,1.07,2.541,3.387,3.387,0,0,0,2.541,1.07h10.564a4.311,4.311,0,0,0,2.808-1.137,3.787,3.787,0,0,0,1.137-2.741l.134-.2c.067-.067.134-.067.267,0a45.163,45.163,0,0,1,4.279,3.61,1.107,1.107,0,0,0,.8.334,1.853,1.853,0,0,0,.8-.334c0-.067,0-.067.067,0v7.02a5.252,5.252,0,0,0,1.671,4.012A5.252,5.252,0,0,0,243-14.592h26.41a2.588,2.588,0,0,0,2.073-.869,2.543,2.543,0,0,0,.869-2.006,2.588,2.588,0,0,0-.869-2.073,2.588,2.588,0,0,0-2.073-.869h-9.294c-.4,0-.6-.2-.6-.669v-.134a.532.532,0,0,1,.6-.6h6.953a2.4,2.4,0,0,0,1.6-.669,2.173,2.173,0,0,0,.669-1.6,2.173,2.173,0,0,0-.669-1.6,2.4,2.4,0,0,0-1.6-.669h-6.953a.532.532,0,0,1-.6-.6v-.067c0-.468.2-.669.6-.669h6.953a2.173,2.173,0,0,0,1.6-.669,1.982,1.982,0,0,0,.669-1.6,2.173,2.173,0,0,0-.669-1.6,2.4,2.4,0,0,0-1.6-.669h-6.953a.532.532,0,0,1-.6-.6c0-.468.2-.669.6-.669H267.8a2.741,2.741,0,0,0,2.006-.869,2.78,2.78,0,0,0,.869-2.073,2.741,2.741,0,0,0-.869-2.006,2.741,2.741,0,0,0-2.006-.869h-6.887a.368.368,0,0,1-.334-.2.426.426,0,0,1,0-.4l.334-.6.4-.669a2.064,2.064,0,0,1,.334-.669c.067-.2.2-.267.468-.267h.067a2.991,2.991,0,0,0,1.805-.735,2.991,2.991,0,0,0,.735-1.805.316.316,0,0,1,.334-.334h4.078a3.08,3.08,0,0,0,2.407-1,3.035,3.035,0,0,0,1-2.34,3.283,3.283,0,0,0-1-2.407,3.08,3.08,0,0,0-2.407-1h-4.078c-.2,0-.334-.067-.334-.267a2.678,2.678,0,0,0-.8-1.939,2.53,2.53,0,0,0-1.872-.8h-3.276a2.428,2.428,0,0,0-1.872.8,2.678,2.678,0,0,0-.8,1.939c0,.2-.134.267-.334.267h-5.884c-.2,0-.334-.067-.334-.267a2.678,2.678,0,0,0-.8-1.939,2.381,2.381,0,0,0-1.939-.8h-3.142a2.53,2.53,0,0,0-1.872.8,2.678,2.678,0,0,0-.8,1.939c0,.2-.134.267-.334.267h-3.878a3.08,3.08,0,0,0-2.407,1,3.283,3.283,0,0,0-1,2.407,3.035,3.035,0,0,0,1,2.34,3.08,3.08,0,0,0,2.407,1h3.61c.4,0,.6.2.6.669v.8c0,.134-.067.2-.267.134a1.921,1.921,0,0,0-1.471.2,2,2,0,0,0-1.07,1.137,28.391,28.391,0,0,1-7.02,9.9l-.134.067c-.067,0-.067-.067-.067-.134a2.274,2.274,0,0,0-.535-1.27,2.274,2.274,0,0,0-1.27-.535h-12.7a3.288,3.288,0,0,0-2.541,1.07A3.387,3.387,0,0,0,212.845-30.438Zm.4-18.721a3.387,3.387,0,0,0,1.07,2.541,3.288,3.288,0,0,0,2.541,1.07h10.3a3.288,3.288,0,0,0,2.541-1.07,3.387,3.387,0,0,0,1.07-2.541,3.387,3.387,0,0,0-1.07-2.541,3.288,3.288,0,0,0-2.541-1.07h-10.3a3.288,3.288,0,0,0-2.541,1.07A3.387,3.387,0,0,0,213.246-49.159Zm6.82,46.267V-7.3c0-.4.2-.6.669-.6h1.738c.468,0,.669.2.669.6v4.413c0,.468-.2.669-.669.669h-1.738C220.266-2.223,220.066-2.424,220.066-2.892Zm12.7,6.753A3.289,3.289,0,0,0,233.1,5.2a6.315,6.315,0,0,0,2.407,2.541,4.365,4.365,0,0,0,2.407.669,3.017,3.017,0,0,0,.869-.067A77.379,77.379,0,0,0,251.557,5a2.058,2.058,0,0,1,1.27,0,65.643,65.643,0,0,0,10.965,3.009,8.536,8.536,0,0,0,1.137.134,5.8,5.8,0,0,0,2.808-.669,9.519,9.519,0,0,0,3.142-2.741,2.407,2.407,0,0,0,.468-1.471,3.027,3.027,0,0,0-.2-1.07A2.334,2.334,0,0,0,269.141.652q-3.209-.4-6.218-1-.2-.1-.2-.2a.393.393,0,0,1,.134-.334A27.161,27.161,0,0,0,269.81-8.04a2.407,2.407,0,0,0,.468-1.471l-.067-.735a3.157,3.157,0,0,0-1.538-1.805l-1.471-.735a4.118,4.118,0,0,0-1.738-.4,2.619,2.619,0,0,0-.869.134H237.583a3.283,3.283,0,0,0-2.407,1,3.283,3.283,0,0,0-1,2.407,3.035,3.035,0,0,0,1,2.34,3.283,3.283,0,0,0,2.407,1h5.683a.144.144,0,0,1,.134.134c0,.067,0,.067-.067.067a3.443,3.443,0,0,0-2.14,2.541l-.067.669A2.622,2.622,0,0,0,242.4-.619l.067.067c.2.067.2.2.134.334a.177.177,0,0,1-.2.2,70.369,70.369,0,0,1-7.421,1.27,2.434,2.434,0,0,0-1.939,1.471A3.636,3.636,0,0,0,232.769,3.861ZM245.74-21.078v-.134a.532.532,0,0,1,.6-.6h4.145c.468,0,.669.2.669.6v.134c0,.468-.2.669-.669.669h-4.145C245.94-20.409,245.74-20.61,245.74-21.078Zm0-5.884v-.067c0-.468.2-.669.6-.669h4.145c.468,0,.669.2.669.669v.067c0,.4-.2.6-.669.6h-4.145A.532.532,0,0,1,245.74-26.962Zm0-5.884c0-.468.2-.669.6-.669h4.212c.4,0,.6.2.6.669a.532.532,0,0,1-.6.6h-4.212A.532.532,0,0,1,245.74-32.845Zm2.006,26.677c.067-.067.134-.134.2-.134h9.026a.144.144,0,0,1,.134.134c0,.134,0,.2-.067.267-1.671,1.07-3.009,1.805-3.878,2.273a1.279,1.279,0,0,1-1.2,0A28.858,28.858,0,0,1,247.813-5.9C247.746-6.034,247.679-6.1,247.746-6.168Z" transform="translate(2695.81 -52.533)" fill="#051a2b"/>
        <path id="前面オブジェクトで型抜き_4" data-name="前面オブジェクトで型抜き 4" d="M23.162,24.028H4a4,4,0,0,1-4-4V4A4,4,0,0,1,4,0H23.162a4,4,0,0,1,4,4V20.028A4.005,4.005,0,0,1,23.162,24.028ZM10.357,7.313a2,2,0,0,0-2,2v5.4a2,2,0,0,0,2,2H16.8a2,2,0,0,0,2-2v-5.4a2,2,0,0,0-2-2Z" transform="translate(2786.825 -74.572)" fill="#e2740f"/>
        <path id="前面オブジェクトで型抜き_5" data-name="前面オブジェクトで型抜き 5" d="M23.162,21.938H4a4,4,0,0,1-4-4V4A4,4,0,0,1,4,0H23.162a4,4,0,0,1,4,4V17.939A4,4,0,0,1,23.162,21.938ZM10.357,6.677a2,2,0,0,0-2,2v4.585a2,2,0,0,0,2,2H16.8a2,2,0,0,0,2-2V8.677a2,2,0,0,0-2-2Z" transform="translate(2697.41 -67.753)" fill="#e2740f"/>
      </g>
    </g>
    <g id="グループ_7756" data-name="グループ 7756" transform="translate(236.818 206.005)">
      <ellipse id="楕円形_13" data-name="楕円形 13" cx="5.843" cy="5.112" rx="5.843" ry="5.112" transform="translate(0 0)" fill="#fff"/>
      <ellipse id="楕円形_14" data-name="楕円形 14" cx="5.112" cy="5.843" rx="5.112" ry="5.843" transform="translate(27.752 8.764)" fill="#fff"/>
      <rect id="長方形_1623" data-name="長方形 1623" width="11.685" height="18.988" rx="5.843" transform="translate(0 10.224)" fill="#fff"/>
      <rect id="長方形_1624" data-name="長方形 1624" width="5.843" height="18.988" rx="2.921" transform="translate(2.921 29.213)" fill="#fff"/>
      <rect id="長方形_1625" data-name="長方形 1625" width="7.303" height="17.528" rx="3.652" transform="translate(29.213 18.988)" fill="#fff"/>
      <rect id="長方形_1626" data-name="長方形 1626" width="5.843" height="16.067" rx="2.921" transform="translate(46.74 30.673) rotate(90)" fill="#fff"/>
      <rect id="長方形_1627" data-name="長方形 1627" width="5.001" height="12.112" rx="2.501" transform="translate(51.313 40.799) rotate(155)" fill="#fff"/>
      <circle id="楕円形_15" data-name="楕円形 15" cx="10.224" cy="10.224" r="10.224" transform="translate(18.988 27.752)" fill="#fff"/>
    </g>
    <path id="楕円形_5" data-name="楕円形 5" d="M5.766,0A5.766,5.766,0,1,1,0,5.766,5.772,5.772,0,0,1,5.766,0Zm0,9.556a3.79,3.79,0,1,0-3.79-3.79A3.794,3.794,0,0,0,5.766,9.556Z" transform="translate(263.106 225.089) rotate(-76.717)" fill="#2b2f2f"/>
    <path id="パス_49393" data-name="パス 49393" d="M379.8,265.508a11.341,11.341,0,0,1-6.171-20.856.988.988,0,0,1,1.077,1.657,9.365,9.365,0,1,0,14.345,9.33.988.988,0,0,1,1.952.308A11.28,11.28,0,0,1,379.8,265.508Z" transform="translate(-114.08 -10.823)" fill="#2b2f2f"/>
    <path id="パス_49394" data-name="パス 49394" d="M415.525,246.367h0a3.143,3.143,0,0,1-2.784-1.669l-2.161-4.072H400.4a4.782,4.782,0,0,1-3.517-1.514,3.1,3.1,0,0,1-.905-2.64,4.308,4.308,0,0,1-.029-.487v-8.713a4.645,4.645,0,0,1,5.1-4.619,4.743,4.743,0,0,1,4.181,4.733v5.007a.809.809,0,0,0,.809.809h5.336c.081,0,.161,0,.241.009s.166-.01.249-.01a3.14,3.14,0,0,1,2.783,1.668l3.614,6.811a3.2,3.2,0,0,1-.908,4.1A3.127,3.127,0,0,1,415.525,246.367Zm-14.939-21.761a2.669,2.669,0,0,0-2.666,2.666v8.713a2.611,2.611,0,0,0,.029.36.988.988,0,0,1,0,.293,1.157,1.157,0,0,0,.386,1.135,2.8,2.8,0,0,0,2.064.877h10.779a.988.988,0,0,1,.873.525l2.439,4.6a1.171,1.171,0,0,0,1.039.619,1.212,1.212,0,0,0,.678-.219,1.233,1.233,0,0,0,.31-1.567l-3.614-6.811a1.168,1.168,0,0,0-1.037-.618,2.7,2.7,0,0,1-.333.009l-5.493-.008a2.787,2.787,0,0,1-2.784-2.784v-5.007a2.751,2.751,0,0,0-2.4-2.766C400.763,224.611,400.674,224.606,400.585,224.606Z" transform="translate(-130.684 2.383)" fill="#2b2f2f"/>
    <path id="パス_49395" data-name="パス 49395" d="M376.1,237.222a.988.988,0,0,1-.96-.758l-3.788-15.789H364.5a.988.988,0,0,1,0-1.976h7.631a.988.988,0,0,1,.961.757L377.064,236a.989.989,0,0,1-.961,1.219Z" transform="translate(-111.094 4.758)" fill="#2b2f2f"/>
    <path id="楕円形_6" data-name="楕円形 6" d="M3.144,0A3.144,3.144,0,1,1,0,3.144,3.148,3.148,0,0,1,3.144,0Zm0,4.313A1.168,1.168,0,1,0,1.976,3.144,1.17,1.17,0,0,0,3.144,4.313Z" transform="matrix(0.924, -0.383, 0.383, 0.924, 261.61, 241.644)" fill="#2b2f2f"/>
    <path id="楕円形_7" data-name="楕円形 7" d="M6.1,0A6.1,6.1,0,1,1,0,6.1,6.106,6.106,0,0,1,6.1,0Zm0,10.222A4.123,4.123,0,1,0,1.976,6.1,4.128,4.128,0,0,0,6.1,10.222Z" transform="matrix(0.23, -0.973, 0.973, 0.23, 235.271, 215.607)" fill="#2b2f2f"/>
    <path id="パス_49396" data-name="パス 49396" d="M329.253,219.971a6.221,6.221,0,0,1-6.214-6.214V205.3a6.214,6.214,0,1,1,12.429,0v8.457A6.221,6.221,0,0,1,329.253,219.971Zm0-18.91a4.243,4.243,0,0,0-4.239,4.239v8.457a4.239,4.239,0,1,0,8.477,0V205.3A4.243,4.243,0,0,0,329.253,201.061Z" transform="translate(-86.645 16.606)" fill="#2b2f2f"/>
    <path id="パス_49397" data-name="パス 49397" d="M333.217,266.51a3.731,3.731,0,0,1-3.617-3.828V247.343a.988.988,0,1,1,1.976,0v15.339a1.653,1.653,0,1,0,3.282,0V247.343a.988.988,0,1,1,1.976,0v15.339A3.731,3.731,0,0,1,333.217,266.51Z" transform="translate(-90.607 -11.948)" fill="#2b2f2f"/>
    <path id="パス_49398" data-name="パス 49398" d="M345.491,215.06h-.017c-9.214-.151-9.891-5.814-9.916-6.055a.988.988,0,0,1,1.965-.209c.025.193.633,4.168,7.983,4.288a.988.988,0,0,1-.016,1.976Z" transform="translate(-94.204 11.271)" fill="#2b2f2f"/>
  </g>
</svg>
