<svg xmlns="http://www.w3.org/2000/svg" width="323.352" height="117.099" viewBox="0 0 323.352 117.099">
  <g id="main_title" transform="translate(0 0.5)">
    <path id="パス_54848" data-name="パス 54848" d="M4.368-25.83a1.827,1.827,0,0,1-1.344-.546,1.827,1.827,0,0,1-.546-1.344,1.827,1.827,0,0,1,.546-1.344,1.827,1.827,0,0,1,1.344-.546h14.49q.378,0,.378-.336v-2.436A2.2,2.2,0,0,1,19.887-34a2.145,2.145,0,0,1,1.575-.651A2.2,2.2,0,0,1,23.079-34a2.2,2.2,0,0,1,.651,1.617v2.436q0,.336.378.336h7.644a.1.1,0,0,0,.1-.084.1.1,0,0,0-.063-.126q-2.1-1.344-3.15-1.932a1.584,1.584,0,0,1-.819-1.113,1.554,1.554,0,0,1,.315-1.323,2.043,2.043,0,0,1,1.3-.819,2.132,2.132,0,0,1,1.512.273q2.394,1.386,3.948,2.394a1.789,1.789,0,0,1,.735,1.134,1.6,1.6,0,0,1-.273,1.3q-.21.294.126.294h2.058a1.827,1.827,0,0,1,1.344.546,1.827,1.827,0,0,1,.546,1.344,1.827,1.827,0,0,1-.546,1.344,1.827,1.827,0,0,1-1.344.546H24.108a.334.334,0,0,0-.378.378v.546a1.692,1.692,0,0,0,.126.672,46.263,46.263,0,0,0,3.7,7.77q.126.294.462.042a52.921,52.921,0,0,0,5.544-5.712,2.057,2.057,0,0,1,1.386-.777,2.149,2.149,0,0,1,1.554.4,1.953,1.953,0,0,1,.84,1.365,1.9,1.9,0,0,1-.42,1.533,42.864,42.864,0,0,1-6.594,6.72q-.294.21-.042.546a50.846,50.846,0,0,0,8.568,9.2,2.1,2.1,0,0,1,.8,1.47,2.112,2.112,0,0,1-.5,1.6,2.136,2.136,0,0,1-1.512.8,2.174,2.174,0,0,1-1.638-.5A51.372,51.372,0,0,1,23.9-15.246a.142.142,0,0,0-.1-.042q-.063,0-.063.042V-2.73q0,4.116-.945,5.1T18.06,3.36q-1.512,0-4.452-.126A2.1,2.1,0,0,1,12.18,2.6a2.057,2.057,0,0,1-.63-1.386,1.692,1.692,0,0,1,.5-1.344A1.692,1.692,0,0,1,13.4-.63q2.52.126,3.738.126,1.512,0,1.806-.315a3.541,3.541,0,0,0,.294-1.911V-25.452a.334.334,0,0,0-.378-.378Zm8.988,11.3a1.82,1.82,0,0,1-1.386.5,1.847,1.847,0,0,1-1.344-.672Q8.4-17.262,6.258-19.53a1.892,1.892,0,0,1-.525-1.386,1.832,1.832,0,0,1,.609-1.344,1.919,1.919,0,0,1,1.407-.525,1.926,1.926,0,0,1,1.365.567q2.436,2.52,4.452,4.83a1.841,1.841,0,0,1,.462,1.449A2.262,2.262,0,0,1,13.356-14.532ZM3.4-1.386A1.913,1.913,0,0,1,3.192-2.9a1.934,1.934,0,0,1,.924-1.218A70.6,70.6,0,0,0,14.742-11.76a1.69,1.69,0,0,1,1.386-.462,1.717,1.717,0,0,1,1.26.714,2.205,2.205,0,0,1,.441,1.533,1.979,1.979,0,0,1-.693,1.407A65.369,65.369,0,0,1,6.174-.63a1.851,1.851,0,0,1-1.512.189A2.183,2.183,0,0,1,3.4-1.386ZM45.7,1.344A1.744,1.744,0,0,1,45.4-.168a2.093,2.093,0,0,1,.924-1.26A29.891,29.891,0,0,0,57.6-12.873,33.222,33.222,0,0,0,61.53-29.19v-2.52a2.2,2.2,0,0,1,.693-1.638,2.25,2.25,0,0,1,1.617-.672,2.25,2.25,0,0,1,1.617.672,2.2,2.2,0,0,1,.693,1.638v2.52A33.08,33.08,0,0,0,70.1-12.873,30.046,30.046,0,0,0,81.4-1.428a2.093,2.093,0,0,1,.924,1.26,1.744,1.744,0,0,1-.294,1.512A2.6,2.6,0,0,1,80.6,2.352a2.2,2.2,0,0,1-1.722-.21A30.369,30.369,0,0,1,70.1-5.607a38.536,38.536,0,0,1-5.964-10.941q-.084-.126-.21.042a36.752,36.752,0,0,1-6.09,10.878,32.236,32.236,0,0,1-8.988,7.77,2.2,2.2,0,0,1-1.722.21A2.6,2.6,0,0,1,45.7,1.344ZM88.41-16.338a1.8,1.8,0,0,1-1.218-.861,1.855,1.855,0,0,1-.21-1.491,93.484,93.484,0,0,0,1.89-11.8,1.915,1.915,0,0,1,.672-1.3,1.9,1.9,0,0,1,1.386-.462,1.99,1.99,0,0,1,1.3.63,1.762,1.762,0,0,1,.462,1.344q-.042.8-.21,2.31,0,.378.336.378h.588q.336,0,.336-.378v-3.822a2.145,2.145,0,0,1,.651-1.575,2.145,2.145,0,0,1,1.575-.651,2.145,2.145,0,0,1,1.575.651,2.145,2.145,0,0,1,.651,1.575v3.822q0,.378.336.378h1.848a1.827,1.827,0,0,1,1.344.546,1.827,1.827,0,0,1,.546,1.344,1.827,1.827,0,0,1-.546,1.344,1.827,1.827,0,0,1-1.344.546H98.532a.3.3,0,0,0-.336.336v7.434q0,.336.294.252l1.092-.273q.756-.189,1.134-.315a1.435,1.435,0,0,1,1.3.21,1.562,1.562,0,0,1,.672,1.134v.378q0,.21.252.126a1.766,1.766,0,0,1,.8-.168h13.608a.3.3,0,0,0,.336-.336v-3.192a.3.3,0,0,0-.336-.336H103.74a1.827,1.827,0,0,1-1.344-.546,1.827,1.827,0,0,1-.546-1.344A1.827,1.827,0,0,1,102.4-21.8a1.827,1.827,0,0,1,1.344-.546h7.392a.334.334,0,0,0,.378-.378v-3.906q0-.336-.378-.336h-6.174a1.778,1.778,0,0,1-1.3-.546,1.778,1.778,0,0,1-.546-1.3,1.778,1.778,0,0,1,.546-1.3,1.778,1.778,0,0,1,1.3-.546h6.174a.334.334,0,0,0,.378-.378v-1.554a2.216,2.216,0,0,1,.651-1.6,2.16,2.16,0,0,1,1.617-.672,2.145,2.145,0,0,1,1.575.651A2.2,2.2,0,0,1,116-32.592v1.554a.334.334,0,0,0,.378.378h6.3a1.777,1.777,0,0,1,1.3.546,1.778,1.778,0,0,1,.546,1.3,1.778,1.778,0,0,1-.546,1.3,1.778,1.778,0,0,1-1.3.546h-6.3q-.378,0-.378.336v3.906a.334.334,0,0,0,.378.378h7.728a1.827,1.827,0,0,1,1.344.546A1.827,1.827,0,0,1,126-20.454a1.827,1.827,0,0,1-.546,1.344,1.827,1.827,0,0,1-1.344.546H122.6q-.378,0-.378.336v3.192q0,.336.378.336h1.512a1.827,1.827,0,0,1,1.344.546A1.827,1.827,0,0,1,126-12.81a1.827,1.827,0,0,1-.546,1.344,1.827,1.827,0,0,1-1.344.546H122.6a.334.334,0,0,0-.378.378v7.686q0,1.6-.042,2.5a6.653,6.653,0,0,1-.294,1.7,2.818,2.818,0,0,1-.588,1.134,2.99,2.99,0,0,1-1.092.609,5.527,5.527,0,0,1-1.617.315q-.861.042-2.331.042-1.848,0-3.36-.084a2.083,2.083,0,0,1-2.016-2.016,1.579,1.579,0,0,1,.5-1.281,1.67,1.67,0,0,1,1.3-.483q1.3.084,2.814.084,1.638,0,1.911-.294a4.314,4.314,0,0,0,.273-2.1v-7.812q0-.378-.336-.378H103.74a1.743,1.743,0,0,1-1.281-.525,2.049,2.049,0,0,1-.609-1.239q0-.294-.252-.126a1.083,1.083,0,0,1-.546.252q-1.68.5-2.52.714a.422.422,0,0,0-.336.462V1.6a2.077,2.077,0,0,1-.651,1.554,2.284,2.284,0,0,1-3.15,0A2.077,2.077,0,0,1,93.744,1.6V-10.29q0-.378-.336-.294-1.638.378-4.2.924a1.607,1.607,0,0,1-1.386-.315,1.785,1.785,0,0,1-.714-1.281,2.054,2.054,0,0,1,.378-1.449,1.994,1.994,0,0,1,1.26-.819q3.024-.546,4.7-.966.294-.042.294-.462v-8.526a.3.3,0,0,0-.336-.336H92.316a.4.4,0,0,0-.42.336q-.5,2.94-1.134,5.712a1.8,1.8,0,0,1-.861,1.218A1.855,1.855,0,0,1,88.41-16.338Zm22.638,11.13a1.935,1.935,0,0,1,.546,1.47,2.028,2.028,0,0,1-.672,1.428,1.919,1.919,0,0,1-1.407.525,2,2,0,0,1-1.407-.609q-1.68-1.806-3.528-3.528a2,2,0,0,1-.609-1.407,1.848,1.848,0,0,1,.567-1.407,2.171,2.171,0,0,1,1.47-.609,2.008,2.008,0,0,1,1.47.567Q109.326-7.056,111.048-5.208Zm19.824-15.5v-.084A3.456,3.456,0,0,1,131-24.738a40.258,40.258,0,0,0,4.242-7.77,2.656,2.656,0,0,1,1.134-1.365,2.311,2.311,0,0,1,1.68-.315,1.755,1.755,0,0,1,1.281.819,1.606,1.606,0,0,1,.147,1.491,2.291,2.291,0,0,0-.105.273,2.289,2.289,0,0,1-.1.273q-.168.336.21.336h8.988a.49.49,0,0,0,.5-.336q.084-.168.231-.546t.231-.588a2.731,2.731,0,0,1,1.155-1.386,2.77,2.77,0,0,1,1.743-.42,1.679,1.679,0,0,1,1.3.8,1.616,1.616,0,0,1,.168,1.512l-.252.63q-.168.336.21.336H164.22a1.663,1.663,0,0,1,1.239.546,1.764,1.764,0,0,1,.525,1.26,1.764,1.764,0,0,1-.525,1.26,1.663,1.663,0,0,1-1.239.546H153.132a.3.3,0,0,0-.336.336v1.512a.3.3,0,0,0,.336.336h10.08a1.458,1.458,0,0,1,1.071.441,1.458,1.458,0,0,1,.441,1.071,1.458,1.458,0,0,1-.441,1.071,1.458,1.458,0,0,1-1.071.441h-10.08q-.336,0-.336.378v1.47q0,.378.336.378h10.08a1.458,1.458,0,0,1,1.071.441,1.458,1.458,0,0,1,.441,1.071,1.529,1.529,0,0,1-.441,1.092,1.425,1.425,0,0,1-1.071.462h-10.08a.3.3,0,0,0-.336.336v1.512a.3.3,0,0,0,.336.336h11.3a1.509,1.509,0,0,1,1.113.441,1.509,1.509,0,0,1,.441,1.113,1.58,1.58,0,0,1-.441,1.134,1.473,1.473,0,0,1-1.113.462H152.208a.334.334,0,0,0-.378.378V-10q0,.336.378.336h13.776a1.731,1.731,0,0,1,1.26.546,1.731,1.731,0,0,1,.546,1.26,1.663,1.663,0,0,1-.546,1.239,1.764,1.764,0,0,1-1.26.525h-11.34q-.084,0-.084.042a.121.121,0,0,0,.042.084,76.018,76.018,0,0,0,12.264,4.2,1.988,1.988,0,0,1,1.281.966,1.854,1.854,0,0,1,.189,1.554,2,2,0,0,1-.987,1.2,1.983,1.983,0,0,1-1.575.147,66.578,66.578,0,0,1-13.65-5.754.14.14,0,0,0-.189-.021.206.206,0,0,0-.1.189V1.47a2.2,2.2,0,0,1-.693,1.638,2.281,2.281,0,0,1-3.234,0,2.2,2.2,0,0,1-.693-1.638V-3.486q0-.336-.336-.126A72.109,72.109,0,0,1,133.35,2.1a2.04,2.04,0,0,1-1.6-.147,1.986,1.986,0,0,1-1.008-1.2A1.9,1.9,0,0,1,130.914-.8a1.916,1.916,0,0,1,1.26-.966A81.107,81.107,0,0,0,144.4-5.922q.084-.042.084-.105T144.4-6.09h-11.76a1.764,1.764,0,0,1-1.26-.525,1.663,1.663,0,0,1-.546-1.239,1.731,1.731,0,0,1,.546-1.26,1.731,1.731,0,0,1,1.26-.546h14.2q.378,0,.378-.336v-1.176a.334.334,0,0,0-.378-.378H136.584a2.3,2.3,0,0,1-1.68-.714,2.3,2.3,0,0,1-.714-1.68V-21.5q0-.084-.063-.084a.142.142,0,0,0-.1.042,4.983,4.983,0,0,1-.294.483l-.294.441a1.306,1.306,0,0,1-1.281.672A1.478,1.478,0,0,1,130.872-20.706Zm7.728-6.342v1.512q0,.336.378.336h8.82q.378,0,.378-.336v-1.512q0-.336-.378-.336h-8.82Q138.6-27.384,138.6-27.048Zm0,5.25v1.47a.334.334,0,0,0,.378.378h8.82a.334.334,0,0,0,.378-.378V-21.8a.334.334,0,0,0-.378-.378h-8.82A.334.334,0,0,0,138.6-21.8Zm0,5.25v1.512q0,.336.378.336h8.82q.378,0,.378-.336v-1.512q0-.336-.378-.336h-8.82Q138.6-16.884,138.6-16.548Z" transform="translate(74 112.819)" fill="#051a2b"/>
    <g id="グループ_7311" data-name="グループ 7311">
      <path id="パス_46248" data-name="パス 46248" d="M3.75-30.686a4.558,4.558,0,0,1,1.375-3.349A4.558,4.558,0,0,1,8.474-35.41H43.867a4.74,4.74,0,0,1,3.384,1.34,4.74,4.74,0,0,1,1.34,3.384,4.558,4.558,0,0,1-1.375,3.349,4.558,4.558,0,0,1-3.349,1.375H8.474a4.388,4.388,0,0,1-3.314-1.41A4.388,4.388,0,0,1,3.75-30.686Zm.282,15.793a4.558,4.558,0,0,1,1.375-3.349,4.558,4.558,0,0,1,3.349-1.375H44.149a4.74,4.74,0,0,1,3.384,1.34,4.74,4.74,0,0,1,1.34,3.384A4.558,4.558,0,0,1,47.5-11.544a4.558,4.558,0,0,1-3.349,1.375H34.208a35.646,35.646,0,0,1-1.128,5.5,17.534,17.534,0,0,1-4.618,7.509,12.385,12.385,0,0,1-8.143,3.349H9.038A4.616,4.616,0,0,1,5.83,4.813,4.616,4.616,0,0,1,4.455,1.6a4.809,4.809,0,0,1,1.3-3.384A4.51,4.51,0,0,1,9.038-3.26h8.884A6.272,6.272,0,0,0,22.363-5.3a8.9,8.9,0,0,0,2.256-4.371,2.072,2.072,0,0,1,.071-.494H8.756a4.388,4.388,0,0,1-3.314-1.41A4.388,4.388,0,0,1,4.032-14.893Zm20.484-31.53A4.9,4.9,0,0,1,26-50.019a4.9,4.9,0,0,1,3.6-1.481,4.9,4.9,0,0,1,3.6,1.481,4.9,4.9,0,0,1,1.481,3.6,4.9,4.9,0,0,1-1.481,3.6,4.9,4.9,0,0,1-3.6,1.481A4.9,4.9,0,0,1,26-42.828,4.9,4.9,0,0,1,24.516-46.424Zm14.2,0a4.9,4.9,0,0,1,1.481-3.6A4.9,4.9,0,0,1,43.8-51.5a4.9,4.9,0,0,1,3.6,1.481,4.9,4.9,0,0,1,1.481,3.6,4.9,4.9,0,0,1-1.481,3.6,4.9,4.9,0,0,1-3.6,1.481,4.9,4.9,0,0,1-3.6-1.481A4.9,4.9,0,0,1,38.72-46.424Zm65.2,15.314-1.41,3.666q-3.1,8.038-7.332,12.127a15.588,15.588,0,0,1-7.05,4.089V1.816A4.6,4.6,0,0,1,83.472,6.4a4.935,4.935,0,0,1-3.419-1.3,4.229,4.229,0,0,1-1.445-3.278V-10.945H62.11A4.616,4.616,0,0,1,58.9-12.32a4.616,4.616,0,0,1-1.375-3.208,4.809,4.809,0,0,1,1.3-3.384,4.51,4.51,0,0,1,3.278-1.481H83.543a8.652,8.652,0,0,0,5.041-2.045,12.892,12.892,0,0,0,3.56-4.336,49.727,49.727,0,0,0,2.186-5.182l.846-2.256a6.1,6.1,0,0,1,1.445-2.432,3.985,3.985,0,0,1,2.926-.952,4.421,4.421,0,0,1,3.278,1.41A4.675,4.675,0,0,1,104.2-32.8,4.917,4.917,0,0,1,103.919-31.109Zm8,4.724a4.558,4.558,0,0,1,1.375-3.349,4.558,4.558,0,0,1,3.349-1.375h4.794v-2.468a4.51,4.51,0,0,1,1.481-3.278,4.809,4.809,0,0,1,3.384-1.3,4.744,4.744,0,0,1,3.243,1.375,4.552,4.552,0,0,1,1.41,3.208v2.468h15.652l.353-2.468a5.406,5.406,0,0,1,1.9-3.278,5.327,5.327,0,0,1,3.525-1.3,4.13,4.13,0,0,1,3.067,1.375,4.154,4.154,0,0,1,1.022,3.208l-.353,2.468h4.371a4.74,4.74,0,0,1,3.384,1.34,4.74,4.74,0,0,1,1.34,3.384,4.558,4.558,0,0,1-1.375,3.349,4.558,4.558,0,0,1-3.349,1.375h-5.711l-.987,6.768a36.951,36.951,0,0,1-2.609,9.448,21.41,21.41,0,0,1-5.676,7.509,14.166,14.166,0,0,1-8.566,3.349H125.665a4.616,4.616,0,0,1-3.208-1.375A4.616,4.616,0,0,1,121.082.829a4.809,4.809,0,0,1,1.3-3.384,4.51,4.51,0,0,1,3.278-1.481h10.153a7.181,7.181,0,0,0,4.689-2.045,10.191,10.191,0,0,0,2.785-4.336,29.124,29.124,0,0,0,1.128-5.323l.846-5.922H130.953V-14.4A4.6,4.6,0,0,1,126.3-9.817a4.935,4.935,0,0,1-3.419-1.3,4.229,4.229,0,0,1-1.445-3.278v-7.262h-4.794a4.388,4.388,0,0,1-3.314-1.41A4.388,4.388,0,0,1,111.917-26.386Zm59.255,10.717a4.558,4.558,0,0,1,1.375-3.349,4.558,4.558,0,0,1,3.349-1.375h35.393a4.74,4.74,0,0,1,3.384,1.34,4.74,4.74,0,0,1,1.34,3.384,4.558,4.558,0,0,1-1.375,3.349,4.558,4.558,0,0,1-3.349,1.375H175.9a4.388,4.388,0,0,1-3.314-1.41A4.388,4.388,0,0,1,171.172-15.669Zm59.184-21.645a4.809,4.809,0,0,1,3.384,1.3,4.51,4.51,0,0,1,1.481,3.278v3.314h29.612a4.74,4.74,0,0,1,3.384,1.34,4.74,4.74,0,0,1,1.34,3.384,4.558,4.558,0,0,1-1.375,3.349,4.558,4.558,0,0,1-3.349,1.375H235.221v4.23a25.433,25.433,0,0,0,.388,5.323A8.638,8.638,0,0,0,237.83-6.08a6.272,6.272,0,0,0,4.442,2.045h22.561a4.51,4.51,0,0,1,3.278,1.481,4.809,4.809,0,0,1,1.3,3.384,4.616,4.616,0,0,1-1.375,3.208,4.616,4.616,0,0,1-3.208,1.375H239.874a12.385,12.385,0,0,1-8.143-3.349,17.534,17.534,0,0,1-4.618-7.509,34.241,34.241,0,0,1-1.41-9.448V-32.731a4.552,4.552,0,0,1,1.41-3.208A4.744,4.744,0,0,1,230.356-37.314Zm15.125-3.117a4.9,4.9,0,0,1,1.481-3.6,4.9,4.9,0,0,1,3.6-1.481,4.9,4.9,0,0,1,3.6,1.481,4.9,4.9,0,0,1,1.481,3.6,4.9,4.9,0,0,1-1.481,3.6,4.9,4.9,0,0,1-3.6,1.481,4.9,4.9,0,0,1-3.6-1.481A4.9,4.9,0,0,1,245.481-40.431Zm14.2,0a4.9,4.9,0,0,1,1.481-3.6,4.9,4.9,0,0,1,3.6-1.481,4.9,4.9,0,0,1,3.6,1.481,4.9,4.9,0,0,1,1.481,3.6,4.9,4.9,0,0,1-1.481,3.6,4.9,4.9,0,0,1-3.6,1.481,4.9,4.9,0,0,1-3.6-1.481A4.9,4.9,0,0,1,259.686-40.431Zm19.208,8.969a4.557,4.557,0,0,1,1.375-3.349,4.558,4.558,0,0,1,3.349-1.375h35.393a4.74,4.74,0,0,1,3.384,1.34,4.74,4.74,0,0,1,1.34,3.384,4.866,4.866,0,0,1-.564,2.327l-9.73,16L325.71-1.5q2.75,3.173.07,6.486A5.159,5.159,0,0,1,322.5,6.611a3.923,3.923,0,0,1-3.349-1.2L307.942-5.164a35.143,35.143,0,0,1-6.2,6.2q-5.429,4.089-10.505,4.371H283.9a4.616,4.616,0,0,1-3.208-1.375A4.616,4.616,0,0,1,279.317.829a4.809,4.809,0,0,1,1.3-3.384A4.51,4.51,0,0,1,283.9-4.036h6.627A11.276,11.276,0,0,0,296.1-6.08a19.932,19.932,0,0,0,4.794-4.336,47.819,47.819,0,0,0,3.6-5.323l6.557-11H283.618a4.388,4.388,0,0,1-3.314-1.41A4.388,4.388,0,0,1,278.894-31.462Z" transform="translate(-3.75 51.5)" fill="#051a2b"/>
      <path id="パス_46254" data-name="パス 46254" d="M23.737-46.424a4.9,4.9,0,0,1,1.481-3.6,4.9,4.9,0,0,1,3.6-1.481,4.9,4.9,0,0,1,3.6,1.481,4.9,4.9,0,0,1,1.481,3.6,4.9,4.9,0,0,1-1.481,3.6,4.9,4.9,0,0,1-3.6,1.481,4.9,4.9,0,0,1-3.6-1.481A4.9,4.9,0,0,1,23.737-46.424Zm14.2,0a4.9,4.9,0,0,1,1.481-3.6,4.9,4.9,0,0,1,3.6-1.481,4.9,4.9,0,0,1,3.6,1.481,4.9,4.9,0,0,1,1.481,3.6,4.9,4.9,0,0,1-1.481,3.6,4.9,4.9,0,0,1-3.6,1.481,4.9,4.9,0,0,1-3.6-1.481A4.9,4.9,0,0,1,37.942-46.424ZM170.393-15.669a4.558,4.558,0,0,1,1.375-3.349,4.558,4.558,0,0,1,3.349-1.375H210.51a4.74,4.74,0,0,1,3.384,1.34,4.74,4.74,0,0,1,1.34,3.384,4.558,4.558,0,0,1-1.375,3.349,4.558,4.558,0,0,1-3.349,1.375H175.117a4.388,4.388,0,0,1-3.314-1.41A4.388,4.388,0,0,1,170.393-15.669ZM244.7-40.431a4.9,4.9,0,0,1,1.481-3.6,4.9,4.9,0,0,1,3.6-1.481,4.9,4.9,0,0,1,3.6,1.481,4.9,4.9,0,0,1,1.481,3.6,4.9,4.9,0,0,1-1.481,3.6,4.9,4.9,0,0,1-3.6,1.481,4.9,4.9,0,0,1-3.6-1.481A4.9,4.9,0,0,1,244.7-40.431Zm14.2,0a4.9,4.9,0,0,1,1.481-3.6,4.9,4.9,0,0,1,3.6-1.481,4.9,4.9,0,0,1,3.6,1.481,4.9,4.9,0,0,1,1.481,3.6,4.9,4.9,0,0,1-1.481,3.6,4.9,4.9,0,0,1-3.6,1.481,4.9,4.9,0,0,1-3.6-1.481A4.9,4.9,0,0,1,258.907-40.431Z" transform="translate(-2.972 51.5)" fill="#00b6f1" stroke="#00b6f1" stroke-width="1"/>
    </g>
  </g>
</svg>
