<svg xmlns="http://www.w3.org/2000/svg" width="282.935" height="194.683" viewBox="0 0 282.935 194.683">
  <g id="main_title_longterm" transform="translate(-283.095 -187.782)">
    <text id="求人特集" transform="translate(349.874 369.465)" fill="#051a2b" font-size="42" font-family="RoundedMplus1c-Medium, 'Rounded Mplus \31 c'" font-weight="500" letter-spacing="0.02em"><tspan x="0" y="0">求人特集</tspan></text>
    <g id="グループ_7488" data-name="グループ 7488" transform="translate(282 187.782)">
      <path id="パス_46500" data-name="パス 46500" d="M-94.278,23.33h14.333c.372,0,.558.186.558.62v5.336c0,.434-.186.62-.558.62H-94.278c-.434,0-.62-.186-.62-.62V23.951C-94.9,23.516-94.713,23.33-94.278,23.33Zm-30.528,13.278A7.346,7.346,0,0,0-124,40.083l.124.248a3.112,3.112,0,0,0,2.482,1.861,1.377,1.377,0,0,0,.558.062,2.979,2.979,0,0,0,2.3-1.055c0-.062.062-.124.186-.124.062,0,.124.062.124.248v26a4.548,4.548,0,0,0,1.241,3.04,4.548,4.548,0,0,0,3.04,1.241,4.216,4.216,0,0,0,3.04-1.241,4.548,4.548,0,0,0,1.241-3.04V63.041c0-.124.062-.186.186-.248a.189.189,0,0,1,.248,0c1.055,1.055,1.923,1.923,2.482,2.606a5.831,5.831,0,0,0,3.661,1.986,2.141,2.141,0,0,0,.745.062,4.447,4.447,0,0,0,2.978-1.117,34.536,34.536,0,0,0,3.723-3.6c.993-1.117,2.11-2.482,3.351-4.157.062-.062.186-.124.248-.062s.124.124.124.186V67.26a4.139,4.139,0,0,0,1.365,3.164,4.139,4.139,0,0,0,3.164,1.365,4.139,4.139,0,0,0,3.164-1.365,4.139,4.139,0,0,0,1.365-3.164V58.325l.124-.186c.062-.062.186,0,.248.062a53.535,53.535,0,0,0,6.825,8.377,4.254,4.254,0,0,0,2.854,1.117l.558-.062a4.712,4.712,0,0,0,3.164-1.675,3.994,3.994,0,0,0,1.117-2.792v-.434a4.213,4.213,0,0,0-1.613-2.916,41.592,41.592,0,0,1-8.749-9c-.062-.062-.062-.124-.062-.31a.341.341,0,0,1,.31-.186h6.453a3.883,3.883,0,0,0,2.916-1.179,4.042,4.042,0,0,0,1.179-2.854,4.184,4.184,0,0,0-1.179-2.916,4.184,4.184,0,0,0-2.916-1.179H-82.3c-.372,0-.558-.186-.558-.62V38.408c0-.434.186-.62.558-.62h6.7a5.064,5.064,0,0,0,3.723-1.551,5.064,5.064,0,0,0,1.551-3.723V20.662a5.064,5.064,0,0,0-1.551-3.723A5.254,5.254,0,0,0-75.6,15.45H-98.125a5.051,5.051,0,0,0-3.723,1.489,5.064,5.064,0,0,0-1.551,3.723V32.513a5.064,5.064,0,0,0,1.551,3.723,4.874,4.874,0,0,0,3.723,1.551h5.584c.434,0,.62.186.62.62v3.164c0,.434-.186.62-.62.62h-10.61a4.184,4.184,0,0,0-2.916,1.179,3.883,3.883,0,0,0-1.179,2.916,3.841,3.841,0,0,0,1.179,2.854,3.883,3.883,0,0,0,2.916,1.179H-96.7c.124,0,.186.062.248.186a.277.277,0,0,1,0,.31,39.772,39.772,0,0,1-12.658,11.169.233.233,0,0,1-.372,0,.332.332,0,0,1-.186-.248V28.17a3.034,3.034,0,0,1,.31-1.179c1.365-2.606,2.544-5.026,3.537-7.2a4.247,4.247,0,0,0,.31-1.675,3.821,3.821,0,0,0-.372-1.613,3.993,3.993,0,0,0-2.42-2.172,3.754,3.754,0,0,0-1.489-.248,4.658,4.658,0,0,0-1.923.5,4.966,4.966,0,0,0-2.42,2.482,63.324,63.324,0,0,1-8.935,14.519,8.454,8.454,0,0,0-1.675,4.157A3.3,3.3,0,0,0-124.806,36.608ZM-11.444,24.7v.434c0,.434-.186.62-.62.62h-1.427c-.372,0-.558-.186-.558-.62V24.7c0-.434.186-.62.558-.62h1.427C-11.63,24.075-11.444,24.261-11.444,24.7ZM-59.966,35.988a10.789,10.789,0,0,0,.683,3.537l.558,1.551a2.08,2.08,0,0,0,1.613,1.3c.062.062.186.062.372.062a1.6,1.6,0,0,0,1.489-.869h.124A.133.133,0,0,1-55,41.7V67.819a3.747,3.747,0,0,0,1.117,2.73,3.615,3.615,0,0,0,2.792,1.179A3.8,3.8,0,0,0-48.3,70.549a3.747,3.747,0,0,0,1.117-2.73V66.7c0-.186.062-.248.124-.248.124-.062.186,0,.248.062l.62.745A5.038,5.038,0,0,0-42.9,69.308l.62.062a3.5,3.5,0,0,0,2.73-1.3,12.972,12.972,0,0,0,1.427-1.8.607.607,0,0,1,.869-.124,19.1,19.1,0,0,0,7.88,3.847,44.908,44.908,0,0,0,10.61,1.117H-7.6a4.87,4.87,0,0,0,3.289-1.179A6.05,6.05,0,0,0-2.2,67.012a3.442,3.442,0,0,0,.186-1.055,2.679,2.679,0,0,0-.558-1.613,2.393,2.393,0,0,0-2.172-1.179H-4.8c-2.11.062-6.577.062-13.464.062a42.55,42.55,0,0,1-8.749-.993A16.571,16.571,0,0,1-33.6,58.884a.9.9,0,0,1-.248-.993c1.923-5.212,3.289-11.975,3.971-20.352a2.393,2.393,0,0,0-.62-1.737,2.346,2.346,0,0,0-1.613-.993l-.372-.062a29.236,29.236,0,0,0-3.971-.186c-.124,0-.186-.062-.186-.248,1.675-4.1,3.351-8.314,4.9-12.72a2.49,2.49,0,0,0,.186-.931,2.207,2.207,0,0,0-.31-1.179,2.9,2.9,0,0,0-1.675-1.365l-1.675-.372a4.622,4.622,0,0,0-1.117-.124,4.622,4.622,0,0,0-1.117.124H-43.4c-.186,0-.186-.062-.124-.248a1.958,1.958,0,0,0-.124-1.675,1.988,1.988,0,0,0-1.3-1.055l-1.923-.62a3.613,3.613,0,0,0-1.179-.186,4.2,4.2,0,0,0-1.986.558,3.993,3.993,0,0,0-2.048,2.42,72.889,72.889,0,0,1-6.267,13.527A10.691,10.691,0,0,0-59.9,34.871Zm12.782,27.549V48.522l.062-.062c.062,0,.062,0,.062.062a54.054,54.054,0,0,0,3.785,10.114,1.11,1.11,0,0,1-.062.993,19.412,19.412,0,0,1-3.413,4.157.189.189,0,0,1-.248,0A.332.332,0,0,1-47.184,63.537Zm0-18.18V42.379A.375.375,0,0,1-47,42.007a.525.525,0,0,1,.372-.124l4.033.931a2.548,2.548,0,0,0,1.861-.248A2.963,2.963,0,0,0-39.49,41.2a.449.449,0,0,1,.372-.248h.807a.563.563,0,0,1,.434.186.525.525,0,0,1,.124.372,54.977,54.977,0,0,1-1.427,7.632c0,.124-.062.186-.124.186a.322.322,0,0,1-.248-.124A5.277,5.277,0,0,0-42.1,46.1a5.113,5.113,0,0,0-2.42-.683,5.534,5.534,0,0,0-1.365.186l-.745.248A.525.525,0,0,1-47,45.73.375.375,0,0,1-47.184,45.357Zm0-5.46V27.487a3.329,3.329,0,0,1,.248-1.179c.62-1.427,1.241-2.978,1.861-4.592h.124v.062a3.01,3.01,0,0,0,.931,2.172,3.01,3.01,0,0,0,2.172.931h.558a.47.47,0,0,1,.248.124c.062.062.062.124.062.31-2.358,6.143-4.343,10.983-5.957,14.643,0,.062-.062.124-.124.062A.133.133,0,0,1-47.184,39.9ZM-33.1,28.914a3.087,3.087,0,0,0,.931,2.3,3.087,3.087,0,0,0,2.3.931H-22.8c.434,0,.62.186.62.62v.62c0,.372-.186.558-.62.558h-3.227a3.046,3.046,0,0,0-2.234.931,3.292,3.292,0,0,0-.931,2.3,3.046,3.046,0,0,0,.931,2.234,3.046,3.046,0,0,0,2.234.931H-22.8c.434,0,.62.186.62.62v.62c0,.434-.186.62-.62.62h-3.847a3.046,3.046,0,0,0-2.234.931,3.046,3.046,0,0,0-.931,2.234,3.4,3.4,0,0,0,.931,2.3,3.046,3.046,0,0,0,2.234.931H-22.8c.434,0,.62.186.62.558v.869c0,.434-.186.62-.62.62h-5.15a3.087,3.087,0,0,0-2.3.931,3.087,3.087,0,0,0-.931,2.3,3.046,3.046,0,0,0,.931,2.234,3.087,3.087,0,0,0,2.3.931h5.274a.457.457,0,0,1,.5.5v.248A3.883,3.883,0,0,0-21,60.683a4.184,4.184,0,0,0,2.916,1.179,4.042,4.042,0,0,0,2.854-1.179,4.184,4.184,0,0,0,1.179-2.916v-.248a.457.457,0,0,1,.5-.5h7.942a3.087,3.087,0,0,0,2.3-.931,3.046,3.046,0,0,0,.931-2.234,3.087,3.087,0,0,0-.931-2.3,3.087,3.087,0,0,0-2.3-.931h-7.88c-.372,0-.558-.186-.558-.62v-.869a.494.494,0,0,1,.558-.558h6.515a3.046,3.046,0,0,0,2.234-.931,3.4,3.4,0,0,0,.931-2.3,3.046,3.046,0,0,0-.931-2.234,3.046,3.046,0,0,0-2.234-.931h-6.515c-.372,0-.558-.186-.558-.62v-.62c0-.434.186-.62.558-.62H-9.21A5.064,5.064,0,0,0-5.487,38.78a5.267,5.267,0,0,0,1.551-3.723V32.451a.293.293,0,0,1,.31-.31A2.125,2.125,0,0,0-1.951,31.4a2.125,2.125,0,0,0,.745-1.675V28.232a2.485,2.485,0,0,0-.745-1.8,2.291,2.291,0,0,0-1.675-.683c-.186,0-.31-.062-.31-.248V22.958a5.064,5.064,0,0,0-1.551-3.723A5.063,5.063,0,0,0-9.21,17.684h-4.405c-.31,0-.434-.124-.434-.434a3.8,3.8,0,0,0-1.179-2.792,3.8,3.8,0,0,0-2.792-1.179h-.186A3.8,3.8,0,0,0-21,14.457a3.615,3.615,0,0,0-1.179,2.792c0,.31-.124.434-.434.434h-3.413a3.046,3.046,0,0,0-2.234.931,3.046,3.046,0,0,0-.931,2.234,3.087,3.087,0,0,0,.931,2.3,3.046,3.046,0,0,0,2.234.931H-22.8c.434,0,.62.186.62.62v.434c0,.434-.186.62-.62.62h-7.073a3.087,3.087,0,0,0-2.3.931A3.046,3.046,0,0,0-33.1,28.914Zm19.049,4.467v-.62c0-.434.186-.62.558-.62h1.427c.434,0,.62.186.62.62v.62c0,.372-.186.558-.62.558h-1.427A.494.494,0,0,1-14.05,33.382ZM31,43.744V41.138a5.064,5.064,0,0,0-1.551-3.723,4.874,4.874,0,0,0-3.723-1.551H20.635a.563.563,0,0,1-.434-.186c-.186-.186-.186-.31-.124-.434L20.2,30.9c0-.434.186-.62.62-.62h8.625v.062c-.186.186-.124.372.062.62A42.227,42.227,0,0,1,34.6,35.74a1.278,1.278,0,0,1,.434,1.055v4.964a.936.936,0,0,1-.558.869l-3.04,1.365c-.124.124-.248.124-.31,0C31,43.93,30.935,43.806,31,43.744ZM6.116,26.122a4.038,4.038,0,0,0,1.241,2.916,4.038,4.038,0,0,0,2.916,1.241h.807c.434,0,.62.186.62.62a179.362,179.362,0,0,1-.993,17.932,41.269,41.269,0,0,1-3.289,12.6A5.08,5.08,0,0,0,6.8,63.91c0,.186.062.558.124,1.055a5.705,5.705,0,0,0,1.613,3.289A3.636,3.636,0,0,0,11.2,69.432h.186a2.905,2.905,0,0,0,2.42-1.551c2.916-5.646,4.84-13.4,5.708-23.33a.626.626,0,0,1,.683-.558h2.048c.434,0,.62.186.62.62C22.745,51,22.62,55.6,22.5,58.263a16.32,16.32,0,0,1-.745,4.84,1.788,1.788,0,0,1-1.365.993,2.237,2.237,0,0,0-1.241.372,2.54,2.54,0,0,0-.931.869,3.15,3.15,0,0,0-.558,1.117,2.98,2.98,0,0,0,.062,1.3,5.675,5.675,0,0,0,1.737,2.978,4.156,4.156,0,0,0,2.668,1.055H22.5l2.172-.372a6.169,6.169,0,0,0,2.42-.931,5.957,5.957,0,0,0,1.861-2.048c.683-.931,1.117-2.854,1.365-5.895s.434-8.128.558-15.264A.133.133,0,0,1,31,47.157c.062-.062.124,0,.124.062l1.3,3.227a1.6,1.6,0,0,0,1.055.931,1.738,1.738,0,0,0,1.365,0c.124-.124.186-.062.186.124v9.742c0,4.1.683,6.887,2.11,8.314,1.365,1.427,4.1,2.172,8.128,2.172h9.866a10.343,10.343,0,0,0,6.081-1.489c1.365-.993,2.358-2.73,2.978-5.274l.124-.869a4.035,4.035,0,0,0-.683-2.11,5.578,5.578,0,0,0-2.544-2.11,3.321,3.321,0,0,0-1.117-.248,2.606,2.606,0,0,0-1.3.372,2.977,2.977,0,0,0-1.551,1.986,3.242,3.242,0,0,1-.869,1.8,3.165,3.165,0,0,1-1.861.5H46.261a5.088,5.088,0,0,1-2.73-.5c-.372-.31-.558-1.179-.558-2.544V48.211a.878.878,0,0,1,.558-.869l.807-.434a.4.4,0,0,1,.372,0,.536.536,0,0,1,.186.372v8.935a3.608,3.608,0,0,0,1.117,2.668,3.554,3.554,0,0,0,2.606,1.055,3.608,3.608,0,0,0,3.723-3.723V43.868A.828.828,0,0,1,52.9,43l1.3-.62a.273.273,0,0,1,.31.062.287.287,0,0,1,.186.31c0,4.592,0,6.949-.062,7.136,0,.372-.062.62-.248.683C53.583,51,53.148,51.5,53.148,52c0,.124,0,.186.062.248l.372,1.489a4.794,4.794,0,0,0,1.365,2.42,2.8,2.8,0,0,0,1.923.683h.5a9.336,9.336,0,0,0,2.11-.745c1.675-.869,2.544-2.482,2.606-4.778.062-.869.124-6.267.124-16.133v-.248a1.423,1.423,0,0,0-.062-.869.853.853,0,0,0-.62-.5l-1.8-.62a4.692,4.692,0,0,0-1.8-.31,7.988,7.988,0,0,0-3.475.869l-1.675.745c-.062.062-.062.062-.124.062s-.062,0-.124-.062a.341.341,0,0,1-.186-.31V33.2a3.554,3.554,0,0,0-1.055-2.606,3.608,3.608,0,0,0-2.668-1.117A3.817,3.817,0,0,0,44.9,33.2v4.1a.936.936,0,0,1-.558.869l-.869.434c-.186,0-.31,0-.372-.062a.47.47,0,0,1-.124-.248v-.62a3.8,3.8,0,0,0-1.179-2.792,3.747,3.747,0,0,0-2.73-1.117c-.124,0-.186-.062-.186-.124-.062-.124,0-.186.062-.186a46.067,46.067,0,0,0,2.668-4.53,1.178,1.178,0,0,1,.931-.5H59.415a4.025,4.025,0,0,0,4.033-4.033,3.883,3.883,0,0,0-1.179-2.916,3.841,3.841,0,0,0-2.854-1.179H45.951a.375.375,0,0,1-.372-.186c-.062-.186-.124-.31-.062-.372l.248-.807a3.612,3.612,0,0,0,.186-1.179,3.992,3.992,0,0,0-.62-2.172,4.228,4.228,0,0,0-2.792-1.923l-.931-.062a4.789,4.789,0,0,0-2.482.745,5.623,5.623,0,0,0-2.172,2.854A34.067,34.067,0,0,1,32.92,26c0,.062-.062.062-.124.062a.133.133,0,0,1-.124-.124,3.8,3.8,0,0,0-1.179-2.792,3.841,3.841,0,0,0-2.854-1.179H24.234c-.434,0-.62-.186-.62-.62v-4.1a4.343,4.343,0,0,0-4.281-4.343,4.27,4.27,0,0,0-3.1,1.3,4.216,4.216,0,0,0-1.241,3.04v4.1c0,.434-.186.62-.62.62h-4.1a4.038,4.038,0,0,0-2.916,1.241A4.038,4.038,0,0,0,6.116,26.122ZM90.5,14.643h-12.6a3.051,3.051,0,0,0-2.358.993,3.3,3.3,0,0,0,0,4.716,3.051,3.051,0,0,0,2.358.993H90.5a3.051,3.051,0,0,0,2.358-.993,3.3,3.3,0,0,0,0-4.716A3.051,3.051,0,0,0,90.5,14.643ZM71.328,26.619A3.478,3.478,0,0,0,72.383,29.1a3.144,3.144,0,0,0,2.42,1.055h17.87a3.51,3.51,0,0,0,2.482-6.019,3.32,3.32,0,0,0-2.482-.993H74.8a3.094,3.094,0,0,0-2.42.993A3.478,3.478,0,0,0,71.328,26.619ZM74.12,67.074a3.814,3.814,0,0,0,3.785,3.785h1.8a2.071,2.071,0,0,0,1.427-.558,1.966,1.966,0,0,0,.558-1.427c0-.186.062-.248.186-.248h7.942a3.657,3.657,0,0,0,2.854-1.179,3.841,3.841,0,0,0,1.179-2.854.133.133,0,0,1,.124-.124.228.228,0,0,1,.186.062A23.807,23.807,0,0,1,95.9,67.074a6.851,6.851,0,0,0,3.289,2.792,4.6,4.6,0,0,0,2.11.5,4.074,4.074,0,0,0,1.986-.434,42.029,42.029,0,0,0,8.128-4.219.842.842,0,0,1,.993.062,39.727,39.727,0,0,0,7.942,4.281,4.586,4.586,0,0,0,2.11.434,5.5,5.5,0,0,0,1.861-.372,7.6,7.6,0,0,0,3.289-2.482,2.981,2.981,0,0,0,.62-1.923,3.888,3.888,0,0,0-.124-.993,3.08,3.08,0,0,0-1.986-2.11,43.547,43.547,0,0,1-6.763-3.04c-.434-.124-.434-.372-.124-.683A41.411,41.411,0,0,0,126.985,44.3c.062-.434.124-.745.124-.931a3.3,3.3,0,0,0-.372-1.489,3.383,3.383,0,0,0-1.861-1.613l-1.675-.558a6.033,6.033,0,0,0-1.675-.31l-1.055.062c-.062.062-.124.062-.248.062H101.856c-.124,0-.186-.062-.186-.124a.273.273,0,0,1,.062-.31c3.909-3.537,6.019-8.873,6.2-16.07,0-.434.186-.62.62-.62h3.6c.372,0,.558.186.558.62v4.84c0,3.6.5,6.081,1.551,7.446s2.978,2.048,5.77,2.048h3.289a6.541,6.541,0,0,0,4.467-1.427,9.505,9.505,0,0,0,2.3-4.964,5.161,5.161,0,0,0,.124-.807,3.718,3.718,0,0,0-.745-2.234,5.732,5.732,0,0,0-2.606-2.11,3.514,3.514,0,0,0-1.117-.186,2.461,2.461,0,0,0-1.241.248,2.625,2.625,0,0,0-1.3,1.986c-.124,1.3-.372,1.923-.807,1.923h-.683a.467.467,0,0,1-.434-.31,9.954,9.954,0,0,1-.124-1.737V19.793A4.874,4.874,0,0,0,119.6,16.07a4.874,4.874,0,0,0-3.723-1.551H104.71a5.1,5.1,0,0,0-3.785,1.551,5.051,5.051,0,0,0-1.489,3.723V21.9a21.181,21.181,0,0,1-1.055,6.763,11,11,0,0,1-4.219,5.4h-.124l-.062-.124a2.036,2.036,0,0,0-.558-1.365,1.966,1.966,0,0,0-1.427-.558H77.719a3.39,3.39,0,0,0-3.351,3.351,3.39,3.39,0,0,0,3.351,3.351H90.5a3.478,3.478,0,0,0,2.482-1.055,3.143,3.143,0,0,0,.993-2.358.322.322,0,0,1,.124-.248c.062-.062.124,0,.248.062a31.982,31.982,0,0,1,5.088,4.219l-.062.124-.062.062a2.253,2.253,0,0,0-1.613.683,2.222,2.222,0,0,0-.683,1.551v1.8A4.042,4.042,0,0,0,98.2,46.412a3.841,3.841,0,0,0,2.854,1.179h4.9a.133.133,0,0,1,.124.124c0,.062,0,.062-.062.062l-2.172.683A4.138,4.138,0,0,0,101.111,51a4.915,4.915,0,0,0-.31,1.489,3.642,3.642,0,0,0,.745,2.11,32.713,32.713,0,0,0,3.1,4.157.439.439,0,0,1-.124.745A44.142,44.142,0,0,1,94.41,63.6c-.124.062-.248,0-.372-.124a.375.375,0,0,1-.186-.372V54.6a5.3,5.3,0,0,0-5.274-5.274H79.395A5.3,5.3,0,0,0,74.12,54.6Zm.248-23.144a3.143,3.143,0,0,0,.993,2.358,3.051,3.051,0,0,0,2.358.993H90.625a3.051,3.051,0,0,0,2.358-.993,3.3,3.3,0,0,0,0-4.716,3.051,3.051,0,0,0-2.358-.993H77.719a3.051,3.051,0,0,0-2.358.993A3.143,3.143,0,0,0,74.369,43.93ZM81.69,60.993V56.9c0-.372.186-.558.62-.558h3.227c.434,0,.62.186.62.558v4.1c0,.434-.186.62-.62.62H82.311C81.876,61.614,81.69,61.428,81.69,60.993Zm25.44-12.844a.4.4,0,0,1,0-.372.332.332,0,0,1,.248-.186h8.128a.287.287,0,0,1,.31.186.4.4,0,0,1,0,.372,25.576,25.576,0,0,1-3.723,5.336.522.522,0,0,1-.869,0A33.865,33.865,0,0,1,107.13,48.149Z" transform="translate(153.818 55.717)" fill="#051a2b"/>
      <path id="パス_46501" data-name="パス 46501" d="M-104.587-48.222a54.464,54.464,0,0,1-7.88,9.059,59.247,59.247,0,0,1-9.99,7.508,3.33,3.33,0,0,0-1.8,2.544,2.8,2.8,0,0,0-.062.807,3.9,3.9,0,0,0,.745,2.3,5.764,5.764,0,0,0,3.04,2.172,4.724,4.724,0,0,0,1.3.186,4.856,4.856,0,0,0,2.3-.683c1.8-1.055,3.289-2.048,4.53-2.916a.273.273,0,0,1,.31-.062.287.287,0,0,1,.186.31v5.336a34.313,34.313,0,0,1-.248,4.716,33.676,33.676,0,0,1-.993,4.716,19.661,19.661,0,0,1-2.3,5.026,20.053,20.053,0,0,1-4.033,4.592A3.761,3.761,0,0,0-120.843.362a3.761,3.761,0,0,0,1.365,2.978,6.7,6.7,0,0,0,3.785,1.613h.5a4.87,4.87,0,0,0,3.289-1.179,25.88,25.88,0,0,0,4.964-5.957,23,23,0,0,0,2.854-6.7,39.57,39.57,0,0,0,1.179-6.267,55.942,55.942,0,0,0,.31-6.267v-1.861A5.064,5.064,0,0,0-104.152-27a5.064,5.064,0,0,0-3.723-1.551h-2.172c-.124,0-.186-.062-.186-.124v-.186A55.5,55.5,0,0,0-97.079-42.638a.567.567,0,0,1,.31-.186.287.287,0,0,1,.31.186A57.329,57.329,0,0,0-83.552-29.3c.062.062.124.186.062.248,0,.062-.062.124-.186.124h-1.986a5.051,5.051,0,0,0-3.723,1.489,5.1,5.1,0,0,0-1.551,3.785V2.1A4.541,4.541,0,0,0-89.571,5.45,4.743,4.743,0,0,0-86.22,6.815,4.743,4.743,0,0,0-82.87,5.45,4.541,4.541,0,0,0-81.5,2.1V-27.188a.287.287,0,0,1,.186-.31l.31.062c1.613,1.117,3.04,2.048,4.343,2.854a6.017,6.017,0,0,0,2.544.683,6.014,6.014,0,0,0,1.427-.186,6.1,6.1,0,0,0,3.351-2.358,4.886,4.886,0,0,0,.683-2.358,3.889,3.889,0,0,0-.124-.993,3.85,3.85,0,0,0-2.11-2.668A50.479,50.479,0,0,1-89.571-48.284a10.073,10.073,0,0,0-3.289-2.978,8.82,8.82,0,0,0-4.281-1.117,8.361,8.361,0,0,0-4.157,1.117A10.363,10.363,0,0,0-104.587-48.222Zm87.116,5.708v.869c0,.248-.124.31-.31.248l-.434-.062a2.525,2.525,0,0,0-1.489.5,2.9,2.9,0,0,0-1.365,1.613l-.434,1.055a.494.494,0,0,1-.558.434h-5.15c-.248,0-.31-.062-.186-.248l.62-1.489q.186-.372,0-.558a.51.51,0,0,0-.31-.31h1.117a2.8,2.8,0,0,0,1.737-.683,2.775,2.775,0,0,0,.683-1.675c0-.186.062-.31.248-.31h5.212C-17.657-43.134-17.471-42.948-17.471-42.513Zm-42.751,4.157a3.478,3.478,0,0,0,1.055,2.482,3.144,3.144,0,0,0,2.42,1.055h14.023a3.478,3.478,0,0,0,2.482-1.055,3.32,3.32,0,0,0,.993-2.482,3.32,3.32,0,0,0-.993-2.482,3.32,3.32,0,0,0-2.482-.993H-56.748a3.094,3.094,0,0,0-2.42.993A3.478,3.478,0,0,0-60.222-38.356Zm2.358,40.766a3.34,3.34,0,0,0,1.055,2.42,2.967,2.967,0,0,0,2.42,1.055h1.365a1.839,1.839,0,0,0,1.489-.62,2.017,2.017,0,0,0,.62-1.489c0-.186.062-.248.248-.248H-46.2a5.064,5.064,0,0,0,3.723-1.551,5.064,5.064,0,0,0,1.551-3.723v-8.625A5.064,5.064,0,0,0-42.476-14.1,5.267,5.267,0,0,0-46.2-15.647H-52.59A5.064,5.064,0,0,0-56.313-14.1a5.267,5.267,0,0,0-1.551,3.723Zm.248-23.454a3.451,3.451,0,0,0,.993,2.358,3.051,3.051,0,0,0,2.358.993h10.114a3.051,3.051,0,0,0,2.358-.993,3.143,3.143,0,0,0,.993-2.358,3.143,3.143,0,0,0-.993-2.358,3.051,3.051,0,0,0-2.358-.993H-54.266a3.051,3.051,0,0,0-2.358.993A3.451,3.451,0,0,0-57.616-21.045Zm0-8.563a3.451,3.451,0,0,0,.993,2.358,3.143,3.143,0,0,0,2.358.993h9.8a4,4,0,0,0,2.606-1.055A3.514,3.514,0,0,0-40.8-29.856l.124-.186c.062-.062.124-.062.248,0a41.914,41.914,0,0,1,3.971,3.351,1.028,1.028,0,0,0,.745.31,1.72,1.72,0,0,0,.745-.31c0-.062,0-.062.062,0v6.515a4.874,4.874,0,0,0,1.551,3.723A4.874,4.874,0,0,0-29.632-14.9H-5.123A2.4,2.4,0,0,0-3.2-15.709a2.36,2.36,0,0,0,.807-1.861A2.4,2.4,0,0,0-3.2-19.494,2.4,2.4,0,0,0-5.123-20.3h-8.625c-.372,0-.558-.186-.558-.62v-.124a.494.494,0,0,1,.558-.558H-7.3a2.227,2.227,0,0,0,1.489-.62,2.017,2.017,0,0,0,.62-1.489,2.017,2.017,0,0,0-.62-1.489,2.227,2.227,0,0,0-1.489-.62h-6.453a.494.494,0,0,1-.558-.558v-.062c0-.434.186-.62.558-.62H-7.3a2.017,2.017,0,0,0,1.489-.62,1.839,1.839,0,0,0,.62-1.489,2.017,2.017,0,0,0-.62-1.489,2.227,2.227,0,0,0-1.489-.62h-6.453a.494.494,0,0,1-.558-.558c0-.434.186-.62.558-.62h7.136a2.544,2.544,0,0,0,1.861-.807,2.58,2.58,0,0,0,.807-1.923,2.544,2.544,0,0,0-.807-1.861,2.544,2.544,0,0,0-1.861-.807H-13a.341.341,0,0,1-.31-.186.4.4,0,0,1,0-.372l.31-.558.372-.62a1.915,1.915,0,0,1,.31-.62c.062-.186.186-.248.434-.248h.062a2.775,2.775,0,0,0,1.675-.683,2.775,2.775,0,0,0,.683-1.675.293.293,0,0,1,.31-.31h3.785a2.858,2.858,0,0,0,2.234-.931,2.816,2.816,0,0,0,.931-2.172,3.046,3.046,0,0,0-.931-2.234A2.858,2.858,0,0,0-5.372-49.4H-9.157c-.186,0-.31-.062-.31-.248a2.485,2.485,0,0,0-.745-1.8,2.348,2.348,0,0,0-1.737-.745h-3.04a2.253,2.253,0,0,0-1.737.745,2.485,2.485,0,0,0-.745,1.8c0,.186-.124.248-.31.248h-5.46c-.186,0-.31-.062-.31-.248a2.485,2.485,0,0,0-.745-1.8,2.209,2.209,0,0,0-1.8-.745h-2.916a2.348,2.348,0,0,0-1.737.745,2.485,2.485,0,0,0-.745,1.8c0,.186-.124.248-.31.248h-3.6a2.858,2.858,0,0,0-2.234.931,3.046,3.046,0,0,0-.931,2.234,2.816,2.816,0,0,0,.931,2.172,2.858,2.858,0,0,0,2.234.931h3.351c.372,0,.558.186.558.62v.745c0,.124-.062.186-.248.124a1.783,1.783,0,0,0-1.365.186A1.854,1.854,0,0,0-34.1-40.4a26.348,26.348,0,0,1-6.515,9.183l-.124.062c-.062,0-.062-.062-.062-.124a2.11,2.11,0,0,0-.5-1.179,2.111,2.111,0,0,0-1.179-.5H-54.266a3.051,3.051,0,0,0-2.358.993A3.143,3.143,0,0,0-57.616-29.607Zm.372-17.373a3.143,3.143,0,0,0,.993,2.358,3.051,3.051,0,0,0,2.358.993h9.555a3.051,3.051,0,0,0,2.358-.993,3.143,3.143,0,0,0,.993-2.358,3.143,3.143,0,0,0-.993-2.358,3.051,3.051,0,0,0-2.358-.993h-9.555a3.051,3.051,0,0,0-2.358.993A3.143,3.143,0,0,0-57.244-46.981Zm6.329,42.937v-4.1c0-.372.186-.558.62-.558h1.613c.434,0,.62.186.62.558v4.1c0,.434-.186.62-.62.62h-1.613C-50.729-3.423-50.915-3.609-50.915-4.044Zm11.789,6.267a3.052,3.052,0,0,0,.31,1.241,5.86,5.86,0,0,0,2.234,2.358,4.051,4.051,0,0,0,2.234.62,2.8,2.8,0,0,0,.807-.062,71.809,71.809,0,0,0,11.851-3.1,1.91,1.91,0,0,1,1.179,0A60.918,60.918,0,0,0-10.335,6.07a7.921,7.921,0,0,0,1.055.124,5.385,5.385,0,0,0,2.606-.62A8.834,8.834,0,0,0-3.758,3.03a2.234,2.234,0,0,0,.434-1.365A2.81,2.81,0,0,0-3.51.672,2.166,2.166,0,0,0-5.372-.755q-2.978-.372-5.77-.931-.186-.093-.186-.186a.365.365,0,0,1,.124-.31A25.206,25.206,0,0,0-4.751-8.821a2.234,2.234,0,0,0,.434-1.365l-.062-.683a2.929,2.929,0,0,0-1.427-1.675l-1.365-.683A3.821,3.821,0,0,0-8.784-13.6a2.431,2.431,0,0,0-.807.124H-34.658a3.046,3.046,0,0,0-2.234.931,3.046,3.046,0,0,0-.931,2.234,2.816,2.816,0,0,0,.931,2.172,3.046,3.046,0,0,0,2.234.931h5.274a.133.133,0,0,1,.124.124c0,.062,0,.062-.062.062a3.2,3.2,0,0,0-1.986,2.358l-.062.62a2.433,2.433,0,0,0,1.179,2.11l.062.062c.186.062.186.186.124.31a.165.165,0,0,1-.186.186A65.3,65.3,0,0,1-37.078-.2a2.259,2.259,0,0,0-1.8,1.365A3.375,3.375,0,0,0-39.126,2.223Zm12.037-23.144v-.124a.494.494,0,0,1,.558-.558h3.847c.434,0,.62.186.62.558v.124c0,.434-.186.62-.62.62H-26.53C-26.9-20.3-27.089-20.486-27.089-20.921Zm0-5.46v-.062c0-.434.186-.62.558-.62h3.847c.434,0,.62.186.62.62v.062c0,.372-.186.558-.62.558H-26.53A.494.494,0,0,1-27.089-26.381Zm0-5.46c0-.434.186-.62.558-.62h3.909c.372,0,.558.186.558.62a.494.494,0,0,1-.558.558H-26.53A.494.494,0,0,1-27.089-31.841Zm1.861,24.757c.062-.062.124-.124.186-.124h8.377a.133.133,0,0,1,.124.124c0,.124,0,.186-.062.248-1.551.993-2.792,1.675-3.6,2.11a1.187,1.187,0,0,1-1.117,0,26.78,26.78,0,0,1-3.847-2.11C-25.227-6.96-25.289-7.022-25.227-7.084ZM35.456-38.356H42.53c.124,0,.186.062.248.186.062.062.062.124-.062.248-1.241,1.241-2.668,2.544-4.219,3.909a1.361,1.361,0,0,1-1.055.434H35.456c-.434,0-.62-.186-.62-.558v-3.6C34.836-38.17,35.022-38.356,35.456-38.356Zm-28.914,9a4.075,4.075,0,0,0,1.241,2.978A3.883,3.883,0,0,0,10.7-25.2H26.211c.124,0,.186.062.186.124a.228.228,0,0,1-.062.186A98.826,98.826,0,0,1,9.272-16.081a2.884,2.884,0,0,0-2.048,2.3,2.876,2.876,0,0,0-.124.869,2.949,2.949,0,0,0,.807,2.172,6.689,6.689,0,0,0,3.413,2.358,7.191,7.191,0,0,0,1.737.248,7.3,7.3,0,0,0,2.358-.5c2.916-1.365,4.9-2.358,5.957-2.916a.4.4,0,0,1,.372,0,.287.287,0,0,1,.186.31v5.026c0,4.157.931,6.949,2.792,8.439,1.923,1.551,5.522,2.3,10.858,2.3H48.8c4.281,0,7.322-.807,9.121-2.482a10.611,10.611,0,0,0,2.606-5.026,4.583,4.583,0,0,0,.186-1.179A4,4,0,0,0,59.965-6.4a5.89,5.89,0,0,0-2.978-2.3,2.461,2.461,0,0,0-1.241-.248,3.158,3.158,0,0,0-1.613.434,3.649,3.649,0,0,0-1.861,2.3,6.339,6.339,0,0,1-.5,1.427c-.62.869-1.861,1.3-3.661,1.3H36.387a10.891,10.891,0,0,1-4.157-.5c-.62-.248-.931-.993-.931-2.3V-7.953a.633.633,0,0,1,.62-.683,200.355,200.355,0,0,0,20.786-5.4A2.677,2.677,0,0,0,54.567-16.2a2.111,2.111,0,0,0,.062-.62,2.687,2.687,0,0,0-.931-2.11,8.514,8.514,0,0,0-3.971-1.923c-.683-.062-1.117-.124-1.365-.124a8.431,8.431,0,0,0-2.978.558,132.945,132.945,0,0,1-13.464,4.157c-.186,0-.372,0-.434-.062A.536.536,0,0,1,31.3-16.7v-.124a1.021,1.021,0,0,1,.5-.931q5.026-3.351,9.68-7.073A1.685,1.685,0,0,1,42.53-25.2H59.407a3.883,3.883,0,0,0,2.916-1.179,4.075,4.075,0,0,0,1.241-2.978,4.075,4.075,0,0,0-1.241-2.978,4.038,4.038,0,0,0-2.916-1.241h-7.88c-.186,0-.248-.062-.248-.124a.273.273,0,0,1,.062-.31,102.719,102.719,0,0,0,7.694-9.121,4.111,4.111,0,0,0,.683-2.234,4.622,4.622,0,0,0-.124-1.117,3.963,3.963,0,0,0-2.172-2.606,4.944,4.944,0,0,0-2.234-.5c-.31,0-.745.062-1.427.124a5.41,5.41,0,0,0-3.1,2.234c-.683.931-1.861,2.42-3.413,4.343,0,.062-.062.062-.124,0L47-43.01a3.514,3.514,0,0,0-1.055-2.544,3.478,3.478,0,0,0-2.482-1.055h-8c-.434,0-.62-.186-.62-.558v-1.675a4.4,4.4,0,0,0-1.365-3.289,4.6,4.6,0,0,0-3.351-1.427,4.6,4.6,0,0,0-3.351,1.427A4.4,4.4,0,0,0,25.4-48.842v1.675c0,.372-.186.558-.62.558H16.407a4.038,4.038,0,0,0-2.916,1.241,3.883,3.883,0,0,0-1.179,2.916,3.883,3.883,0,0,0,1.179,2.916,3.883,3.883,0,0,0,2.916,1.179h8.377c.434,0,.62.186.62.62v3.6c0,.372-.186.558-.62.558H10.7a4.038,4.038,0,0,0-2.916,1.241A4.075,4.075,0,0,0,6.542-29.359ZM93.323-47.043a13.555,13.555,0,0,0-.062,1.737l-.434,4.654c-.248,2.172-.5,3.971-.807,5.4q-.279,1.4-1.3,5.584a49.935,49.935,0,0,1-2.11,5.957q-1.21,2.606-2.978,5.77A36.492,36.492,0,0,1,81.6-12.234a53.379,53.379,0,0,1-5.336,5.15l-2.234,1.8A3.882,3.882,0,0,0,72.536-2.12a4.134,4.134,0,0,0,1.3,3.04L73.9.982a6.809,6.809,0,0,0,3.847,1.861,2.141,2.141,0,0,0,.745.062,5.647,5.647,0,0,0,3.1-1.055,54.615,54.615,0,0,0,17.56-25.5c.062-.062.124-.124.186-.124s.124.062.186.124c4.033,11.479,10.486,20.1,19.235,25.874a5.1,5.1,0,0,0,2.668.745,5.432,5.432,0,0,0,1.241-.124A7.243,7.243,0,0,0,126.332.672a4.188,4.188,0,0,0,1.055-2.73l-.062-.5a3.949,3.949,0,0,0-1.675-2.854,31.613,31.613,0,0,1-4.1-2.916,44.067,44.067,0,0,1-6.577-6.7,43.655,43.655,0,0,1-4.716-7.446A62.118,62.118,0,0,1,107.1-29.98a57.87,57.87,0,0,1-1.923-7.26c-.434-2.048-.807-4.157-1.055-6.2l-.372-3.6a5.4,5.4,0,0,0-1.551-3.723,4.832,4.832,0,0,0-3.537-1.489,5.254,5.254,0,0,0-3.723,1.489A5.38,5.38,0,0,0,93.323-47.043Z" transform="translate(154.844 53.558)" fill="#1baa9f"/>
      <g id="illust" transform="translate(0 75.182)">
        <g id="グループ_7746" data-name="グループ 7746" transform="translate(0 -75.182)">
          <path id="パス_50726" data-name="パス 50726" d="M306.94,287.26a7.129,7.129,0,0,0-5.327,1.132c-1.866,1.385-3.2,5.2-4.408,6.1-2.434,1.807-4.143,3.238-4.143,3.238l2.955,3.227,3.077,3.637V318.26l-13.224,1.155v5.832l33.539.81,2.067,2.015h20.636l4.513-2.015,5.963,2.015,8.339-2.826.911-6.987-3.661-2.686H346.625l-5.457-1.813-18.486-.814-4.872-13.971s.522-5.22-2.2-8.149S306.94,287.26,306.94,287.26Z" transform="translate(-282 -187.782)" fill="#fff"/>
        </g>
        <g id="楕円形_247" data-name="楕円形 247" transform="translate(18.548 13.036)" fill="#fff" stroke="#091a2a" stroke-linecap="round" stroke-width="1.5">
          <circle cx="6" cy="6" r="6" stroke="none"/>
          <circle cx="6" cy="6" r="5.25" fill="none"/>
        </g>
        <path id="パス_50719" data-name="パス 50719" d="M15.119,31.691s1.313-7.395,9.966-7.06,11.089,5.448,10.533,11.186" fill="none" stroke="#091a2a" stroke-linecap="round" stroke-width="1.5"/>
        <path id="パス_50720" data-name="パス 50720" d="M57.969,59.4H40.883s-2.9-.636-3.4,2.21,2.506,3.783,2.506,3.783H58.5s3.815-.08,5.865-2.309c1.063-1.133,1.718-1.823,1.483-3.684-.535-4.232-.2-4.422-2.033-6.547S58.5,50.9,58.5,50.9l-17.619-.7S36.678,38.432,36.44,37.287A3.9,3.9,0,0,0,35.06,35.3s-19.814-3.282-21.7-3.036S9.4,35.512,13.648,37.5" fill="none" stroke="#091a2a" stroke-linecap="round" stroke-width="1.5"/>
        <g id="楕円形_248" data-name="楕円形 248" transform="matrix(0.966, 0.259, -0.259, 0.966, 14.192, 34.641)" fill="#fff" stroke="#091a2a" stroke-linecap="round" stroke-width="1.5">
          <ellipse cx="4" cy="3.5" rx="4" ry="3.5" stroke="none"/>
          <ellipse cx="4" cy="3.5" rx="3.25" ry="2.75" fill="none"/>
        </g>
        <g id="楕円形_249" data-name="楕円形 249" transform="matrix(0.995, 0.105, -0.105, 0.995, 24.313, 37.159)" fill="#fff" stroke="#091a2a" stroke-linecap="round" stroke-width="1.5">
          <ellipse cx="4" cy="3.5" rx="4" ry="3.5" stroke="none"/>
          <ellipse cx="4" cy="3.5" rx="3.25" ry="2.75" fill="none"/>
        </g>
        <path id="パス_50721" data-name="パス 50721" d="M20.486,40.021l4,.886" fill="none" stroke="#091a2a" stroke-linecap="round" stroke-width="1.5"/>
        <path id="パス_50722" data-name="パス 50722" d="M29.793,44.176,33.87,55.029" fill="none" stroke="#091a2a" stroke-linecap="round" stroke-width="1.5"/>
        <path id="パス_50723" data-name="パス 50723" d="M38.7,55.029,4.561,56.451s-3.262.776-2.59,3.866S9.24,63.054,9.24,63.054H37.115" fill="none" stroke="#091a2a" stroke-linecap="round" stroke-width="1.5"/>
        <path id="パス_50724" data-name="パス 50724" d="M17.15,42.217V56.081" fill="none" stroke="#091a2a" stroke-linecap="round" stroke-width="1.5"/>
        <g id="楕円形_250" data-name="楕円形 250" transform="translate(64.548 47.036)" fill="#fff" stroke="#091a2a" stroke-linecap="round" stroke-width="1.5">
          <circle cx="6" cy="6" r="6" stroke="none"/>
          <circle cx="6" cy="6" r="5.25" fill="none"/>
        </g>
        <path id="パス_50725" data-name="パス 50725" d="M64.694,63.284s4.2,2.3,7.8,1.908,5.714-1.862,6.605-3.475,2.464-8.452-2.9-9.112" fill="none" stroke="#091a2a" stroke-linecap="round" stroke-width="1.5"/>
      </g>
    </g>
  </g>
</svg>
