<svg xmlns="http://www.w3.org/2000/svg" width="235.514" height="164.776" viewBox="0 0 235.514 164.776">
  <g id="main_title_paidnursing" transform="translate(-572.643 -190.39)">
    <text id="ホーム" transform="translate(608.599 300.386)" fill="#051a2b" font-size="66" font-family="'NicoMoji\+'" letter-spacing="0.06em"><tspan x="0" y="0">ホーム</tspan></text>
    <path id="パス_54850" data-name="パス 54850" d="M4.368-25.83a1.827,1.827,0,0,1-1.344-.546,1.827,1.827,0,0,1-.546-1.344,1.827,1.827,0,0,1,.546-1.344,1.827,1.827,0,0,1,1.344-.546h14.49q.378,0,.378-.336v-2.436A2.2,2.2,0,0,1,19.887-34a2.145,2.145,0,0,1,1.575-.651A2.2,2.2,0,0,1,23.079-34a2.2,2.2,0,0,1,.651,1.617v2.436q0,.336.378.336h7.644a.1.1,0,0,0,.1-.084.1.1,0,0,0-.063-.126q-2.1-1.344-3.15-1.932a1.584,1.584,0,0,1-.819-1.113,1.554,1.554,0,0,1,.315-1.323,2.043,2.043,0,0,1,1.3-.819,2.132,2.132,0,0,1,1.512.273q2.394,1.386,3.948,2.394a1.789,1.789,0,0,1,.735,1.134,1.6,1.6,0,0,1-.273,1.3q-.21.294.126.294h2.058a1.827,1.827,0,0,1,1.344.546,1.827,1.827,0,0,1,.546,1.344,1.827,1.827,0,0,1-.546,1.344,1.827,1.827,0,0,1-1.344.546H24.108a.334.334,0,0,0-.378.378v.546a1.692,1.692,0,0,0,.126.672,46.263,46.263,0,0,0,3.7,7.77q.126.294.462.042a52.921,52.921,0,0,0,5.544-5.712,2.057,2.057,0,0,1,1.386-.777,2.149,2.149,0,0,1,1.554.4,1.953,1.953,0,0,1,.84,1.365,1.9,1.9,0,0,1-.42,1.533,42.864,42.864,0,0,1-6.594,6.72q-.294.21-.042.546a50.846,50.846,0,0,0,8.568,9.2,2.1,2.1,0,0,1,.8,1.47,2.112,2.112,0,0,1-.5,1.6,2.136,2.136,0,0,1-1.512.8,2.174,2.174,0,0,1-1.638-.5A51.372,51.372,0,0,1,23.9-15.246a.142.142,0,0,0-.1-.042q-.063,0-.063.042V-2.73q0,4.116-.945,5.1T18.06,3.36q-1.512,0-4.452-.126A2.1,2.1,0,0,1,12.18,2.6a2.057,2.057,0,0,1-.63-1.386,1.692,1.692,0,0,1,.5-1.344A1.692,1.692,0,0,1,13.4-.63q2.52.126,3.738.126,1.512,0,1.806-.315a3.541,3.541,0,0,0,.294-1.911V-25.452a.334.334,0,0,0-.378-.378Zm8.988,11.3a1.82,1.82,0,0,1-1.386.5,1.847,1.847,0,0,1-1.344-.672Q8.4-17.262,6.258-19.53a1.892,1.892,0,0,1-.525-1.386,1.832,1.832,0,0,1,.609-1.344,1.919,1.919,0,0,1,1.407-.525,1.926,1.926,0,0,1,1.365.567q2.436,2.52,4.452,4.83a1.841,1.841,0,0,1,.462,1.449A2.262,2.262,0,0,1,13.356-14.532ZM3.4-1.386A1.913,1.913,0,0,1,3.192-2.9a1.934,1.934,0,0,1,.924-1.218A70.6,70.6,0,0,0,14.742-11.76a1.69,1.69,0,0,1,1.386-.462,1.717,1.717,0,0,1,1.26.714,2.205,2.205,0,0,1,.441,1.533,1.979,1.979,0,0,1-.693,1.407A65.369,65.369,0,0,1,6.174-.63a1.851,1.851,0,0,1-1.512.189A2.183,2.183,0,0,1,3.4-1.386ZM45.7,1.344A1.744,1.744,0,0,1,45.4-.168a2.093,2.093,0,0,1,.924-1.26A29.891,29.891,0,0,0,57.6-12.873,33.222,33.222,0,0,0,61.53-29.19v-2.52a2.2,2.2,0,0,1,.693-1.638,2.25,2.25,0,0,1,1.617-.672,2.25,2.25,0,0,1,1.617.672,2.2,2.2,0,0,1,.693,1.638v2.52A33.08,33.08,0,0,0,70.1-12.873,30.046,30.046,0,0,0,81.4-1.428a2.093,2.093,0,0,1,.924,1.26,1.744,1.744,0,0,1-.294,1.512A2.6,2.6,0,0,1,80.6,2.352a2.2,2.2,0,0,1-1.722-.21A30.369,30.369,0,0,1,70.1-5.607a38.536,38.536,0,0,1-5.964-10.941q-.084-.126-.21.042a36.752,36.752,0,0,1-6.09,10.878,32.236,32.236,0,0,1-8.988,7.77,2.2,2.2,0,0,1-1.722.21A2.6,2.6,0,0,1,45.7,1.344ZM88.41-16.338a1.8,1.8,0,0,1-1.218-.861,1.855,1.855,0,0,1-.21-1.491,93.484,93.484,0,0,0,1.89-11.8,1.915,1.915,0,0,1,.672-1.3,1.9,1.9,0,0,1,1.386-.462,1.99,1.99,0,0,1,1.3.63,1.762,1.762,0,0,1,.462,1.344q-.042.8-.21,2.31,0,.378.336.378h.588q.336,0,.336-.378v-3.822a2.145,2.145,0,0,1,.651-1.575,2.145,2.145,0,0,1,1.575-.651,2.145,2.145,0,0,1,1.575.651,2.145,2.145,0,0,1,.651,1.575v3.822q0,.378.336.378h1.848a1.827,1.827,0,0,1,1.344.546,1.827,1.827,0,0,1,.546,1.344,1.827,1.827,0,0,1-.546,1.344,1.827,1.827,0,0,1-1.344.546H98.532a.3.3,0,0,0-.336.336v7.434q0,.336.294.252l1.092-.273q.756-.189,1.134-.315a1.435,1.435,0,0,1,1.3.21,1.562,1.562,0,0,1,.672,1.134v.378q0,.21.252.126a1.766,1.766,0,0,1,.8-.168h13.608a.3.3,0,0,0,.336-.336v-3.192a.3.3,0,0,0-.336-.336H103.74a1.827,1.827,0,0,1-1.344-.546,1.827,1.827,0,0,1-.546-1.344A1.827,1.827,0,0,1,102.4-21.8a1.827,1.827,0,0,1,1.344-.546h7.392a.334.334,0,0,0,.378-.378v-3.906q0-.336-.378-.336h-6.174a1.778,1.778,0,0,1-1.3-.546,1.778,1.778,0,0,1-.546-1.3,1.778,1.778,0,0,1,.546-1.3,1.778,1.778,0,0,1,1.3-.546h6.174a.334.334,0,0,0,.378-.378v-1.554a2.216,2.216,0,0,1,.651-1.6,2.16,2.16,0,0,1,1.617-.672,2.145,2.145,0,0,1,1.575.651A2.2,2.2,0,0,1,116-32.592v1.554a.334.334,0,0,0,.378.378h6.3a1.777,1.777,0,0,1,1.3.546,1.778,1.778,0,0,1,.546,1.3,1.778,1.778,0,0,1-.546,1.3,1.778,1.778,0,0,1-1.3.546h-6.3q-.378,0-.378.336v3.906a.334.334,0,0,0,.378.378h7.728a1.827,1.827,0,0,1,1.344.546A1.827,1.827,0,0,1,126-20.454a1.827,1.827,0,0,1-.546,1.344,1.827,1.827,0,0,1-1.344.546H122.6q-.378,0-.378.336v3.192q0,.336.378.336h1.512a1.827,1.827,0,0,1,1.344.546A1.827,1.827,0,0,1,126-12.81a1.827,1.827,0,0,1-.546,1.344,1.827,1.827,0,0,1-1.344.546H122.6a.334.334,0,0,0-.378.378v7.686q0,1.6-.042,2.5a6.653,6.653,0,0,1-.294,1.7,2.818,2.818,0,0,1-.588,1.134,2.99,2.99,0,0,1-1.092.609,5.527,5.527,0,0,1-1.617.315q-.861.042-2.331.042-1.848,0-3.36-.084a2.083,2.083,0,0,1-2.016-2.016,1.579,1.579,0,0,1,.5-1.281,1.67,1.67,0,0,1,1.3-.483q1.3.084,2.814.084,1.638,0,1.911-.294a4.314,4.314,0,0,0,.273-2.1v-7.812q0-.378-.336-.378H103.74a1.743,1.743,0,0,1-1.281-.525,2.049,2.049,0,0,1-.609-1.239q0-.294-.252-.126a1.083,1.083,0,0,1-.546.252q-1.68.5-2.52.714a.422.422,0,0,0-.336.462V1.6a2.077,2.077,0,0,1-.651,1.554,2.284,2.284,0,0,1-3.15,0A2.077,2.077,0,0,1,93.744,1.6V-10.29q0-.378-.336-.294-1.638.378-4.2.924a1.607,1.607,0,0,1-1.386-.315,1.785,1.785,0,0,1-.714-1.281,2.054,2.054,0,0,1,.378-1.449,1.994,1.994,0,0,1,1.26-.819q3.024-.546,4.7-.966.294-.042.294-.462v-8.526a.3.3,0,0,0-.336-.336H92.316a.4.4,0,0,0-.42.336q-.5,2.94-1.134,5.712a1.8,1.8,0,0,1-.861,1.218A1.855,1.855,0,0,1,88.41-16.338Zm22.638,11.13a1.935,1.935,0,0,1,.546,1.47,2.028,2.028,0,0,1-.672,1.428,1.919,1.919,0,0,1-1.407.525,2,2,0,0,1-1.407-.609q-1.68-1.806-3.528-3.528a2,2,0,0,1-.609-1.407,1.848,1.848,0,0,1,.567-1.407,2.171,2.171,0,0,1,1.47-.609,2.008,2.008,0,0,1,1.47.567Q109.326-7.056,111.048-5.208Zm19.824-15.5v-.084A3.456,3.456,0,0,1,131-24.738a40.258,40.258,0,0,0,4.242-7.77,2.656,2.656,0,0,1,1.134-1.365,2.311,2.311,0,0,1,1.68-.315,1.755,1.755,0,0,1,1.281.819,1.606,1.606,0,0,1,.147,1.491,2.291,2.291,0,0,0-.105.273,2.289,2.289,0,0,1-.1.273q-.168.336.21.336h8.988a.49.49,0,0,0,.5-.336q.084-.168.231-.546t.231-.588a2.731,2.731,0,0,1,1.155-1.386,2.77,2.77,0,0,1,1.743-.42,1.679,1.679,0,0,1,1.3.8,1.616,1.616,0,0,1,.168,1.512l-.252.63q-.168.336.21.336H164.22a1.663,1.663,0,0,1,1.239.546,1.764,1.764,0,0,1,.525,1.26,1.764,1.764,0,0,1-.525,1.26,1.663,1.663,0,0,1-1.239.546H153.132a.3.3,0,0,0-.336.336v1.512a.3.3,0,0,0,.336.336h10.08a1.458,1.458,0,0,1,1.071.441,1.458,1.458,0,0,1,.441,1.071,1.458,1.458,0,0,1-.441,1.071,1.458,1.458,0,0,1-1.071.441h-10.08q-.336,0-.336.378v1.47q0,.378.336.378h10.08a1.458,1.458,0,0,1,1.071.441,1.458,1.458,0,0,1,.441,1.071,1.529,1.529,0,0,1-.441,1.092,1.425,1.425,0,0,1-1.071.462h-10.08a.3.3,0,0,0-.336.336v1.512a.3.3,0,0,0,.336.336h11.3a1.509,1.509,0,0,1,1.113.441,1.509,1.509,0,0,1,.441,1.113,1.58,1.58,0,0,1-.441,1.134,1.473,1.473,0,0,1-1.113.462H152.208a.334.334,0,0,0-.378.378V-10q0,.336.378.336h13.776a1.731,1.731,0,0,1,1.26.546,1.731,1.731,0,0,1,.546,1.26,1.663,1.663,0,0,1-.546,1.239,1.764,1.764,0,0,1-1.26.525h-11.34q-.084,0-.084.042a.121.121,0,0,0,.042.084,76.018,76.018,0,0,0,12.264,4.2,1.988,1.988,0,0,1,1.281.966,1.854,1.854,0,0,1,.189,1.554,2,2,0,0,1-.987,1.2,1.983,1.983,0,0,1-1.575.147,66.578,66.578,0,0,1-13.65-5.754.14.14,0,0,0-.189-.021.206.206,0,0,0-.1.189V1.47a2.2,2.2,0,0,1-.693,1.638,2.281,2.281,0,0,1-3.234,0,2.2,2.2,0,0,1-.693-1.638V-3.486q0-.336-.336-.126A72.109,72.109,0,0,1,133.35,2.1a2.04,2.04,0,0,1-1.6-.147,1.986,1.986,0,0,1-1.008-1.2A1.9,1.9,0,0,1,130.914-.8a1.916,1.916,0,0,1,1.26-.966A81.107,81.107,0,0,0,144.4-5.922q.084-.042.084-.105T144.4-6.09h-11.76a1.764,1.764,0,0,1-1.26-.525,1.663,1.663,0,0,1-.546-1.239,1.731,1.731,0,0,1,.546-1.26,1.731,1.731,0,0,1,1.26-.546h14.2q.378,0,.378-.336v-1.176a.334.334,0,0,0-.378-.378H136.584a2.3,2.3,0,0,1-1.68-.714,2.3,2.3,0,0,1-.714-1.68V-21.5q0-.084-.063-.084a.142.142,0,0,0-.1.042,4.983,4.983,0,0,1-.294.483l-.294.441a1.306,1.306,0,0,1-1.281.672A1.478,1.478,0,0,1,130.872-20.706Zm7.728-6.342v1.512q0,.336.378.336h8.82q.378,0,.378-.336v-1.512q0-.336-.378-.336h-8.82Q138.6-27.384,138.6-27.048Zm0,5.25v1.47a.334.334,0,0,0,.378.378h8.82a.334.334,0,0,0,.378-.378V-21.8a.334.334,0,0,0-.378-.378h-8.82A.334.334,0,0,0,138.6-21.8Zm0,5.25v1.512q0,.336.378.336h8.82q.378,0,.378-.336v-1.512q0-.336-.378-.336h-8.82Q138.6-16.884,138.6-16.548Z" transform="translate(603.9 351.386)" fill="#051a2b"/>
    <g id="グループ_7471" data-name="グループ 7471" transform="translate(572.643 190.39)">
      <path id="パス_46489" data-name="パス 46489" d="M41.06-26.555h-18.4c-.414,0-.592-.177-.592-.592v-1.3c0-.414.177-.592.592-.592h18.4c.414,0,.592.177.592.592v1.3C41.651-26.732,41.474-26.555,41.06-26.555ZM3.2-43.947a3.885,3.885,0,0,0,1.183,2.839,3.885,3.885,0,0,0,2.839,1.183h7.335a.273.273,0,0,1,.3.177.264.264,0,0,1,0,.3A45.2,45.2,0,0,1,4.679-26.614a4.113,4.113,0,0,0-1.42,2.78v.473a3.78,3.78,0,0,0,.946,2.544A4.8,4.8,0,0,0,7.223-19.16a1.484,1.484,0,0,0,.592.059,3.993,3.993,0,0,0,2.6-1.006c.651-.532,1.538-1.361,2.721-2.544.059-.059.118-.059.237-.059q.177.089.177.177V-2.952A4.107,4.107,0,0,0,14.795.065a4.107,4.107,0,0,0,3.017,1.242A4.107,4.107,0,0,0,20.828.065a4.107,4.107,0,0,0,1.242-3.017V-9.222c0-.414.177-.592.592-.592h18.4c.414,0,.592.177.592.592v1.538c0,.71-.414,1.065-1.3,1.065h-2.6A2.657,2.657,0,0,0,35.44-5.436a2.747,2.747,0,0,0-.592,1.716,2.452,2.452,0,0,0,.177.946A6.093,6.093,0,0,0,37.037.3a4.452,4.452,0,0,0,3.017,1.124h.3A16.569,16.569,0,0,0,46.679.065,4.894,4.894,0,0,0,49.341-2.6a13.688,13.688,0,0,0,.71-4.91V-31.465a5.021,5.021,0,0,0-1.479-3.549,4.827,4.827,0,0,0-3.549-1.479H23.668a.317.317,0,0,1-.237-.177.222.222,0,0,1,0-.355l1.242-2.425a.944.944,0,0,1,.828-.473H52.477a3.885,3.885,0,0,0,2.839-1.183A3.885,3.885,0,0,0,56.5-43.947a3.885,3.885,0,0,0-1.183-2.839,3.885,3.885,0,0,0-2.839-1.183H28.755a.325.325,0,0,1-.3-.177c-.118-.059-.118-.118-.059-.3l.059-.118a5.276,5.276,0,0,0,.177-1.3,4.387,4.387,0,0,0-.473-2.011,4.258,4.258,0,0,0-2.721-2.011C24.91-53.944,24.5-54,24.319-54a4.608,4.608,0,0,0-2.425.71,5.147,5.147,0,0,0-2.248,2.839c-.118.414-.355,1.065-.651,1.952a.7.7,0,0,1-.71.532H7.223a3.885,3.885,0,0,0-2.839,1.183A3.885,3.885,0,0,0,3.2-43.947ZM22.071-17.5v-1.361c0-.414.177-.592.592-.592h18.4c.414,0,.592.177.592.592V-17.5c0,.414-.177.592-.592.592h-18.4C22.248-16.913,22.071-17.09,22.071-17.5Zm40.98-13.724a3.885,3.885,0,0,0,1.183,2.839,3.885,3.885,0,0,0,2.839,1.183h1.242a.358.358,0,0,1,.355.177c.059.177.118.3.059.355a73.571,73.571,0,0,1-4.141,9.051,9.937,9.937,0,0,0-1.3,4.2,2.438,2.438,0,0,0-.059.71A8.422,8.422,0,0,0,64-9.1a2.1,2.1,0,0,0,1.952,1.42h.3A1.8,1.8,0,0,0,68.02-8.808c1.242-2.662,2.425-5.561,3.49-8.578l.118-.059.059.059V-2.774A3.7,3.7,0,0,0,72.811.006a3.885,3.885,0,0,0,2.839,1.183A3.85,3.85,0,0,0,78.431.006a3.753,3.753,0,0,0,1.183-2.78V-16.913l.118-.177c.059,0,.118,0,.118.059l.769,1.3a3.261,3.261,0,0,0,2.6,1.656c.059.059.177.059.355.059A2.835,2.835,0,0,0,86-15.315l1.42-1.775a.307.307,0,0,1,.237-.118q.177.089.177.177l.355,1.893a4.624,4.624,0,0,0,1.952,3.254,4.681,4.681,0,0,0,2.839.946l.946-.118,10-1.834a.358.358,0,0,1,.355.177.541.541,0,0,1,.177.3v9.7A4.309,4.309,0,0,0,105.643.124a3.885,3.885,0,0,0,2.839,1.183A3.885,3.885,0,0,0,111.322.124,4.309,4.309,0,0,0,112.5-2.715V-13.836a.624.624,0,0,1,.592-.71l2.248-.414a3.751,3.751,0,0,0,2.6-1.656,4.106,4.106,0,0,0,.828-2.366l-.059-.71a4.1,4.1,0,0,0-1.656-2.6,3.641,3.641,0,0,0-2.248-.71,2.206,2.206,0,0,0-.71.118l-1.006.118a.689.689,0,0,1-.414-.118.541.541,0,0,1-.177-.3V-50.868a3.885,3.885,0,0,0-1.183-2.839,3.885,3.885,0,0,0-2.839-1.183,3.885,3.885,0,0,0-2.839,1.183,3.885,3.885,0,0,0-1.183,2.839v29.045a.62.62,0,0,1-.532.71l-15.5,2.78a1.606,1.606,0,0,1-1.006-.355c-.769-1.006-2.13-2.485-4.082-4.555a51.362,51.362,0,0,0-3.668-3.668l-.059-.177a.127.127,0,0,1,.118-.118h4.141a3.753,3.753,0,0,0,2.78-1.183,3.885,3.885,0,0,0,1.183-2.839,3.85,3.85,0,0,0-1.183-2.78,3.753,3.753,0,0,0-2.78-1.183H80.206c-.414,0-.592-.177-.592-.592v-1.124a.273.273,0,0,1,.177-.3.5.5,0,0,1,.355-.118,5.834,5.834,0,0,0,1.42.177,5.134,5.134,0,0,0,2.485-.592,4.981,4.981,0,0,0,2.485-2.9l1.952-6.152a3.281,3.281,0,0,0,.177-1.006,2.9,2.9,0,0,0-.532-1.656A2.858,2.858,0,0,0,86-50.986l-.769-.118a3.476,3.476,0,0,0-1.893.651,3.365,3.365,0,0,0-1.479,2.307c-.651,3.49-1.361,6.744-2.13,9.7,0,.059,0,.059-.059.059l-.059-.118V-50.513a3.753,3.753,0,0,0-1.183-2.78,3.85,3.85,0,0,0-2.78-1.183,3.885,3.885,0,0,0-2.839,1.183,3.7,3.7,0,0,0-1.124,2.78v14.73c0,.414-.177.592-.592.592H67.073a3.885,3.885,0,0,0-2.839,1.183A3.85,3.85,0,0,0,63.051-31.228Zm.3-16.386a4.369,4.369,0,0,0,.118.71,65.622,65.622,0,0,1,1.361,7.927,2.724,2.724,0,0,0,1.183,2.011,2.391,2.391,0,0,0,1.479.532,4.368,4.368,0,0,0,.71-.118,4.42,4.42,0,0,0,2.248-1.538A3.847,3.847,0,0,0,71.1-40.1a1.313,1.313,0,0,0-.059-.532A58.574,58.574,0,0,0,69.5-48.443a2.839,2.839,0,0,0-1.479-1.893,2.607,2.607,0,0,0-1.538-.414c-.177,0-.414.059-.828.118a3.3,3.3,0,0,0-1.834,1.361A3.527,3.527,0,0,0,63.347-47.614ZM153.8-41.7h6.744c.118,0,.177.059.237.177.059.059.059.118-.059.237-1.183,1.183-2.544,2.425-4.023,3.727a1.3,1.3,0,0,1-1.006.414H153.8c-.414,0-.592-.177-.592-.532v-3.431C153.2-41.521,153.382-41.7,153.8-41.7Zm-27.567,8.578a3.885,3.885,0,0,0,1.183,2.839,3.7,3.7,0,0,0,2.78,1.124h14.789c.118,0,.177.059.177.118a.217.217,0,0,1-.059.177,94.219,94.219,0,0,1-16.268,8.4,2.749,2.749,0,0,0-1.952,2.189,2.742,2.742,0,0,0-.118.828,2.811,2.811,0,0,0,.769,2.07,6.377,6.377,0,0,0,3.254,2.248,6.856,6.856,0,0,0,1.656.237,6.963,6.963,0,0,0,2.248-.473c2.78-1.3,4.673-2.248,5.679-2.78a.377.377,0,0,1,.355,0,.273.273,0,0,1,.177.3v4.792c0,3.963.887,6.625,2.662,8.045,1.834,1.479,5.265,2.189,10.352,2.189h12.6c4.082,0,6.98-.769,8.7-2.366a10.117,10.117,0,0,0,2.485-4.792,4.369,4.369,0,0,0,.177-1.124,3.817,3.817,0,0,0-.71-2.13,5.615,5.615,0,0,0-2.839-2.189,2.346,2.346,0,0,0-1.183-.237,3.011,3.011,0,0,0-1.538.414,3.479,3.479,0,0,0-1.775,2.189,6.044,6.044,0,0,1-.473,1.361c-.592.828-1.775,1.242-3.49,1.242h-11.18a10.384,10.384,0,0,1-3.963-.473c-.592-.237-.887-.946-.887-2.189v-1.6a.6.6,0,0,1,.592-.651,191.016,191.016,0,0,0,19.817-5.147,2.553,2.553,0,0,0,1.775-2.07,2.012,2.012,0,0,0,.059-.592,2.562,2.562,0,0,0-.887-2.011,8.117,8.117,0,0,0-3.786-1.834c-.651-.059-1.065-.118-1.3-.118a8.038,8.038,0,0,0-2.839.532,126.75,126.75,0,0,1-12.837,3.963c-.177,0-.355,0-.414-.059a.511.511,0,0,1-.177-.355v-.118a.973.973,0,0,1,.473-.887q4.792-3.194,9.228-6.744a1.606,1.606,0,0,1,1.006-.355h16.09a3.7,3.7,0,0,0,2.78-1.124,3.885,3.885,0,0,0,1.183-2.839,3.885,3.885,0,0,0-1.183-2.839,3.85,3.85,0,0,0-2.78-1.183h-7.513c-.177,0-.237-.059-.237-.118a.26.26,0,0,1,.059-.3,97.929,97.929,0,0,0,7.335-8.7,3.919,3.919,0,0,0,.651-2.13,4.406,4.406,0,0,0-.118-1.065,3.778,3.778,0,0,0-2.07-2.485,4.714,4.714,0,0,0-2.13-.473c-.3,0-.71.059-1.361.118a5.157,5.157,0,0,0-2.958,2.13c-.651.887-1.775,2.307-3.254,4.141,0,.059-.059.059-.118,0l-.118-.118a3.351,3.351,0,0,0-1.006-2.425,3.316,3.316,0,0,0-2.366-1.006H153.8c-.414,0-.592-.177-.592-.532v-1.6a4.2,4.2,0,0,0-1.3-3.135,4.385,4.385,0,0,0-3.194-1.361,4.385,4.385,0,0,0-3.194,1.361,4.2,4.2,0,0,0-1.3,3.135v1.6c0,.355-.177.532-.592.532h-7.986a3.85,3.85,0,0,0-2.78,1.183,3.7,3.7,0,0,0-1.124,2.78,3.7,3.7,0,0,0,1.124,2.78,3.7,3.7,0,0,0,2.78,1.124h7.986c.414,0,.592.177.592.592v3.431c0,.355-.177.532-.592.532H130.193a3.85,3.85,0,0,0-2.78,1.183A3.885,3.885,0,0,0,126.229-33.121Zm80.008-16.859a12.927,12.927,0,0,0-.059,1.656l-.414,4.437c-.237,2.07-.473,3.786-.769,5.147q-.266,1.331-1.242,5.324a47.6,47.6,0,0,1-2.011,5.679q-1.154,2.485-2.839,5.5a34.79,34.79,0,0,1-3.845,5.442,50.892,50.892,0,0,1-5.087,4.91l-2.13,1.716a3.7,3.7,0,0,0-1.42,3.017,3.941,3.941,0,0,0,1.242,2.9l.059.059a6.491,6.491,0,0,0,3.668,1.775,2.041,2.041,0,0,0,.71.059,5.383,5.383,0,0,0,2.958-1.006A52.069,52.069,0,0,0,211.8-27.679c.059-.059.118-.118.177-.118s.118.059.177.118c3.845,10.944,10,19.166,18.338,24.668a4.859,4.859,0,0,0,2.544.71,5.179,5.179,0,0,0,1.183-.118,6.906,6.906,0,0,0,3.49-2.07,3.993,3.993,0,0,0,1.006-2.6l-.059-.473a3.765,3.765,0,0,0-1.6-2.721,30.139,30.139,0,0,1-3.9-2.78,42.011,42.011,0,0,1-6.27-6.389,41.618,41.618,0,0,1-4.5-7.1,59.22,59.22,0,0,1-3.017-7.158,55.167,55.167,0,0,1-1.834-6.921c-.414-1.952-.769-3.963-1.006-5.916l-.355-3.431A5.145,5.145,0,0,0,214.7-53.53a4.606,4.606,0,0,0-3.372-1.42,5.009,5.009,0,0,0-3.549,1.42A5.129,5.129,0,0,0,206.237-49.981Z" transform="translate(-3.2 56.192)" fill="#051a2b"/>
      <path id="パス_46490" data-name="パス 46490" d="M0,4.692A4.525,4.525,0,0,1,1.369,1.369,4.525,4.525,0,0,1,4.692,0,4.525,4.525,0,0,1,8.016,1.369,4.525,4.525,0,0,1,9.384,4.692,4.525,4.525,0,0,1,8.016,8.016,4.525,4.525,0,0,1,4.692,9.384,4.525,4.525,0,0,1,1.369,8.016,4.525,4.525,0,0,1,0,4.692Zm13.13,0A4.525,4.525,0,0,1,14.5,1.369a4.72,4.72,0,0,1,6.647,0,4.525,4.525,0,0,1,1.369,3.324,4.525,4.525,0,0,1-1.369,3.324,4.72,4.72,0,0,1-6.647,0A4.525,4.525,0,0,1,13.13,4.692Z" transform="translate(88.828 30.302) rotate(-90)" fill="#00b6f1" stroke="#00b6f1" stroke-width="1"/>
    </g>
  </g>
</svg>
