<svg xmlns="http://www.w3.org/2000/svg" width="347.825" height="122.297" viewBox="0 0 347.825 122.297">
  <g id="main_title_grouphome" transform="translate(-217.463 -205.314)">
    <g id="グループ_7312" data-name="グループ 7312" transform="translate(298.178 275.561)">
      <path id="パス_54849" data-name="パス 54849" d="M4.68-27.675a1.957,1.957,0,0,1-1.44-.585,1.957,1.957,0,0,1-.585-1.44,1.957,1.957,0,0,1,.585-1.44,1.957,1.957,0,0,1,1.44-.585H20.2q.405,0,.405-.36v-2.61a2.352,2.352,0,0,1,.7-1.732,2.3,2.3,0,0,1,1.687-.7,2.352,2.352,0,0,1,1.733.7,2.352,2.352,0,0,1,.7,1.732v2.61q0,.36.405.36h8.19a.106.106,0,0,0,.112-.09.109.109,0,0,0-.067-.135q-2.25-1.44-3.375-2.07a1.7,1.7,0,0,1-.877-1.193,1.665,1.665,0,0,1,.337-1.417,2.189,2.189,0,0,1,1.395-.877,2.284,2.284,0,0,1,1.62.292Q35.73-35.73,37.4-34.65a1.917,1.917,0,0,1,.787,1.215,1.71,1.71,0,0,1-.292,1.395q-.225.315.135.315h2.2a1.957,1.957,0,0,1,1.44.585,1.957,1.957,0,0,1,.585,1.44,1.957,1.957,0,0,1-.585,1.44,1.957,1.957,0,0,1-1.44.585H25.83a.358.358,0,0,0-.405.405v.585a1.813,1.813,0,0,0,.135.72,49.567,49.567,0,0,0,3.96,8.325q.135.315.495.045a56.7,56.7,0,0,0,5.94-6.12,2.2,2.2,0,0,1,1.485-.832,2.3,2.3,0,0,1,1.665.427,2.093,2.093,0,0,1,.9,1.463,2.032,2.032,0,0,1-.45,1.642,45.926,45.926,0,0,1-7.065,7.2q-.315.225-.045.585a54.478,54.478,0,0,0,9.18,9.855A2.252,2.252,0,0,1,42.48-1.8a2.263,2.263,0,0,1-.54,1.71,2.289,2.289,0,0,1-1.62.855,2.329,2.329,0,0,1-1.755-.54A55.042,55.042,0,0,1,25.6-16.335a.153.153,0,0,0-.112-.045q-.068,0-.068.045v13.41q0,4.41-1.012,5.467T19.35,3.6q-1.62,0-4.77-.135a2.251,2.251,0,0,1-1.53-.675A2.2,2.2,0,0,1,12.375,1.3a1.813,1.813,0,0,1,.54-1.44,1.813,1.813,0,0,1,1.44-.54q2.7.135,4.005.135,1.62,0,1.935-.337a3.794,3.794,0,0,0,.315-2.047V-27.27a.358.358,0,0,0-.405-.405ZM14.31-15.57a1.95,1.95,0,0,1-1.485.54,1.979,1.979,0,0,1-1.44-.72Q9-18.495,6.705-20.925a2.027,2.027,0,0,1-.563-1.485,1.963,1.963,0,0,1,.652-1.44A2.056,2.056,0,0,1,8.3-24.413a2.064,2.064,0,0,1,1.462.608q2.61,2.7,4.77,5.175a1.972,1.972,0,0,1,.495,1.553A2.424,2.424,0,0,1,14.31-15.57ZM3.645-1.485a2.049,2.049,0,0,1-.225-1.62,2.072,2.072,0,0,1,.99-1.3A75.642,75.642,0,0,0,15.8-12.6,1.811,1.811,0,0,1,17.28-13.1a1.839,1.839,0,0,1,1.35.765,2.363,2.363,0,0,1,.472,1.642A2.121,2.121,0,0,1,18.36-9.18,70.039,70.039,0,0,1,6.615-.675a1.983,1.983,0,0,1-1.62.2A2.339,2.339,0,0,1,3.645-1.485ZM48.96,1.44a1.868,1.868,0,0,1-.315-1.62,2.242,2.242,0,0,1,.99-1.35A32.026,32.026,0,0,0,61.718-13.792a35.6,35.6,0,0,0,4.208-17.483v-2.7a2.352,2.352,0,0,1,.743-1.755,2.411,2.411,0,0,1,1.732-.72,2.411,2.411,0,0,1,1.732.72,2.352,2.352,0,0,1,.743,1.755v2.7a35.443,35.443,0,0,0,4.23,17.483A32.192,32.192,0,0,0,87.21-1.53,2.242,2.242,0,0,1,88.2-.18a1.868,1.868,0,0,1-.315,1.62,2.784,2.784,0,0,1-1.53,1.08A2.354,2.354,0,0,1,84.51,2.3a32.538,32.538,0,0,1-9.4-8.3,41.288,41.288,0,0,1-6.39-11.722q-.09-.135-.225.045A39.377,39.377,0,0,1,61.965-6.03,34.539,34.539,0,0,1,52.335,2.3a2.354,2.354,0,0,1-1.845.225A2.784,2.784,0,0,1,48.96,1.44ZM94.725-17.5a1.929,1.929,0,0,1-1.305-.923,1.988,1.988,0,0,1-.225-1.6A100.159,100.159,0,0,0,95.22-32.67a2.052,2.052,0,0,1,.72-1.4,2.035,2.035,0,0,1,1.485-.495,2.132,2.132,0,0,1,1.395.675,1.888,1.888,0,0,1,.5,1.44q-.045.855-.225,2.475,0,.405.36.405h.63q.36,0,.36-.405v-4.1a2.3,2.3,0,0,1,.7-1.687,2.3,2.3,0,0,1,1.688-.7,2.3,2.3,0,0,1,1.688.7,2.3,2.3,0,0,1,.7,1.687v4.1q0,.405.36.405h1.98a1.957,1.957,0,0,1,1.44.585,1.957,1.957,0,0,1,.585,1.44,1.957,1.957,0,0,1-.585,1.44,1.957,1.957,0,0,1-1.44.585h-1.98a.318.318,0,0,0-.36.36v7.965q0,.36.315.27l1.17-.292q.81-.2,1.215-.337a1.537,1.537,0,0,1,1.395.225,1.673,1.673,0,0,1,.72,1.215v.405q0,.225.27.135a1.892,1.892,0,0,1,.855-.18h14.58a.318.318,0,0,0,.36-.36v-3.42a.318.318,0,0,0-.36-.36H111.15a1.957,1.957,0,0,1-1.44-.585,1.957,1.957,0,0,1-.585-1.44,1.957,1.957,0,0,1,.585-1.44,1.957,1.957,0,0,1,1.44-.585h7.92a.358.358,0,0,0,.4-.405V-28.53q0-.36-.4-.36h-6.615a1.9,1.9,0,0,1-1.395-.585,1.9,1.9,0,0,1-.585-1.4,1.9,1.9,0,0,1,.585-1.4,1.9,1.9,0,0,1,1.395-.585h6.615a.358.358,0,0,0,.4-.4V-34.92a2.374,2.374,0,0,1,.7-1.71,2.315,2.315,0,0,1,1.733-.72,2.3,2.3,0,0,1,1.687.7,2.352,2.352,0,0,1,.7,1.732v1.665a.358.358,0,0,0,.4.4h6.75a1.9,1.9,0,0,1,1.395.585,1.9,1.9,0,0,1,.585,1.4,1.9,1.9,0,0,1-.585,1.4,1.9,1.9,0,0,1-1.395.585H124.7q-.4,0-.4.36v4.185a.358.358,0,0,0,.4.405h8.28a1.957,1.957,0,0,1,1.44.585,1.957,1.957,0,0,1,.585,1.44,1.957,1.957,0,0,1-.585,1.44,1.957,1.957,0,0,1-1.44.585h-1.62q-.405,0-.4.36v3.42q0,.36.4.36h1.62a1.957,1.957,0,0,1,1.44.585,1.957,1.957,0,0,1,.585,1.44,1.957,1.957,0,0,1-.585,1.44,1.957,1.957,0,0,1-1.44.585h-1.62a.358.358,0,0,0-.4.405V-3.06q0,1.71-.045,2.678a7.128,7.128,0,0,1-.315,1.823,3.019,3.019,0,0,1-.63,1.215,3.2,3.2,0,0,1-1.17.652,5.922,5.922,0,0,1-1.733.338q-.922.045-2.5.045-1.98,0-3.6-.09a2.232,2.232,0,0,1-2.16-2.16,1.692,1.692,0,0,1,.54-1.373,1.79,1.79,0,0,1,1.395-.517q1.4.09,3.015.09,1.755,0,2.048-.315a4.622,4.622,0,0,0,.293-2.25v-8.37q0-.405-.36-.405H111.15a1.867,1.867,0,0,1-1.372-.563,2.2,2.2,0,0,1-.653-1.327q0-.315-.27-.135a1.161,1.161,0,0,1-.585.27q-1.8.54-2.7.765a.452.452,0,0,0-.36.5V1.71a2.225,2.225,0,0,1-.7,1.665,2.447,2.447,0,0,1-3.375,0,2.225,2.225,0,0,1-.7-1.665V-11.025q0-.4-.36-.315-1.755.4-4.5.99a1.722,1.722,0,0,1-1.485-.337,1.912,1.912,0,0,1-.765-1.373,2.2,2.2,0,0,1,.4-1.552,2.136,2.136,0,0,1,1.35-.877q3.24-.585,5.04-1.035.315-.045.315-.5v-9.135a.318.318,0,0,0-.36-.36H98.91a.425.425,0,0,0-.45.36q-.54,3.15-1.215,6.12a1.929,1.929,0,0,1-.923,1.305A1.988,1.988,0,0,1,94.725-17.5ZM118.98-5.58a2.074,2.074,0,0,1,.585,1.575,2.173,2.173,0,0,1-.72,1.53,2.056,2.056,0,0,1-1.507.562,2.139,2.139,0,0,1-1.507-.653q-1.8-1.935-3.78-3.78a2.139,2.139,0,0,1-.652-1.507,1.98,1.98,0,0,1,.607-1.508,2.326,2.326,0,0,1,1.575-.652,2.152,2.152,0,0,1,1.575.607Q117.135-7.56,118.98-5.58Zm21.24-16.6v-.09a3.7,3.7,0,0,1,.135-4.23A43.135,43.135,0,0,0,144.9-34.83a2.846,2.846,0,0,1,1.215-1.463,2.476,2.476,0,0,1,1.8-.338,1.881,1.881,0,0,1,1.372.878,1.72,1.72,0,0,1,.158,1.6,2.453,2.453,0,0,0-.112.292,2.453,2.453,0,0,1-.113.292q-.18.36.225.36h9.63a.525.525,0,0,0,.54-.36q.09-.18.248-.585t.247-.63a2.926,2.926,0,0,1,1.238-1.485,2.968,2.968,0,0,1,1.867-.45,1.8,1.8,0,0,1,1.4.855,1.732,1.732,0,0,1,.18,1.62l-.27.675q-.18.36.225.36H175.95a1.782,1.782,0,0,1,1.327.585,1.89,1.89,0,0,1,.563,1.35,1.89,1.89,0,0,1-.562,1.35,1.782,1.782,0,0,1-1.327.585H164.07a.318.318,0,0,0-.36.36v1.62a.318.318,0,0,0,.36.36h10.8a1.562,1.562,0,0,1,1.147.473,1.562,1.562,0,0,1,.473,1.147,1.562,1.562,0,0,1-.473,1.148,1.562,1.562,0,0,1-1.147.472h-10.8q-.36,0-.36.405v1.575q0,.405.36.405h10.8a1.562,1.562,0,0,1,1.147.472,1.562,1.562,0,0,1,.473,1.147,1.638,1.638,0,0,1-.473,1.17,1.527,1.527,0,0,1-1.147.495h-10.8a.318.318,0,0,0-.36.36v1.62a.318.318,0,0,0,.36.36h12.105a1.616,1.616,0,0,1,1.192.472,1.616,1.616,0,0,1,.473,1.193,1.693,1.693,0,0,1-.473,1.215,1.579,1.579,0,0,1-1.192.5h-13.1a.358.358,0,0,0-.4.4v1.26q0,.36.4.36h14.76a1.854,1.854,0,0,1,1.35.585,1.854,1.854,0,0,1,.585,1.35,1.782,1.782,0,0,1-.585,1.327,1.89,1.89,0,0,1-1.35.563H165.69q-.09,0-.09.045a.13.13,0,0,0,.045.09,81.447,81.447,0,0,0,13.14,4.5,2.13,2.13,0,0,1,1.372,1.035,1.987,1.987,0,0,1,.2,1.665A2.142,2.142,0,0,1,179.3,2.092a2.125,2.125,0,0,1-1.687.158A71.334,71.334,0,0,1,162.99-3.915a.15.15,0,0,0-.2-.023.221.221,0,0,0-.112.2v5.31a2.352,2.352,0,0,1-.743,1.755,2.444,2.444,0,0,1-3.465,0,2.352,2.352,0,0,1-.743-1.755v-5.31q0-.36-.36-.135a77.26,77.26,0,0,1-14.49,6.12,2.186,2.186,0,0,1-1.71-.158A2.128,2.128,0,0,1,140.085.81a2.036,2.036,0,0,1,.18-1.665,2.053,2.053,0,0,1,1.35-1.035,86.9,86.9,0,0,0,13.1-4.455q.09-.045.09-.112t-.09-.067h-12.6a1.89,1.89,0,0,1-1.35-.563,1.782,1.782,0,0,1-.585-1.327,1.854,1.854,0,0,1,.585-1.35,1.854,1.854,0,0,1,1.35-.585h15.21q.405,0,.4-.36v-1.26a.358.358,0,0,0-.4-.4H146.34a2.463,2.463,0,0,1-1.8-.765,2.463,2.463,0,0,1-.765-1.8v-8.1q0-.09-.068-.09a.153.153,0,0,0-.112.045,5.342,5.342,0,0,1-.315.517l-.315.473a1.4,1.4,0,0,1-1.372.72A1.584,1.584,0,0,1,140.22-22.185Zm8.28-6.8v1.62q0,.36.4.36h9.45q.405,0,.4-.36v-1.62q0-.36-.4-.36H148.9Q148.5-29.34,148.5-28.98Zm0,5.625v1.575a.358.358,0,0,0,.4.405h9.45a.358.358,0,0,0,.4-.405v-1.575a.358.358,0,0,0-.4-.405H148.9A.358.358,0,0,0,148.5-23.355Zm0,5.625v1.62q0,.36.4.36h9.45q.405,0,.4-.36v-1.62q0-.36-.4-.36H148.9Q148.5-18.09,148.5-17.73Z" transform="translate(0 48)" fill="#051a2b"/>
    </g>
    <g id="グループ_7451" data-name="グループ 7451" transform="translate(215.084 201.314)">
      <path id="前面オブジェクトで型抜き_2" data-name="前面オブジェクトで型抜き 2" d="M-2150.042-136.289h-1.866a.505.505,0,0,1-.134-.025.5.5,0,0,0-.133-.025.2.2,0,0,0-.119.038.294.294,0,0,0-.15-.038.8.8,0,0,0-.17.025.8.8,0,0,1-.169.025h-37.363c-.175,0-.352-.012-.524-.023-.139.011-.282.023-.42.023h-1.867a4.669,4.669,0,0,1-4.665-4.664v-13.061c0-.11,0-.226.011-.327v-8.116h-3.736a3.7,3.7,0,0,1-3.738-3.743,3.783,3.783,0,0,1,1.167-2.8l29.9-26.061a3.36,3.36,0,0,1,2.566-.934,3.922,3.922,0,0,1,2.461.817L-2139.221-169a3.16,3.16,0,0,1,1.283,2.8,3.7,3.7,0,0,1-1.122,2.659,3.76,3.76,0,0,1-2.609,1.085h-3.731l.082,18.67a8.349,8.349,0,0,1-.058.944v1.89A4.67,4.67,0,0,1-2150.042-136.289Zm-22.985-29.694c-5.7,0-8.833,2.072-10.453,3.81a13.13,13.13,0,0,0-2.773,5.494,34.034,34.034,0,0,0-1.058,6.683,55.115,55.115,0,0,0,.048,8.02h28.388a32.63,32.63,0,0,0,1.026-5.374,24.568,24.568,0,0,0-1.026-10.877,11.518,11.518,0,0,0-2.693-4.243,10.711,10.711,0,0,0-3.258-2.182,10.979,10.979,0,0,0-3.9-.924A21.938,21.938,0,0,0-2173.028-165.982Z" transform="translate(2488.121 199.994)" fill="#3e71be"/>
      <path id="パス_46483" data-name="パス 46483" d="M17.672-33.531H41.744a3.808,3.808,0,0,1,2.719,1.076,3.457,3.457,0,0,1,1.076,2.719L43.727-16.426a29.685,29.685,0,0,1-2.1,7.59A17.2,17.2,0,0,1,37.071-2.8a11.38,11.38,0,0,1-6.882,2.69H24.979a3.708,3.708,0,0,1-2.577-1.1,3.708,3.708,0,0,1-1.1-2.577,3.864,3.864,0,0,1,1.048-2.719A3.623,3.623,0,0,1,24.979-7.7h4.3A5.769,5.769,0,0,0,33.05-9.346a8.187,8.187,0,0,0,2.237-3.483,23.4,23.4,0,0,0,.906-4.276l1.02-7.42q.17-1.359-.963-1.416H20.277A26.772,26.772,0,0,1,18.748-21.3a17.2,17.2,0,0,1-4.56,6.032,11.38,11.38,0,0,1-6.882,2.69H6.061a3.708,3.708,0,0,1-2.577-1.1,3.708,3.708,0,0,1-1.1-2.577,3.864,3.864,0,0,1,1.048-2.719,3.623,3.623,0,0,1,2.634-1.189H6.4a5.769,5.769,0,0,0,3.767-1.643A8.187,8.187,0,0,0,12.4-25.29a23.4,23.4,0,0,0,.906-4.276v-.283a4.464,4.464,0,0,1,1.529-2.662A4.351,4.351,0,0,1,17.672-33.531Zm11.1-6.344a3.933,3.933,0,0,1,1.189-2.889,3.933,3.933,0,0,1,2.889-1.189,3.933,3.933,0,0,1,2.889,1.189,3.933,3.933,0,0,1,1.189,2.889,3.933,3.933,0,0,1-1.189,2.889A3.933,3.933,0,0,1,32.852-35.8a3.933,3.933,0,0,1-2.889-1.189A3.933,3.933,0,0,1,28.773-39.875Zm9.742,0a3.933,3.933,0,0,1,1.189-2.889,3.933,3.933,0,0,1,2.889-1.189,3.933,3.933,0,0,1,2.889,1.189,3.933,3.933,0,0,1,1.189,2.889,3.933,3.933,0,0,1-1.189,2.889A3.933,3.933,0,0,1,42.594-35.8a3.933,3.933,0,0,1-2.889-1.189A3.933,3.933,0,0,1,38.516-39.875Zm23.191,5.438a3.811,3.811,0,0,1,2.605,1.1,3.656,3.656,0,0,1,1.133,2.577v20.277a23.4,23.4,0,0,1-2.1,9.006A3.741,3.741,0,0,1,58.421.4a4.215,4.215,0,0,1-2.067-2.1,3.306,3.306,0,0,1-.028-2.832A14.377,14.377,0,0,0,57.8-10.252v-20.5a3.623,3.623,0,0,1,1.189-2.634A3.864,3.864,0,0,1,61.707-34.437Zm12.8,0a3.812,3.812,0,0,1,2.605,1.1,3.656,3.656,0,0,1,1.133,2.577V-9.062a2.3,2.3,0,0,0,.68,1.586q.963.963,3,.17t6.854-5.381A4.354,4.354,0,0,1,91.7-13.65a4.588,4.588,0,0,1,2.8,1.02,3.493,3.493,0,0,1,1.133,2.521A3.313,3.313,0,0,1,94.5-7.646L87.988-1.812a13.317,13.317,0,0,1-6.457,2.86,10.99,10.99,0,0,1-7.25-1.586Q70.6-2.662,70.6-8.779V-30.756a3.623,3.623,0,0,1,1.189-2.634A3.864,3.864,0,0,1,74.507-34.437Zm31.177,17.389a3.661,3.661,0,0,1,1.1-2.69,3.661,3.661,0,0,1,2.69-1.1h28.434a3.808,3.808,0,0,1,2.719,1.076,3.808,3.808,0,0,1,1.076,2.719,3.661,3.661,0,0,1-1.1,2.69,3.661,3.661,0,0,1-2.69,1.1H109.48a3.525,3.525,0,0,1-2.662-1.133A3.525,3.525,0,0,1,105.685-17.049ZM152.1-29.736a3.661,3.661,0,0,1,1.1-2.69,3.661,3.661,0,0,1,2.69-1.1h25.6a6.348,6.348,0,0,1-.963-3.455,6.058,6.058,0,0,1,1.841-4.446,6.125,6.125,0,0,1,4.5-1.841,6.058,6.058,0,0,1,4.446,1.841,6.058,6.058,0,0,1,1.841,4.446,6.079,6.079,0,0,1-1.812,4.475,8.541,8.541,0,0,1-1.133.963,3.361,3.361,0,0,1,.4,1.813L188.8-16.426a29.685,29.685,0,0,1-2.1,7.59,17.2,17.2,0,0,1-4.56,6.032,11.38,11.38,0,0,1-6.882,2.69H164.616a3.708,3.708,0,0,1-2.577-1.1,3.708,3.708,0,0,1-1.1-2.577,3.864,3.864,0,0,1,1.048-2.719A3.623,3.623,0,0,1,164.616-7.7h9.742a5.769,5.769,0,0,0,3.767-1.643,8.187,8.187,0,0,0,2.237-3.483,23.4,23.4,0,0,0,.906-4.276l1.02-7.42q.17-1.359-.963-1.416H155.893a3.525,3.525,0,0,1-2.662-1.133A3.525,3.525,0,0,1,152.1-29.736Zm31.492-7.25a3.165,3.165,0,0,0,.963,2.322,3.165,3.165,0,0,0,2.322.963,3.1,3.1,0,0,0,2.266-.963,3.165,3.165,0,0,0,.963-2.322,3.1,3.1,0,0,0-.963-2.266,3.1,3.1,0,0,0-2.266-.963,3.165,3.165,0,0,0-2.322.963A3.1,3.1,0,0,0,183.59-36.986Z" transform="translate(0 59.715)" fill="#3e71be"/>
      <path id="パス_46484" data-name="パス 46484" d="M201.514-27.811a3.661,3.661,0,0,1,1.1-2.69,3.661,3.661,0,0,1,2.69-1.1h10.875a3.716,3.716,0,0,1,1.189-2.492,3.924,3.924,0,0,1,2.719-1.02,3.871,3.871,0,0,1,2.605,1.076,3.772,3.772,0,0,1,1.133,2.436h10.818a3.808,3.808,0,0,1,2.719,1.076,3.808,3.808,0,0,1,1.076,2.719,3.661,3.661,0,0,1-1.1,2.69,3.661,3.661,0,0,1-2.69,1.1H223.83V-3A3.7,3.7,0,0,1,220.092.68a3.965,3.965,0,0,1-2.747-1.048A3.4,3.4,0,0,1,216.184-3V-24.016H205.309a3.525,3.525,0,0,1-2.662-1.133A3.525,3.525,0,0,1,201.514-27.811Zm5.438,6.967a3.812,3.812,0,0,1,2.605,1.1,3.657,3.657,0,0,1,1.133,2.577v6.684a23.4,23.4,0,0,1-2.1,9.006A3.741,3.741,0,0,1,203.666.4,4.215,4.215,0,0,1,201.6-1.7a3.306,3.306,0,0,1-.028-2.832,14.377,14.377,0,0,0,1.473-5.721v-6.91a3.623,3.623,0,0,1,1.189-2.634A3.864,3.864,0,0,1,206.951-20.844Zm26.395,0a3.864,3.864,0,0,1,2.719,1.048,3.623,3.623,0,0,1,1.189,2.634v6.91a14.377,14.377,0,0,0,1.473,5.721A3.306,3.306,0,0,1,238.7-1.7,4.215,4.215,0,0,1,236.631.4,3.741,3.741,0,0,1,231.7-1.473a23.4,23.4,0,0,1-2.1-9.006v-6.684a3.657,3.657,0,0,1,1.133-2.577A3.812,3.812,0,0,1,233.346-20.844Zm15.771,3.795a3.661,3.661,0,0,1,1.1-2.69,3.661,3.661,0,0,1,2.69-1.1h28.434a3.808,3.808,0,0,1,2.719,1.076,3.808,3.808,0,0,1,1.076,2.719,3.661,3.661,0,0,1-1.1,2.69,3.661,3.661,0,0,1-2.69,1.1H252.912a3.525,3.525,0,0,1-2.662-1.133A3.525,3.525,0,0,1,249.117-17.049ZM328.778-.113H299.212a3.808,3.808,0,0,1-2.719-1.076,3.457,3.457,0,0,1-1.076-2.719l1.813-13.311a29.684,29.684,0,0,1,2.1-7.59,17.2,17.2,0,0,1,4.56-6.032,11.38,11.38,0,0,1,6.882-2.69h5.211a3.708,3.708,0,0,1,2.577,1.1,3.708,3.708,0,0,1,1.1,2.577,3.864,3.864,0,0,1-1.048,2.719,3.623,3.623,0,0,1-2.634,1.189h-4.3a5.769,5.769,0,0,0-3.767,1.643,8.187,8.187,0,0,0-2.237,3.483,23.4,23.4,0,0,0-.906,4.276l-1.02,7.42q-.17,1.359.963,1.416h19.881a1.677,1.677,0,0,0,1.869-1.926v-8.666a3.7,3.7,0,0,1,3.738-3.682,3.965,3.965,0,0,1,2.747,1.048,3.4,3.4,0,0,1,1.161,2.634V-5.154a5.136,5.136,0,0,1-1.416,3.71A5.357,5.357,0,0,1,328.778-.113Z" transform="translate(0 59.715)" fill="#051a2b"/>
      <path id="パス_46486" data-name="パス 46486" d="M28.773-39.875a3.933,3.933,0,0,1,1.189-2.889,3.933,3.933,0,0,1,2.889-1.189,3.933,3.933,0,0,1,2.889,1.189,3.933,3.933,0,0,1,1.189,2.889,3.933,3.933,0,0,1-1.189,2.889A3.933,3.933,0,0,1,32.852-35.8a3.933,3.933,0,0,1-2.889-1.189A3.933,3.933,0,0,1,28.773-39.875Zm9.742,0a3.933,3.933,0,0,1,1.189-2.889,3.933,3.933,0,0,1,2.889-1.189,3.933,3.933,0,0,1,2.889,1.189,3.933,3.933,0,0,1,1.189,2.889,3.933,3.933,0,0,1-1.189,2.889A3.933,3.933,0,0,1,42.594-35.8a3.933,3.933,0,0,1-2.889-1.189A3.933,3.933,0,0,1,38.516-39.875Z" transform="translate(0 59.715)" fill="#051a2b"/>
    </g>
  </g>
</svg>
