<svg xmlns="http://www.w3.org/2000/svg" width="184.467" height="24.019" viewBox="0 0 184.467 24.019">
  <g id="main_logo-mynavi.png" transform="translate(-3.481 -4.368)">
    <path id="パス_46238" data-name="パス 46238" d="M113.6,12.916c-2.011,2.169-5.669,4.5-6.588,4.5a1.208,1.208,0,0,1-1.091-1.294,1,1,0,0,1,.624-1,17.629,17.629,0,0,0,4.472-2.833c.606-.525.849-.77,1.525-1.452a1.93,1.93,0,0,1,.7-.554,1.908,1.908,0,0,1,.874-.176c.884,0,1.213.332,1.906,1.032a17.265,17.265,0,0,0,4.533,3.393c.278.14,1.283.63,1.421.735a1,1,0,0,1,.293.373.994.994,0,0,1,.088.467,1.21,1.21,0,0,1-1.109,1.294c-1.093,0-4.906-2.641-6.623-4.5-.247-.3-.363-.4-.519-.4s-.216.09-.508.417Zm-1.561,6.419c0,3-.728,4.81-2.167,6.139a4.446,4.446,0,0,1-2.229,1.172,1.208,1.208,0,0,1-1.178-1.249,1.025,1.025,0,0,1,.47-.862c1.526-.944,1.82-1.137,2.23-1.924a8.253,8.253,0,0,0,.641-3.481V17.223c0-.315,0-1.084,1.109-1.084s1.127.7,1.127,1.084Zm6.44,6.367a.957.957,0,0,1-1.093,1.084c-.867,0-1.2-.332-1.2-1.084v-8.5a.941.941,0,0,1,1.075-1.067c.8,0,1.214.25,1.214,1.067Zm6.682-10.559c-.278,0-.92,0-.92-.927,0-.857.5-.944.92-.944h4c.416,0,.919.07.919.909,0,.892-.5.962-.919.962Zm3.5.717a.777.777,0,0,1,.815.4c.052-.052.087-.088.225-.25a8.125,8.125,0,0,0,1.256-1.692c.5-.857.693-.927,1.022-.927a.669.669,0,0,1,.225.035c0-.053-.017-.088-.017-.157v-.28H130.65c-.417,0-.919-.14-.919-.822a.786.786,0,0,1,.919-.8H132.2v-.447c0-.647.623-.7,1.075-.7.207,0,.9.035.9.7v.437h2.394v-.437c0-.63.45-.717,1.091-.717.365,0,.884.088.884.717v.437h1.283c.45,0,.9.14.9.822a.776.776,0,0,1-.9.8h-1.283v.332c0,.56-.519.63-1.022.63a2.12,2.12,0,0,1-.452-.052,1.207,1.207,0,0,1-.165.525h2.843c.33,0,.659.122.659.612a.575.575,0,0,1-.042.25.588.588,0,0,1-.146.207.564.564,0,0,1-.471.138h-2.917v.5h2.687c.312,0,.537.122.537.525,0,.5-.347.5-.537.5h-2.687v.5h2.67a.483.483,0,0,1,.554.542c0,.525-.4.525-.606.525h-2.617v.542H140c.294,0,.742.053.742.682A.652.652,0,0,1,140,20.6H132.5c-1.612,0-1.942-.367-1.942-1.959v-.979a.911.911,0,0,1-.28.221.9.9,0,0,1-.344.094.87.87,0,0,1-.393-.108.882.882,0,0,1-.3-.277,1.016,1.016,0,0,1-.572.1h-3.051c-.381,0-.919-.052-.919-.927a.816.816,0,0,1,.919-.909Zm-3.051-3.323a.8.8,0,0,1-.919-.91c0-.909.606-.909.919-.909h3.051a.8.8,0,0,1,.919.909c0,.91-.588.91-.919.91Zm0,7.713a.8.8,0,0,1-.919-.91c0-.909.624-.909.919-.909h3.051a.8.8,0,0,1,.919.909c0,.91-.659.91-.971.91Zm5.115,2.309a.742.742,0,0,1-.867-.75c0-.665.5-.769.867-.769h7.662c.3,0,1.238.017,1.238,1.032a1.763,1.763,0,0,1-.675,1.347,10.384,10.384,0,0,1-1.421,1.1,24.77,24.77,0,0,1,2.724.437.692.692,0,0,1,.434.735c0,.962-.78.962-1.075.962a17.623,17.623,0,0,1-4.525-1.032,21.676,21.676,0,0,1-4.681,1.014.839.839,0,0,1-.936-.892c-.278.682-.936.7-1.664.7h-1.3c-1.456,0-1.8-.315-1.8-1.819V22.785c0-1.487.329-1.819,1.82-1.819H127.8c1.487,0,1.82.315,1.82,1.819v1.836c0,.192-.017.42-.035.595a.853.853,0,0,1,.59-.332c.416-.07,2.289-.315,2.652-.385-.554-.332-1.456-.944-1.456-1.434a.665.665,0,0,1,.248-.5Zm-2.688.5a.359.359,0,0,0-.018-.168.374.374,0,0,0-.088-.144.383.383,0,0,0-.143-.09.366.366,0,0,0-.166-.018h-.762a.363.363,0,0,0-.169.015.365.365,0,0,0-.233.235.365.365,0,0,0-.014.17v1.189a.365.365,0,0,0,.014.17.365.365,0,0,0,.233.235.365.365,0,0,0,.169.015h.762a.369.369,0,0,0,.168-.017.379.379,0,0,0,.143-.09.379.379,0,0,0,.1-.313Zm6.883-6.919v-.5h-2.133c-.347,0-.347.227-.347.5Zm0,1.024h-2.477v.5h2.477Zm0,1.557h-2.477c0,.315,0,.542.347.542h2.13Zm-.087-4.305c.365-.75.521-1.049,1.145-1.049a2.168,2.168,0,0,1,.588.07v-.445h-2.39v.315c0,.735-.99.665-1.352.612a.922.922,0,0,1-.017.5Zm-1.959,8.133a9.129,9.129,0,0,0,2.289,1.277c.71-.3,1.906-.787,1.906-1.154,0-.105-.156-.122-.247-.122Zm17.682,3c-1.594,0-1.941-.35-1.941-1.959V20.161c0-1.592.329-1.959,1.941-1.959h1.127c1.577,0,1.942.35,1.942,1.959v3.5a12.183,12.183,0,0,0,.953-.962,36.44,36.44,0,0,1-.468-5.125h-5.449a.711.711,0,0,1-.409-.075.721.721,0,0,1-.3-.292v8.658c0,.367-.052.909-.833.909-.606,0-.935-.175-.935-.909V23.992a23.033,23.033,0,0,1-2.791.647c-.59,0-.833-.647-.833-1.207,0-.63.3-.822.815-.892V12.728c-.537-.052-.71-.5-.71-.979,0-.962.588-1,.953-1h4c.312,0,1.075,0,.92,1.249.069-.07.207-.192.658-.192h1.006V11a.789.789,0,0,1,.9-.822c.407,0,.919.1.919.822v.8h1.11c.416,0,.849.1.849.927,0,.875-.417.945-.815.962-.1.8-.139,1.014-.312,1.977H154.1c-.018-1.469-.052-3.271-.052-4.46,0-.367,0-1.014.936-1.014a.888.888,0,0,1,.8.332c.156.227.156.385.156,1.539v3.6h2.1c.329,0,1.057.018,1.057.909,0,.682-.294,1-1.057,1h-2.061c.035,1.032.1,1.836.191,2.711.122-.28.659-1.574.764-1.784.173-.332.311-.437.606-.437s1.109.14,1.109.75a13.309,13.309,0,0,1-2.028,4.248c.069.25.347,1.207.71,1.207.174,0,.3-.175.434-.665.1-.4.191-.717.641-.717a.9.9,0,0,1,.936.875,4.776,4.776,0,0,1-.762,2.064,1.694,1.694,0,0,1-1.508.892c-1.023,0-1.6-.91-1.942-1.837a16.516,16.516,0,0,1-1.733,1.5.983.983,0,0,1-1.041.083,1,1,0,0,1-.536-.905Zm-4.385-12.8h-1.04v1.837h1.04Zm0,3.638h-1.04v1.924h1.04Zm-1.04,5.877c.225-.035.554-.1,1.04-.21V20.144h-1.04Zm4.153-6.6a15.947,15.947,0,0,0-.278-2c-.849-.07-.762-.909-.728-1.119a.6.6,0,0,1-.347.175v3.3a.752.752,0,0,1,.306-.278.736.736,0,0,1,.406-.072ZM150.242,21h1.733v-.715c0-.3-.139-.437-.417-.437h-.9a.379.379,0,0,0-.416.437Zm0,1.557v.822a.365.365,0,0,0,.014.17.365.365,0,0,0,.233.235.365.365,0,0,0,.169.015h.9a.367.367,0,0,0,.417-.42v-.82Zm.247-8.868c.035.28.209,1.662.209,1.976h.693a17.691,17.691,0,0,0,.247-1.976Zm7.333,1.364c-.519,0-.572-.21-.866-1.119-.156-.5-.5-1.364-.606-1.7a1.436,1.436,0,0,1-.122-.5c0-.42.519-.77,1.006-.77s.588.262.8.77a13.208,13.208,0,0,1,.832,2.449c.02.677-.691.87-1.02.87Z" transform="translate(28.61 1.602)" fill="#e2740f"/>
    <path id="パス_46239" data-name="パス 46239" d="M103.191,9.669c-.2-.587-.5-1.524-.61-1.874l-.035-.1a.677.677,0,0,0-.257-.358.666.666,0,0,0-.421-.122H99.783a.4.4,0,0,0-.371.162.425.425,0,0,0-.05.387c.05.162.473,1.437.7,2.086a.729.729,0,0,0,.3.37.718.718,0,0,0,.464.1h1.86c.3,0,.411-.09.472-.175a.506.506,0,0,0,.073-.234.518.518,0,0,0-.047-.241ZM98.443,7.675a.666.666,0,0,0-.26-.338.657.657,0,0,0-.411-.109H95.687a.4.4,0,0,0-.372.157.433.433,0,0,0-.052.395c.055.17.476,1.444.7,2.084a.724.724,0,0,0,.3.371.713.713,0,0,0,.465.1H98.6a.532.532,0,0,0,.466-.172.488.488,0,0,0,.032-.477c-.23-.692-.622-1.874-.661-2" transform="translate(25.627 0.793)" fill="#051a2b"/>
    <path id="パス_46240" data-name="パス 46240" d="M44.178,25.149a2.565,2.565,0,0,1-.424,1.416,2.531,2.531,0,0,1-1.132.94,2.51,2.51,0,0,1-2.753-.549,2.561,2.561,0,0,1,.376-3.921,2.507,2.507,0,0,1,3.19.313,2.562,2.562,0,0,1,.743,1.8Zm1.508-18.11a1.9,1.9,0,0,0-.441-2.153,1.869,1.869,0,0,0-.661-.4,2.16,2.16,0,0,0-2.608,1.167c-.869,1.562-5.379,10.182-6.134,11.611s-1.709,3.471-2.5,3.161c-.728-.285-1.585-3.418-1.952-4.313-.649-1.589-1.966-3.478-4.166-3-1.682.365-2.628,1.7-4.158,4.65a28.089,28.089,0,0,1-2.12,3.73c-1.55,2.144-2.442-1.387-2.96-3.213-.693-2.451-1.956-5.919-4.705-5.917-1.54,0-3.18.912-5.223,4.248-1.2,1.946-3.987,7.4-4.4,8.365a1.916,1.916,0,0,0,.963,2.6,2.077,2.077,0,0,0,2.63-.962c1.959-3.071,2.5-4.27,3.5-5.682,1.072-1.5,2.531-2.848,3.648.75.7,2.271,1.929,6,5.235,6.019,1.981.015,4.049-1.719,5.013-3.371,1.09-1.869,1.362-2.866,2.192-3.768.423-.46,1.055-.625,1.652.71.577,1.289,1.766,5.367,3.888,6.247,2.994,1.249,5.812-4.857,6.786-6.8.785-1.572,6.177-12.87,6.521-13.695" transform="translate(0)" fill="#209ed8"/>
    <path id="パス_46241" data-name="パス 46241" d="M59.756,7.923A.892.892,0,0,0,59.1,7.7h.015L40.9,7.72a.622.622,0,0,0-.476.215.681.681,0,0,0-.156.44V10.7a.64.64,0,0,0,.19.441.629.629,0,0,0,.441.181h.1l13.272-.018h.54c.386,0,.5.07.585.19.2.265,0,.687-.035.79a11.249,11.249,0,0,1-5.555,7.154l-.156.083-.1-.145c-.679-.937-1.186-1.584-1.776-2.334l-.084-.112a1.138,1.138,0,0,0-.354-.341,1.125,1.125,0,0,0-.463-.159H43.8a.425.425,0,0,0-.255.066.432.432,0,0,0-.169.2.531.531,0,0,0,.047.485,70,70,0,0,1,6.055,9.245.763.763,0,0,0,.286.3.755.755,0,0,0,.4.107H53.5a.4.4,0,0,0,.224-.069.411.411,0,0,0,.15-.181.466.466,0,0,0,0-.455A27.35,27.35,0,0,0,52,22.992l-.111-.167.163-.115c3.9-2.764,7.539-6.284,7.885-14.242a.754.754,0,0,0-.168-.56Zm18.711-.25a.617.617,0,0,0-.5-.215c-.349,0-2.008.012-3.021.017a.859.859,0,0,0-.424.144.869.869,0,0,0-.3.339c-1.734,4-6.744,7-13.636,8.168-.446.087-.659.352-.669.655v2.4a.6.6,0,0,0,.049.254.594.594,0,0,0,.151.209.7.7,0,0,0,.557.172A26.54,26.54,0,0,0,68.607,17.8l.287-.135V26.2a.643.643,0,0,0,.193.46.631.631,0,0,0,.461.18h2.6a.623.623,0,0,0,.413-.181.634.634,0,0,0,.186-.414l.02-10.424.089-.06a15.248,15.248,0,0,0,5.728-7.591.607.607,0,0,0-.109-.5Zm13.946,8.308v-.192l5.82-.015a.632.632,0,0,0,.446-.192.681.681,0,0,0,.181-.43V12.835a.635.635,0,0,0-.182-.458.628.628,0,0,0-.207-.14.622.622,0,0,0-.245-.047H92.452V8.068a.643.643,0,0,0-.194-.467.63.63,0,0,0-.469-.178H89.22a.611.611,0,0,0-.458.2.645.645,0,0,0-.168.435V12.19h-8.73a.636.636,0,0,0-.259.047.645.645,0,0,0-.219.148.663.663,0,0,0-.178.465v2.344a.635.635,0,0,0,.2.445.624.624,0,0,0,.452.172h.1l8.623-.018-.015.217c-.307,5.037-2.7,6.476-7.2,7.406-.391.095-.617.287-.617.632v2.394a.538.538,0,0,0,.2.432.668.668,0,0,0,.476.152c7.539-1.052,10.615-4.248,11-11.046Zm25.826-3.64a.621.621,0,0,0-.412-.172h-.106l-12.631.018V8.06a.648.648,0,0,0-.181-.462.661.661,0,0,0-.5-.195h-2.42a.626.626,0,0,0-.446.189.638.638,0,0,0-.181.453l.02,13.827c0,3.441,1.345,4.89,5.092,4.89h.3l11.392-.02a.631.631,0,0,0,.413-.2.644.644,0,0,0,.174-.424V23.772a.641.641,0,0,0-.046-.245.663.663,0,0,0-.136-.208.629.629,0,0,0-.448-.189H107.69a3.37,3.37,0,0,1-2.046-.395c-.5-.427-.555-1.042-.545-2v-4.97l12.7-.02a.628.628,0,0,0,.454-.188.647.647,0,0,0,.183-.46V12.8a.615.615,0,0,0-.193-.457" transform="translate(10.275 0.847)" fill="#051a2b"/>
  </g>
</svg>
