<svg xmlns="http://www.w3.org/2000/svg" width="239.543" height="176.598" viewBox="0 0 239.543 176.598">
  <g id="main_title_specialnursing" transform="translate(-563.228 -205.231)">
    <g id="グループ_7475" data-name="グループ 7475" transform="translate(-3 17.443)">
      <text id="求人特集" transform="translate(604.9 351.386)" fill="#051a2b" font-size="42" font-family="RoundedMplus1c-Medium, 'Rounded Mplus \31 c'" font-weight="500" letter-spacing="0.02em"><tspan x="0" y="0">求人特集</tspan></text>
    </g>
    <g id="グループ_7488" data-name="グループ 7488" transform="translate(-1985.839 418.487)">
      <g id="グループ_7487" data-name="グループ 7487" transform="translate(-15.539 -7.479)">
        <path id="パス_46499" data-name="パス 46499" d="M41.483-13.153H24.315a.369.369,0,0,1-.349-.291,2.274,2.274,0,0,0-1.106-1.688,2.05,2.05,0,0,0-1.222-.407,4.3,4.3,0,0,0-.7.116l-1.513.407c-.175,0-.233,0-.291-.058a.32.32,0,0,1-.175-.291v-6.518c0-.407.175-.582.582-.582H21.58a.463.463,0,0,1,.524.524,4.259,4.259,0,0,0,1.28,3.143,4.444,4.444,0,0,0,3.2,1.339h14.9c.407,0,.582.175.582.582v3.143C42.065-13.327,41.891-13.153,41.483-13.153ZM1.152-21.708A5.159,5.159,0,0,0,1.5-19.962a4.669,4.669,0,0,0,1.862,2.212,2.352,2.352,0,0,0,1.455.524A2.894,2.894,0,0,0,5.75-17.4a2.411,2.411,0,0,0,1.571-1.688l.757-2.794c.116-.407.349-.582.64-.582H10.7c.349,0,.524.175.524.582v8.5a.708.708,0,0,1-.524.757l-4.074.989-1.513.349A4.2,4.2,0,0,0,2.549-9.428a4.555,4.555,0,0,0-.64,2.153l.116.931A3.725,3.725,0,0,0,3.887-3.783a4.2,4.2,0,0,0,1.979.524A4.033,4.033,0,0,0,7.03-3.434L10.7-4.54a.492.492,0,0,1,.349.116.532.532,0,0,1,.175.291V10.359a3.788,3.788,0,0,0,1.164,2.735,3.8,3.8,0,0,0,5.471,0,3.642,3.642,0,0,0,1.106-2.735v-16.7a.61.61,0,0,1,.524-.7l3.725-1.164c.175-.058.291,0,.291.175a2.744,2.744,0,0,0,.757,1.862,2.744,2.744,0,0,0,1.862.757h2.91c.058,0,.058.058.058.116q.087.175,0,.175a4,4,0,0,0-1.921,2.91,2.626,2.626,0,0,0-.058.757,4.422,4.422,0,0,0,.873,2.619l1.339,1.8a3.742,3.742,0,0,0,2.444,1.746l.873.116a4.038,4.038,0,0,0,2.037-.582A3.972,3.972,0,0,0,36.42,1.688a3.093,3.093,0,0,0,.058-.815,3.206,3.206,0,0,0-.757-2.1,33.149,33.149,0,0,0-3.143-3.725c-.058-.058-.058-.175-.058-.349a.441.441,0,0,1,.233-.116h8.73c.407,0,.582.175.582.582V4.947a1.106,1.106,0,0,1-.291.757,1.737,1.737,0,0,1-.931.175h-2.27a2.721,2.721,0,0,0-2.386,1.28A2.746,2.746,0,0,0,35.605,8.9l.116.989a5.737,5.737,0,0,0,2.037,3.026,4.379,4.379,0,0,0,2.968,1.106h.349a16.682,16.682,0,0,0,6.053-1.339,5.308,5.308,0,0,0,2.619-2.677,13.6,13.6,0,0,0,.7-4.889V-4.831c0-.407.175-.582.582-.582H51.9a3.757,3.757,0,0,0,2.677-1.164,3.788,3.788,0,0,0,1.164-2.735,3.757,3.757,0,0,0-1.164-2.677A3.757,3.757,0,0,0,51.9-13.153h-.873c-.407,0-.582-.175-.582-.582v-3.143c0-.407.175-.582.582-.582h1.513a3.788,3.788,0,0,0,2.735-1.164,3.788,3.788,0,0,0,1.164-2.735,3.788,3.788,0,0,0-1.164-2.735,3.788,3.788,0,0,0-2.735-1.164H44.335c-.407,0-.582-.175-.582-.582v-2.5c0-.349.175-.524.582-.524H50.1a3.788,3.788,0,0,0,2.735-1.164,3.567,3.567,0,0,0,1.106-2.619,3.924,3.924,0,0,0-1.106-2.735A3.642,3.642,0,0,0,50.1-36.49H44.219a.428.428,0,0,1-.466-.466,4.005,4.005,0,0,0-1.222-2.91,3.7,3.7,0,0,0-2.852-1.222H39.5a3.823,3.823,0,0,0-2.91,1.222,4.005,4.005,0,0,0-1.222,2.91.428.428,0,0,1-.466.466H29.436A3.642,3.642,0,0,0,26.7-35.385,3.924,3.924,0,0,0,25.6-32.649,3.567,3.567,0,0,0,26.7-30.03a3.788,3.788,0,0,0,2.735,1.164h5.412a.463.463,0,0,1,.524.524v2.5c0,.407-.175.582-.524.582H23.675c-.349,0-.524-.175-.524-.582v-.873a3.6,3.6,0,0,0-1.106-2.677A3.567,3.567,0,0,0,19.426-30.5a.428.428,0,0,1-.466-.466v-6.169a3.772,3.772,0,0,0-1.106-2.794A3.642,3.642,0,0,0,15.12-41.03a3.642,3.642,0,0,0-2.735,1.106,3.822,3.822,0,0,0-1.164,2.794v6.053c0,.407-.175.582-.524.582h-.524a.528.528,0,0,1-.407-.175,1.481,1.481,0,0,1-.116-.407c.175-.989.233-1.8.291-2.328L10-33.813a4.013,4.013,0,0,0-.815-2.27A3.731,3.731,0,0,0,6.8-37.48a1.46,1.46,0,0,0-.582-.058,3,3,0,0,0-1.921.7,3,3,0,0,0-1.222,2.328A79.525,79.525,0,0,1,1.327-22.93,4.43,4.43,0,0,0,1.152-21.708ZM64.472,7.857a4.269,4.269,0,0,0,1.164,3.026,4.125,4.125,0,0,0,2.735,1.455l.407.058a2.971,2.971,0,0,0,2.328-1.106c3.55-4.19,5.994-9.777,7.333-16.7a.614.614,0,0,1,.7-.582h3.434a.528.528,0,0,1,.407.175.528.528,0,0,1,.175.407q-.524,10.388-1.571,11.7a2.267,2.267,0,0,1-1.921.757H78.206a2.271,2.271,0,0,0-1.921.989,3.051,3.051,0,0,0-.466,1.513,4.839,4.839,0,0,0,.116.757,6.242,6.242,0,0,0,1.688,2.735A3.99,3.99,0,0,0,80.3,14.084h.175a22.011,22.011,0,0,0,3.143-.291,6.805,6.805,0,0,0,4.714-2.561,7.638,7.638,0,0,0,1.28-3.259,53.89,53.89,0,0,0,.815-6.111c.407-4.481.582-7.973.582-10.476a4.784,4.784,0,0,0-1.339-3.259,4.623,4.623,0,0,0-3.434-1.455H80.01a.5.5,0,0,1-.349-.175.678.678,0,0,1-.116-.407c.116-1.222.175-2.212.175-2.852.058-.349-8.5-.466-8.381-.349a.5.5,0,0,1,.175.349A70.255,70.255,0,0,1,69.942-4.307a23.728,23.728,0,0,1-4.481,9.37A4.675,4.675,0,0,0,64.472,7.857ZM94.094-4.656A3.786,3.786,0,0,0,95.317-1.8a4.005,4.005,0,0,0,2.91,1.222,4.005,4.005,0,0,0,2.91-1.222A3.955,3.955,0,0,0,102.3-4.656V-29.739a4.3,4.3,0,0,0-1.164-2.91,4.005,4.005,0,0,0-2.91-1.222,4.005,4.005,0,0,0-2.91,1.222,4.005,4.005,0,0,0-1.222,2.91ZM98.75,8.73a2.216,2.216,0,0,0,.233,1.106,6.042,6.042,0,0,0,2.212,3.2,5.018,5.018,0,0,0,3.2,1.222l.349-.058a22.193,22.193,0,0,0,7.624-1.513,5.523,5.523,0,0,0,2.735-2.91,15.26,15.26,0,0,0,.815-5.471V-35.617a4.041,4.041,0,0,0-1.222-2.968,4.041,4.041,0,0,0-2.968-1.222,4.041,4.041,0,0,0-2.968,1.222,4.041,4.041,0,0,0-1.222,2.968V4.248a1.482,1.482,0,0,1-.349,1.106,1.91,1.91,0,0,1-1.222.349c-1.921,0-3.317,0-4.19-.058h-.058a2.776,2.776,0,0,0-2.386,1.339A2.746,2.746,0,0,0,98.75,8.73Zm67.8-5.18a22.787,22.787,0,0,1-1.921,1.571,1.1,1.1,0,0,1-1.048.175,18.018,18.018,0,0,1-4.539-1.8V3.317a.125.125,0,0,1,.116-.116h7.217c.116,0,.175.058.233.175C166.667,3.434,166.609,3.492,166.551,3.55ZM126.162-19.031a3.225,3.225,0,0,0,.873,2.212,3.192,3.192,0,0,0,2.153.873h5.762c.116,0,.175.058.233.175.058.058,0,.116-.058.175a30.048,30.048,0,0,1-7.158,4.423,2.6,2.6,0,0,0-1.571,2.037,1.99,1.99,0,0,0-.058.64,2.708,2.708,0,0,0,.7,1.8,6.4,6.4,0,0,0,3.085,1.8,3.388,3.388,0,0,0,1.106.175,5.015,5.015,0,0,0,2.328-.64q1.222-.7,1.746-1.048a.26.26,0,0,1,.291,0,.269.269,0,0,1,.175.291V5.936c0,.407-.175.582-.582.64l-1.688.058a4.429,4.429,0,0,0-1.746.582,3.027,3.027,0,0,0-1.164,1.4,3.972,3.972,0,0,0-.291,1.339v.407a3.626,3.626,0,0,0,1.339,2.444,3.932,3.932,0,0,0,2.444.873h.233c2.619-.233,4.6-.407,5.936-.466L152.7,12.163a3.073,3.073,0,0,0,1.921-.989,3.023,3.023,0,0,0,.757-1.979.214.214,0,0,1,.058-.175c.058-.058.116-.058.233,0,3.55,2.386,8.381,3.957,14.433,4.83a2.626,2.626,0,0,0,.757.058,5.626,5.626,0,0,0,2.735-.7,6.937,6.937,0,0,0,2.735-2.619,2.05,2.05,0,0,0,.407-1.222,1.993,1.993,0,0,0-.233-1.048,2.085,2.085,0,0,0-1.862-1.28l-2.27-.175a.312.312,0,0,1-.233-.175c0-.058.058-.116.116-.175l1.339-.931a2.059,2.059,0,0,0,.931-1.746A2.24,2.24,0,0,0,173.3,1.8L171.847.989A2.924,2.924,0,0,0,170.334.7a3.385,3.385,0,0,0-1.455.7c0,.058,0,.058-.058.058l-.058-.116V-6.4a.269.269,0,0,1,.175-.291.26.26,0,0,1,.291,0l1.688.931a5.143,5.143,0,0,0,1.979.466,5.6,5.6,0,0,0,1.455-.233,6.209,6.209,0,0,0,2.91-2.037,2.746,2.746,0,0,0,.582-1.746,2.28,2.28,0,0,0-.116-.757,2.232,2.232,0,0,0-1.688-1.921,31.106,31.106,0,0,1-6.751-3.608c-.058-.116-.116-.175-.058-.233,0-.058.058-.116.175-.116h5.645a3.087,3.087,0,0,0,2.153-.873,3.225,3.225,0,0,0,.873-2.212,3.087,3.087,0,0,0-.873-2.153,3.087,3.087,0,0,0-2.153-.873H157.065c-.407,0-.582-.175-.582-.582v-.116c0-.407.175-.582.582-.582H170.1a3.126,3.126,0,0,0,2.037-.815,2.809,2.809,0,0,0,.815-2.037,2.809,2.809,0,0,0-.815-2.037,2.809,2.809,0,0,0-2.037-.815H157.065c-.407,0-.582-.175-.582-.582V-29.8c0-.407.175-.582.582-.582h15.306a2.914,2.914,0,0,0,2.153-.931,2.9,2.9,0,0,0,.873-2.153,3.087,3.087,0,0,0-.873-2.153,3.087,3.087,0,0,0-2.153-.873h-5.063c-.058,0-.116-.058-.175-.116a.214.214,0,0,1,.058-.175,1.942,1.942,0,0,0,.582-1.28,3,3,0,0,0-.116-.64,2.159,2.159,0,0,0-1.571-1.339l-3.434-.64-.582-.058a2.627,2.627,0,0,0-1.455.407,3.426,3.426,0,0,0-1.571,1.571l-1.106,2.037c-.058.058-.058.175.116.233H146.24c.407-.175.524-.466.349-.815-.349-.64-.7-1.28-1.048-1.862a3.339,3.339,0,0,0-1.921-1.4,4.033,4.033,0,0,0-1.164-.175,4.266,4.266,0,0,0-1.28.233l-2.27.7a2.055,2.055,0,0,0-1.28,1.222,2.009,2.009,0,0,0-.175.757,1.916,1.916,0,0,0,.349,1.106c.058.175,0,.233-.175.233h-5.878a3.192,3.192,0,0,0-2.153.873,3.087,3.087,0,0,0-.873,2.153,2.9,2.9,0,0,0,.873,2.153,2.914,2.914,0,0,0,2.153.931h15.422c.407,0,.582.175.582.582v.175c0,.407-.175.582-.582.582h-12.8a2.809,2.809,0,0,0-2.037.815,2.809,2.809,0,0,0-.815,2.037,2.809,2.809,0,0,0,.815,2.037,3.126,3.126,0,0,0,2.037.815h12.8c.407,0,.582.175.582.582v.116c0,.407-.175.582-.582.582H129.188a3.192,3.192,0,0,0-2.153.873A3.087,3.087,0,0,0,126.162-19.031Zm17.692,5.645c0-.175,0-.291.058-.349a18.969,18.969,0,0,0,1.455-1.746,1.105,1.105,0,0,1,.873-.466h12.28a1.131,1.131,0,0,1,.931.466,14.853,14.853,0,0,0,1.4,1.746.274.274,0,0,1,.058.349c0,.058-.058.116-.175.116H156.25a.154.154,0,0,1-.175-.175,2.141,2.141,0,0,0-.466-1.222,2.141,2.141,0,0,0-1.222-.466h-4.656a2.141,2.141,0,0,0-1.222.466,2.141,2.141,0,0,0-.466,1.222.154.154,0,0,1-.175.175h-3.783A.441.441,0,0,1,143.854-13.386Zm.291,18.856V3.783c0-.407.175-.582.582-.582h4.248a1.131,1.131,0,0,1,.931.466c.116.175.524.64,1.222,1.455a.274.274,0,0,1,.058.349c0,.058-.058.116-.175.116l-6.285.407a.36.36,0,0,1-.407-.116A.528.528,0,0,1,144.145,5.47Zm0-7.74v-.175c0-.407.175-.582.582-.582h14.9c.407,0,.582.175.582.582v.175c0,.349-.175.524-.582.524h-14.9C144.319-1.746,144.145-1.921,144.145-2.27Zm0-5.412V-7.74c0-.407.175-.582.582-.582h14.9c.407,0,.582.175.582.582v.058c0,.407-.175.582-.582.582h-14.9C144.319-7.1,144.145-7.275,144.145-7.682Zm82.234-24.327v.815c0,.233-.116.291-.291.233l-.407-.058a2.368,2.368,0,0,0-1.4.466A2.718,2.718,0,0,0,223-29.041l-.407.989a.464.464,0,0,1-.524.407h-4.83c-.233,0-.291-.058-.175-.233l.582-1.4q.175-.349,0-.524a.478.478,0,0,0-.291-.291h1.048a2.623,2.623,0,0,0,1.63-.64,2.6,2.6,0,0,0,.64-1.571c0-.175.058-.291.233-.291H225.8C226.2-32.591,226.379-32.416,226.379-32.009Zm-40.1,3.9a3.263,3.263,0,0,0,.989,2.328,2.949,2.949,0,0,0,2.27.989h13.153a3.263,3.263,0,0,0,2.328-.989,3.114,3.114,0,0,0,.931-2.328,3.114,3.114,0,0,0-.931-2.328,3.114,3.114,0,0,0-2.328-.931H189.539a2.9,2.9,0,0,0-2.27.931A3.263,3.263,0,0,0,186.28-28.11Zm2.444,16.237a3.237,3.237,0,0,0,.931,2.212,2.862,2.862,0,0,0,2.212.931h9.486a2.862,2.862,0,0,0,2.212-.931,2.948,2.948,0,0,0,.931-2.212,2.948,2.948,0,0,0-.931-2.212,2.862,2.862,0,0,0-2.212-.931h-9.486a2.862,2.862,0,0,0-2.212.931A3.237,3.237,0,0,0,188.725-11.873Zm0-8.031a3.237,3.237,0,0,0,.931,2.212,2.948,2.948,0,0,0,2.212.931h9.2a3.753,3.753,0,0,0,2.444-.989,3.3,3.3,0,0,0,.989-2.386l.116-.175c.058-.058.116-.058.233,0a39.317,39.317,0,0,1,3.725,3.143.964.964,0,0,0,.7.291,1.613,1.613,0,0,0,.7-.291c0-.058,0-.058.058,0v6.111a4.571,4.571,0,0,0,1.455,3.492,4.571,4.571,0,0,0,3.492,1.455H237.96a2.253,2.253,0,0,0,1.8-.757,2.213,2.213,0,0,0,.757-1.746,2.253,2.253,0,0,0-.757-1.8,2.253,2.253,0,0,0-1.8-.757h-8.09c-.349,0-.524-.175-.524-.582v-.116a.463.463,0,0,1,.524-.524h6.053a2.089,2.089,0,0,0,1.4-.582,1.892,1.892,0,0,0,.582-1.4,1.892,1.892,0,0,0-.582-1.4,2.089,2.089,0,0,0-1.4-.582h-6.053a.463.463,0,0,1-.524-.524v-.058c0-.407.175-.582.524-.582h6.053a1.892,1.892,0,0,0,1.4-.582,1.725,1.725,0,0,0,.582-1.4,1.892,1.892,0,0,0-.582-1.4,2.089,2.089,0,0,0-1.4-.582h-6.053a.463.463,0,0,1-.524-.524c0-.407.175-.582.524-.582h6.693a2.386,2.386,0,0,0,1.746-.757,2.42,2.42,0,0,0,.757-1.8,2.386,2.386,0,0,0-.757-1.746,2.386,2.386,0,0,0-1.746-.757h-5.994a.32.32,0,0,1-.291-.175.371.371,0,0,1,0-.349l.291-.524.349-.582a1.8,1.8,0,0,1,.291-.582c.058-.175.175-.233.407-.233h.058a2.6,2.6,0,0,0,1.571-.64,2.6,2.6,0,0,0,.64-1.571.275.275,0,0,1,.291-.291h3.55a2.681,2.681,0,0,0,2.1-.873A2.642,2.642,0,0,0,240.7-35.5a2.857,2.857,0,0,0-.873-2.1,2.681,2.681,0,0,0-2.1-.873h-3.55c-.175,0-.291-.058-.291-.233a2.331,2.331,0,0,0-.7-1.688,2.2,2.2,0,0,0-1.63-.7h-2.852a2.113,2.113,0,0,0-1.63.7,2.331,2.331,0,0,0-.7,1.688c0,.175-.116.233-.291.233h-5.121c-.175,0-.291-.058-.291-.233a2.331,2.331,0,0,0-.7-1.688,2.072,2.072,0,0,0-1.688-.7h-2.735a2.2,2.2,0,0,0-1.63.7,2.331,2.331,0,0,0-.7,1.688c0,.175-.116.233-.291.233h-3.375a2.681,2.681,0,0,0-2.1.873,2.857,2.857,0,0,0-.873,2.1,2.642,2.642,0,0,0,.873,2.037,2.681,2.681,0,0,0,2.1.873H212.7c.349,0,.524.175.524.582v.7c0,.116-.058.175-.233.116a1.673,1.673,0,0,0-1.28.175,1.739,1.739,0,0,0-.931.989,24.713,24.713,0,0,1-6.111,8.613l-.116.058c-.058,0-.058-.058-.058-.116a1.979,1.979,0,0,0-.466-1.106,1.979,1.979,0,0,0-1.106-.466H191.867a2.862,2.862,0,0,0-2.212.931A2.948,2.948,0,0,0,188.725-19.9Zm.349-16.3A2.948,2.948,0,0,0,190-33.988a2.862,2.862,0,0,0,2.212.931h8.962a2.862,2.862,0,0,0,2.212-.931,2.948,2.948,0,0,0,.931-2.212,2.948,2.948,0,0,0-.931-2.212,2.862,2.862,0,0,0-2.212-.931h-8.962a2.862,2.862,0,0,0-2.212.931A2.948,2.948,0,0,0,189.074-36.2ZM206.068,9.952a2.862,2.862,0,0,0,.291,1.164,5.5,5.5,0,0,0,2.1,2.212,3.8,3.8,0,0,0,2.1.582,2.626,2.626,0,0,0,.757-.058,67.353,67.353,0,0,0,11.116-2.91,1.792,1.792,0,0,1,1.106,0,57.138,57.138,0,0,0,9.545,2.619,7.428,7.428,0,0,0,.989.116,5.051,5.051,0,0,0,2.444-.582,8.286,8.286,0,0,0,2.735-2.386,2.1,2.1,0,0,0,.407-1.28,2.636,2.636,0,0,0-.175-.931,2.032,2.032,0,0,0-1.746-1.339q-2.794-.349-5.412-.873-.175-.087-.175-.175a.342.342,0,0,1,.116-.291,23.642,23.642,0,0,0,6.053-6.227,2.1,2.1,0,0,0,.407-1.28l-.058-.64A2.748,2.748,0,0,0,237.32-3.9l-1.28-.64a3.584,3.584,0,0,0-1.513-.349,2.28,2.28,0,0,0-.757.116H210.258a2.857,2.857,0,0,0-2.1.873,2.857,2.857,0,0,0-.873,2.1,2.642,2.642,0,0,0,.873,2.037,2.857,2.857,0,0,0,2.1.873H215.2a.125.125,0,0,1,.116.116c0,.058,0,.058-.058.058A3,3,0,0,0,213.4,3.492l-.058.582a2.282,2.282,0,0,0,1.106,1.979l.058.058c.175.058.175.175.116.291a.154.154,0,0,1-.175.175,61.252,61.252,0,0,1-6.46,1.106,2.119,2.119,0,0,0-1.688,1.28A3.165,3.165,0,0,0,206.068,9.952Zm11.29-21.708v-.116a.463.463,0,0,1,.524-.524h3.608c.407,0,.582.175.582.524v.116c0,.407-.175.582-.582.582h-3.608C217.533-11.174,217.358-11.349,217.358-11.756Zm0-5.121v-.058c0-.407.175-.582.524-.582h3.608c.407,0,.582.175.582.582v.058c0,.349-.175.524-.582.524h-3.608A.463.463,0,0,1,217.358-16.878Zm0-5.121c0-.407.175-.582.524-.582h3.666c.349,0,.524.175.524.582a.463.463,0,0,1-.524.524h-3.666A.463.463,0,0,1,217.358-22ZM219.1,1.222c.058-.058.116-.116.175-.116h7.857a.125.125,0,0,1,.116.116c0,.116,0,.175-.058.233-1.455.931-2.619,1.571-3.375,1.979a1.113,1.113,0,0,1-1.048,0,25.119,25.119,0,0,1-3.608-1.979C219.1,1.338,219.046,1.28,219.1,1.222Z" transform="translate(2563.455 -164.689)" fill="#051a2b"/>
        <path id="パス_46500" data-name="パス 46500" d="M26.441,24.723h5.987c.105,0,.158.053.21.158.053.053.053.105-.053.21-1.05,1.05-2.258,2.153-3.571,3.309a1.152,1.152,0,0,1-.893.368H26.441c-.368,0-.525-.158-.525-.473V25.248C25.916,24.881,26.074,24.723,26.441,24.723ZM1.968,32.338a3.449,3.449,0,0,0,1.05,2.521,3.286,3.286,0,0,0,2.468,1h13.13c.105,0,.158.053.158.105a.193.193,0,0,1-.053.158A83.648,83.648,0,0,1,4.279,43.577,2.441,2.441,0,0,0,2.546,45.52a2.435,2.435,0,0,0-.105.735,2.5,2.5,0,0,0,.683,1.838,5.661,5.661,0,0,0,2.888,2,6.087,6.087,0,0,0,1.471.21,6.182,6.182,0,0,0,2-.42c2.468-1.155,4.149-2,5.042-2.468a.335.335,0,0,1,.315,0,.243.243,0,0,1,.158.263v4.254c0,3.519.788,5.882,2.363,7.142,1.628,1.313,4.674,1.943,9.191,1.943H37.733c3.624,0,6.2-.683,7.72-2.1a8.982,8.982,0,0,0,2.206-4.254,3.879,3.879,0,0,0,.158-1,3.388,3.388,0,0,0-.63-1.891,4.985,4.985,0,0,0-2.521-1.943,2.083,2.083,0,0,0-1.05-.21,2.673,2.673,0,0,0-1.365.368,3.088,3.088,0,0,0-1.576,1.943,5.366,5.366,0,0,1-.42,1.208c-.525.735-1.576,1.1-3.1,1.1H27.229a9.219,9.219,0,0,1-3.519-.42c-.525-.21-.788-.84-.788-1.943V50.457a.536.536,0,0,1,.525-.578A169.584,169.584,0,0,0,41.042,45.31a2.266,2.266,0,0,0,1.576-1.838,1.787,1.787,0,0,0,.053-.525,2.275,2.275,0,0,0-.788-1.786,7.206,7.206,0,0,0-3.361-1.628c-.578-.053-.945-.105-1.155-.105a7.136,7.136,0,0,0-2.521.473,112.526,112.526,0,0,1-11.4,3.519c-.158,0-.315,0-.368-.053a.454.454,0,0,1-.158-.315v-.105a.864.864,0,0,1,.42-.788q4.254-2.836,8.193-5.987a1.426,1.426,0,0,1,.893-.315H46.713a3.286,3.286,0,0,0,2.468-1,3.572,3.572,0,0,0-2.468-6.092h-6.67c-.158,0-.21-.053-.21-.105a.231.231,0,0,1,.053-.263,86.943,86.943,0,0,0,6.512-7.72,3.48,3.48,0,0,0,.578-1.891,3.912,3.912,0,0,0-.105-.945,3.354,3.354,0,0,0-1.838-2.206,4.185,4.185,0,0,0-1.891-.42c-.263,0-.63.053-1.208.105a4.579,4.579,0,0,0-2.626,1.891c-.578.788-1.576,2.048-2.889,3.676,0,.053-.053.053-.105,0l-.105-.105a2.975,2.975,0,0,0-.893-2.153,2.944,2.944,0,0,0-2.1-.893H26.441c-.368,0-.525-.158-.525-.473V15.847a3.728,3.728,0,0,0-1.155-2.783,3.933,3.933,0,0,0-5.672,0,3.728,3.728,0,0,0-1.155,2.783v1.418c0,.315-.158.473-.525.473h-7.09a3.418,3.418,0,0,0-2.468,1.05,3.286,3.286,0,0,0-1,2.468,3.409,3.409,0,0,0,3.466,3.466h7.09c.368,0,.525.158.525.525v3.046c0,.315-.158.473-.525.473H5.487a3.418,3.418,0,0,0-2.468,1.05A3.449,3.449,0,0,0,1.968,32.338ZM75.187,17.37a11.475,11.475,0,0,0-.053,1.471l-.368,3.939c-.21,1.838-.42,3.361-.683,4.569q-.236,1.182-1.1,4.727A42.263,42.263,0,0,1,71.2,37.117Q70.172,39.323,68.675,42a30.886,30.886,0,0,1-3.414,4.832,45.18,45.18,0,0,1-4.517,4.359l-1.891,1.523a3.286,3.286,0,0,0-1.26,2.678,3.5,3.5,0,0,0,1.1,2.573l.053.053A5.763,5.763,0,0,0,62.005,59.6a1.812,1.812,0,0,0,.63.053,4.779,4.779,0,0,0,2.626-.893A46.226,46.226,0,0,0,80.124,37.17c.053-.053.105-.105.158-.105s.105.053.158.105c3.414,9.716,8.876,17.016,16.281,21.9a4.314,4.314,0,0,0,2.258.63,4.6,4.6,0,0,0,1.05-.105,6.131,6.131,0,0,0,3.1-1.838,3.545,3.545,0,0,0,.893-2.311l-.053-.42a3.342,3.342,0,0,0-1.418-2.416,26.759,26.759,0,0,1-3.466-2.468,37.3,37.3,0,0,1-5.567-5.672,36.95,36.95,0,0,1-3.991-6.3,52.577,52.577,0,0,1-2.678-6.355,48.983,48.983,0,0,1-1.628-6.145c-.368-1.733-.683-3.519-.893-5.252L84.01,17.37A4.568,4.568,0,0,0,82.7,14.219a4.09,4.09,0,0,0-2.994-1.26,4.447,4.447,0,0,0-3.151,1.26A4.554,4.554,0,0,0,75.187,17.37Zm47.581,18.14a3.13,3.13,0,0,0-3.256-3.414c-2.416,0-3.676,1.155-3.729,3.414a136,136,0,0,1-1.943,18.539c-.42,2.153.578,3.309,2.941,3.571,2.363.315,3.729-.735,4.149-3.151A130.121,130.121,0,0,0,122.769,35.511ZM112.79,25.164c0,2.783,1.418,4.2,4.2,4.2h9.243V55.52c0,2.573,1.313,3.886,3.939,3.886,2.573,0,3.886-1.313,3.886-3.886V29.366h9.4c2.783,0,4.2-1.418,4.2-4.2s-1.418-4.2-4.2-4.2h-9.4V18.442c0-2.573-1.313-3.886-3.939-3.886-2.573,0-3.886,1.313-3.886,3.886v2.521h-9.243C114.208,20.963,112.79,22.381,112.79,25.164Zm24.789,10.346a130.125,130.125,0,0,0,1.838,18.959c.42,2.416,1.786,3.466,4.149,3.151,2.363-.263,3.361-1.418,2.941-3.571a136,136,0,0,1-1.943-18.539c-.053-2.258-1.313-3.414-3.729-3.414A3.13,3.13,0,0,0,137.579,35.511Zm18.434,3.519q0,4.1,4.1,4.1H176.18c2.731,0,4.1-1.365,4.1-4.149q0-4.1-4.1-4.1H160.109q-4.1,0-4.1,4.1Zm49.008-17.646c.473-2.468-.525-4.044-2.941-4.622-2.783-.473-4.464.735-5.042,3.571-.42,1.943-1.208,5.042-2.416,9.3s-2.941,9.558-5.3,15.808c-1.681,4.2-1,8.035,1.681,10.294a7.9,7.9,0,0,0,5.042,1.733h17.436c6.985.053,10.241-3.571,8.14-11.5a100.452,100.452,0,0,0-3.991-12.184c-.945-2.626-2.678-3.624-5.252-2.941-2.468,1.1-3.2,2.888-2.311,5.252,2.048,6.04,3.2,9.663,3.414,10.766.368,1.523-.158,2.311-1.681,2.363H199.716c-1.628-.053-2.206-.893-1.628-2.573C201.4,37.244,204.128,27.213,205.021,21.383Z" transform="translate(2576.372 -152.502)" fill="#051a2b"/>
      </g>
      <path id="前面オブジェクトで型抜き_5" data-name="前面オブジェクトで型抜き 5" d="M22,23H4a4,4,0,0,1-4-4V4A4,4,0,0,1,4,0H22a4,4,0,0,1,4,4V19A4.005,4.005,0,0,1,22,23ZM10,7A2,2,0,0,0,8,9v5a2,2,0,0,0,2,2h6a2,2,0,0,0,2-2V9a2,2,0,0,0-2-2Z" transform="translate(2611 -211)" fill="#e97d44"/>
      <path id="前面オブジェクトで型抜き_6" data-name="前面オブジェクトで型抜き 6" d="M15,19H4a4,4,0,0,1-4-4V4A4,4,0,0,1,4,0H15a4,4,0,0,1,4,4V15A4,4,0,0,1,15,19ZM7.846,6.782a1,1,0,0,0-1,1v3.435a1,1,0,0,0,1,1h3.308a1,1,0,0,0,1-1V7.782a1,1,0,0,0-1-1Z" transform="translate(2733 -178)" fill="#e97d44"/>
    </g>
  </g>
</svg>
