<svg xmlns="http://www.w3.org/2000/svg" width="330.679" height="138.597" viewBox="0 0 330.679 138.597">
  <g id="main_title_homevisit" transform="translate(-235.271 -188.738)">
    <g id="グループ_7312" data-name="グループ 7312" transform="translate(304 265.335)">
      <text id="求人特集" transform="translate(0 48)" fill="#051a2b" font-size="45" font-family="RoundedMplus1c-Medium, 'Rounded Mplus \31 c'" font-weight="500" letter-spacing="0.02em"><tspan x="0" y="0">求人特集</tspan></text>
    </g>
    <g id="グループ_7463" data-name="グループ 7463" transform="translate(35 -10.226)">
      <g id="グループ_7462" data-name="グループ 7462">
        <path id="前面オブジェクトで型抜き_6" data-name="前面オブジェクトで型抜き 6" d="M-2501.446-758.688a4.045,4.045,0,0,1-3.952,4.072h-3.952l.087,20.309a9.344,9.344,0,0,1-.062,1.027v2.055a5.007,5.007,0,0,1-4.941,5.074h-1.976c-.136,0-.271-.114-.407-.013-.173-.1-.346.013-.519.013h-39.574c-.186,0-.371-.013-.556-.025-.148.013-.3.025-.445.025h-1.977a5.008,5.008,0,0,1-4.94-5.074v-14.207c0-.114,0-.241.011-.355v-8.829h-3.957a3.97,3.97,0,0,1-3.959-4.072,4.176,4.176,0,0,1,1.236-3.044l31.668-28.349a3.5,3.5,0,0,1,2.717-1.017,4.083,4.083,0,0,1,2.606.89l31.533,28.476A3.482,3.482,0,0,1-2501.446-758.688Z" transform="translate(2810.424 990.063)" fill="#fff2c0" opacity="0.709"/>
        <g id="グループ_7460" data-name="グループ 7460" transform="translate(-2437.41 310.636)">
          <path id="パス_46490" data-name="パス 46490" d="M22.26-52.77H8.687A3.288,3.288,0,0,0,6.146-51.7a3.387,3.387,0,0,0-1.07,2.541,3.387,3.387,0,0,0,1.07,2.541,3.288,3.288,0,0,0,2.541,1.07H22.26a3.288,3.288,0,0,0,2.541-1.07,3.719,3.719,0,0,0,1.07-2.541A3.719,3.719,0,0,0,24.8-51.7,3.288,3.288,0,0,0,22.26-52.77ZM1.6-39.866a3.748,3.748,0,0,0,1.137,2.674,3.387,3.387,0,0,0,2.608,1.137H23.731a3.748,3.748,0,0,0,2.674-1.137,3.637,3.637,0,0,0,1.137-2.674,3.637,3.637,0,0,0-1.137-2.674,3.578,3.578,0,0,0-2.674-1.07H5.344a3.334,3.334,0,0,0-2.608,1.07A3.748,3.748,0,0,0,1.6-39.866ZM28.344,4.4a5.487,5.487,0,0,0,3.744,1.872l.4.067a4.021,4.021,0,0,0,3.276-1.6c4.613-5.683,7.689-13.439,9.294-23.2,0-.4.267-.6.735-.6h6.82a.607.607,0,0,1,.468.2.578.578,0,0,1,.2.4c-.4,10.3-1.07,15.98-2.006,17.116a3.283,3.283,0,0,1-2.407,1H46.931A2.825,2.825,0,0,0,44.524.986a2.934,2.934,0,0,0-.6,1.805,3.325,3.325,0,0,0,.2,1.07,7.566,7.566,0,0,0,2.206,3.41,5.1,5.1,0,0,0,3.41,1.337h.2a27.082,27.082,0,0,0,3.878-.334A12.185,12.185,0,0,0,57.161,7.2a8.662,8.662,0,0,0,2.608-2.34c.936-1.2,1.672-3.811,2.14-7.756a168.606,168.606,0,0,0,1.2-19.724,5.147,5.147,0,0,0-1.538-3.744,5.252,5.252,0,0,0-4.012-1.672H46.8a.607.607,0,0,1-.468-.2.607.607,0,0,1-.2-.468l.334-5.483a.683.683,0,0,1,.735-.669H60.771a4.391,4.391,0,0,0,3.209-1.337,4.208,4.208,0,0,0,1.4-3.209,4.249,4.249,0,0,0-1.4-3.276,4.391,4.391,0,0,0-3.209-1.337H51.879c-.4,0-.6-.2-.6-.669V-49.56A5.073,5.073,0,0,0,49.806-53.1a5.073,5.073,0,0,0-3.544-1.471A5.073,5.073,0,0,0,42.719-53.1a4.746,4.746,0,0,0-1.471,3.544v4.881c0,.468-.2.669-.669.669H33.158a4.391,4.391,0,0,0-3.209,1.337A4.434,4.434,0,0,0,28.612-39.4a4.391,4.391,0,0,0,1.337,3.209,4.391,4.391,0,0,0,3.209,1.337h2.674a.607.607,0,0,1,.468.2c.134.067.2.2.2.468l-.4,7.488a62.737,62.737,0,0,1-.869,7.154,33.972,33.972,0,0,1-1.672,7.221,36.979,36.979,0,0,1-2.808,6.352C29.481-3.761,26.071,2.256,28.344,4.4ZM4.876-21.212a3.387,3.387,0,0,0,1.07,2.541A3.288,3.288,0,0,0,8.487-17.6H22.394a3.288,3.288,0,0,0,2.541-1.07A3.719,3.719,0,0,0,26-21.212a3.719,3.719,0,0,0-1.07-2.541,3.288,3.288,0,0,0-2.541-1.07H8.487a3.288,3.288,0,0,0-2.541,1.07A3.387,3.387,0,0,0,4.876-21.212Zm0-9.227A3.387,3.387,0,0,0,5.946-27.9a3.387,3.387,0,0,0,2.541,1.07H22.394a3.387,3.387,0,0,0,2.541-1.07A3.719,3.719,0,0,0,26-30.438a3.387,3.387,0,0,0-1.07-2.541,3.288,3.288,0,0,0-2.541-1.07H8.487a3.288,3.288,0,0,0-2.541,1.07A3.288,3.288,0,0,0,4.876-30.438ZM93.2-44.345v1.07c0,.468-.2.669-.669.669H85.978c-.468,0-.669-.2-.669-.669v-1.07c0-.468.2-.669.669-.669H92.53C93-45.014,93.2-44.813,93.2-44.345ZM75.681,3.995a4.642,4.642,0,0,0,1.4,3.41,4.843,4.843,0,0,0,6.82,0,4.642,4.642,0,0,0,1.4-3.41V-25.758c0-.468.2-.669.669-.669H96.608A5.456,5.456,0,0,0,100.62-28.1a5.456,5.456,0,0,0,1.672-4.012V-46.618a5.456,5.456,0,0,0-1.672-4.012A5.456,5.456,0,0,0,96.608-52.3H81.364a5.456,5.456,0,0,0-4.012,1.672,5.456,5.456,0,0,0-1.672,4.012Zm9.628-38.378V-35.52c0-.468.2-.669.669-.669H92.53c.468,0,.669.2.669.669v1.137c0,.468-.2.669-.669.669H85.978C85.51-33.714,85.309-33.915,85.309-34.383Zm27.212,34.3q.7,1.5,1.4,3.41a7.7,7.7,0,0,0,2.808,3.945,5.674,5.674,0,0,0,3.945,1.471h.334A23.325,23.325,0,0,0,129.169,7a5.912,5.912,0,0,0,3.142-3.343,16.844,16.844,0,0,0,.936-6.084V-46.618a5.456,5.456,0,0,0-1.672-4.012,5.456,5.456,0,0,0-4.012-1.672H111.652a5.456,5.456,0,0,0-4.012,1.672,5.456,5.456,0,0,0-1.672,4.012v14.576a5.456,5.456,0,0,0,1.672,4.012,5.456,5.456,0,0,0,4.012,1.672h11.1c.468,0,.669.2.669.669V-2.558a1.7,1.7,0,0,1-.4,1.27,1.881,1.881,0,0,1-1.337.4s-1.289-4.384-4.948-3.933S112.866-1.562,112.521-.084ZM115.2-34.249v-1.27c0-.468.2-.669.669-.669h6.887c.468,0,.669.2.669.669v1.27c0,.468-.2.669-.669.669h-6.887C115.4-33.581,115.2-33.781,115.2-34.249Zm0-9.026v-1.137c0-.468.2-.669.669-.669h6.887c.468,0,.669.2.669.669v1.137c0,.468-.2.669-.669.669h-6.887C115.4-42.607,115.2-42.807,115.2-43.275Zm50.17-7.221a58.688,58.688,0,0,1-8.491,9.762,63.842,63.842,0,0,1-10.764,8.09,3.589,3.589,0,0,0-1.939,2.741,3.017,3.017,0,0,0-.067.869,4.2,4.2,0,0,0,.8,2.474,6.211,6.211,0,0,0,3.276,2.34,5.09,5.09,0,0,0,1.4.2,5.233,5.233,0,0,0,2.474-.735c1.939-1.137,3.544-2.206,4.881-3.142a.294.294,0,0,1,.334-.067.309.309,0,0,1,.2.334v5.75a36.975,36.975,0,0,1-.267,5.081,36.287,36.287,0,0,1-1.07,5.081A21.186,21.186,0,0,1,153.665-6.3a21.609,21.609,0,0,1-4.346,4.948,4.053,4.053,0,0,0-1.471,3.209,4.053,4.053,0,0,0,1.471,3.209A7.214,7.214,0,0,0,153.4,6.8h.535a5.248,5.248,0,0,0,3.544-1.27,27.888,27.888,0,0,0,5.349-6.419A24.78,24.78,0,0,0,165.9-8.107a42.64,42.64,0,0,0,1.27-6.753,60.281,60.281,0,0,0,.334-6.753v-2.006a5.456,5.456,0,0,0-1.671-4.012,5.456,5.456,0,0,0-4.012-1.672h-2.34c-.134,0-.2-.067-.2-.134v-.2a59.806,59.806,0,0,0,14.174-14.843.611.611,0,0,1,.334-.2.309.309,0,0,1,.334.2c3.142,4.814,7.823,9.628,13.907,14.375.067.067.134.2.067.267,0,.067-.067.134-.2.134h-2.14a5.443,5.443,0,0,0-4.012,1.6,5.5,5.5,0,0,0-1.672,4.078V3.727a4.893,4.893,0,0,0,1.471,3.61,5.166,5.166,0,0,0,7.221,0,4.893,4.893,0,0,0,1.471-3.61V-27.831a.309.309,0,0,1,.2-.334l.334.067c1.738,1.2,3.276,2.206,4.68,3.076a6.484,6.484,0,0,0,2.741.735,6.481,6.481,0,0,0,1.538-.2,6.568,6.568,0,0,0,3.61-2.541,5.265,5.265,0,0,0,.735-2.541,4.191,4.191,0,0,0-.134-1.07,4.148,4.148,0,0,0-2.273-2.875,54.394,54.394,0,0,1-20.125-17.049A10.854,10.854,0,0,0,178-53.773a9.5,9.5,0,0,0-4.613-1.2,9.01,9.01,0,0,0-4.48,1.2A11.167,11.167,0,0,0,165.366-50.5ZM256.1-44.345v.936c0,.267-.134.334-.334.267l-.468-.067a2.72,2.72,0,0,0-1.6.535,3.122,3.122,0,0,0-1.471,1.738l-.468,1.137a.533.533,0,0,1-.6.468h-5.549c-.267,0-.334-.067-.2-.267l.669-1.6q.2-.4,0-.6a.549.549,0,0,0-.334-.334h1.2a3.013,3.013,0,0,0,1.872-.735,2.991,2.991,0,0,0,.735-1.805c0-.2.067-.334.267-.334h5.616C255.9-45.014,256.1-44.813,256.1-44.345Zm-46.067,4.48a3.748,3.748,0,0,0,1.137,2.674,3.387,3.387,0,0,0,2.608,1.137h15.11a3.748,3.748,0,0,0,2.674-1.137,3.578,3.578,0,0,0,1.07-2.674,3.578,3.578,0,0,0-1.07-2.674,3.578,3.578,0,0,0-2.674-1.07h-15.11a3.334,3.334,0,0,0-2.608,1.07A3.748,3.748,0,0,0,210.037-39.866Zm2.541,43.927a3.6,3.6,0,0,0,1.137,2.608,3.2,3.2,0,0,0,2.608,1.137h1.471a1.982,1.982,0,0,0,1.6-.669,2.173,2.173,0,0,0,.669-1.6c0-.2.067-.267.267-.267h4.814a5.456,5.456,0,0,0,4.012-1.672A5.456,5.456,0,0,0,230.83-.418V-9.712a5.456,5.456,0,0,0-1.671-4.012,5.675,5.675,0,0,0-4.012-1.672H218.26a5.456,5.456,0,0,0-4.012,1.672,5.675,5.675,0,0,0-1.672,4.012Zm.267-25.273a3.719,3.719,0,0,0,1.07,2.541,3.288,3.288,0,0,0,2.541,1.07h10.9a3.288,3.288,0,0,0,2.541-1.07,3.387,3.387,0,0,0,1.07-2.541,3.387,3.387,0,0,0-1.07-2.541,3.288,3.288,0,0,0-2.541-1.07h-10.9a3.288,3.288,0,0,0-2.541,1.07A3.719,3.719,0,0,0,212.845-21.212Zm0-9.227a3.719,3.719,0,0,0,1.07,2.541,3.387,3.387,0,0,0,2.541,1.07h10.564a4.311,4.311,0,0,0,2.808-1.137,3.787,3.787,0,0,0,1.137-2.741l.134-.2c.067-.067.134-.067.267,0a45.163,45.163,0,0,1,4.279,3.61,1.107,1.107,0,0,0,.8.334,1.853,1.853,0,0,0,.8-.334c0-.067,0-.067.067,0v7.02a5.252,5.252,0,0,0,1.671,4.012A5.252,5.252,0,0,0,243-14.592h26.41a2.588,2.588,0,0,0,2.073-.869,2.543,2.543,0,0,0,.869-2.006,2.588,2.588,0,0,0-.869-2.073,2.588,2.588,0,0,0-2.073-.869h-9.294c-.4,0-.6-.2-.6-.669v-.134a.532.532,0,0,1,.6-.6h6.953a2.4,2.4,0,0,0,1.6-.669,2.173,2.173,0,0,0,.669-1.6,2.173,2.173,0,0,0-.669-1.6,2.4,2.4,0,0,0-1.6-.669h-6.953a.532.532,0,0,1-.6-.6v-.067c0-.468.2-.669.6-.669h6.953a2.173,2.173,0,0,0,1.6-.669,1.982,1.982,0,0,0,.669-1.6,2.173,2.173,0,0,0-.669-1.6,2.4,2.4,0,0,0-1.6-.669h-6.953a.532.532,0,0,1-.6-.6c0-.468.2-.669.6-.669H267.8a2.741,2.741,0,0,0,2.006-.869,2.78,2.78,0,0,0,.869-2.073,2.741,2.741,0,0,0-.869-2.006,2.741,2.741,0,0,0-2.006-.869h-6.887a.368.368,0,0,1-.334-.2.426.426,0,0,1,0-.4l.334-.6.4-.669a2.064,2.064,0,0,1,.334-.669c.067-.2.2-.267.468-.267h.067a2.991,2.991,0,0,0,1.805-.735,2.991,2.991,0,0,0,.735-1.805.316.316,0,0,1,.334-.334h4.078a3.08,3.08,0,0,0,2.407-1,3.035,3.035,0,0,0,1-2.34,3.283,3.283,0,0,0-1-2.407,3.08,3.08,0,0,0-2.407-1h-4.078c-.2,0-.334-.067-.334-.267a2.678,2.678,0,0,0-.8-1.939,2.53,2.53,0,0,0-1.872-.8h-3.276a2.428,2.428,0,0,0-1.872.8,2.678,2.678,0,0,0-.8,1.939c0,.2-.134.267-.334.267h-5.884c-.2,0-.334-.067-.334-.267a2.678,2.678,0,0,0-.8-1.939,2.381,2.381,0,0,0-1.939-.8h-3.142a2.53,2.53,0,0,0-1.872.8,2.678,2.678,0,0,0-.8,1.939c0,.2-.134.267-.334.267h-3.878a3.08,3.08,0,0,0-2.407,1,3.283,3.283,0,0,0-1,2.407,3.035,3.035,0,0,0,1,2.34,3.08,3.08,0,0,0,2.407,1h3.61c.4,0,.6.2.6.669v.8c0,.134-.067.2-.267.134a1.921,1.921,0,0,0-1.471.2,2,2,0,0,0-1.07,1.137,28.391,28.391,0,0,1-7.02,9.9l-.134.067c-.067,0-.067-.067-.067-.134a2.274,2.274,0,0,0-.535-1.27,2.274,2.274,0,0,0-1.27-.535h-12.7a3.288,3.288,0,0,0-2.541,1.07A3.387,3.387,0,0,0,212.845-30.438Zm.4-18.721a3.387,3.387,0,0,0,1.07,2.541,3.288,3.288,0,0,0,2.541,1.07h10.3a3.288,3.288,0,0,0,2.541-1.07,3.387,3.387,0,0,0,1.07-2.541,3.387,3.387,0,0,0-1.07-2.541,3.288,3.288,0,0,0-2.541-1.07h-10.3a3.288,3.288,0,0,0-2.541,1.07A3.387,3.387,0,0,0,213.246-49.159Zm6.82,46.267V-7.3c0-.4.2-.6.669-.6h1.738c.468,0,.669.2.669.6v4.413c0,.468-.2.669-.669.669h-1.738C220.266-2.223,220.066-2.424,220.066-2.892Zm12.7,6.753A3.289,3.289,0,0,0,233.1,5.2a6.315,6.315,0,0,0,2.407,2.541,4.365,4.365,0,0,0,2.407.669,3.017,3.017,0,0,0,.869-.067A77.379,77.379,0,0,0,251.557,5a2.058,2.058,0,0,1,1.27,0,65.643,65.643,0,0,0,10.965,3.009,8.536,8.536,0,0,0,1.137.134,5.8,5.8,0,0,0,2.808-.669,9.519,9.519,0,0,0,3.142-2.741,2.407,2.407,0,0,0,.468-1.471,3.027,3.027,0,0,0-.2-1.07A2.334,2.334,0,0,0,269.141.652q-3.209-.4-6.218-1-.2-.1-.2-.2a.393.393,0,0,1,.134-.334A27.161,27.161,0,0,0,269.81-8.04a2.407,2.407,0,0,0,.468-1.471l-.067-.735a3.157,3.157,0,0,0-1.538-1.805l-1.471-.735a4.118,4.118,0,0,0-1.738-.4,2.619,2.619,0,0,0-.869.134H237.583a3.283,3.283,0,0,0-2.407,1,3.283,3.283,0,0,0-1,2.407,3.035,3.035,0,0,0,1,2.34,3.283,3.283,0,0,0,2.407,1h5.683a.144.144,0,0,1,.134.134c0,.067,0,.067-.067.067a3.443,3.443,0,0,0-2.14,2.541l-.067.669A2.622,2.622,0,0,0,242.4-.619l.067.067c.2.067.2.2.134.334a.177.177,0,0,1-.2.2,70.369,70.369,0,0,1-7.421,1.27,2.434,2.434,0,0,0-1.939,1.471A3.636,3.636,0,0,0,232.769,3.861ZM245.74-21.078v-.134a.532.532,0,0,1,.6-.6h4.145c.468,0,.669.2.669.6v.134c0,.468-.2.669-.669.669h-4.145C245.94-20.409,245.74-20.61,245.74-21.078Zm0-5.884v-.067c0-.468.2-.669.6-.669h4.145c.468,0,.669.2.669.669v.067c0,.4-.2.6-.669.6h-4.145A.532.532,0,0,1,245.74-26.962Zm0-5.884c0-.468.2-.669.6-.669h4.212c.4,0,.6.2.6.669a.532.532,0,0,1-.6.6h-4.212A.532.532,0,0,1,245.74-32.845Zm2.006,26.677c.067-.067.134-.134.2-.134h9.026a.144.144,0,0,1,.134.134c0,.134,0,.2-.067.267-1.671,1.07-3.009,1.805-3.878,2.273a1.279,1.279,0,0,1-1.2,0A28.858,28.858,0,0,1,247.813-5.9C247.746-6.034,247.679-6.1,247.746-6.168Z" transform="translate(2695.81 -52.533)" fill="#051a2b"/>
          <path id="前面オブジェクトで型抜き_4" data-name="前面オブジェクトで型抜き 4" d="M23.162,24.028H4a4,4,0,0,1-4-4V4A4,4,0,0,1,4,0H23.162a4,4,0,0,1,4,4V20.028A4.005,4.005,0,0,1,23.162,24.028ZM10.357,7.313a2,2,0,0,0-2,2v5.4a2,2,0,0,0,2,2H16.8a2,2,0,0,0,2-2v-5.4a2,2,0,0,0-2-2Z" transform="translate(2786.825 -74.572)" fill="#e2740f"/>
          <path id="前面オブジェクトで型抜き_5" data-name="前面オブジェクトで型抜き 5" d="M23.162,21.938H4a4,4,0,0,1-4-4V4A4,4,0,0,1,4,0H23.162a4,4,0,0,1,4,4V17.939A4,4,0,0,1,23.162,21.938ZM10.357,6.677a2,2,0,0,0-2,2v4.585a2,2,0,0,0,2,2H16.8a2,2,0,0,0,2-2V8.677a2,2,0,0,0-2-2Z" transform="translate(2697.41 -67.753)" fill="#e2740f"/>
        </g>
      </g>
      <g id="homevisit_ttl" transform="translate(-512.216 -164.965)">
        <g id="グループ_7756" data-name="グループ 7756" transform="translate(714.034 381.197)">
          <ellipse id="楕円形_13" data-name="楕円形 13" cx="5.843" cy="5.112" rx="5.843" ry="5.112" transform="translate(0 0)" fill="#fff"/>
          <ellipse id="楕円形_14" data-name="楕円形 14" cx="5.112" cy="5.843" rx="5.112" ry="5.843" transform="translate(27.752 8.764)" fill="#fff"/>
          <rect id="長方形_1623" data-name="長方形 1623" width="11.685" height="18.988" rx="5.843" transform="translate(0 10.224)" fill="#fff"/>
          <rect id="長方形_1624" data-name="長方形 1624" width="5.843" height="18.988" rx="2.921" transform="translate(2.921 29.213)" fill="#fff"/>
          <rect id="長方形_1625" data-name="長方形 1625" width="7.303" height="17.528" rx="3.652" transform="translate(29.213 18.988)" fill="#fff"/>
          <rect id="長方形_1626" data-name="長方形 1626" width="5.843" height="16.067" rx="2.921" transform="translate(46.74 30.673) rotate(90)" fill="#fff"/>
          <rect id="長方形_1627" data-name="長方形 1627" width="5.001" height="12.112" rx="2.501" transform="translate(51.313 40.799) rotate(155)" fill="#fff"/>
          <circle id="楕円形_15" data-name="楕円形 15" cx="10.224" cy="10.224" r="10.224" transform="translate(18.988 27.752)" fill="#fff"/>
        </g>
        <path id="楕円形_5" data-name="楕円形 5" d="M5.766,0A5.766,5.766,0,1,1,0,5.766,5.772,5.772,0,0,1,5.766,0Zm0,9.556a3.79,3.79,0,1,0-3.79-3.79A3.794,3.794,0,0,0,5.766,9.556Z" transform="translate(740.323 400.281) rotate(-76.717)" fill="#2b2f2f"/>
        <path id="パス_49393" data-name="パス 49393" d="M379.8,265.508a11.341,11.341,0,0,1-6.171-20.856.988.988,0,0,1,1.077,1.657,9.365,9.365,0,1,0,14.345,9.33.988.988,0,0,1,1.952.308A11.28,11.28,0,0,1,379.8,265.508Z" transform="translate(363.135 164.368)" fill="#2b2f2f"/>
        <path id="パス_49394" data-name="パス 49394" d="M415.525,246.367h0a3.143,3.143,0,0,1-2.784-1.669l-2.161-4.072H400.4a4.782,4.782,0,0,1-3.517-1.514,3.1,3.1,0,0,1-.905-2.64,4.308,4.308,0,0,1-.029-.487v-8.713a4.645,4.645,0,0,1,5.1-4.619,4.743,4.743,0,0,1,4.181,4.733v5.007a.809.809,0,0,0,.809.809h5.336c.081,0,.161,0,.241.009s.166-.01.249-.01a3.14,3.14,0,0,1,2.783,1.668l3.614,6.811a3.2,3.2,0,0,1-.908,4.1A3.127,3.127,0,0,1,415.525,246.367Zm-14.939-21.761a2.669,2.669,0,0,0-2.666,2.666v8.713a2.611,2.611,0,0,0,.029.36.988.988,0,0,1,0,.293,1.157,1.157,0,0,0,.386,1.135,2.8,2.8,0,0,0,2.064.877h10.779a.988.988,0,0,1,.873.525l2.439,4.6a1.171,1.171,0,0,0,1.039.619,1.212,1.212,0,0,0,.678-.219,1.233,1.233,0,0,0,.31-1.567l-3.614-6.811a1.168,1.168,0,0,0-1.037-.618,2.7,2.7,0,0,1-.333.009l-5.493-.008a2.787,2.787,0,0,1-2.784-2.784v-5.007a2.751,2.751,0,0,0-2.4-2.766C400.763,224.611,400.674,224.606,400.585,224.606Z" transform="translate(346.533 177.575)" fill="#2b2f2f"/>
        <path id="パス_49395" data-name="パス 49395" d="M376.1,237.222a.988.988,0,0,1-.96-.758l-3.788-15.789H364.5a.988.988,0,0,1,0-1.976h7.631a.988.988,0,0,1,.961.757L377.064,236a.989.989,0,0,1-.961,1.219Z" transform="translate(366.122 179.949)" fill="#2b2f2f"/>
        <path id="楕円形_6" data-name="楕円形 6" d="M3.144,0A3.144,3.144,0,1,1,0,3.144,3.148,3.148,0,0,1,3.144,0Zm0,4.313A1.168,1.168,0,1,0,1.976,3.144,1.17,1.17,0,0,0,3.144,4.313Z" transform="matrix(0.924, -0.383, 0.383, 0.924, 738.826, 416.835)" fill="#2b2f2f"/>
        <path id="楕円形_7" data-name="楕円形 7" d="M6.1,0A6.1,6.1,0,1,1,0,6.1,6.106,6.106,0,0,1,6.1,0Zm0,10.222A4.123,4.123,0,1,0,1.976,6.1,4.128,4.128,0,0,0,6.1,10.222Z" transform="matrix(0.23, -0.973, 0.973, 0.23, 712.487, 390.798)" fill="#2b2f2f"/>
        <path id="パス_49396" data-name="パス 49396" d="M329.253,219.971a6.221,6.221,0,0,1-6.214-6.214V205.3a6.214,6.214,0,1,1,12.429,0v8.457A6.221,6.221,0,0,1,329.253,219.971Zm0-18.91a4.243,4.243,0,0,0-4.239,4.239v8.457a4.239,4.239,0,1,0,8.477,0V205.3A4.243,4.243,0,0,0,329.253,201.061Z" transform="translate(390.572 191.797)" fill="#2b2f2f"/>
        <path id="パス_49397" data-name="パス 49397" d="M333.217,266.51a3.731,3.731,0,0,1-3.617-3.828V247.343a.988.988,0,1,1,1.976,0v15.339a1.653,1.653,0,1,0,3.282,0V247.343a.988.988,0,1,1,1.976,0v15.339A3.731,3.731,0,0,1,333.217,266.51Z" transform="translate(386.608 163.244)" fill="#2b2f2f"/>
        <path id="パス_49398" data-name="パス 49398" d="M345.491,215.06h-.017c-9.214-.151-9.891-5.814-9.916-6.055a.988.988,0,0,1,1.965-.209c.025.193.633,4.168,7.983,4.288a.988.988,0,0,1-.016,1.976Z" transform="translate(383.012 186.462)" fill="#2b2f2f"/>
      </g>
    </g>
  </g>
</svg>
