<svg id="paidnursing_ttl_invert" xmlns="http://www.w3.org/2000/svg" width="221.576" height="37" viewBox="0 0 221.576 37">
  <text id="ホーム" transform="translate(131.576 32)" fill="#fff" font-size="37" font-family="'NicoMoji\+'" letter-spacing="0.06em"><tspan x="0" y="0">ホーム</tspan></text>
  <g id="グループ_7473" data-name="グループ 7473" transform="translate(0 4.377)">
    <path id="パス_46489" data-name="パス 46489" d="M23.153-40.573h-9.7c-.218,0-.312-.094-.312-.312v-.686c0-.218.094-.312.312-.312h9.7c.218,0,.312.094.312.312v.686C23.465-40.666,23.371-40.573,23.153-40.573ZM3.2-49.739a2.048,2.048,0,0,0,.624,1.5,2.048,2.048,0,0,0,1.5.624H9.186a.144.144,0,0,1,.156.094.139.139,0,0,1,0,.156A23.822,23.822,0,0,1,3.979-40.6a2.167,2.167,0,0,0-.748,1.465v.249a1.992,1.992,0,0,0,.5,1.341,2.532,2.532,0,0,0,1.59.873.782.782,0,0,0,.312.031A2.1,2.1,0,0,0,7-37.174c.343-.281.811-.717,1.434-1.341.031-.031.062-.031.125-.031q.094.047.094.094v10.319a2.165,2.165,0,0,0,.655,1.59,2.165,2.165,0,0,0,1.59.655,2.165,2.165,0,0,0,1.59-.655,2.165,2.165,0,0,0,.655-1.59v-3.3c0-.218.094-.312.312-.312h9.7c.218,0,.312.094.312.312v.811c0,.374-.218.561-.686.561H21.407a1.4,1.4,0,0,0-1.216.624,1.447,1.447,0,0,0-.312.9,1.292,1.292,0,0,0,.094.5,3.211,3.211,0,0,0,1.06,1.621,2.346,2.346,0,0,0,1.59.592h.156a8.732,8.732,0,0,0,3.336-.717,2.579,2.579,0,0,0,1.4-1.4,7.214,7.214,0,0,0,.374-2.588V-43.16a2.646,2.646,0,0,0-.779-1.871,2.544,2.544,0,0,0-1.871-.779H13.987a.167.167,0,0,1-.125-.094.117.117,0,0,1,0-.187l.655-1.278a.5.5,0,0,1,.436-.249H29.17a2.048,2.048,0,0,0,1.5-.624,2.048,2.048,0,0,0,.624-1.5,2.048,2.048,0,0,0-.624-1.5,2.048,2.048,0,0,0-1.5-.624h-12.5a.171.171,0,0,1-.156-.094c-.062-.031-.062-.062-.031-.156l.031-.062a2.78,2.78,0,0,0,.094-.686,2.312,2.312,0,0,0-.249-1.06,2.244,2.244,0,0,0-1.434-1.06c-.281-.031-.5-.062-.592-.062a2.428,2.428,0,0,0-1.278.374,2.712,2.712,0,0,0-1.185,1.5c-.062.218-.187.561-.343,1.029a.367.367,0,0,1-.374.281H5.32a2.048,2.048,0,0,0-1.5.624A2.048,2.048,0,0,0,3.2-49.739ZM13.145-35.8v-.717c0-.218.094-.312.312-.312h9.7c.218,0,.312.094.312.312v.717c0,.218-.094.312-.312.312h-9.7C13.239-35.491,13.145-35.584,13.145-35.8Zm21.6-7.233a2.048,2.048,0,0,0,.624,1.5,2.048,2.048,0,0,0,1.5.624h.655a.189.189,0,0,1,.187.094c.031.094.062.156.031.187a38.773,38.773,0,0,1-2.182,4.77,5.237,5.237,0,0,0-.686,2.214,1.285,1.285,0,0,0-.031.374,4.439,4.439,0,0,0,.405,1.9,1.106,1.106,0,0,0,1.029.748h.156a.948.948,0,0,0,.935-.592c.655-1.4,1.278-2.931,1.839-4.521l.062-.031.031.031v7.7a1.951,1.951,0,0,0,.592,1.465,2.048,2.048,0,0,0,1.5.624,2.029,2.029,0,0,0,1.465-.624,1.978,1.978,0,0,0,.624-1.465v-7.451l.062-.094c.031,0,.062,0,.062.031l.405.686a1.719,1.719,0,0,0,1.372.873c.031.031.094.031.187.031a1.494,1.494,0,0,0,1.278-.686l.748-.935a.162.162,0,0,1,.125-.062q.094.047.094.094l.187,1a2.437,2.437,0,0,0,1.029,1.715,2.467,2.467,0,0,0,1.5.5l.5-.062,5.269-.966a.189.189,0,0,1,.187.094.285.285,0,0,1,.094.156v5.113a2.271,2.271,0,0,0,.624,1.5,2.048,2.048,0,0,0,1.5.624,2.048,2.048,0,0,0,1.5-.624,2.271,2.271,0,0,0,.624-1.5V-33.87a.329.329,0,0,1,.312-.374l1.185-.218a1.977,1.977,0,0,0,1.372-.873,2.164,2.164,0,0,0,.436-1.247l-.031-.374a2.161,2.161,0,0,0-.873-1.372,1.919,1.919,0,0,0-1.185-.374,1.163,1.163,0,0,0-.374.062l-.53.062a.363.363,0,0,1-.218-.062.285.285,0,0,1-.094-.156V-53.386a2.048,2.048,0,0,0-.624-1.5,2.048,2.048,0,0,0-1.5-.624,2.048,2.048,0,0,0-1.5.624,2.048,2.048,0,0,0-.624,1.5v15.308a.327.327,0,0,1-.281.374l-8.168,1.465a.847.847,0,0,1-.53-.187c-.405-.53-1.122-1.309-2.151-2.4A27.069,27.069,0,0,0,43.5-40.76l-.031-.094a.067.067,0,0,1,.062-.062h2.182a1.978,1.978,0,0,0,1.465-.624,2.048,2.048,0,0,0,.624-1.5,2.029,2.029,0,0,0-.624-1.465,1.978,1.978,0,0,0-1.465-.624H43.784c-.218,0-.312-.094-.312-.312v-.592a.144.144,0,0,1,.094-.156.264.264,0,0,1,.187-.062,3.075,3.075,0,0,0,.748.094,2.706,2.706,0,0,0,1.309-.312,2.625,2.625,0,0,0,1.309-1.528l1.029-3.242a1.729,1.729,0,0,0,.094-.53,1.528,1.528,0,0,0-.281-.873,1.506,1.506,0,0,0-1.122-.811l-.405-.062a1.832,1.832,0,0,0-1,.343,1.773,1.773,0,0,0-.779,1.216c-.343,1.839-.717,3.554-1.122,5.113,0,.031,0,.031-.031.031l-.031-.062V-53.2a1.978,1.978,0,0,0-.624-1.465,2.029,2.029,0,0,0-1.465-.624,2.047,2.047,0,0,0-1.5.624,1.951,1.951,0,0,0-.592,1.465v7.763c0,.218-.094.312-.312.312h-2.12a2.048,2.048,0,0,0-1.5.624A2.029,2.029,0,0,0,34.743-43.036Zm.156-8.636a2.3,2.3,0,0,0,.062.374,34.584,34.584,0,0,1,.717,4.178,1.435,1.435,0,0,0,.624,1.06,1.26,1.26,0,0,0,.779.281,2.3,2.3,0,0,0,.374-.062,2.329,2.329,0,0,0,1.185-.811,2.028,2.028,0,0,0,.343-1.06.692.692,0,0,0-.031-.281,30.869,30.869,0,0,0-.811-4.115,1.5,1.5,0,0,0-.779-1,1.374,1.374,0,0,0-.811-.218c-.094,0-.218.031-.436.062a1.737,1.737,0,0,0-.966.717A1.859,1.859,0,0,0,34.9-51.671Zm47.669,3.118h3.554c.062,0,.094.031.125.094.031.031.031.062-.031.125-.624.624-1.341,1.278-2.12,1.964a.684.684,0,0,1-.53.218h-1c-.218,0-.312-.094-.312-.281v-1.808C82.255-48.46,82.349-48.554,82.567-48.554ZM68.039-44.033a2.048,2.048,0,0,0,.624,1.5,1.951,1.951,0,0,0,1.465.592h7.794c.062,0,.094.031.094.062a.115.115,0,0,1-.031.094,49.656,49.656,0,0,1-8.573,4.427,1.449,1.449,0,0,0-1.029,1.154,1.445,1.445,0,0,0-.062.436,1.482,1.482,0,0,0,.405,1.091A3.361,3.361,0,0,0,70.439-33.5a3.613,3.613,0,0,0,.873.125A3.67,3.67,0,0,0,72.5-33.62c1.465-.686,2.463-1.185,2.993-1.465a.2.2,0,0,1,.187,0,.144.144,0,0,1,.094.156V-32.4c0,2.089.468,3.492,1.4,4.24.966.779,2.775,1.154,5.456,1.154H89.27c2.151,0,3.679-.405,4.583-1.247a5.332,5.332,0,0,0,1.309-2.525,2.3,2.3,0,0,0,.094-.592,2.011,2.011,0,0,0-.374-1.122,2.959,2.959,0,0,0-1.5-1.154,1.236,1.236,0,0,0-.624-.125,1.587,1.587,0,0,0-.811.218,1.833,1.833,0,0,0-.935,1.154,3.185,3.185,0,0,1-.249.717,2.151,2.151,0,0,1-1.839.655H83.035a5.472,5.472,0,0,1-2.089-.249c-.312-.125-.468-.5-.468-1.154v-.842a.318.318,0,0,1,.312-.343,100.669,100.669,0,0,0,10.444-2.712,1.345,1.345,0,0,0,.935-1.091,1.061,1.061,0,0,0,.031-.312,1.35,1.35,0,0,0-.468-1.06,4.278,4.278,0,0,0-2-.966c-.343-.031-.561-.062-.686-.062a4.236,4.236,0,0,0-1.5.281,66.8,66.8,0,0,1-6.765,2.089c-.094,0-.187,0-.218-.031a.269.269,0,0,1-.094-.187v-.062a.513.513,0,0,1,.249-.468q2.525-1.684,4.864-3.554a.847.847,0,0,1,.53-.187H94.6a1.951,1.951,0,0,0,1.465-.592,2.048,2.048,0,0,0,.624-1.5,2.048,2.048,0,0,0-.624-1.5,2.029,2.029,0,0,0-1.465-.624H90.642c-.094,0-.125-.031-.125-.062a.137.137,0,0,1,.031-.156,51.611,51.611,0,0,0,3.866-4.583,2.066,2.066,0,0,0,.343-1.122,2.321,2.321,0,0,0-.062-.561A1.991,1.991,0,0,0,93.6-53.947a2.484,2.484,0,0,0-1.122-.249c-.156,0-.374.031-.717.062a2.718,2.718,0,0,0-1.559,1.122c-.343.468-.935,1.216-1.715,2.182,0,.031-.031.031-.062,0l-.062-.062a1.766,1.766,0,0,0-.53-1.278,1.748,1.748,0,0,0-1.247-.53H82.567c-.218,0-.312-.094-.312-.281v-.842a2.213,2.213,0,0,0-.686-1.652,2.311,2.311,0,0,0-1.684-.717,2.311,2.311,0,0,0-1.684.717,2.213,2.213,0,0,0-.686,1.652v.842c0,.187-.094.281-.312.281H73a2.029,2.029,0,0,0-1.465.624,1.951,1.951,0,0,0-.592,1.465,1.951,1.951,0,0,0,.592,1.465A1.951,1.951,0,0,0,73-48.554H77.2c.218,0,.312.094.312.312v1.808c0,.187-.094.281-.312.281H70.128a2.029,2.029,0,0,0-1.465.624A2.048,2.048,0,0,0,68.039-44.033ZM110.2-52.918a6.812,6.812,0,0,0-.031.873l-.218,2.338c-.125,1.091-.249,2-.405,2.712q-.14.7-.655,2.806a25.093,25.093,0,0,1-1.06,2.993q-.608,1.309-1.5,2.9a18.337,18.337,0,0,1-2.026,2.868,26.824,26.824,0,0,1-2.681,2.588l-1.122.9a1.951,1.951,0,0,0-.748,1.59,2.077,2.077,0,0,0,.655,1.528l.031.031a3.421,3.421,0,0,0,1.933.935,1.076,1.076,0,0,0,.374.031,2.837,2.837,0,0,0,1.559-.53,27.441,27.441,0,0,0,8.823-12.813c.031-.031.062-.062.094-.062s.062.031.094.062a24.851,24.851,0,0,0,9.665,13,2.561,2.561,0,0,0,1.341.374,2.729,2.729,0,0,0,.624-.062,3.64,3.64,0,0,0,1.839-1.091,2.1,2.1,0,0,0,.53-1.372l-.031-.249A1.984,1.984,0,0,0,126.448-32a15.884,15.884,0,0,1-2.058-1.465,22.142,22.142,0,0,1-3.3-3.367,21.934,21.934,0,0,1-2.369-3.741,31.208,31.208,0,0,1-1.59-3.772,29.074,29.074,0,0,1-.966-3.648c-.218-1.029-.405-2.089-.53-3.118l-.187-1.808a2.712,2.712,0,0,0-.779-1.871,2.428,2.428,0,0,0-1.777-.748,2.64,2.64,0,0,0-1.871.748A2.7,2.7,0,0,0,110.2-52.918Z" transform="translate(-3.2 56.192)" fill="#fff"/>
    <path id="パス_46490" data-name="パス 46490" d="M0,2.3A2.22,2.22,0,0,1,.671.671,2.22,2.22,0,0,1,2.3,0a2.22,2.22,0,0,1,1.63.671A2.22,2.22,0,0,1,4.6,2.3a2.22,2.22,0,0,1-.671,1.63A2.22,2.22,0,0,1,2.3,4.6a2.22,2.22,0,0,1-1.63-.671A2.22,2.22,0,0,1,0,2.3Zm6.441,0A2.22,2.22,0,0,1,7.112.671a2.315,2.315,0,0,1,3.261,0,2.22,2.22,0,0,1,.671,1.63,2.22,2.22,0,0,1-.671,1.63,2.315,2.315,0,0,1-3.261,0A2.22,2.22,0,0,1,6.441,2.3Z" transform="translate(46.949 14.864) rotate(-90)" fill="#00b6f1"/>
  </g>
</svg>
