<svg xmlns="http://www.w3.org/2000/svg" width="455.568" height="25.772" viewBox="0 0 455.568 25.772">
  <g id="register_bg" transform="translate(1.237 1.237)">
    <g id="グループ_7348" data-name="グループ 7348" transform="translate(12.763 0)">
      <path id="パス_46333" data-name="パス 46333" d="M8693.652,679.859l5.5,17.846" transform="translate(-8691.753 -674.529)" fill="none" stroke="#051a2b" stroke-linecap="round" stroke-width="2"/>
      <path id="パス_46334" data-name="パス 46334" d="M0,0V0Z" transform="translate(0 0) rotate(-16)" fill="none" stroke="#051a2b" stroke-linecap="round" stroke-linejoin="round" stroke-width="2"/>
    </g>
    <g id="グループ_7349" data-name="グループ 7349" transform="translate(432.934 0)">
      <path id="パス_46333-2" data-name="パス 46333" d="M8699.15,679.859l-5.5,17.846" transform="translate(-8693.652 -674.529)" fill="none" stroke="#051a2b" stroke-linecap="round" stroke-width="2"/>
      <path id="パス_46334-2" data-name="パス 46334" d="M0,.905v0Z" transform="translate(7.148 0.87) rotate(-164)" fill="none" stroke="#051a2b" stroke-linecap="round" stroke-linejoin="round" stroke-width="2"/>
    </g>
    <g id="グループ_7350" data-name="グループ 7350" transform="translate(0 6.594)">
      <path id="パス_46333-3" data-name="パス 46333" d="M8693.652,679.858l7.087,12.719" transform="translate(-8691.204 -675.996)" fill="none" stroke="#051a2b" stroke-linecap="round" stroke-width="2"/>
      <path id="パス_46334-3" data-name="パス 46334" d="M0,0,.138.685Z" transform="translate(0 0.064) rotate(-16)" fill="none" stroke="#051a2b" stroke-linecap="round" stroke-linejoin="round" stroke-width="2"/>
    </g>
    <g id="グループ_7351" data-name="グループ 7351" transform="translate(443.558 6.594)">
      <path id="パス_46333-4" data-name="パス 46333" d="M8700.739,679.858l-7.089,12.719" transform="translate(-8693.65 -675.996)" fill="none" stroke="#051a2b" stroke-linecap="round" stroke-width="2"/>
      <path id="パス_46334-4" data-name="パス 46334" d="M.045.7.183.015Z" transform="translate(9.386 0.749) rotate(-164)" fill="none" stroke="#051a2b" stroke-linecap="round" stroke-linejoin="round" stroke-width="2"/>
    </g>
  </g>
</svg>
