<svg xmlns="http://www.w3.org/2000/svg" width="309.272" height="36.496" viewBox="0 0 309.272 36.496">
  <g id="specialnursing_ttl" transform="translate(-567.909 -760.851)">
    <g id="グループ_7487" data-name="グループ 7487" transform="translate(567.909 760.851)">
      <path id="パス_46499" data-name="パス 46499" d="M27.747-22.667H16.426a.243.243,0,0,1-.23-.192,1.5,1.5,0,0,0-.729-1.113,1.352,1.352,0,0,0-.806-.269,2.834,2.834,0,0,0-.461.077l-1,.269c-.115,0-.154,0-.192-.038a.211.211,0,0,1-.115-.192v-4.3c0-.269.115-.384.384-.384h1.343a.305.305,0,0,1,.345.345,2.808,2.808,0,0,0,.844,2.072,2.931,2.931,0,0,0,2.111.883h9.824c.269,0,.384.115.384.384v2.072C28.131-22.782,28.016-22.667,27.747-22.667ZM1.152-28.309a3.4,3.4,0,0,0,.23,1.151A3.079,3.079,0,0,0,2.61-25.7a1.551,1.551,0,0,0,.959.345,1.908,1.908,0,0,0,.614-.115A1.59,1.59,0,0,0,5.22-26.582l.5-1.842c.077-.269.23-.384.422-.384h1.3c.23,0,.345.115.345.384v5.6a.467.467,0,0,1-.345.5l-2.686.652-1,.23a2.77,2.77,0,0,0-1.689,1.228,3,3,0,0,0-.422,1.42l.077.614a2.456,2.456,0,0,0,1.228,1.689,2.767,2.767,0,0,0,1.3.345,2.659,2.659,0,0,0,.768-.115l2.418-.729a.324.324,0,0,1,.23.077.351.351,0,0,1,.115.192v9.556a2.5,2.5,0,0,0,.768,1.8,2.5,2.5,0,0,0,1.8.768,2.5,2.5,0,0,0,1.8-.768,2.4,2.4,0,0,0,.729-1.8V-18.177a.4.4,0,0,1,.345-.461l2.456-.768c.115-.038.192,0,.192.115a1.809,1.809,0,0,0,.5,1.228,1.809,1.809,0,0,0,1.228.5h1.919c.038,0,.038.038.038.077q.058.115,0,.115a2.639,2.639,0,0,0-1.266,1.919,1.732,1.732,0,0,0-.038.5,2.916,2.916,0,0,0,.576,1.727l.883,1.19a2.468,2.468,0,0,0,1.612,1.151l.576.077a2.663,2.663,0,0,0,1.343-.384,2.619,2.619,0,0,0,1.151-1.689,2.039,2.039,0,0,0,.038-.537,2.114,2.114,0,0,0-.5-1.382,21.859,21.859,0,0,0-2.072-2.456c-.038-.038-.038-.115-.038-.23a.291.291,0,0,1,.154-.077h5.756c.269,0,.384.115.384.384v6.447a.73.73,0,0,1-.192.5,1.145,1.145,0,0,1-.614.115h-1.5a1.794,1.794,0,0,0-1.573.844,1.811,1.811,0,0,0-.384,1.151l.077.652a3.783,3.783,0,0,0,1.343,2,2.888,2.888,0,0,0,1.957.729h.23a11,11,0,0,0,3.991-.883A3.5,3.5,0,0,0,33.2-7.393a8.969,8.969,0,0,0,.461-3.224v-6.562c0-.269.115-.384.384-.384h.576a2.477,2.477,0,0,0,1.765-.768,2.5,2.5,0,0,0,.768-1.8,2.477,2.477,0,0,0-.768-1.765,2.477,2.477,0,0,0-1.765-.768h-.576c-.269,0-.384-.115-.384-.384v-2.072c0-.269.115-.384.384-.384h1a2.5,2.5,0,0,0,1.8-.768,2.5,2.5,0,0,0,.768-1.8,2.5,2.5,0,0,0-.768-1.8,2.5,2.5,0,0,0-1.8-.768H29.627c-.269,0-.384-.115-.384-.384v-1.65c0-.23.115-.345.384-.345h3.8a2.5,2.5,0,0,0,1.8-.768,2.352,2.352,0,0,0,.729-1.727,2.588,2.588,0,0,0-.729-1.8,2.4,2.4,0,0,0-1.8-.729H29.551a.282.282,0,0,1-.307-.307,2.641,2.641,0,0,0-.806-1.919,2.439,2.439,0,0,0-1.88-.806h-.115a2.521,2.521,0,0,0-1.919.806,2.641,2.641,0,0,0-.806,1.919.282.282,0,0,1-.307.307H19.8a2.4,2.4,0,0,0-1.8.729,2.588,2.588,0,0,0-.729,1.8A2.352,2.352,0,0,0,18-33.8a2.5,2.5,0,0,0,1.8.768h3.569a.305.305,0,0,1,.345.345v1.65c0,.269-.115.384-.345.384H16c-.23,0-.345-.115-.345-.384v-.576a2.376,2.376,0,0,0-.729-1.765A2.352,2.352,0,0,0,13.2-34.1a.282.282,0,0,1-.307-.307v-4.068a2.487,2.487,0,0,0-.729-1.842,2.4,2.4,0,0,0-1.8-.729,2.4,2.4,0,0,0-1.8.729,2.52,2.52,0,0,0-.768,1.842v3.991c0,.269-.115.384-.345.384H7.1a.348.348,0,0,1-.269-.115.976.976,0,0,1-.077-.269c.115-.652.154-1.19.192-1.535l.038-.269a2.646,2.646,0,0,0-.537-1.5,2.46,2.46,0,0,0-1.573-.921.963.963,0,0,0-.384-.038,1.981,1.981,0,0,0-1.266.461,1.981,1.981,0,0,0-.806,1.535,52.44,52.44,0,0,1-1.151,7.637A2.921,2.921,0,0,0,1.152-28.309Zm41.754,19.5a2.815,2.815,0,0,0,.768,2,2.72,2.72,0,0,0,1.8.959l.269.038a1.959,1.959,0,0,0,1.535-.729,23.7,23.7,0,0,0,4.835-11.014.4.4,0,0,1,.461-.384h2.264a.348.348,0,0,1,.269.115.348.348,0,0,1,.115.269q-.345,6.85-1.036,7.714a1.5,1.5,0,0,1-1.266.5h-.959A1.5,1.5,0,0,0,50.7-8.7a2.012,2.012,0,0,0-.307,1,3.191,3.191,0,0,0,.077.5,4.116,4.116,0,0,0,1.113,1.8,2.631,2.631,0,0,0,1.765.691h.115A14.514,14.514,0,0,0,55.532-4.9,4.487,4.487,0,0,0,58.64-6.587a5.036,5.036,0,0,0,.844-2.149,35.535,35.535,0,0,0,.537-4.03c.269-2.955.384-5.258.384-6.908a3.154,3.154,0,0,0-.883-2.149,3.048,3.048,0,0,0-2.264-.959H53.152a.332.332,0,0,1-.23-.115.447.447,0,0,1-.077-.269c.077-.806.115-1.458.115-1.88.038-.23-5.6-.307-5.526-.23a.332.332,0,0,1,.115.23,46.327,46.327,0,0,1-1.036,8.213,15.646,15.646,0,0,1-2.955,6.179A3.083,3.083,0,0,0,42.906-8.813Zm19.534-8.251a2.5,2.5,0,0,0,.806,1.88,2.641,2.641,0,0,0,1.919.806,2.641,2.641,0,0,0,1.919-.806,2.608,2.608,0,0,0,.768-1.88V-33.6a2.834,2.834,0,0,0-.768-1.919,2.641,2.641,0,0,0-1.919-.806,2.641,2.641,0,0,0-1.919.806,2.641,2.641,0,0,0-.806,1.919Zm3.07,8.827a1.461,1.461,0,0,0,.154.729A3.984,3.984,0,0,0,67.121-5.4a3.309,3.309,0,0,0,2.111.806l.23-.038a14.634,14.634,0,0,0,5.027-1,3.642,3.642,0,0,0,1.8-1.919,10.063,10.063,0,0,0,.537-3.607V-37.481a2.665,2.665,0,0,0-.806-1.957,2.665,2.665,0,0,0-1.957-.806,2.665,2.665,0,0,0-1.957.806,2.665,2.665,0,0,0-.806,1.957v26.288a.977.977,0,0,1-.23.729,1.259,1.259,0,0,1-.806.23c-1.266,0-2.187,0-2.763-.038h-.038a1.831,1.831,0,0,0-1.573.883A1.811,1.811,0,0,0,65.509-8.238Zm44.709-3.416a15.025,15.025,0,0,1-1.266,1.036.726.726,0,0,1-.691.115,11.882,11.882,0,0,1-2.993-1.19v-.115a.083.083,0,0,1,.077-.077H110.1c.077,0,.115.038.154.115C110.295-11.73,110.257-11.692,110.218-11.653ZM83.585-26.543a2.127,2.127,0,0,0,.576,1.458,2.1,2.1,0,0,0,1.42.576h3.8c.077,0,.115.038.154.115.038.038,0,.077-.038.115a19.814,19.814,0,0,1-4.72,2.917,1.714,1.714,0,0,0-1.036,1.343,1.313,1.313,0,0,0-.038.422,1.786,1.786,0,0,0,.461,1.19,4.22,4.22,0,0,0,2.034,1.19,2.234,2.234,0,0,0,.729.115,3.307,3.307,0,0,0,1.535-.422q.806-.461,1.151-.691a.171.171,0,0,1,.192,0,.177.177,0,0,1,.115.192v7.944c0,.269-.115.384-.384.422l-1.113.038a2.921,2.921,0,0,0-1.151.384,2,2,0,0,0-.768.921,2.619,2.619,0,0,0-.192.883v.269a2.391,2.391,0,0,0,.883,1.612,2.593,2.593,0,0,0,1.612.576h.154c1.727-.154,3.032-.269,3.914-.307l8.213-.691a2.026,2.026,0,0,0,1.266-.652,1.993,1.993,0,0,0,.5-1.3.141.141,0,0,1,.038-.115c.038-.038.077-.038.154,0a22.923,22.923,0,0,0,9.517,3.185,1.731,1.731,0,0,0,.5.038,3.71,3.71,0,0,0,1.8-.461,4.574,4.574,0,0,0,1.8-1.727,1.352,1.352,0,0,0,.269-.806,1.314,1.314,0,0,0-.154-.691,1.375,1.375,0,0,0-1.228-.844l-1.5-.115a.206.206,0,0,1-.154-.115c0-.038.038-.077.077-.115l.883-.614a1.358,1.358,0,0,0,.614-1.151,1.477,1.477,0,0,0-.806-1.343l-.959-.537a1.928,1.928,0,0,0-1-.192,2.232,2.232,0,0,0-.959.461c0,.038,0,.038-.038.038l-.038-.077v-5.1a.177.177,0,0,1,.115-.192.171.171,0,0,1,.192,0l1.113.614a3.391,3.391,0,0,0,1.3.307,3.694,3.694,0,0,0,.959-.154,4.094,4.094,0,0,0,1.919-1.343,1.811,1.811,0,0,0,.384-1.151,1.5,1.5,0,0,0-.077-.5,1.472,1.472,0,0,0-1.113-1.266,20.512,20.512,0,0,1-4.452-2.379c-.038-.077-.077-.115-.038-.154,0-.038.038-.077.115-.077h3.723a2.036,2.036,0,0,0,1.42-.576,2.127,2.127,0,0,0,.576-1.458,2.036,2.036,0,0,0-.576-1.42,2.036,2.036,0,0,0-1.42-.576H103.963c-.269,0-.384-.115-.384-.384V-29c0-.269.115-.384.384-.384h8.6a2.062,2.062,0,0,0,1.343-.537,1.852,1.852,0,0,0,.537-1.343,1.852,1.852,0,0,0-.537-1.343,1.852,1.852,0,0,0-1.343-.537h-8.6c-.269,0-.384-.115-.384-.384v-.115c0-.269.115-.384.384-.384h10.093a1.921,1.921,0,0,0,1.42-.614,1.909,1.909,0,0,0,.576-1.42,2.036,2.036,0,0,0-.576-1.42,2.036,2.036,0,0,0-1.42-.576h-3.339c-.038,0-.077-.038-.115-.077a.141.141,0,0,1,.038-.115,1.28,1.28,0,0,0,.384-.844,1.98,1.98,0,0,0-.077-.422,1.423,1.423,0,0,0-1.036-.883l-2.264-.422-.384-.038a1.732,1.732,0,0,0-.959.269,2.259,2.259,0,0,0-1.036,1.036l-.729,1.343c-.038.038-.038.115.077.154h-7.79c.269-.115.345-.307.23-.537-.23-.422-.461-.844-.691-1.228a2.2,2.2,0,0,0-1.266-.921,2.659,2.659,0,0,0-.768-.115,2.813,2.813,0,0,0-.844.154l-1.5.461a1.355,1.355,0,0,0-.844.806,1.325,1.325,0,0,0-.115.5,1.264,1.264,0,0,0,.23.729c.038.115,0,.154-.115.154H87.269a2.1,2.1,0,0,0-1.42.576,2.036,2.036,0,0,0-.576,1.42,1.909,1.909,0,0,0,.576,1.42,1.921,1.921,0,0,0,1.42.614h10.17c.269,0,.384.115.384.384v.115c0,.269-.115.384-.384.384H89a1.852,1.852,0,0,0-1.343.537,1.852,1.852,0,0,0-.537,1.343,1.852,1.852,0,0,0,.537,1.343A2.062,2.062,0,0,0,89-29.383h8.443c.269,0,.384.115.384.384v.077c0,.269-.115.384-.384.384H85.58a2.1,2.1,0,0,0-1.42.576A2.036,2.036,0,0,0,83.585-26.543Zm11.666,3.723c0-.115,0-.192.038-.23a12.508,12.508,0,0,0,.959-1.151.729.729,0,0,1,.576-.307h8.1a.746.746,0,0,1,.614.307,9.794,9.794,0,0,0,.921,1.151.181.181,0,0,1,.038.23c0,.038-.038.077-.115.077h-2.955a.1.1,0,0,1-.115-.115,1.412,1.412,0,0,0-.307-.806,1.412,1.412,0,0,0-.806-.307h-3.07a1.412,1.412,0,0,0-.806.307,1.412,1.412,0,0,0-.307.806.1.1,0,0,1-.115.115H95.4A.291.291,0,0,1,95.251-22.821Zm.192,12.434V-11.5c0-.269.115-.384.384-.384h2.8a.746.746,0,0,1,.614.307c.077.115.345.422.806.959a.181.181,0,0,1,.038.23c0,.038-.038.077-.115.077l-4.145.269a.237.237,0,0,1-.269-.077A.348.348,0,0,1,95.443-10.387Zm0-5.1v-.115c0-.269.115-.384.384-.384h9.824c.269,0,.384.115.384.384v.115c0,.23-.115.345-.384.345H95.827C95.558-15.145,95.443-15.261,95.443-15.491Zm0-3.569V-19.1c0-.269.115-.384.384-.384h9.824c.269,0,.384.115.384.384v.038c0,.269-.115.384-.384.384H95.827C95.558-18.676,95.443-18.791,95.443-19.06ZM149.669-35.1v.537c0,.154-.077.192-.192.154l-.269-.038a1.561,1.561,0,0,0-.921.307,1.792,1.792,0,0,0-.844,1l-.269.652a.306.306,0,0,1-.345.269h-3.185c-.154,0-.192-.038-.115-.154l.384-.921q.115-.23,0-.345a.315.315,0,0,0-.192-.192h.691a1.729,1.729,0,0,0,1.075-.422,1.717,1.717,0,0,0,.422-1.036c0-.115.038-.192.153-.192h3.224C149.554-35.485,149.669-35.37,149.669-35.1ZM123.228-32.53a2.151,2.151,0,0,0,.652,1.535,1.944,1.944,0,0,0,1.5.652h8.673a2.151,2.151,0,0,0,1.535-.652,2.054,2.054,0,0,0,.614-1.535,2.054,2.054,0,0,0-.614-1.535,2.054,2.054,0,0,0-1.535-.614h-8.673a1.914,1.914,0,0,0-1.5.614A2.151,2.151,0,0,0,123.228-32.53Zm1.612,10.707a2.135,2.135,0,0,0,.614,1.458,1.887,1.887,0,0,0,1.458.614h6.255a1.887,1.887,0,0,0,1.458-.614,1.944,1.944,0,0,0,.614-1.458,1.944,1.944,0,0,0-.614-1.458,1.887,1.887,0,0,0-1.458-.614h-6.255a1.887,1.887,0,0,0-1.458.614A2.135,2.135,0,0,0,124.84-21.823Zm0-5.3a2.135,2.135,0,0,0,.614,1.458,1.944,1.944,0,0,0,1.458.614h6.063a2.475,2.475,0,0,0,1.612-.652,2.174,2.174,0,0,0,.652-1.573l.077-.115c.038-.038.077-.038.154,0a25.927,25.927,0,0,1,2.456,2.072.635.635,0,0,0,.46.192,1.064,1.064,0,0,0,.461-.192c0-.038,0-.038.038,0v4.03a3.014,3.014,0,0,0,.959,2.3,3.014,3.014,0,0,0,2.3.959h15.159a1.485,1.485,0,0,0,1.19-.5,1.459,1.459,0,0,0,.5-1.151,1.485,1.485,0,0,0-.5-1.19,1.485,1.485,0,0,0-1.19-.5h-5.334c-.23,0-.345-.115-.345-.384v-.077a.305.305,0,0,1,.345-.345h3.991a1.377,1.377,0,0,0,.921-.384,1.247,1.247,0,0,0,.384-.921,1.247,1.247,0,0,0-.384-.921,1.377,1.377,0,0,0-.921-.384h-3.991a.305.305,0,0,1-.345-.345v-.038c0-.269.115-.384.345-.384h3.991a1.247,1.247,0,0,0,.921-.384,1.138,1.138,0,0,0,.384-.921,1.247,1.247,0,0,0-.384-.921,1.377,1.377,0,0,0-.921-.384h-3.991a.305.305,0,0,1-.345-.345c0-.269.115-.384.345-.384h4.413a1.573,1.573,0,0,0,1.151-.5,1.6,1.6,0,0,0,.5-1.19,1.574,1.574,0,0,0-.5-1.151,1.573,1.573,0,0,0-1.151-.5h-3.953a.211.211,0,0,1-.192-.115.245.245,0,0,1,0-.23l.192-.345.23-.384a1.184,1.184,0,0,1,.192-.384c.038-.115.115-.154.269-.154h.038a1.717,1.717,0,0,0,1.036-.422,1.717,1.717,0,0,0,.422-1.036.181.181,0,0,1,.192-.192h2.341a1.768,1.768,0,0,0,1.382-.576,1.742,1.742,0,0,0,.576-1.343,1.884,1.884,0,0,0-.576-1.382,1.768,1.768,0,0,0-1.382-.576h-2.341c-.115,0-.192-.038-.192-.153a1.537,1.537,0,0,0-.461-1.113,1.452,1.452,0,0,0-1.075-.461H151.2a1.394,1.394,0,0,0-1.075.461,1.537,1.537,0,0,0-.461,1.113c0,.115-.077.153-.192.153H146.1c-.115,0-.192-.038-.192-.153a1.537,1.537,0,0,0-.461-1.113,1.366,1.366,0,0,0-1.113-.461h-1.8a1.452,1.452,0,0,0-1.075.461A1.537,1.537,0,0,0,141-39.515c0,.115-.077.153-.192.153h-2.226a1.768,1.768,0,0,0-1.382.576,1.884,1.884,0,0,0-.576,1.382,1.742,1.742,0,0,0,.576,1.343,1.768,1.768,0,0,0,1.382.576h2.072c.23,0,.345.115.345.384v.461c0,.077-.038.115-.154.077a1.1,1.1,0,0,0-.844.115,1.147,1.147,0,0,0-.614.652,16.3,16.3,0,0,1-4.03,5.68l-.077.038c-.038,0-.038-.038-.038-.077a1.305,1.305,0,0,0-.307-.729,1.305,1.305,0,0,0-.729-.307h-7.292a1.887,1.887,0,0,0-1.458.614A1.944,1.944,0,0,0,124.84-27.119Zm.23-10.745a1.944,1.944,0,0,0,.614,1.458,1.887,1.887,0,0,0,1.458.614h5.91a1.887,1.887,0,0,0,1.458-.614,1.944,1.944,0,0,0,.614-1.458,1.944,1.944,0,0,0-.614-1.458,1.887,1.887,0,0,0-1.458-.614h-5.91a1.887,1.887,0,0,0-1.458.614A1.944,1.944,0,0,0,125.07-37.864ZM136.276-7.432a1.887,1.887,0,0,0,.192.768,3.625,3.625,0,0,0,1.382,1.458,2.506,2.506,0,0,0,1.382.384,1.732,1.732,0,0,0,.5-.038,44.414,44.414,0,0,0,7.33-1.919,1.182,1.182,0,0,1,.729,0,37.677,37.677,0,0,0,6.294,1.727,4.9,4.9,0,0,0,.652.077,3.331,3.331,0,0,0,1.612-.384,5.464,5.464,0,0,0,1.8-1.573,1.381,1.381,0,0,0,.269-.844,1.738,1.738,0,0,0-.115-.614,1.34,1.34,0,0,0-1.151-.883q-1.842-.23-3.569-.576-.115-.058-.115-.115a.225.225,0,0,1,.077-.192,15.59,15.59,0,0,0,3.991-4.106,1.381,1.381,0,0,0,.269-.844l-.038-.422a1.812,1.812,0,0,0-.883-1.036l-.844-.422a2.363,2.363,0,0,0-1-.23,1.5,1.5,0,0,0-.5.077h-15.5a1.884,1.884,0,0,0-1.382.576,1.884,1.884,0,0,0-.576,1.382,1.742,1.742,0,0,0,.576,1.343,1.884,1.884,0,0,0,1.382.576H142.3a.083.083,0,0,1,.077.077c0,.038,0,.038-.038.038a1.976,1.976,0,0,0-1.228,1.458l-.038.384A1.5,1.5,0,0,0,141.8-10l.038.038c.115.038.115.115.077.192a.1.1,0,0,1-.115.115,40.39,40.39,0,0,1-4.26.729,1.4,1.4,0,0,0-1.113.844A2.087,2.087,0,0,0,136.276-7.432Zm7.445-14.314v-.077a.305.305,0,0,1,.345-.345h2.379c.269,0,.384.115.384.345v.077c0,.269-.115.384-.384.384h-2.379C143.836-21.362,143.721-21.478,143.721-21.746Zm0-3.377v-.038c0-.269.115-.384.345-.384h2.379c.269,0,.384.115.384.384v.038c0,.23-.115.345-.384.345h-2.379A.305.305,0,0,1,143.721-25.123Zm0-3.377c0-.269.115-.384.345-.384h2.418c.23,0,.345.115.345.384a.305.305,0,0,1-.345.345h-2.418A.305.305,0,0,1,143.721-28.5Zm1.151,15.312c.038-.038.077-.077.115-.077h5.181a.083.083,0,0,1,.077.077c0,.077,0,.115-.038.154-.959.614-1.727,1.036-2.226,1.3a.734.734,0,0,1-.691,0,16.564,16.564,0,0,1-2.379-1.3C144.872-13.112,144.834-13.15,144.872-13.188Z" transform="translate(-1.152 41.088)" fill="#051a2b"/>
      <path id="パス_46500" data-name="パス 46500" d="M18.106,20.341h3.948c.069,0,.1.035.139.1.035.035.035.069-.035.139-.693.693-1.489,1.42-2.355,2.182a.76.76,0,0,1-.589.242H18.106c-.242,0-.346-.1-.346-.312V20.687C17.76,20.445,17.864,20.341,18.106,20.341ZM1.968,25.362a2.274,2.274,0,0,0,.693,1.662,2.167,2.167,0,0,0,1.628.658h8.658c.069,0,.1.035.1.069a.127.127,0,0,1-.035.1,55.158,55.158,0,0,1-9.524,4.918,1.609,1.609,0,0,0-1.143,1.281,1.605,1.605,0,0,0-.069.485,1.646,1.646,0,0,0,.45,1.212,3.733,3.733,0,0,0,1.9,1.316,4.014,4.014,0,0,0,.97.139,4.077,4.077,0,0,0,1.316-.277c1.628-.762,2.736-1.316,3.325-1.628a.221.221,0,0,1,.208,0,.16.16,0,0,1,.1.173V38.28c0,2.32.519,3.879,1.558,4.71,1.074.866,3.082,1.281,6.06,1.281h7.376c2.39,0,4.086-.45,5.091-1.385A5.923,5.923,0,0,0,32.1,40.08a2.558,2.558,0,0,0,.1-.658,2.234,2.234,0,0,0-.416-1.247,3.287,3.287,0,0,0-1.662-1.281,1.373,1.373,0,0,0-.693-.139,1.763,1.763,0,0,0-.9.242,2.036,2.036,0,0,0-1.039,1.281,3.538,3.538,0,0,1-.277.8,2.39,2.39,0,0,1-2.043.727H18.626a6.079,6.079,0,0,1-2.32-.277c-.346-.139-.519-.554-.519-1.281V37.31a.354.354,0,0,1,.346-.381,111.824,111.824,0,0,0,11.6-3.013A1.494,1.494,0,0,0,28.772,32.7a1.178,1.178,0,0,0,.035-.346,1.5,1.5,0,0,0-.519-1.177,4.752,4.752,0,0,0-2.216-1.074c-.381-.035-.623-.069-.762-.069a4.706,4.706,0,0,0-1.662.312,74.2,74.2,0,0,1-7.515,2.32c-.1,0-.208,0-.242-.035a.3.3,0,0,1-.1-.208v-.069a.57.57,0,0,1,.277-.519q2.805-1.87,5.4-3.948a.94.94,0,0,1,.589-.208h9.42a2.167,2.167,0,0,0,1.628-.658,2.355,2.355,0,0,0-1.628-4.017h-4.4c-.1,0-.139-.035-.139-.069a.152.152,0,0,1,.035-.173,57.331,57.331,0,0,0,4.294-5.091,2.3,2.3,0,0,0,.381-1.247,2.58,2.58,0,0,0-.069-.623,2.212,2.212,0,0,0-1.212-1.455,2.76,2.76,0,0,0-1.247-.277c-.173,0-.416.035-.8.069a3.019,3.019,0,0,0-1.732,1.247c-.381.519-1.039,1.351-1.9,2.424,0,.035-.035.035-.069,0l-.069-.069a1.961,1.961,0,0,0-.589-1.42,1.941,1.941,0,0,0-1.385-.589H18.106c-.242,0-.346-.1-.346-.312v-.935A2.458,2.458,0,0,0,17,12.653a2.594,2.594,0,0,0-3.74,0,2.458,2.458,0,0,0-.762,1.835v.935c0,.208-.1.312-.346.312H7.474a2.254,2.254,0,0,0-1.628.693,2.342,2.342,0,0,0,0,3.255,2.167,2.167,0,0,0,1.628.658H12.15c.242,0,.346.1.346.346V22.7c0,.208-.1.312-.346.312H4.288a2.254,2.254,0,0,0-1.628.693A2.274,2.274,0,0,0,1.968,25.362Zm48.282-9.87a7.568,7.568,0,0,0-.035.97l-.242,2.6c-.139,1.212-.277,2.216-.45,3.013q-.156.779-.727,3.117a27.869,27.869,0,0,1-1.177,3.325q-.675,1.455-1.662,3.221A20.367,20.367,0,0,1,43.7,34.92a29.792,29.792,0,0,1-2.978,2.874l-1.247,1a2.167,2.167,0,0,0-.831,1.766,2.307,2.307,0,0,0,.727,1.7l.035.035a3.8,3.8,0,0,0,2.147,1.039,1.2,1.2,0,0,0,.416.035,3.152,3.152,0,0,0,1.732-.589,30.482,30.482,0,0,0,9.8-14.233c.035-.035.069-.069.1-.069s.069.035.1.069c2.251,6.407,5.853,11.22,10.736,14.441a2.844,2.844,0,0,0,1.489.416,3.031,3.031,0,0,0,.693-.069,4.043,4.043,0,0,0,2.043-1.212,2.337,2.337,0,0,0,.589-1.524l-.035-.277a2.2,2.2,0,0,0-.935-1.593A17.645,17.645,0,0,1,66.007,37.1a24.6,24.6,0,0,1-3.671-3.74A24.365,24.365,0,0,1,59.7,29.206a34.67,34.67,0,0,1-1.766-4.19,32.3,32.3,0,0,1-1.074-4.052c-.242-1.143-.45-2.32-.589-3.463l-.208-2.009a3.012,3.012,0,0,0-.866-2.078,2.7,2.7,0,0,0-1.974-.831,2.933,2.933,0,0,0-2.078.831A3,3,0,0,0,50.25,15.492ZM81.625,27.454A2.064,2.064,0,0,0,79.478,25.2c-1.593,0-2.424.762-2.459,2.251a89.68,89.68,0,0,1-1.281,12.225c-.277,1.42.381,2.182,1.939,2.355a2.195,2.195,0,0,0,2.736-2.078A85.8,85.8,0,0,0,81.625,27.454Zm-6.58-6.822a2.458,2.458,0,0,0,2.77,2.77h6.1V40.649a2.58,2.58,0,0,0,5.16,0V23.4h6.2a2.458,2.458,0,0,0,2.771-2.77,2.458,2.458,0,0,0-2.771-2.77h-6.2V16.2a2.58,2.58,0,0,0-5.16,0v1.662h-6.1A2.458,2.458,0,0,0,75.045,20.632Zm16.346,6.822a85.806,85.806,0,0,0,1.212,12.5,2.195,2.195,0,0,0,2.736,2.078c1.558-.173,2.216-.935,1.939-2.355A89.676,89.676,0,0,1,96,27.454c-.035-1.489-.866-2.251-2.459-2.251A2.064,2.064,0,0,0,91.391,27.454Zm12.156,2.32a2.388,2.388,0,0,0,2.7,2.7h10.6a2.4,2.4,0,0,0,2.7-2.736,2.388,2.388,0,0,0-2.7-2.7h-10.6a2.388,2.388,0,0,0-2.7,2.7Zm32.317-11.636a2.338,2.338,0,0,0-1.939-3.048c-1.835-.312-2.944.485-3.325,2.355-.277,1.281-.8,3.325-1.593,6.13s-1.939,6.3-3.5,10.424c-1.108,2.77-.658,5.3,1.108,6.788a5.21,5.21,0,0,0,3.325,1.143h11.5c4.606.035,6.753-2.355,5.368-7.584a66.237,66.237,0,0,0-2.632-8.034c-.623-1.732-1.766-2.39-3.463-1.939a2.461,2.461,0,0,0-1.524,3.463c1.351,3.983,2.112,6.372,2.251,7.1.242,1-.1,1.524-1.108,1.558h-7.965c-1.074-.035-1.455-.589-1.074-1.7A107.621,107.621,0,0,0,135.863,18.138Z" transform="translate(162.049 -8.434)" fill="#051a2b"/>
    </g>
    <path id="前面オブジェクトで型抜き_5" data-name="前面オブジェクトで型抜き 5" d="M13.144,15.167H4a4,4,0,0,1-4-4V4A4,4,0,0,1,4,0h9.145a4,4,0,0,1,4,4v7.167A4.005,4.005,0,0,1,13.144,15.167ZM7.276,4.616a2,2,0,0,0-2,2V8.551a2,2,0,0,0,2,2H9.869a2,2,0,0,0,2-2V6.616a2,2,0,0,0-2-2Z" transform="translate(608.748 762.338)" fill="#e97d44"/>
    <path id="前面オブジェクトで型抜き_6" data-name="前面オブジェクトで型抜き 6" d="M8.528,12.529H4a4,4,0,0,1-4-4V4A4,4,0,0,1,4,0H8.528a4,4,0,0,1,4,4v4.53A4,4,0,0,1,8.528,12.529ZM5.514,4.472a1,1,0,0,0-1,1V7.056a1,1,0,0,0,1,1h1.5a1,1,0,0,0,1-1V5.473a1,1,0,0,0-1-1Z" transform="translate(689.196 784.099)" fill="#e97d44"/>
  </g>
</svg>
