<svg id="specialnursing_ttl_invert" xmlns="http://www.w3.org/2000/svg" width="308.983" height="36.462" viewBox="0 0 308.983 36.462">
  <g id="グループ_7487" data-name="グループ 7487">
    <path id="パス_46499" data-name="パス 46499" d="M27.722-22.684H16.412a.243.243,0,0,1-.23-.192,1.5,1.5,0,0,0-.728-1.112,1.351,1.351,0,0,0-.805-.268,2.831,2.831,0,0,0-.46.077l-1,.268c-.115,0-.153,0-.192-.038a.211.211,0,0,1-.115-.192v-4.294c0-.268.115-.383.383-.383H14.61a.3.3,0,0,1,.345.345A2.806,2.806,0,0,0,15.8-26.4a2.928,2.928,0,0,0,2.109.882h9.815c.268,0,.383.115.383.383v2.07C28.105-22.8,27.99-22.684,27.722-22.684ZM1.152-28.321a3.4,3.4,0,0,0,.23,1.15,3.076,3.076,0,0,0,1.227,1.457,1.549,1.549,0,0,0,.959.345,1.907,1.907,0,0,0,.613-.115A1.588,1.588,0,0,0,5.216-26.6l.5-1.84c.077-.268.23-.383.422-.383h1.3c.23,0,.345.115.345.383v5.6a.466.466,0,0,1-.345.5l-2.684.652-1,.23a2.768,2.768,0,0,0-1.687,1.227,3,3,0,0,0-.422,1.419l.077.613a2.454,2.454,0,0,0,1.227,1.687,2.764,2.764,0,0,0,1.3.345,2.657,2.657,0,0,0,.767-.115L7.44-17.01a.324.324,0,0,1,.23.077.35.35,0,0,1,.115.192v9.547a2.5,2.5,0,0,0,.767,1.8,2.5,2.5,0,0,0,1.8.767,2.5,2.5,0,0,0,1.8-.767,2.4,2.4,0,0,0,.728-1.8v-11a.4.4,0,0,1,.345-.46l2.454-.767c.115-.038.192,0,.192.115a1.808,1.808,0,0,0,.5,1.227,1.808,1.808,0,0,0,1.227.5h1.917c.038,0,.038.038.038.077q.058.115,0,.115a2.637,2.637,0,0,0-1.265,1.917,1.73,1.73,0,0,0-.038.5,2.913,2.913,0,0,0,.575,1.725l.882,1.189a2.465,2.465,0,0,0,1.61,1.15l.575.077a2.66,2.66,0,0,0,1.342-.383,2.617,2.617,0,0,0,1.15-1.687,2.037,2.037,0,0,0,.038-.537,2.112,2.112,0,0,0-.5-1.38,21.838,21.838,0,0,0-2.07-2.454c-.038-.038-.038-.115-.038-.23a.291.291,0,0,1,.153-.077h5.751c.268,0,.383.115.383.383v6.441a.729.729,0,0,1-.192.5,1.144,1.144,0,0,1-.613.115h-1.5a1.793,1.793,0,0,0-1.572.843,1.809,1.809,0,0,0-.383,1.15l.077.652a3.779,3.779,0,0,0,1.342,1.994,2.885,2.885,0,0,0,1.955.728h.23a10.99,10.99,0,0,0,3.987-.882,3.5,3.5,0,0,0,1.725-1.764,8.96,8.96,0,0,0,.46-3.221V-17.2c0-.268.115-.383.383-.383h.575a2.475,2.475,0,0,0,1.764-.767,2.5,2.5,0,0,0,.767-1.8,2.475,2.475,0,0,0-.767-1.764,2.475,2.475,0,0,0-1.764-.767H34.01c-.268,0-.383-.115-.383-.383v-2.07c0-.268.115-.383.383-.383h1a2.5,2.5,0,0,0,1.8-.767,2.5,2.5,0,0,0,.767-1.8,2.5,2.5,0,0,0-.767-1.8,2.5,2.5,0,0,0-1.8-.767H29.6c-.268,0-.383-.115-.383-.383v-1.649c0-.23.115-.345.383-.345h3.8a2.5,2.5,0,0,0,1.8-.767,2.35,2.35,0,0,0,.728-1.725,2.585,2.585,0,0,0-.728-1.8,2.4,2.4,0,0,0-1.8-.728H29.524a.282.282,0,0,1-.307-.307,2.639,2.639,0,0,0-.805-1.917,2.436,2.436,0,0,0-1.879-.805h-.115a2.518,2.518,0,0,0-1.917.805,2.639,2.639,0,0,0-.805,1.917.282.282,0,0,1-.307.307h-3.6a2.4,2.4,0,0,0-1.8.728,2.585,2.585,0,0,0-.728,1.8,2.35,2.35,0,0,0,.728,1.725,2.5,2.5,0,0,0,1.8.767h3.566a.3.3,0,0,1,.345.345v1.649c0,.268-.115.383-.345.383H15.99c-.23,0-.345-.115-.345-.383v-.575a2.374,2.374,0,0,0-.728-1.764,2.35,2.35,0,0,0-1.725-.728.282.282,0,0,1-.307-.307v-4.064a2.485,2.485,0,0,0-.728-1.84,2.4,2.4,0,0,0-1.8-.728,2.4,2.4,0,0,0-1.8.728,2.518,2.518,0,0,0-.767,1.84v3.987c0,.268-.115.383-.345.383H7.095a.348.348,0,0,1-.268-.115.975.975,0,0,1-.077-.268c.115-.652.153-1.189.192-1.534L6.98-36.3a2.644,2.644,0,0,0-.537-1.5,2.458,2.458,0,0,0-1.572-.92.962.962,0,0,0-.383-.038,1.98,1.98,0,0,0-1.265.46,1.979,1.979,0,0,0-.805,1.534,52.391,52.391,0,0,1-1.15,7.63A2.919,2.919,0,0,0,1.152-28.321ZM42.867-8.843a2.812,2.812,0,0,0,.767,1.994,2.718,2.718,0,0,0,1.8.959l.268.038a1.957,1.957,0,0,0,1.534-.728,23.673,23.673,0,0,0,4.831-11,.4.4,0,0,1,.46-.383h2.262a.348.348,0,0,1,.268.115.348.348,0,0,1,.115.268q-.345,6.844-1.035,7.706a1.494,1.494,0,0,1-1.265.5h-.959a1.5,1.5,0,0,0-1.265.652,2.01,2.01,0,0,0-.307,1,3.188,3.188,0,0,0,.077.5,4.112,4.112,0,0,0,1.112,1.8,2.629,2.629,0,0,0,1.764.69h.115a14.5,14.5,0,0,0,2.07-.192A4.483,4.483,0,0,0,58.586-6.62a5.032,5.032,0,0,0,.843-2.147,35.5,35.5,0,0,0,.537-4.026c.268-2.952.383-5.253.383-6.9a3.151,3.151,0,0,0-.882-2.147,3.045,3.045,0,0,0-2.262-.959H53.1a.331.331,0,0,1-.23-.115.447.447,0,0,1-.077-.268c.077-.805.115-1.457.115-1.879.038-.23-5.6-.307-5.521-.23a.331.331,0,0,1,.115.23,46.284,46.284,0,0,1-1.035,8.2,15.632,15.632,0,0,1-2.952,6.173A3.08,3.08,0,0,0,42.867-8.843Zm19.515-8.243a2.494,2.494,0,0,0,.805,1.879A2.639,2.639,0,0,0,65.1-14.4a2.639,2.639,0,0,0,1.917-.805,2.605,2.605,0,0,0,.767-1.879V-33.612a2.831,2.831,0,0,0-.767-1.917,2.639,2.639,0,0,0-1.917-.805,2.639,2.639,0,0,0-1.917.805,2.639,2.639,0,0,0-.805,1.917Zm3.067,8.818a1.46,1.46,0,0,0,.153.728A3.981,3.981,0,0,0,67.06-5.431a3.306,3.306,0,0,0,2.109.805l.23-.038a14.621,14.621,0,0,0,5.023-1,3.638,3.638,0,0,0,1.8-1.917,10.053,10.053,0,0,0,.537-3.6v-26.3a2.662,2.662,0,0,0-.805-1.955A2.662,2.662,0,0,0,74-40.244a2.662,2.662,0,0,0-1.955.805,2.662,2.662,0,0,0-.805,1.955v26.263a.976.976,0,0,1-.23.728,1.258,1.258,0,0,1-.805.23c-1.265,0-2.185,0-2.761-.038H67.4a1.829,1.829,0,0,0-1.572.882A1.809,1.809,0,0,0,65.449-8.268Zm44.667-3.412a15.01,15.01,0,0,1-1.265,1.035.725.725,0,0,1-.69.115,11.87,11.87,0,0,1-2.991-1.189v-.115a.082.082,0,0,1,.077-.077H110c.077,0,.115.038.153.115C110.193-11.757,110.155-11.719,110.116-11.681ZM83.508-26.557a2.125,2.125,0,0,0,.575,1.457,2.1,2.1,0,0,0,1.419.575h3.8c.077,0,.115.038.153.115.038.038,0,.077-.038.115A19.8,19.8,0,0,1,84.7-21.381a1.712,1.712,0,0,0-1.035,1.342,1.311,1.311,0,0,0-.038.422,1.784,1.784,0,0,0,.46,1.189,4.216,4.216,0,0,0,2.032,1.189,2.232,2.232,0,0,0,.728.115,3.3,3.3,0,0,0,1.534-.422q.805-.46,1.15-.69a.171.171,0,0,1,.192,0,.177.177,0,0,1,.115.192v7.937c0,.268-.115.383-.383.422l-1.112.038a2.918,2.918,0,0,0-1.15.383,1.994,1.994,0,0,0-.767.92,2.617,2.617,0,0,0-.192.882v.268a2.389,2.389,0,0,0,.882,1.61,2.59,2.59,0,0,0,1.61.575h.153c1.725-.153,3.029-.268,3.911-.307l8.2-.69a2.024,2.024,0,0,0,1.265-.652,1.991,1.991,0,0,0,.5-1.3.141.141,0,0,1,.038-.115c.038-.038.077-.038.153,0a22.9,22.9,0,0,0,9.508,3.182,1.73,1.73,0,0,0,.5.038,3.706,3.706,0,0,0,1.8-.46,4.57,4.57,0,0,0,1.8-1.725,1.351,1.351,0,0,0,.268-.805,1.313,1.313,0,0,0-.153-.69,1.374,1.374,0,0,0-1.227-.843l-1.5-.115a.205.205,0,0,1-.153-.115c0-.038.038-.077.077-.115l.882-.613a1.357,1.357,0,0,0,.613-1.15,1.476,1.476,0,0,0-.805-1.342l-.959-.537a1.926,1.926,0,0,0-1-.192,2.23,2.23,0,0,0-.959.46c0,.038,0,.038-.038.038l-.038-.077v-5.1a.177.177,0,0,1,.115-.192.171.171,0,0,1,.192,0l1.112.613a3.388,3.388,0,0,0,1.3.307,3.691,3.691,0,0,0,.959-.153A4.09,4.09,0,0,0,117.171-19a1.809,1.809,0,0,0,.383-1.15,1.5,1.5,0,0,0-.077-.5,1.47,1.47,0,0,0-1.112-1.265,20.493,20.493,0,0,1-4.447-2.377c-.038-.077-.077-.115-.038-.153,0-.038.038-.077.115-.077h3.719a2.034,2.034,0,0,0,1.419-.575,2.125,2.125,0,0,0,.575-1.457,2.034,2.034,0,0,0-.575-1.419,2.034,2.034,0,0,0-1.419-.575H103.867c-.268,0-.383-.115-.383-.383v-.077c0-.268.115-.383.383-.383h8.588a2.06,2.06,0,0,0,1.342-.537,1.851,1.851,0,0,0,.537-1.342,1.851,1.851,0,0,0-.537-1.342,1.851,1.851,0,0,0-1.342-.537h-8.588c-.268,0-.383-.115-.383-.383v-.115c0-.268.115-.383.383-.383H113.95a1.92,1.92,0,0,0,1.419-.613,1.907,1.907,0,0,0,.575-1.419,2.034,2.034,0,0,0-.575-1.419,2.034,2.034,0,0,0-1.419-.575h-3.336c-.038,0-.077-.038-.115-.077a.141.141,0,0,1,.038-.115,1.279,1.279,0,0,0,.383-.843,1.978,1.978,0,0,0-.077-.422,1.422,1.422,0,0,0-1.035-.882l-2.262-.422-.383-.038a1.731,1.731,0,0,0-.959.268,2.257,2.257,0,0,0-1.035,1.035l-.728,1.342c-.038.038-.038.115.077.153H96.735c.268-.115.345-.307.23-.537-.23-.422-.46-.843-.69-1.227a2.2,2.2,0,0,0-1.265-.92,2.657,2.657,0,0,0-.767-.115,2.81,2.81,0,0,0-.843.153l-1.5.46a1.354,1.354,0,0,0-.843.805,1.324,1.324,0,0,0-.115.5,1.262,1.262,0,0,0,.23.728c.038.115,0,.153-.115.153H87.189a2.1,2.1,0,0,0-1.419.575,2.034,2.034,0,0,0-.575,1.419,1.907,1.907,0,0,0,.575,1.419,1.92,1.92,0,0,0,1.419.613h10.16c.268,0,.383.115.383.383v.115c0,.268-.115.383-.383.383H88.914a1.851,1.851,0,0,0-1.342.537,1.851,1.851,0,0,0-.537,1.342,1.851,1.851,0,0,0,.537,1.342,2.06,2.06,0,0,0,1.342.537h8.435c.268,0,.383.115.383.383v.077c0,.268-.115.383-.383.383H85.5a2.1,2.1,0,0,0-1.419.575A2.034,2.034,0,0,0,83.508-26.557Zm11.656,3.719c0-.115,0-.192.038-.23a12.5,12.5,0,0,0,.959-1.15.728.728,0,0,1,.575-.307h8.09a.745.745,0,0,1,.613.307,9.785,9.785,0,0,0,.92,1.15.181.181,0,0,1,.038.23c0,.038-.038.077-.115.077H103.33a.1.1,0,0,1-.115-.115,1.41,1.41,0,0,0-.307-.805,1.41,1.41,0,0,0-.805-.307H99.036a1.41,1.41,0,0,0-.805.307,1.41,1.41,0,0,0-.307.805.1.1,0,0,1-.115.115H95.317A.291.291,0,0,1,95.163-22.838Zm.192,12.422v-1.112c0-.268.115-.383.383-.383h2.8a.745.745,0,0,1,.613.307c.077.115.345.422.805.959a.181.181,0,0,1,.038.23c0,.038-.038.077-.115.077l-4.141.268a.237.237,0,0,1-.268-.077A.348.348,0,0,1,95.355-10.415Zm0-5.1v-.115c0-.268.115-.383.383-.383h9.815c.268,0,.383.115.383.383v.115c0,.23-.115.345-.383.345H95.738C95.47-15.17,95.355-15.285,95.355-15.515Zm0-3.566v-.038c0-.268.115-.383.383-.383h9.815c.268,0,.383.115.383.383v.038c0,.268-.115.383-.383.383H95.738C95.47-18.7,95.355-18.812,95.355-19.08ZM149.53-35.107v.537c0,.153-.077.192-.192.153l-.268-.038a1.56,1.56,0,0,0-.92.307,1.791,1.791,0,0,0-.844,1l-.268.652a.305.305,0,0,1-.345.268h-3.182c-.153,0-.192-.038-.115-.153l.383-.92q.115-.23,0-.345a.315.315,0,0,0-.192-.192h.69a1.728,1.728,0,0,0,1.074-.422,1.715,1.715,0,0,0,.422-1.035c0-.115.038-.192.153-.192h3.221C149.415-35.49,149.53-35.375,149.53-35.107Zm-26.417,2.569A2.149,2.149,0,0,0,123.766-31a1.943,1.943,0,0,0,1.5.652h8.665A2.149,2.149,0,0,0,135.459-31a2.052,2.052,0,0,0,.613-1.534,2.052,2.052,0,0,0-.613-1.534,2.052,2.052,0,0,0-1.534-.613h-8.665a1.912,1.912,0,0,0-1.5.613A2.149,2.149,0,0,0,123.114-32.538Zm1.61,10.7a2.133,2.133,0,0,0,.613,1.457,1.886,1.886,0,0,0,1.457.613h6.25a1.886,1.886,0,0,0,1.457-.613,1.942,1.942,0,0,0,.613-1.457A1.942,1.942,0,0,0,134.5-23.3a1.886,1.886,0,0,0-1.457-.613h-6.25a1.886,1.886,0,0,0-1.457.613A2.133,2.133,0,0,0,124.724-21.841Zm0-5.291a2.133,2.133,0,0,0,.613,1.457,1.942,1.942,0,0,0,1.457.613h6.058a2.472,2.472,0,0,0,1.61-.652,2.172,2.172,0,0,0,.652-1.572l.077-.115c.038-.038.077-.038.153,0a25.9,25.9,0,0,1,2.454,2.07.635.635,0,0,0,.46.192,1.063,1.063,0,0,0,.46-.192c0-.038,0-.038.038,0V-21.3a3.012,3.012,0,0,0,.959,2.3,3.012,3.012,0,0,0,2.3.959H157.16a1.484,1.484,0,0,0,1.189-.5,1.458,1.458,0,0,0,.5-1.15,1.484,1.484,0,0,0-.5-1.189,1.484,1.484,0,0,0-1.189-.5h-5.329c-.23,0-.345-.115-.345-.383v-.077a.305.305,0,0,1,.345-.345h3.987a1.376,1.376,0,0,0,.92-.383,1.246,1.246,0,0,0,.383-.92,1.246,1.246,0,0,0-.383-.92,1.376,1.376,0,0,0-.92-.383h-3.987a.305.305,0,0,1-.345-.345v-.038c0-.268.115-.383.345-.383h3.987a1.246,1.246,0,0,0,.92-.383,1.137,1.137,0,0,0,.383-.92,1.246,1.246,0,0,0-.383-.92,1.376,1.376,0,0,0-.92-.383h-3.987a.305.305,0,0,1-.345-.345c0-.268.115-.383.345-.383h4.409a1.572,1.572,0,0,0,1.15-.5,1.594,1.594,0,0,0,.5-1.189,1.572,1.572,0,0,0-.5-1.15,1.572,1.572,0,0,0-1.15-.5h-3.949a.211.211,0,0,1-.192-.115.244.244,0,0,1,0-.23l.192-.345.23-.383a1.183,1.183,0,0,1,.192-.383c.038-.115.115-.153.268-.153h.038a1.715,1.715,0,0,0,1.035-.422,1.715,1.715,0,0,0,.422-1.035.181.181,0,0,1,.192-.192h2.339a1.766,1.766,0,0,0,1.38-.575,1.74,1.74,0,0,0,.575-1.342,1.883,1.883,0,0,0-.575-1.38,1.766,1.766,0,0,0-1.38-.575h-2.339c-.115,0-.192-.038-.192-.153a1.536,1.536,0,0,0-.46-1.112,1.451,1.451,0,0,0-1.074-.46h-1.879a1.392,1.392,0,0,0-1.074.46,1.536,1.536,0,0,0-.46,1.112c0,.115-.077.153-.192.153h-3.374c-.115,0-.192-.038-.192-.153a1.536,1.536,0,0,0-.46-1.112,1.365,1.365,0,0,0-1.112-.46h-1.8a1.451,1.451,0,0,0-1.074.46,1.536,1.536,0,0,0-.46,1.112c0,.115-.077.153-.192.153H138.45a1.766,1.766,0,0,0-1.38.575,1.882,1.882,0,0,0-.575,1.38,1.74,1.74,0,0,0,.575,1.342,1.766,1.766,0,0,0,1.38.575h2.07c.23,0,.345.115.345.383v.46c0,.077-.038.115-.153.077a1.1,1.1,0,0,0-.844.115,1.146,1.146,0,0,0-.613.652,16.281,16.281,0,0,1-4.026,5.674l-.077.038c-.038,0-.038-.038-.038-.077a1.3,1.3,0,0,0-.307-.728,1.3,1.3,0,0,0-.728-.307h-7.285a1.886,1.886,0,0,0-1.457.613A1.942,1.942,0,0,0,124.724-27.132Zm.23-10.735a1.942,1.942,0,0,0,.613,1.457,1.886,1.886,0,0,0,1.457.613h5.9a1.886,1.886,0,0,0,1.457-.613A1.942,1.942,0,0,0,135-37.867a1.942,1.942,0,0,0-.613-1.457,1.886,1.886,0,0,0-1.457-.613h-5.9a1.886,1.886,0,0,0-1.457.613A1.942,1.942,0,0,0,124.954-37.867Zm11.2,30.4a1.886,1.886,0,0,0,.192.767,3.621,3.621,0,0,0,1.38,1.457,2.5,2.5,0,0,0,1.38.383,1.73,1.73,0,0,0,.5-.038,44.372,44.372,0,0,0,7.323-1.917,1.18,1.18,0,0,1,.728,0,37.642,37.642,0,0,0,6.288,1.725,4.894,4.894,0,0,0,.652.077,3.328,3.328,0,0,0,1.61-.383A5.459,5.459,0,0,0,158-6.965a1.38,1.38,0,0,0,.268-.843,1.736,1.736,0,0,0-.115-.613,1.339,1.339,0,0,0-1.15-.882q-1.84-.23-3.566-.575-.115-.058-.115-.115a.225.225,0,0,1,.077-.192,15.575,15.575,0,0,0,3.987-4.1,1.38,1.38,0,0,0,.268-.843l-.038-.422a1.81,1.81,0,0,0-.882-1.035l-.844-.422a2.361,2.361,0,0,0-1-.23,1.5,1.5,0,0,0-.5.077H138.91a1.882,1.882,0,0,0-1.38.575,1.882,1.882,0,0,0-.575,1.38,1.74,1.74,0,0,0,.575,1.342,1.882,1.882,0,0,0,1.38.575h3.259a.082.082,0,0,1,.077.077c0,.038,0,.038-.038.038a1.975,1.975,0,0,0-1.227,1.457l-.038.383a1.5,1.5,0,0,0,.728,1.3l.038.038c.115.038.115.115.077.192a.1.1,0,0,1-.115.115,40.353,40.353,0,0,1-4.256.728,1.4,1.4,0,0,0-1.112.843A2.085,2.085,0,0,0,136.15-7.463Zm7.438-14.3v-.077a.3.3,0,0,1,.345-.345h2.377c.268,0,.383.115.383.345v.077c0,.268-.115.383-.383.383h-2.377C143.7-21.381,143.588-21.5,143.588-21.764Zm0-3.374v-.038c0-.268.115-.383.345-.383h2.377c.268,0,.383.115.383.383v.038c0,.23-.115.345-.383.345h-2.377A.3.3,0,0,1,143.588-25.138Zm0-3.374c0-.268.115-.383.345-.383h2.415c.23,0,.345.115.345.383a.305.305,0,0,1-.345.345h-2.415A.3.3,0,0,1,143.588-28.512Zm1.15,15.3c.038-.038.077-.077.115-.077h5.176a.082.082,0,0,1,.077.077c0,.077,0,.115-.038.153-.959.613-1.725,1.035-2.224,1.3a.733.733,0,0,1-.69,0,16.549,16.549,0,0,1-2.377-1.3C144.738-13.138,144.7-13.176,144.738-13.214Z" transform="translate(-1.152 41.088)" fill="#fff"/>
    <path id="パス_46500" data-name="パス 46500" d="M18.091,20.333h3.944c.069,0,.1.035.138.1.035.035.035.069-.035.138-.692.692-1.488,1.419-2.353,2.18A.759.759,0,0,1,19.2,23H18.091c-.242,0-.346-.1-.346-.311V20.679C17.745,20.437,17.849,20.333,18.091,20.333ZM1.968,25.35A2.272,2.272,0,0,0,2.66,27.01a2.165,2.165,0,0,0,1.626.657h8.65c.069,0,.1.035.1.069a.127.127,0,0,1-.035.1A55.107,55.107,0,0,1,3.49,32.754a1.608,1.608,0,0,0-1.142,1.28,1.6,1.6,0,0,0-.069.484,1.644,1.644,0,0,0,.45,1.211,3.73,3.73,0,0,0,1.9,1.315,4.01,4.01,0,0,0,.969.138,4.073,4.073,0,0,0,1.315-.277c1.626-.761,2.733-1.315,3.321-1.626a.221.221,0,0,1,.208,0,.16.16,0,0,1,.1.173v2.8c0,2.318.519,3.875,1.557,4.705,1.073.865,3.079,1.28,6.055,1.28h7.37c2.387,0,4.083-.45,5.086-1.384a5.917,5.917,0,0,0,1.453-2.8,2.556,2.556,0,0,0,.1-.657,2.232,2.232,0,0,0-.415-1.246,3.284,3.284,0,0,0-1.661-1.28,1.372,1.372,0,0,0-.692-.138,1.761,1.761,0,0,0-.9.242,2.035,2.035,0,0,0-1.038,1.28,3.535,3.535,0,0,1-.277.8,2.388,2.388,0,0,1-2.041.727H18.61a6.073,6.073,0,0,1-2.318-.277c-.346-.138-.519-.554-.519-1.28v-.934a.353.353,0,0,1,.346-.381A111.72,111.72,0,0,0,27.709,33.9a1.493,1.493,0,0,0,1.038-1.211,1.177,1.177,0,0,0,.035-.346,1.5,1.5,0,0,0-.519-1.176,4.747,4.747,0,0,0-2.214-1.073c-.381-.035-.623-.069-.761-.069a4.7,4.7,0,0,0-1.661.311,74.131,74.131,0,0,1-7.508,2.318c-.1,0-.208,0-.242-.035a.3.3,0,0,1-.1-.208v-.069a.569.569,0,0,1,.277-.519q2.8-1.868,5.4-3.944a.94.94,0,0,1,.588-.208h9.411a2.165,2.165,0,0,0,1.626-.657A2.353,2.353,0,0,0,31.446,23H27.052c-.1,0-.138-.035-.138-.069a.152.152,0,0,1,.035-.173,57.278,57.278,0,0,0,4.29-5.086,2.292,2.292,0,0,0,.381-1.246,2.578,2.578,0,0,0-.069-.623,2.21,2.21,0,0,0-1.211-1.453,2.757,2.757,0,0,0-1.246-.277c-.173,0-.415.035-.8.069a3.016,3.016,0,0,0-1.73,1.246c-.381.519-1.038,1.349-1.9,2.422,0,.035-.035.035-.069,0l-.069-.069a1.96,1.96,0,0,0-.588-1.419,1.94,1.94,0,0,0-1.384-.588H18.091c-.242,0-.346-.1-.346-.311v-.934a2.456,2.456,0,0,0-.761-1.834,2.591,2.591,0,0,0-3.737,0,2.456,2.456,0,0,0-.761,1.834v.934c0,.208-.1.311-.346.311H7.469a2.252,2.252,0,0,0-1.626.692,2.34,2.34,0,0,0,0,3.252,2.165,2.165,0,0,0,1.626.657H12.14c.242,0,.346.1.346.346v2.007c0,.208-.1.311-.346.311H4.286a2.252,2.252,0,0,0-1.626.692A2.272,2.272,0,0,0,1.968,25.35ZM50.2,15.489a7.56,7.56,0,0,0-.035.969l-.242,2.595c-.138,1.211-.277,2.214-.45,3.01q-.156.778-.727,3.114A27.843,27.843,0,0,1,47.575,28.5q-.675,1.453-1.661,3.218A20.348,20.348,0,0,1,43.665,34.9,29.764,29.764,0,0,1,40.69,37.77l-1.246,1a2.165,2.165,0,0,0-.83,1.765,2.3,2.3,0,0,0,.727,1.7l.035.035a3.8,3.8,0,0,0,2.145,1.038,1.194,1.194,0,0,0,.415.035,3.149,3.149,0,0,0,1.73-.588,30.454,30.454,0,0,0,9.791-14.22c.035-.035.069-.069.1-.069s.069.035.1.069c2.249,6.4,5.847,11.21,10.726,14.428a2.842,2.842,0,0,0,1.488.415,3.028,3.028,0,0,0,.692-.069A4.039,4.039,0,0,0,68.611,42.1a2.335,2.335,0,0,0,.588-1.522l-.035-.277A2.2,2.2,0,0,0,68.23,38.7a17.629,17.629,0,0,1-2.284-1.626,24.572,24.572,0,0,1-3.667-3.737,24.342,24.342,0,0,1-2.63-4.152A34.637,34.637,0,0,1,57.885,25a32.269,32.269,0,0,1-1.073-4.048c-.242-1.142-.45-2.318-.588-3.46l-.208-2.007a3.009,3.009,0,0,0-.865-2.076,2.694,2.694,0,0,0-1.972-.83,2.93,2.93,0,0,0-2.076.83A3,3,0,0,0,50.2,15.489ZM81.551,27.44a2.062,2.062,0,0,0-2.145-2.249c-1.592,0-2.422.761-2.457,2.249a89.6,89.6,0,0,1-1.28,12.213c-.277,1.419.381,2.18,1.938,2.353A2.193,2.193,0,0,0,80.34,39.93,85.725,85.725,0,0,0,81.551,27.44Zm-6.574-6.816a2.456,2.456,0,0,0,2.768,2.768h6.089v17.23a2.578,2.578,0,0,0,5.155,0V23.391h6.193a2.456,2.456,0,0,0,2.768-2.768,2.456,2.456,0,0,0-2.768-2.768H88.99V16.195a2.578,2.578,0,0,0-5.155,0v1.661H77.745A2.456,2.456,0,0,0,74.977,20.624ZM91.308,27.44a85.726,85.726,0,0,0,1.211,12.49,2.193,2.193,0,0,0,2.733,2.076c1.557-.173,2.214-.934,1.938-2.353a89.593,89.593,0,0,1-1.28-12.213c-.035-1.488-.865-2.249-2.457-2.249A2.062,2.062,0,0,0,91.308,27.44Zm12.144,2.318a2.385,2.385,0,0,0,2.7,2.7h10.587a2.4,2.4,0,0,0,2.7-2.733,2.385,2.385,0,0,0-2.7-2.7H106.151a2.385,2.385,0,0,0-2.7,2.7Zm32.286-11.625a2.335,2.335,0,0,0-1.938-3.045c-1.834-.311-2.941.484-3.322,2.353-.277,1.28-.8,3.321-1.592,6.124s-1.938,6.3-3.494,10.414c-1.107,2.768-.657,5.294,1.107,6.781a5.205,5.205,0,0,0,3.321,1.142h11.487c4.6.035,6.747-2.353,5.363-7.577a66.177,66.177,0,0,0-2.63-8.027c-.623-1.73-1.765-2.387-3.46-1.938a2.459,2.459,0,0,0-1.522,3.46c1.349,3.979,2.111,6.366,2.249,7.093.242,1-.1,1.522-1.107,1.557h-7.958c-1.073-.035-1.453-.588-1.073-1.7A107.521,107.521,0,0,0,135.738,18.132Z" transform="translate(161.896 -8.437)" fill="#fff"/>
  </g>
  <path id="前面オブジェクトで型抜き_5" data-name="前面オブジェクトで型抜き 5" d="M13.128,15.152H4a4,4,0,0,1-4-4V4A4,4,0,0,1,4,0h9.129a4,4,0,0,1,4,4v7.152A4.005,4.005,0,0,1,13.128,15.152ZM7.27,4.612a2,2,0,0,0-2,2v1.93a2,2,0,0,0,2,2H9.859a2,2,0,0,0,2-2V6.611a2,2,0,0,0-2-2Z" transform="translate(40.801 1.486)" fill="#e97d44"/>
  <path id="前面オブジェクトで型抜き_6" data-name="前面オブジェクトで型抜き 6" d="M8.517,12.517H4a4,4,0,0,1-4-4V4A4,4,0,0,1,4,0H8.517a4,4,0,0,1,4,4V8.518A4,4,0,0,1,8.517,12.517ZM5.51,4.469a1,1,0,0,0-1,1v1.58a1,1,0,0,0,1,1h1.5a1,1,0,0,0,1-1V5.468a1,1,0,0,0-1-1Z" transform="translate(121.174 23.226)" fill="#e97d44"/>
</svg>
