<svg id="icon_hand.svg" xmlns="http://www.w3.org/2000/svg" width="80" height="109" viewBox="0 0 80 109">
  <defs>
    <style>
      .cls-1 {
        fill: #cfeaed;
      }

      .cls-1, .cls-2 {
        fill-rule: evenodd;
      }

      .cls-2 {
        fill: #99cbd0;
      }
    </style>
  </defs>
  <path id="hand-icon" class="cls-1" d="M693.51,617a1.573,1.573,0,0,1-1.459-.991c-0.223-.557-0.443-1.114-0.654-1.656a58.175,58.175,0,0,1-3.683-12.774q-0.136-.688-0.3-1.483a25.054,25.054,0,0,1-6.138-1.531,28.331,28.331,0,0,1-6.471-3.575c-3.11-2.061-5.362-4.873-7.54-7.593a41.266,41.266,0,0,0-5.282-5.809,8.7,8.7,0,0,0-2.974-1.242,16.325,16.325,0,0,1-4.5-1.869,10.128,10.128,0,0,1-3.926-5.015,9.171,9.171,0,0,1,.264-7.074,10.024,10.024,0,0,1,2.3-3.19,11.677,11.677,0,0,1,3.738-2.321,11.233,11.233,0,0,1,4.891-.741,15.157,15.157,0,0,1,4.6,1.1,28.2,28.2,0,0,1,4.648,2.429,44.1,44.1,0,0,0-1.576-4.753c-0.435-1.114-.931-2.294-1.563-3.712a41.545,41.545,0,0,0-3.675-6.079,40.813,40.813,0,0,1-10.69-20.716,29.892,29.892,0,0,1-.506-7.716,16.209,16.209,0,0,1,2.049-7.079,11.33,11.33,0,0,1,5.747-4.86,10.335,10.335,0,0,1,3.686-.747,8.467,8.467,0,0,1,3.626.76,9.154,9.154,0,0,1,3.123,2.381,13.32,13.32,0,0,1,2.279,3.9,19.616,19.616,0,0,1,1.014,3.651c0.277,1.089.52,2.2,0.754,3.266,0.253,1.156.493,2.249,0.773,3.327a43.224,43.224,0,0,0,4.14,10.369,11.393,11.393,0,0,1,.934-1.317,7.781,7.781,0,0,1,3.147-2.359,6.958,6.958,0,0,1,3.036-.441,9.355,9.355,0,0,1,2.937.712,11.37,11.37,0,0,1,2.616,1.523c0.072,0.056.143,0.112,0.213,0.169a7.518,7.518,0,0,1,.7-0.974A8.051,8.051,0,0,1,697,530.693a7.519,7.519,0,0,1,3.731-.535,6.469,6.469,0,0,1,3.146,1.336,9.942,9.942,0,0,1,2.254,2.555,18.257,18.257,0,0,1,1.5,2.98,10.922,10.922,0,0,1,2.4-1.278,9.369,9.369,0,0,1,3.9-.661,8.907,8.907,0,0,1,3.6.952,10.355,10.355,0,0,1,4.916,5.566,10.234,10.234,0,0,1,.682,3.53,23.15,23.15,0,0,1-.191,3.09,20.57,20.57,0,0,0-.173,2.693,7.123,7.123,0,0,0,.474,2.491,11.449,11.449,0,0,0,1.076,2,24.791,24.791,0,0,1,2.344,4.621,26.015,26.015,0,0,1,1.534,5.867,24.716,24.716,0,0,1,.109,5.939,23.944,23.944,0,0,1-4.1,11.143l0,0.008a23.736,23.736,0,0,1-2.961,3.466c1.1,1.765,2.078,3.194,3.034,4.584a55.247,55.247,0,0,1,5.605,9.622,1.582,1.582,0,0,1-.693,2.045c-3.532,1.888-6.755,3.521-9.854,4.994-3.544,1.685-6.857,3.128-10.128,4.412a110.94,110.94,0,0,1-15.316,4.845A1.578,1.578,0,0,1,693.51,617Z" transform="translate(-650 -508)"/>
  <path id="hand-icon-2" data-name="hand-icon" class="cls-2" d="M693.51,617a1.573,1.573,0,0,1-1.459-.991c-0.223-.557-0.443-1.114-0.654-1.656a58.175,58.175,0,0,1-3.683-12.774q-0.136-.688-0.3-1.483a25.054,25.054,0,0,1-6.138-1.531,28.331,28.331,0,0,1-6.471-3.575c-3.11-2.061-5.362-4.873-7.54-7.593a41.266,41.266,0,0,0-5.282-5.809,8.7,8.7,0,0,0-2.974-1.242,16.325,16.325,0,0,1-4.5-1.869,10.128,10.128,0,0,1-3.926-5.015,9.171,9.171,0,0,1,.264-7.074,10.024,10.024,0,0,1,2.3-3.19,11.677,11.677,0,0,1,3.738-2.321,11.233,11.233,0,0,1,4.891-.741,15.157,15.157,0,0,1,4.6,1.1,28.2,28.2,0,0,1,4.648,2.429,44.1,44.1,0,0,0-1.576-4.753c-0.435-1.114-.931-2.294-1.563-3.712a41.545,41.545,0,0,0-3.675-6.079,40.813,40.813,0,0,1-10.69-20.716,29.892,29.892,0,0,1-.506-7.716,16.209,16.209,0,0,1,2.049-7.079,11.33,11.33,0,0,1,5.747-4.86,10.335,10.335,0,0,1,3.686-.747,8.467,8.467,0,0,1,3.626.76,9.154,9.154,0,0,1,3.123,2.381,13.32,13.32,0,0,1,2.279,3.9,19.616,19.616,0,0,1,1.014,3.651c0.277,1.089.52,2.2,0.754,3.266,0.253,1.156.493,2.249,0.773,3.327a43.224,43.224,0,0,0,4.14,10.369,11.393,11.393,0,0,1,.934-1.317,7.781,7.781,0,0,1,3.147-2.359,6.958,6.958,0,0,1,3.036-.441,9.355,9.355,0,0,1,2.937.712,11.37,11.37,0,0,1,2.616,1.523c0.072,0.056.143,0.112,0.213,0.169a7.518,7.518,0,0,1,.7-0.974A8.051,8.051,0,0,1,697,530.693a7.519,7.519,0,0,1,3.731-.535,6.469,6.469,0,0,1,3.146,1.336,9.942,9.942,0,0,1,2.254,2.555,18.257,18.257,0,0,1,1.5,2.98,10.922,10.922,0,0,1,2.4-1.278,9.369,9.369,0,0,1,3.9-.661,8.907,8.907,0,0,1,3.6.952,10.355,10.355,0,0,1,4.916,5.566,10.234,10.234,0,0,1,.682,3.53,23.15,23.15,0,0,1-.191,3.09,20.57,20.57,0,0,0-.173,2.693,7.123,7.123,0,0,0,.474,2.491,11.449,11.449,0,0,0,1.076,2,24.791,24.791,0,0,1,2.344,4.621,26.015,26.015,0,0,1,1.534,5.867,24.716,24.716,0,0,1,.109,5.939,23.944,23.944,0,0,1-4.1,11.143l0,0.008a23.736,23.736,0,0,1-2.961,3.466c1.1,1.765,2.078,3.194,3.034,4.584a55.247,55.247,0,0,1,5.605,9.622,1.582,1.582,0,0,1-.693,2.045c-3.532,1.888-6.755,3.521-9.854,4.994-3.544,1.685-6.857,3.128-10.128,4.412a110.94,110.94,0,0,1-15.316,4.845A1.578,1.578,0,0,1,693.51,617Zm-32.531-53.733a7.958,7.958,0,0,0-2.942.55,8.562,8.562,0,0,0-2.739,1.691,6.88,6.88,0,0,0-1.585,2.188,6,6,0,0,0-.2,4.617c1.373,3.522,3.808,4.243,6.387,5.006a11.03,11.03,0,0,1,4.109,1.853l0.006,0.006a44.122,44.122,0,0,1,5.7,6.241c2.127,2.656,4.136,5.165,6.849,6.955,0.022,0.014.043,0.029,0.064,0.044a25.189,25.189,0,0,0,5.78,3.2,21.755,21.755,0,0,0,6.419,1.437,1.576,1.576,0,0,1,1.436,1.259q0.3,1.477.53,2.645a55.177,55.177,0,0,0,3.528,12.242l0.142,0.363a109.657,109.657,0,0,0,13.57-4.393,179.1,179.1,0,0,0,18.327-8.55,54.868,54.868,0,0,0-4.7-7.79c-1.12-1.627-2.388-3.472-3.81-5.847a1.581,1.581,0,0,1,.314-2,21.221,21.221,0,0,0,3.43-3.8,20.8,20.8,0,0,0,3.561-9.672,21.6,21.6,0,0,0-.1-5.179,22.827,22.827,0,0,0-1.348-5.152,21.707,21.707,0,0,0-2.08-4.094,14.382,14.382,0,0,1-1.34-2.527,13.394,13.394,0,0,1-.5-6.673,10.318,10.318,0,0,0-.293-5.131,7.212,7.212,0,0,0-3.4-3.894,5.788,5.788,0,0,0-2.339-.621,6.263,6.263,0,0,0-2.6.448,5.353,5.353,0,0,0-2.649,1.83,3.466,3.466,0,0,1-.263.32,1.688,1.688,0,0,1-1.226.545,1.637,1.637,0,0,1-.26-0.021,1.7,1.7,0,0,1-1.308-1.084c-0.068-.156-0.127-0.33-0.209-0.571-0.1-.3-0.243-0.715-0.463-1.279A10.268,10.268,0,0,0,701.953,534a3.6,3.6,0,0,0-3.812-.363,4.893,4.893,0,0,0-1.944,1.382,3.906,3.906,0,0,0-.925,2.024,1.571,1.571,0,0,1-2.828.735,8.128,8.128,0,0,0-3.373-2.605,4.93,4.93,0,0,0-3.628-.249c-1.291.506-2.376,1.77-3.315,3.862,0,0.022-.007.045-0.011,0.067a1.571,1.571,0,0,1-2.693.852,18.848,18.848,0,0,1-1.682-2.056c-0.024-.032-0.045-0.066-0.066-0.1a45.5,45.5,0,0,1-4.632-11.418c0-.009,0-0.018-0.008-0.027-0.3-1.143-.556-2.322-0.806-3.463-0.232-1.062-.473-2.161-0.743-3.216-0.01-.038-0.018-0.077-0.025-0.117a16.459,16.459,0,0,0-.857-3.111,10.219,10.219,0,0,0-1.725-2.983,6.047,6.047,0,0,0-2.049-1.577,6.138,6.138,0,0,0-4.864.054,8.586,8.586,0,0,0-2.475,1.471,8.262,8.262,0,0,0-1.713,2.063,13.092,13.092,0,0,0-1.617,5.706,26.758,26.758,0,0,0,.461,6.893,37.63,37.63,0,0,0,9.924,19.17,1.658,1.658,0,0,1,.133.156,44.472,44.472,0,0,1,4.039,6.657c0.012,0.023.023,0.046,0.034,0.07,0.659,1.48,1.179,2.715,1.635,3.886a38.452,38.452,0,0,1,2.494,9.169,1.573,1.573,0,0,1-2.474,1.486,35.12,35.12,0,0,0-7.175-4.244A11.6,11.6,0,0,0,660.979,563.267Z" transform="translate(-650 -508)"/>
</svg>
