<svg id="beginner-mv-icon" xmlns="http://www.w3.org/2000/svg" width="27.497" height="36.505" viewBox="0 0 27.497 36.505">
  <path id="パス_23321" data-name="パス 23321" d="M-14925.652,5236.613a1.424,1.424,0,0,1,.937-1.173,1.837,1.837,0,0,1,1.688,0l9.7,5.868v27.6l-12.328-7.171Z" transform="translate(14927.07 -5233.818)" fill="#fff"/>
  <path id="パス_23322" data-name="パス 23322" d="M-14913.324,5236.613a1.424,1.424,0,0,0-.936-1.173,1.842,1.842,0,0,0-1.69,0l-9.7,5.868v27.6l12.328-7.171Z" transform="translate(14939.402 -5233.818)" fill="#e87f17"/>
  <path id="合体_26" data-name="合体 26" d="M12.249,35a1.586,1.586,0,0,1-.8-.213L-.883,27.537A1.182,1.182,0,0,1-1.5,26.531V1.116A2.654,2.654,0,0,1,.15-1.134,3.516,3.516,0,0,1,1.711-1.5a3.251,3.251,0,0,1,1.66.433l8.878,5.433L21.13-1.069A3.255,3.255,0,0,1,22.786-1.5a3.514,3.514,0,0,1,1.559.365A2.656,2.656,0,0,1,26,1.116V26.531a1.182,1.182,0,0,1-.617,1.006L13.051,34.791A1.586,1.586,0,0,1,12.249,35ZM1.339,25.888l10.91,6.419,10.91-6.419V1.174c-.014-.036-.061-.112-.222-.191a.361.361,0,0,0-.15-.044.206.206,0,0,0-.059.009L13.072,6.857a1.612,1.612,0,0,1-1.647,0L1.77.948A.206.206,0,0,0,1.711.939a.365.365,0,0,0-.152.045c-.159.078-.207.154-.22.19Z" transform="translate(1.5 1.5)" fill="#060000"/>
</svg>
