<svg id="Beginner" xmlns="http://www.w3.org/2000/svg" width="31.259" height="46.387" viewBox="0 0 31.259 46.387">
  <path id="パス_24271" data-name="パス 24271" d="M32.363,14.627a1.393,1.393,0,0,0-1.515-.3A1.367,1.367,0,0,0,30,15.607V43.565a3.368,3.368,0,0,0,.986,2.383L45.629,60.6V27.9Z" transform="translate(-30 -14.218)" fill="#97d0e5"/>
  <path id="パス_24272" data-name="パス 24272" d="M77.192,14.621,63.93,27.9V60.6L78.574,45.943a3.368,3.368,0,0,0,.986-2.383V15.6a1.367,1.367,0,0,0-.848-1.283,1.393,1.393,0,0,0-1.519.3Z" transform="translate(-48.301 -14.212)" fill="#00abeb"/>
</svg>
