<svg xmlns="http://www.w3.org/2000/svg" xmlns:xlink="http://www.w3.org/1999/xlink" width="104" height="104" viewBox="0 0 104 104">
  <defs>
    <clipPath id="clip-path">
      <rect id="長方形_806" data-name="長方形 806" width="104" height="104" transform="translate(6446.713 -100.821)" fill="#fff" stroke="#707070" stroke-width="1"/>
    </clipPath>
    <clipPath id="clip-path-2">
      <rect id="長方形_495" data-name="長方形 495" width="98.326" height="135.577" fill="none"/>
    </clipPath>
    <clipPath id="clip-path-3">
      <rect id="長方形_494" data-name="長方形 494" width="98.109" height="135.353" fill="none"/>
    </clipPath>
  </defs>
  <g id="how-item02_illust" transform="translate(-6446.713 100.821)" clip-path="url(#clip-path)">
    <g id="グループ_1407" data-name="グループ 1407" transform="translate(6449.713 -94.209)">
      <g id="グループ_1406" data-name="グループ 1406" clip-path="url(#clip-path-2)">
        <g id="グループ_1405" data-name="グループ 1405" transform="translate(0.108 0.112)">
          <g id="グループ_1404" data-name="グループ 1404" clip-path="url(#clip-path-3)">
            <g id="グループ_1403" data-name="グループ 1403">
              <g id="グループ_1402" data-name="グループ 1402" clip-path="url(#clip-path-3)">
                <path id="パス_13195" data-name="パス 13195" d="M37.08,94.566c-.478.453-1,.843-1.517,1.256-.53.444-.866,1.078-1.427,1.491A8.734,8.734,0,0,1,33,97.925a2.365,2.365,0,0,0-.8.524c-.207.049-.414.1-.621.142-1.181.271-2.383.448-3.582.63a17.816,17.816,0,0,1-2.823.364,4.519,4.519,0,0,1-2.414-.271c-1.672-.887-2.353-3.031-3.952-4.074-2.211-1.62-5.168-1.921-5.435,1.589a32.635,32.635,0,0,0,.474,4.659c.3,1.655-.978,1.731-2.228,1.7-1.668.031-3.573.222-4.866,1.42a7.431,7.431,0,0,0-2.267,3.807,11.846,11.846,0,0,0,.526,4.326,6.488,6.488,0,0,1-.552-.55A8.307,8.307,0,0,1,3.142,110.4a8.606,8.606,0,0,1-.19-3.386,4.033,4.033,0,0,1,1.392-2.538,8.878,8.878,0,0,1,2.082-1.842c1.138-.648,2.435-.883,3.547-1.58,1.638-1.145,1.539-3.479,1.267-5.272a6.071,6.071,0,0,1-.216-1.961c.647.213,1.047-.612.784-1.158a3.572,3.572,0,0,1,1.569-2.019c.375.217.8,0,1.155-.16a12.011,12.011,0,0,1,1.776-.315A4.646,4.646,0,0,1,20.439,91.7c.97,1.065,1.521,2.512,2.521,3.563a4.444,4.444,0,0,0,2.379,1.2,10.079,10.079,0,0,0,3.418-.572c.509.284,1.073-.129,1.577-.257,1.25-.426,2.4-.932,3.651-1.393a.562.562,0,0,0,.427.129.5.5,0,0,0,.362.115,8.366,8.366,0,0,1,2.306.084" transform="translate(-1.735 -50.243)" fill="#fff"/>
                <path id="パス_13196" data-name="パス 13196" d="M102.719,63.115c-.453-.652-1.164-1.078-1.629-1.7a2.261,2.261,0,0,1-.375-.7c.328-.493-.1-1.651-.75-1.6a8.04,8.04,0,0,1-.72-1.584c.384-.51.034-1.389-.384-1.775a10.5,10.5,0,0,1-.4-1.779c.224-.537.237-1.509-.448-1.664a10.558,10.558,0,0,1-.078-2.019.762.762,0,0,0-.039-1.26c.052-.8.095-1.6.121-2.4.659-.386.849-1.859.052-2.174a9.817,9.817,0,0,1,.362-2.623c.254-.4.474-1.043-.043-1.336.116-.617.211-1.238.349-1.846.461-.408.668-1.455-.108-1.611-.2-1.127,1.134-3.692.444-4.034-.06-.985,1.388-2.933.522-3.421.241-.861.453-1.735.767-2.569.289-.43.823-1.1.289-1.544a16.727,16.727,0,0,1,.69-2.094c.724-.257.935-1.358.047-1.522.134-1.021,1.668-3.1,1.306-3.736.405-.879.84-1.735,1.323-2.565.254-.408.9-.8.53-1.353.4-.95,2.142-2.143,1.94-3.062.608-1.114,1.746-1.753,2.418-2.756.543-.453,1.1-.905,1.69-1.3.47.257.728-.244.961-.564a.558.558,0,0,0,.388-.333,17.5,17.5,0,0,1,1.771-.945,3.513,3.513,0,0,0,2.789-1.1,17.01,17.01,0,0,1,2.457-.51c.444.541,2.465.244,2.659-.479a9.509,9.509,0,0,1,1.84-.24c.224.657,1.5.541,1.922.177,1.159.106,2.34.333,3.526.386a.582.582,0,0,0,.319.106,1.921,1.921,0,0,0,.487.4,24.174,24.174,0,0,0-10.392.484c-3.59-.3-6.784,2.685-8.987,5.3-.784.87-3.108,2.973-2.733,4.184-1.134,2.7-3.508,5.036-3.5,8.138a26.732,26.732,0,0,0-1.94,7.415A13.478,13.478,0,0,0,101.12,35.5a6.788,6.788,0,0,0,.2,1.109c-.091,1.7-.806,3.466-.353,5.134-.513,3.026.073,6.066-.052,9.119.043,2.325-.073,4.744.879,6.909.177.777.547,3.106,1.336,3.319.069.164.138.337.22.506a.653.653,0,0,0-.228,1.007c.25.3.672.213,1.013.262h.022c-.3.138-.59.28-.884.417a.7.7,0,0,0-.556-.164" transform="translate(-55.81 -1.729)" fill="#fff"/>
                <path id="パス_13197" data-name="パス 13197" d="M155.1,96.981c-.28,0-.565.009-.845.035-.034-.049-.078-.1-.056-.16a.63.63,0,0,0,.332-.55.679.679,0,0,0-.022-.16.62.62,0,0,0-.06-.6,1.957,1.957,0,0,1,2.379-1.056c1.009.479,1.789,2.378.216,2.6-.651-.058-1.3-.111-1.944-.111" transform="translate(-87.843 -52.604)" fill="#fff"/>
                <path id="パス_13198" data-name="パス 13198" d="M167.6,101.819c2.371-1.442,5.474-2.015,7.172-4.406a3.309,3.309,0,0,0,1.246-1.646,5.947,5.947,0,0,0,1.379-2.41.7.7,0,0,1,.073-.049.594.594,0,0,0,.28.018c.069.067.134.138.2.213a3.841,3.841,0,0,1,.026.5c-.509.2-.5.874-.388,1.34A6.08,6.08,0,0,1,177,96.6c-.487.022-.668.595-.862.972a6.06,6.06,0,0,1-1.164,1.42c-.336.382-.961.355-1.121.843.422,2.822,4.638-3.017,4.7-3.683a.6.6,0,0,0,.319-.288c.116.528.31,1.061.405,1.6a4.726,4.726,0,0,1-.25.617c-.733.39-.556,1.451-1.06,2.046a10.438,10.438,0,0,1-1.034,1.309.6.6,0,0,0,.228,1.109,1.559,1.559,0,0,0,.892-.559,2.769,2.769,0,0,1-.474,1.14c-1.233.067-2.53,2.17-3.668,2.871-1.069-.209-3.845,3.013-3.263,4.269a11.558,11.558,0,0,0-2.435,5.667c-1.944-.448-3.776-2.392-5.832-1.828l-.078-.027a14.2,14.2,0,0,0,.349-1.58c.409-1.274.858-2.538,1.267-3.816.422-.075.457-.63.431-1.016.25-.28.1-.612,0-.905a3.125,3.125,0,0,1,.263-.8.79.79,0,0,0,.621-1.078c.28-.7.935-1.136,1.259-1.766.9.528.931-.67,1.112-1.291" transform="translate(-92.459 -52.015)" fill="#fff"/>
                <path id="パス_13199" data-name="パス 13199" d="M124.046,66.659c7.448-8.418-10.043-8.431-3.582-.577a1.774,1.774,0,0,0,1.112.63A6.248,6.248,0,0,0,124,66.677l.043-.018m-1.487-9.27a.555.555,0,0,0,.3-.084,2.38,2.38,0,0,0,.435.009,2.472,2.472,0,0,0,.819.146,2.017,2.017,0,0,0,2.112-1.748c.1-1.842-1.1-2.228-2.642-2.019a2.2,2.2,0,0,0-1.952,1.487,1.414,1.414,0,0,0,.3,1.708.649.649,0,0,0,.4.453.5.5,0,0,0,.224.049m-5.383,10.135c-.108-.763-.017-3.088-1.345-2.418-.056-.24-.112-.479-.159-.719a2.678,2.678,0,0,0-.147-.887c-.013-.071-.017-.146-.026-.217.569-.559-.336-1.464-.909-1.012a1.312,1.312,0,0,1-.444-.146.654.654,0,0,0-.685-.382c-.526-.732-.448-.768-1.306-.763a6.188,6.188,0,0,0-.272-.657c-1-1.491-1.026-4.22.112-5.152a.782.782,0,0,0,.422-.24,2.316,2.316,0,0,1,2,.439c.414.519,1.371.457,1.3-.324.453-.124.418-.674.543-1.056a.712.712,0,0,0,.2-.63c1.284-3.2,2.379-6.936,5.133-9.132a7.962,7.962,0,0,0,3.168,2.742,5.739,5.739,0,0,1-3.181,1.092.617.617,0,0,0,.078,1.22,6.42,6.42,0,0,0,4.3-1.771c.065.022.129.049.19.075,1.849.763,3.189,2.889,5.306,2.711a14.1,14.1,0,0,0,1.336.475,25.644,25.644,0,0,0,5.095,1.593c1.306.164,2.711.1,4.077.177a7.089,7.089,0,0,1,4.806,1.7c.28.528.237,1.251.634,1.686a.778.778,0,0,0,.616.887.6.6,0,0,0,.6.386c.388-.058.668-.386,1.065-.457a.552.552,0,0,1,.073.035.82.82,0,0,0,.78.6,2.992,2.992,0,0,1,.379.519,1.015,1.015,0,0,0,.31.692,2.7,2.7,0,0,1,.142.99.854.854,0,0,0-.323,1.061,1.41,1.41,0,0,1-.116.164c-.694,1.313-3.129.6-3.1,1.593a11.684,11.684,0,0,0-.181,1.735.6.6,0,0,0-.164.5,1.325,1.325,0,0,0-.521,1.531,7.773,7.773,0,0,1-.315.732c-.664-.253-1.047.639-.866,1.2a2.853,2.853,0,0,1-.4.71c-.465-.151-.888.351-.8.812-.272.559-1.164.5-1.254,1.145-1.827,1.3-4.314,1.629-5.87,3.226-1.569,1.5-3.345,3.719-3.439,5.977-.422,1.14-.668,2.294-1.108,3.421-.586.794-.487,1.944-.776,2.884-.621-.275-1.336-.5-1.741-.009-1.155-.439-1.284.9-1.435,1.731a32.661,32.661,0,0,1-1.465,5.245c-.888-.83-.254-2.645-1.384-3.151-.215-.528-.4-1.065-.569-1.606.7-.914-1.108-3.75-1.345-4.965a.626.626,0,0,0,.082-1.021c2.207-1.5,4.586-8.245.957-9.2a0,0,0,0,0,0,0c-.112-.053-.228-.106-.349-.155-.754-.617-1.914-.555-2.715-1.176-.181-.825-.871-.4-1.539-.586-.159-.084-.315-.169-.47-.257a0,0,0,0,0,0,0,1.709,1.709,0,0,1-.121-.129c0-.564-.565-1.229-1.138-1.14a4.94,4.94,0,0,1-.978-1.087c.022-.506-.129-1.22-.733-1.229m23.671-.981c3.737,1.309,6-4.331,2.491-6.306-4.7-1.873-7.594,4.446-2.491,6.306m.091-8.191a1.6,1.6,0,0,0,.983-2.889,2.8,2.8,0,0,0-1.957-.834c-.772-.133-1.5.1-1.539.852a1.978,1.978,0,0,0-.155.319.9.9,0,0,0,.056.652c-.073,1.078,1.194,1.81,2.2,1.846a1.646,1.646,0,0,0,.409.053m-8.594,12.039c3.09,0,2.845-3.9.267-4.979a2.777,2.777,0,0,0-2.677.5,2.921,2.921,0,0,0-1.328,2.631,1.4,1.4,0,0,0,.8,1.731,8.654,8.654,0,0,0,1.125.022,6.587,6.587,0,0,1,1.534.08c.1.009.19.013.28.013m-.267-8.067a.614.614,0,0,0,.677-.768.6.6,0,0,0-.677-.43c-.293-.164-.565-.368-.862-.524a2.294,2.294,0,0,0-.319-.146,11.173,11.173,0,0,0,.4-2.392,6.82,6.82,0,0,0,.228-2.179.627.627,0,1,0-1.056-.67,3.424,3.424,0,0,0-.134,1.376,1.035,1.035,0,0,0-.215,1.3c0,.04,0,.075,0,.111s-.013.093-.017.138a1.339,1.339,0,0,0-.25,1.731c-.017.049-.039.1-.06.146a.676.676,0,0,0-.358,1.1,2.349,2.349,0,0,0,.858.359,6.5,6.5,0,0,1,1.2.657,1.034,1.034,0,0,0,.59.182" transform="translate(-63.345 -24.714)" fill="#fff"/>
                <path id="パス_13200" data-name="パス 13200" d="M101.951,230.9c.116-2.268,3.263-5.635,1.776-7.335q.672-1.471,1.362-2.929c.151.422.328.945.8,1.061.022.173.043.351.06.524-1.474,1.62.789,4.4.25,6.323-.685,5.347.784,6.115-5.81,5.675a29.339,29.339,0,0,0,1.565-3.319" transform="translate(-57.227 -122.844)" fill="#fff"/>
                <path id="パス_13201" data-name="パス 13201" d="M96.511,187.452a49.771,49.771,0,0,0,1.345-9.758,18.708,18.708,0,0,0-.22-2.955,6.391,6.391,0,0,0,1.987-.67c.25.608.707-.067.983-.488,1.935-1.322,3.53-2.219,4.077.812-1.134.217-5.461-.044-4.457,1.815,1.746-.24,3.728-.914,5.668-.737a18.607,18.607,0,0,1,.121,2.023c-1.047.293-6.34-.475-4.172,1.535,1.4-.595,3.349-.355,4.84-.275.009.39.017.781.009,1.167-5.435.3-4.9,2.152.375,1.1a23.618,23.618,0,0,1-.172,2.809c-.129.612-.371,1.007-.849.741-1.241-2.9-1.5.1-1.336,1.558-.793.9-.392,2.436-.974,3.537-1.026-.049-.56,1.447-1.185,1.975-.616-.368-1.082.337-1.306.852-.634,1.282-1.207,2.591-1.81,3.887a.253.253,0,0,0-.034-.018c-.022-.009-.043-.022-.065-.031h.009c-5.245-2.889-5.642-1.238-3.569-6.949.047-.138.1-.275.151-.422v.009a4.748,4.748,0,0,0,.586-1.518" transform="translate(-53.939 -95.985)" fill="#fff"/>
                <path id="パス_13202" data-name="パス 13202" d="M75.105,192.706c-1.845.333-1.215,3.585-2.465,4.894a.062.062,0,0,1-.013.018c.022-.3-.026-.59.017-.883-1,1.722-1.827,3.426-2.75,5.227-1.513-1.331-1.866,5.143-5.06,3.914-.685.062-1.267-.972-1.849-.368a4.514,4.514,0,0,1-.914-.479c.246-.723-.84-1.855-1.448-1.14-2.108-.306-.8-3.506-2.543-2.769a3.7,3.7,0,0,1-.25-1.824c1.634-.142,1.142-3-.366-1.921a10.843,10.843,0,0,1,.276-2.84c1.069-.018,1.608-1.921.4-2.161.526-2.96,2.978-5.44,2.621-8.236.073-.932,2.435-2.5.733-3.08a2.171,2.171,0,0,1,.095-.6c.53-1.837,3-4.18,1.694-5.352.263-.87.552-1.739.879-2.587,1.862-.169,1.461-3.443,2.375-4.784.879-.271,2-2.773.47-2.716-.224-1.886,3.789-3.009,1.836-4.366.177-1.611,2.375-3.088,1.746-4.584.233-.6.478-1.189.741-1.775v.009c.293-.652.6-1.3.918-1.939.845-1.633,1.491-3.443,2.987-4.455a.064.064,0,0,0-.009-.027.625.625,0,0,0,.078-.24,5.967,5.967,0,0,1,.647-.541c.362.6.194.843.621,1.473.237.351.586,1.136.263,1.154a.408.408,0,0,1-.134.346,9.077,9.077,0,0,0,.2,3.128,20.267,20.267,0,0,1,1.405,5.7s-.009.009-.013.009c-.677.6-2.177.28-2.371,1.234-.978.173-.224,1.473-.392,2.165-.642.346-.336,1.38.116,1.766-1.384-.142.056,3.284-.418,4.451-.8.111-.6,1.145-.457,1.726-.435.315-.185.861-.121,1.274-1.013.324.043,1.433-.4,2.108-.672.186-.457,1-.582,1.633a1.046,1.046,0,0,1-.159.4c-.8.706-.34,1.806-1.108,2.631a.954.954,0,0,0-.6.009c0-.1.013-.2.017-.306-1.233.169-1.185,2.09-1.806,2.982-1.836-.834-1.349,3.2-2.543,4.131-1.608.541-1.211,2.969-2.319,4.087-.94-.453-1.323,1.114-1.233,1.775.009-.018.022-.04.03-.058-3.452,8.4,6.991-8.888,7.62-10.912a.6.6,0,0,0,.629.453c.034.479.634.95,1.03.541,1.905.714,3.6,1.966,5.508,2.614-1.241,3.124-2.371,6.128-3.629,9.092" transform="translate(-32.8 -81.936)" fill="#fff"/>
                <path id="パス_13203" data-name="パス 13203" d="M175.556,139.189c-.289.71.7,1.429,1.3,1.043.172.107.345.213.509.333.043.692.849.8,1.241,1.216a10.353,10.353,0,0,1,.97,1.216,1,1,0,0,0,.47.728,9.519,9.519,0,0,1,.405,1.766c-.315.6-.409,2.64.323,2.951a9.967,9.967,0,0,1,.03,1.136c-.965-.093-1.306,2.929-.556,3.333-.026.479-.056.963-.108,1.438-.668.16-.944,1.975-.556,2.476-.069.373-.155.745-.246,1.114-1.021.213-.647,1.842-1.03,2.578-.517.111-.461.839-.625,1.256a.6.6,0,0,0-.22.852,18.215,18.215,0,0,1-1.3,3.687c-.983-.839-2.366,2.41-1.746,3.075-.25.515-.526,1.012-.819,1.5-.767-.217-1.664,1.677-1.319,2.285a7.132,7.132,0,0,1-1.164,1.677c-.754-.639-2.267,1.371-1.7,2.059a4.725,4.725,0,0,1-1.237,1.247c-.746-.9-1.685.479-1.164,1.242a2.331,2.331,0,0,1-1.125,1.083c-.659-.519-1.806.555-1.336,1.269-1.142,1.092-2.879,1.247-4.207,2.077-1.06.275-2.1-.59-3.228-.51-1.271-.59-1.892-2.259-3.263-2.822-.931-.635-.8-3.128-1.836-3.017a3.285,3.285,0,0,1-.228-.484c-.444-1.163-.328-2.565-1.034-3.537-.284-.754.34-2.48-.625-2.849q-.071-.479-.129-.958a1.743,1.743,0,0,0-.1-1.779c-.522-1.313.289-3.346-.552-4.3a26.852,26.852,0,0,1-.009-3.226c.013-.47.284-1.074-.086-1.451-.22-1.345.7-3.08-.1-4.207a2.848,2.848,0,0,1-.043-.732c.073-1.46.858-3.483.284-4.2.065-.63.142-1.256.237-1.881.534-.391,1.078-2.063.405-2.525a.613.613,0,0,0-.03-.674c.078-.457.168-.914.276-1.362,1.388.049.918-4.508,1.552-5.777a.585.585,0,0,0,.655-.173.593.593,0,0,0,.711-.053c.741.226,3.22,1.8,3.72.919,1.034.129,2.276,1.731,3.026,1.34a8.97,8.97,0,0,1,1.819.905c-.664,3.191-1.7,6.607-1.491,9.851-.121,3.257-.621,13.516,1.815,15.353.345,1.14,2.151.99,1.358-.24a4.038,4.038,0,0,0,2.215-2.973,17.547,17.547,0,0,0,3.28-9.647c.715-.524-.2-1.575-.836-1.029-.754,1.313-.241,3.106-.78,4.548-.9-.253-1.371,1.833-1,2.41a8.1,8.1,0,0,1-1.358,2.756.739.739,0,0,0-.53,1.118,2.816,2.816,0,0,1-1.5,1.762.571.571,0,0,0-.707-.328c-.784-1.229.465-3.474-.737-3.909a15.469,15.469,0,0,1-.082-1.549c.427-.368.422-1.793-.1-2.072a13.376,13.376,0,0,1,.034-2.56c.28-.51.569-1.473-.047-1.833a.034.034,0,0,1,0,.022c-.358-1.322,1.5-3.488.181-4.056.086-.564.185-1.132.284-1.7a.987.987,0,0,0,.384-.825,16.093,16.093,0,0,1,.935-5.258c.112-.861-.944-.816-1.4-1.269.3-.333.181-.994.336-1.416a1.438,1.438,0,0,0,.345-1.109,10.5,10.5,0,0,1,1.513-2.529,4.508,4.508,0,0,0,1.461.976c.72.887,1.991.994,3,1.389-.078.794,1.009,1,1.573.839.306.089.608.186.909.293.233.7,1.065.3,1.556.59.763.182,1.685,1.748,2.418.745a5.236,5.236,0,0,1,.759.368" transform="translate(-84.947 -74.644)" fill="#fff"/>
                <path id="パス_13204" data-name="パス 13204" d="M116.156,161.129c.629-2.662.194-7.144-.759-6.652-.125-1.038.315-3.253-1.31-2.915-.422-1.234-.914-3.705-2.6-3.381-.358-1.713-.375-3.372-.884-5.1-.095-.5-.19-1.007-.289-1.509a.841.841,0,0,0-.017-.1c-.263-1.376-.7-3.492-1.013-5.005,2.784-1.81,5.987-2.667,9.017-4.056a7.86,7.86,0,0,0,2.228-.919,1.683,1.683,0,0,1,1.168-.093c.349,1.145.806,2.192,1.215,3.315.138,3.04,1.7,6.1,3.22,8.675-.319,2.432-.586,5.591-.707,9.052-.28,8.058.237,17.723,2.793,23.487a13.624,13.624,0,0,0,1.073,2c.448.99.94,2.241,2.043,2.547,2.379,2.742,2.508,2.307,5.819,3.137,1.892-.568,5.155-1.482,6.133-3.346A3.751,3.751,0,0,0,145.56,178a6.187,6.187,0,0,0,2.228-2.028c.022.621,1.1-.781,1.379-1.482a.576.576,0,0,0,.25-.466,14.543,14.543,0,0,0,1.94-3.173c-.284,1.083-.526,2.179-.754,3.27-.047.621-.552,1.624.017,2.086-.151,2.108-1.181,4.3-.741,6.408.272,7.708-.353,15.5,1.534,23.012a11.934,11.934,0,0,1-2.405,1.913v-5.352H132.673c-.241-.741-.5-1.478-.746-2.214-.44-1.553-.767-2.742-1.047-3.541-.052-.222-.1-.444-.151-.666a.574.574,0,0,0-.306-.919.585.585,0,0,0-1.056.093,26.665,26.665,0,0,1-1.59,5.777c-.47-.049-.819.7-.978,1.469H117.82c-.25-2.21.138-4.415-.121-6.63a162.144,162.144,0,0,0-1.069-16.343c-.595-5.387-1.371-10.765-2.155-16.25.84.293,1.384-.568,1.681-1.842m14.383,29.677a1.643,1.643,0,0,0,1.565-2.259,1.619,1.619,0,0,0-1.082-1.251,1.282,1.282,0,0,0-1.521.466c-.405-.093-.694.3-.836.639a1.635,1.635,0,0,0,.677,2,2,2,0,0,0,1.2.408" transform="translate(-62.291 -73.164)" fill="#fff"/>
                <path id="パス_13205" data-name="パス 13205" d="M218.289,129.028c0,.009-.009.022-.013.031s0-.009,0-.018,0-.009.009-.013" transform="translate(-124.305 -71.885)" fill="#fec1ae"/>
                <path id="パス_13206" data-name="パス 13206" d="M204.509,304.616h-1.233a8.135,8.135,0,0,0,.8-.528,2.029,2.029,0,0,1,.431.528" transform="translate(-115.771 -169.263)" fill="#b9bec2"/>
                <path id="パス_13207" data-name="パス 13207" d="M204.515,76.793a1.919,1.919,0,0,1,.043.719.643.643,0,0,0-.28.075,2.7,2.7,0,0,0-.142-.99.715.715,0,0,0,.379.2" transform="translate(-116.26 -42.72)" fill="#fec1ae"/>
                <path id="パス_13208" data-name="パス 13208" d="M203.943,78.828a2.063,2.063,0,0,1-.323,1.061.854.854,0,0,1,.323-1.061" transform="translate(-115.925 -43.961)" fill="#26466d"/>
                <path id="パス_13209" data-name="パス 13209" d="M202.915,74.287a2.994,2.994,0,0,0-.379-.519.877.877,0,0,0,.453-.08.743.743,0,0,1,.078.155.7.7,0,0,0-.151.444" transform="translate(-115.349 -41.101)" fill="#fec1ae"/>
                <path id="パス_13210" data-name="パス 13210" d="M203.416,75.038a2.832,2.832,0,0,1,.31.692,1.015,1.015,0,0,1-.31-.692" transform="translate(-115.85 -41.852)" fill="#26466d"/>
                <path id="パス_13211" data-name="パス 13211" d="M201.171,304.274h-1.595l.052-.027h.754v-.475a1.242,1.242,0,0,1,1.59-.027,8.131,8.131,0,0,1-.8.528" transform="translate(-113.665 -168.921)" fill="#26466d"/>
                <path id="パス_13212" data-name="パス 13212" d="M200.97,97a2.97,2.97,0,0,1,.181,2.516c-.095-.541-.289-1.074-.405-1.6A2.321,2.321,0,0,0,200.97,97" transform="translate(-114.331 -54.068)" fill="#fec1ae"/>
                <path id="パス_13213" data-name="パス 13213" d="M200.45,304.148v.475H199.7a3.366,3.366,0,0,0,.543-.328c.073-.053.142-.1.211-.146" transform="translate(-113.734 -169.297)" fill="#26466d"/>
                <path id="パス_13214" data-name="パス 13214" d="M200.726,72.508a2.624,2.624,0,0,1,.78.6.82.82,0,0,1-.78-.6" transform="translate(-114.32 -40.445)" fill="#26466d"/>
                <path id="パス_13215" data-name="パス 13215" d="M200.616,72.4a.16.16,0,0,0,.013.049.555.555,0,0,0-.073-.035.242.242,0,0,1,.06-.013" transform="translate(-114.223 -40.384)" fill="#fec1ae"/>
                <path id="パス_13216" data-name="パス 13216" d="M184.824,111.746c1.138-.7,2.435-2.8,3.668-2.871a2.769,2.769,0,0,0,.474-1.14,14.6,14.6,0,0,0,2.293-4.087c.647,1.442-.336,3.177-.94,4.513-.586.058-.983,1.052-.724,1.544a2.115,2.115,0,0,1-.815.954c-.565-.293-1.125.417-1.09.963a5.2,5.2,0,0,1-1.172.936c-1.078-.328-1.84,1.251-2.81,1.62a6.687,6.687,0,0,0-2.146,1.837c-.582-1.256,2.194-4.477,3.263-4.269" transform="translate(-103.37 -57.767)" fill="#fec1ae"/>
                <path id="パス_13217" data-name="パス 13217" d="M196.7,72.266a.659.659,0,0,0,.526-.231,1.921,1.921,0,0,1,1.138.16c-.4.071-.677.4-1.065.457a.6.6,0,0,1-.6-.386" transform="translate(-112.027 -40.167)" fill="#26466d"/>
                <path id="パス_13218" data-name="パス 13218" d="M195.337,305.245h-3.211a.876.876,0,0,0,.1-.027h3.159l-.052.027" transform="translate(-109.426 -169.892)" fill="#26466d"/>
                <path id="パス_13219" data-name="パス 13219" d="M195.525,304.033h-3.159c1.1-.293,2.646-1.54,3.052-.532a5.96,5.96,0,0,0,.862-.413v.47c-.069.044-.138.093-.211.146a3.371,3.371,0,0,1-.543.328" transform="translate(-109.563 -168.707)" fill="#26466d"/>
                <path id="パス_13220" data-name="パス 13220" d="M195.874,106.639a10.44,10.44,0,0,0,1.034-1.309c.5-.595.328-1.655,1.06-2.046a4.727,4.727,0,0,0,.25-.617,3.086,3.086,0,0,1,.056.63c-.81-.115-1.047,1.158-.448,1.571a7.126,7.126,0,0,1-.177,1.167,1.646,1.646,0,0,0-.655,1.154,1.559,1.559,0,0,1-.892.559.6.6,0,0,1-.228-1.109" transform="translate(-111.399 -57.222)" fill="#26466d"/>
                <path id="パス_13221" data-name="パス 13221" d="M196.256,82.975c-.03-.99,2.405-.28,3.1-1.593a1.407,1.407,0,0,0,.116-.164.563.563,0,0,0,.151.217.9.9,0,0,1-.345.524.644.644,0,0,0-.832.493,1.686,1.686,0,0,1-.629.213.575.575,0,0,0-.634.138c-.552-.368-.806-.209-.927.173" transform="translate(-111.776 -45.29)" fill="#fec1ae"/>
                <path id="パス_13222" data-name="パス 13222" d="M198.344,93.505c-.065-.075-.129-.146-.2-.213a.592.592,0,0,0,.151-.044,2.461,2.461,0,0,1,.047.257" transform="translate(-112.852 -51.982)" fill="#fec1ae"/>
                <path id="パス_13223" data-name="パス 13223" d="M203.39,65.094c0,.009,0,.013,0,.018s.009-.022.013-.031,0,.009-.009.013m-2.836-40.283c2.534,4.877,3.228,10.366,4.767,15.606.754,4.326,1,8.72,2.043,12.979a6.192,6.192,0,0,1,0,2.769,4.389,4.389,0,0,1-.7,3.577,4.134,4.134,0,0,1-.724,2.8,4.169,4.169,0,0,1-1.047,3.346,3.7,3.7,0,0,1-1.646,2.8,5.546,5.546,0,0,1-2.146,2.729.869.869,0,0,1-.129.337,9.11,9.11,0,0,0-2.19-1.012c2.065-2.223,4.245-5.272,4.237-8.467.987-1.389.763-3.545.121-5.041,1.267-2.618.69-5.817.289-8.609,1.052-2.534-.418-5.489-.522-8.143-.552-2.05-.526-5.906-1.491-7.424a15.717,15.717,0,0,0-1.039-3.581c0-3.861-3-7.464-4.59-10.818a13.163,13.163,0,0,0-3.586-4.437,1.8,1.8,0,0,0-.1-.151c1.22.794,2.349,1.717,3.491,2.6,2.7,1.793,3.547,5.352,4.957,8.147" transform="translate(-109.415 -7.937)" fill="#fec1ae"/>
                <path id="パス_13224" data-name="パス 13224" d="M196.095,85.506a3.027,3.027,0,0,0-.164,1.322.437.437,0,0,0-.095.084,11.681,11.681,0,0,1,.181-1.735,1,1,0,0,0,.078.328" transform="translate(-111.537 -47.493)" fill="#26466d"/>
                <path id="パス_13225" data-name="パス 13225" d="M195.612,89.088a1.325,1.325,0,0,1-.121.475.2.2,0,0,0-.043.022.6.6,0,0,1,.164-.5" transform="translate(-111.314 -49.668)" fill="#fec1ae"/>
                <path id="パス_13226" data-name="パス 13226" d="M193.8,96.437c-.06.666-4.276,6.505-4.7,3.683.159-.488.784-.461,1.121-.843a6.06,6.06,0,0,0,1.164-1.42c.194-.377.375-.95.862-.972a6.08,6.08,0,0,0,.586-1.22c-.112-.466-.121-1.136.388-1.34a3.841,3.841,0,0,0-.026-.5,4.638,4.638,0,0,1,.858,1.278,3.037,3.037,0,0,0,.065,1.043.6.6,0,0,1-.319.288" transform="translate(-107.708 -52.304)" fill="#26466d"/>
                <path id="パス_13227" data-name="パス 13227" d="M179.019,296.792c-.405-1.007-1.952.24-3.052.532h-.56c-.31-.763-.914-.306-1.409,0H165.46c-.095-.275-.19-.546-.28-.808a2.781,2.781,0,0,0-.483-1.447.017.017,0,0,1,0-.013c-.151-.47-.3-.927-.44-1.367a2.816,2.816,0,0,0-.539-2.148c-.056-.173-.112-.342-.168-.515h16.335v5.352a5.956,5.956,0,0,1-.862.413" transform="translate(-93.165 -161.999)" fill="#fff"/>
                <path id="パス_13228" data-name="パス 13228" d="M189.149,305.218l.013.027H187.7l.043-.027Z" transform="translate(-106.906 -169.892)" fill="#26466d"/>
                <path id="パス_13229" data-name="パス 13229" d="M189.205,304.694H187.8c.5-.306,1.1-.763,1.409,0" transform="translate(-106.963 -169.368)" fill="#26466d"/>
                <path id="パス_13230" data-name="パス 13230" d="M188.315,10.806c.233-.568-.491-.843-.944-.954-.022-.031-.043-.067-.065-.1a.622.622,0,0,0,.06-.382,8.068,8.068,0,0,1,2.008,2.086c-.345-.231-.7-.444-1.06-.648" transform="translate(-106.684 -5.323)" fill="#26466d"/>
                <path id="パス_13231" data-name="パス 13231" d="M179,79.878c3.5,1.975,1.246,7.615-2.491,6.306-5.1-1.859-2.211-8.178,2.491-6.306" transform="translate(-99.007 -44.354)" fill="#fae57c"/>
                <path id="パス_13232" data-name="パス 13232" d="M185.746,8.253a.616.616,0,0,1,.733.488c-.237-.173-.478-.337-.733-.488" transform="translate(-105.796 -4.696)" fill="#fec1ae"/>
                <path id="パス_13233" data-name="パス 13233" d="M187.452,64.646a7.089,7.089,0,0,0-4.806-1.7v-.013c.5.058,1.069-.049,1.526.053,2.008.395,4.375,1.061,4.728,3.492a.587.587,0,0,0-.2.737.778.778,0,0,1-.616-.887c-.4-.435-.353-1.158-.634-1.686" transform="translate(-104.032 -35.122)" fill="#fec1ae"/>
                <path id="パス_13234" data-name="パス 13234" d="M177.686,68.458a1.6,1.6,0,0,1-.983,2.889,1.646,1.646,0,0,1-.409-.053c-1.009-.035-2.276-.768-2.2-1.846a.9.9,0,0,1-.056-.652,1.975,1.975,0,0,1,.155-.319c.039-.75.767-.985,1.539-.852a2.8,2.8,0,0,1,1.957.834" transform="translate(-99.111 -37.709)" fill="#26466d"/>
                <path id="パス_13235" data-name="パス 13235" d="M181.246,43.028a.448.448,0,0,0,.034.062s0-.009-.009-.009l-.026-.053" transform="translate(-103.236 -24.047)" fill="#26466d"/>
                <path id="パス_13236" data-name="パス 13236" d="M176.845,7.4c-.608.666-1.84-.222-2.151-.856-.823-.572-2.129-.714-2.978-1.22a22.494,22.494,0,0,1,5.6,1.722.579.579,0,0,1,.444-.417c.254.151.5.315.733.488a.622.622,0,0,1-.06.382c.022.035.043.071.065.1.453.111,1.177.386.944.954.362.2.715.417,1.06.648a1.794,1.794,0,0,1,.1.151,13.163,13.163,0,0,1,3.586,4.437c1.595,3.355,4.59,6.958,4.59,10.818a15.717,15.717,0,0,1,1.039,3.581c.965,1.518.94,5.374,1.491,7.424.1,2.654,1.573,5.609.522,8.143.4,2.791.978,5.991-.289,8.609.642,1.5.866,3.652-.121,5.041.009,3.195-2.172,6.243-4.237,8.467a9.11,9.11,0,0,1,2.19,1.012,1.441,1.441,0,0,1-1.672.248c-.875-.3-1.646-1.038-1.181-1.779-.147-.013-.293-.031-.435-.049a11.517,11.517,0,0,0,2.871-3.781,1.1,1.1,0,0,1,.647-1.287,6.17,6.17,0,0,0,.7-2.263.694.694,0,0,1,.246-1.322c.621-.954.345-2.228.138-3.275-.772.031-.828-1.1-.241-1.416a5.154,5.154,0,0,0,.672-3.035c-.776-.244-1.134-2.525-.09-2.609a9.085,9.085,0,0,0-.319-2.232c-.84-.395-.8-2.077.345-1.673a14.683,14.683,0,0,0-.405-3.182c-.3-.559-.655-1.531-.276-2.1-.2-1.322-.431-2.631-.707-3.936a.594.594,0,0,1-.151-.679c-.069-.3-.134-.6-.207-.892v0a.551.551,0,0,1,.22-.612,8.3,8.3,0,0,0-.379-1.438c-.78.049-1.435-1.895-.7-2.29a10.965,10.965,0,0,0-.707-2.117c-.651-.351-1.306-1.788-.207-1.961a1.191,1.191,0,0,1-.03-.16,13.48,13.48,0,0,0-.84-2.148c-.84.186-1.284-1.6-1.276-2.232-.414-.95-.832-1.855-1.31-2.738-.427-.16-.414-.741-.629-1.087-.19-.373-.586-.732-.59-1.163-.112-.2-.233-.4-.358-.612-1.142-.1-1.19-1.9-2.177-2.432-.629.08-1.586-.661-1.2-1.353a8.307,8.307,0,0,0-2.28-1.877" transform="translate(-97.813 -3.076)" fill="#26466d"/>
                <path id="パス_13237" data-name="パス 13237" d="M175.536,31.648l0,0Z" transform="translate(-99.987 -17.716)" fill="#26466d"/>
                <path id="パス_13238" data-name="パス 13238" d="M174.966,30.288l0,0Z" transform="translate(-99.662 -16.96)" fill="#26466d"/>
                <path id="パス_13239" data-name="パス 13239" d="M173.285,13.468a.624.624,0,0,1-.009.852c0-.288.013-.581.009-.852" transform="translate(-98.701 -7.604)" fill="#26466d"/>
                <path id="パス_13240" data-name="パス 13240" d="M176.154,25.94a33.3,33.3,0,0,1-2.142-5.516,24.353,24.353,0,0,1-1.086-4.926.676.676,0,0,0,.151-.111,3.556,3.556,0,0,0,.306,1.97,36.06,36.06,0,0,0,1.345,4.153.191.191,0,0,1,.026.062c.009.022.022.049.03.071,1.746,3.417,3.159,7.246,5.883,9.993a.53.53,0,0,1,.832.617c.927,1.114.6,1.384-.448,1.1a.618.618,0,0,0,.6-.6.637.637,0,0,0-.323-.564c-.491-.24-1.009-.426-1.491-.683a.581.581,0,0,0-.293-.461,15.115,15.115,0,0,1-2-2.281.638.638,0,0,0-.147-.808,16.517,16.517,0,0,1-1.237-2.019" transform="translate(-98.502 -8.672)" fill="#fec1ae"/>
                <path id="パス_13241" data-name="パス 13241" d="M172.65,19.1a33.3,33.3,0,0,0,2.142,5.516,16.514,16.514,0,0,0,1.237,2.019.638.638,0,0,1,.147.808,15.115,15.115,0,0,0,2,2.281.581.581,0,0,1,.293.461c.483.257,1,.444,1.491.683a.637.637,0,0,1,.323.564.618.618,0,0,1-.6.6,42.512,42.512,0,0,1-8.7-4.468l.013-.027c.341-.457.879-.146,1.241.111,1.315.71,2.56,1.522,3.814,2.33a4.836,4.836,0,0,0,.905.333.616.616,0,0,1-.022-.129c-.276-.28-.534-.577-.789-.879a5,5,0,0,1,1.478.808c-.806-1.234-1.741-2.41-2.452-3.732,0,0,0,0,.009.009a.448.448,0,0,1-.034-.062l.026.053a50.773,50.773,0,0,1-2.483-5.1l0,0c-.013-.04-.03-.075-.047-.115a.983.983,0,0,0-.047-.12l-.1-.253c-.013-.04-.03-.071-.043-.111l0,0c-.681-2.183-1.909-4.726-1.909-7.1,0,0,0,0,0,0a1.1,1.1,0,0,1,.474-.484.555.555,0,0,1,.715.124c0,.271,0,.564-.009.852a.676.676,0,0,1-.151.111A24.355,24.355,0,0,0,172.65,19.1" transform="translate(-97.139 -7.349)" fill="#26466d"/>
                <path id="パス_13242" data-name="パス 13242" d="M170.538,60.749c-1.366-.075-2.771-.013-4.077-.177a25.644,25.644,0,0,1-5.095-1.593,40.353,40.353,0,0,0,4.707.99c1.026.852,2.483.4,3.707.439a1.2,1.2,0,0,0,.759.328Z" transform="translate(-91.924 -32.919)" fill="#fec1ae"/>
                <path id="パス_13243" data-name="パス 13243" d="M171.726,11.671a.555.555,0,0,0-.715-.124,1.1,1.1,0,0,0-.474.484,5.676,5.676,0,0,1,.246-1.7c.819-.351.94.382.944,1.345" transform="translate(-97.142 -5.806)" fill="#fec1ae"/>
                <path id="パス_13244" data-name="パス 13244" d="M172.461,22a50.77,50.77,0,0,0,2.483,5.1c.711,1.322,1.646,2.5,2.452,3.732a5,5,0,0,0-1.478-.808c-.112-.133-.224-.266-.336-.4-.427-.572-1.138-1.189-1.021-1.975a32.294,32.294,0,0,1-3.879-9.678c-.159-.958-.888-2.7-.379-3.674,0,2.374,1.228,4.917,1.909,7.1l0,0c.013.04.03.071.043.111l.1.253a.981.981,0,0,1,.047.12c.017.04.034.075.047.115Z" transform="translate(-96.907 -8.06)" fill="#26466d"/>
                <path id="パス_13245" data-name="パス 13245" d="M171.093,10.408a.017.017,0,0,1,0,.013.016.016,0,0,0-.013,0s.013-.009.017-.018" transform="translate(-97.449 -5.901)" fill="#fec1ae"/>
                <path id="パス_13246" data-name="パス 13246" d="M170.952,44.961c-1.94-.129-3.323-1.668-5.013-2.463-.72.608-2.564-.954-3.185-1.429a29.952,29.952,0,0,1-3.638-4.091,39.56,39.56,0,0,0,5.375,3.923,42.512,42.512,0,0,0,8.7,4.468.83.83,0,0,1-.151.013,1.116,1.116,0,0,1-.366-.062c-.414-.169-1.172-.093-1.509-.395a.511.511,0,0,1-.181.04c-.013,0-.022,0-.034,0" transform="translate(-90.644 -20.681)" fill="#26466d"/>
                <path id="パス_13247" data-name="パス 13247" d="M167.935,305.218c0,.009,0,.018.009.027h-.035l-.013-.027Z" transform="translate(-95.64 -169.892)" fill="#b9bec2"/>
                <path id="パス_13248" data-name="パス 13248" d="M167.6,304.206h-.039a3.474,3.474,0,0,1-.254-.657c0-.053.013-.1.013-.151.091.262.185.532.28.808" transform="translate(-95.304 -168.88)" fill="#b9bec2"/>
                <path id="パス_13249" data-name="パス 13249" d="M166.314,305.218l.013.027h-1.2l-.013-.027Z" transform="translate(-94.058 -169.892)" fill="#26466d"/>
                <path id="パス_13250" data-name="パス 13250" d="M166.216,300.138a2.781,2.781,0,0,1,.483,1.447c-.168-.5-.328-.981-.483-1.447" transform="translate(-94.684 -167.066)" fill="#26466d"/>
                <path id="パス_13251" data-name="パス 13251" d="M173.252,44.394c-1.254-.808-2.5-1.62-3.814-2.33-.362-.257-.9-.568-1.241-.111a8.448,8.448,0,0,1-1.849-1.6,2.516,2.516,0,0,0-.69-1.371l-.052-.067c.31.271.629.532.953.785,1.728-1.367,2.263,2.489,3.939,2.742a9.789,9.789,0,0,0,2.849,1.274c.254.3.513.6.789.879a.617.617,0,0,0,.022.129,4.837,4.837,0,0,1-.905-.333" transform="translate(-94.337 -21.76)" fill="#fec1ae"/>
                <path id="パス_13252" data-name="パス 13252" d="M165.163,297.028c.142.439.289.9.44,1.367a3.065,3.065,0,0,1-.457-1.243.574.574,0,0,0,.017-.124" transform="translate(-94.075 -165.336)" fill="#b9bec2"/>
                <path id="パス_13253" data-name="パス 13253" d="M165.146,38.518a.79.79,0,0,1,.194.169c-.065-.053-.129-.106-.194-.169" transform="translate(-94.075 -21.538)" fill="#26466d"/>
                <path id="パス_13254" data-name="パス 13254" d="M163.572,291.543a2.816,2.816,0,0,1,.539,2.148c-.3-.954-.569-1.842-.815-2.662h.108c.056.173.112.342.168.515" transform="translate(-93.022 -161.999)" fill="#26466d"/>
                <path id="パス_13255" data-name="パス 13255" d="M155.42,305.218l.013.027h-7.357c.009-.009.022-.018.03-.027Z" transform="translate(-84.362 -169.892)" fill="#b9bec2"/>
                <path id="パス_13256" data-name="パス 13256" d="M155.46,297.325h-7.314q.071-.067.155-.133a53.3,53.3,0,0,0,2.345-6.164h2.827a33.775,33.775,0,0,0,1.987,6.3" transform="translate(-84.402 -161.999)" fill="#b9bec2"/>
                <path id="パス_13257" data-name="パス 13257" d="M162.493,297.325a33.774,33.774,0,0,1-1.987-6.3h1.2c.246.821.513,1.708.815,2.662a.575.575,0,0,1-.017.124,3.065,3.065,0,0,0,.457,1.242.017.017,0,0,0,0,.013c.155.466.315.95.483,1.447,0,.049-.009.1-.013.151a3.475,3.475,0,0,0,.254.657Z" transform="translate(-91.435 -161.999)" fill="#26466d"/>
                <path id="パス_13258" data-name="パス 13258" d="M162.562,288.252h-.108c-.233-.8-.448-1.544-.638-2.214.25.737.5,1.473.746,2.214" transform="translate(-92.18 -159.223)" fill="#26466d"/>
                <path id="パス_13259" data-name="パス 13259" d="M158.616,29.058c1.017.537.918,2.88,2.026,3.47.259.248.522.493.789.728a.64.64,0,0,0-.629-.071,18.393,18.393,0,0,1-1.823-2.6,2.329,2.329,0,0,0-.362-1.531" transform="translate(-90.359 -16.276)" fill="#fec1ae"/>
                <path id="パス_13260" data-name="パス 13260" d="M160.433,281.6c-.388-1.172-.763-2.343-1.047-3.541.28.8.608,1.988,1.047,3.541" transform="translate(-90.798 -154.784)" fill="#b9bec2"/>
                <path id="パス_13261" data-name="パス 13261" d="M149.788,53.657c.918.475,1.853.923,2.81,1.327a14.1,14.1,0,0,1-1.336-.475c-2.116.177-3.457-1.948-5.306-2.711.409.151.823.288,1.237.408.849.5,1.711.99,2.595,1.451" transform="translate(-83.156 -28.925)" fill="#26466d"/>
                <path id="パス_13262" data-name="パス 13262" d="M156.773,285.415h-2.827c.487-1.491.953-3,1.452-4.477a28.94,28.94,0,0,1,1.375,4.477" transform="translate(-87.702 -156.386)" fill="#b9bec2"/>
                <path id="パス_13263" data-name="パス 13263" d="M156.872,34.161c.228.386.47.759.728,1.123a5.582,5.582,0,0,1-1.125-1.336.831.831,0,0,0,.4.213" transform="translate(-89.142 -18.996)" fill="#fec1ae"/>
                <path id="パス_13264" data-name="パス 13264" d="M154.118,277.822c-.5,1.482-.965,2.986-1.452,4.477h-.97c2.03-6.8,2.4-8.4,3.314-5.755.284,1.2.659,2.37,1.047,3.541.19.67.405,1.411.638,2.214h-1.2a28.94,28.94,0,0,0-1.375-4.477" transform="translate(-86.422 -153.27)" fill="#26466d"/>
                <path id="パス_13265" data-name="パス 13265" d="M164.186,56.8c1.125.173,2.659-.572,3.474.275,2.7.164,5.883,1.229,6.474,4.287,2.405-.932,4.375,3.08,3.142,4.957-.043,1.526-1.612,2.436-2.914,2.685a.553.553,0,0,1-.56.155,7.513,7.513,0,0,1-.181,1.1c.776,0,1.185.821,1.237,1.535,1.03.359,1.5,1.877,1.534,2.911a.572.572,0,0,1,.431.652c1.944,1.975-.9,7.77-2.715,9.1-1.668,1.913-4.159,2.609-6.034,4.255a.576.576,0,0,1-.095.235,4.082,4.082,0,0,0,1.241.772c.556-.111,1.521.062,1.349.843a41.572,41.572,0,0,1,4.539,1.881c-3.039-.679-5.8-2.241-8.6-3.577a.653.653,0,0,1-.1-.164,6.687,6.687,0,0,1,2.146-1.837c.97-.368,1.733-1.948,2.81-1.62a5.2,5.2,0,0,0,1.172-.936c-.034-.546.526-1.256,1.09-.963a2.115,2.115,0,0,0,.815-.954c-.259-.493.138-1.487.724-1.544.6-1.336,1.586-3.071.94-4.513a14.6,14.6,0,0,1-2.293,4.087,1.646,1.646,0,0,1,.655-1.154,7.129,7.129,0,0,0,.177-1.167c-.6-.413-.362-1.686.448-1.571a3.087,3.087,0,0,0-.056-.63,2.971,2.971,0,0,0-.181-2.516,2.321,2.321,0,0,1-.224.914,3.036,3.036,0,0,1-.065-1.043,4.64,4.64,0,0,0-.858-1.278,2.465,2.465,0,0,0-.047-.257.592.592,0,0,1-.151.044c-.345-.368-.711-.719-1.039-1.1h0a.529.529,0,0,1-.125-.3.2.2,0,0,1,.043-.022,1.325,1.325,0,0,0,.121-.475.437.437,0,0,1,.095-.084,3.026,3.026,0,0,1,.164-1.322,1,1,0,0,1-.078-.328c.121-.382.375-.541.927-.173a.575.575,0,0,1,.634-.138,1.686,1.686,0,0,0,.629-.213.644.644,0,0,1,.832-.493.9.9,0,0,0,.345-.524.563.563,0,0,1-.151-.217,2.063,2.063,0,0,0,.323-1.061.643.643,0,0,1,.28-.075,1.919,1.919,0,0,0-.043-.719.715.715,0,0,1-.379-.2,2.831,2.831,0,0,0-.31-.692.7.7,0,0,1,.151-.444.743.743,0,0,0-.078-.155.877.877,0,0,1-.453.08,2.624,2.624,0,0,0-.78-.6.161.161,0,0,1-.013-.049.243.243,0,0,0-.06.013,1.921,1.921,0,0,0-1.138-.16.659.659,0,0,1-.526.231.587.587,0,0,1,.2-.737c-.353-2.432-2.72-3.1-4.728-3.492-.457-.1-1.026,0-1.526-.053a1.2,1.2,0,0,1-.759-.328c-1.224-.035-2.681.413-3.707-.439a40.352,40.352,0,0,1-4.707-.99c-.957-.4-1.892-.852-2.81-1.327l.276-.568a1.636,1.636,0,0,0,.776.217.835.835,0,0,1,1.44.342,5.212,5.212,0,0,0,1.366.328c.349-.4,1.616-.106,1.7.444,1.138.6,3.146-.275,3.78.852" transform="translate(-88.214 -30.454)" fill="#26466d"/>
                <path id="パス_13266" data-name="パス 13266" d="M153.333,74.486a.676.676,0,0,1,.358-1.1c.022-.049.043-.1.06-.146A1.339,1.339,0,0,1,154,71.5c0-.044.013-.089.017-.138s0-.071,0-.111a1.035,1.035,0,0,1,.215-1.3,3.424,3.424,0,0,1,.134-1.376.627.627,0,1,1,1.056.67,6.82,6.82,0,0,1-.228,2.179,11.172,11.172,0,0,1-.4,2.392,2.292,2.292,0,0,1,.319.146c.3.155.569.359.862.524a.6.6,0,0,1,.677.43.614.614,0,0,1-.677.768,1.034,1.034,0,0,1-.59-.182,6.5,6.5,0,0,0-1.2-.657,2.349,2.349,0,0,1-.858-.359" transform="translate(-87.253 -38.074)" fill="#26466d"/>
                <path id="パス_13267" data-name="パス 13267" d="M155.2,258.927c-.2.466.461.737.819.754.5.04.466-.564.336-.9a.374.374,0,0,0-.349-.257.594.594,0,0,1-.547.453.574.574,0,0,1-.259-.049m-.422,1.544a1.635,1.635,0,0,1-.677-2c.142-.337.431-.732.836-.639a1.282,1.282,0,0,1,1.521-.466,1.619,1.619,0,0,1,1.082,1.251,1.643,1.643,0,0,1-1.565,2.259,2,2,0,0,1-1.2-.408" transform="translate(-87.726 -143.237)" fill="#26466d"/>
                <path id="パス_13268" data-name="パス 13268" d="M168.284,187.341c-.978,1.864-4.241,2.778-6.133,3.346-3.31-.83-3.439-.395-5.819-3.137-1.1-.306-1.595-1.558-2.043-2.547a13.623,13.623,0,0,1-1.073-2l.914-.413a3.286,3.286,0,0,0,.228.484c1.034-.111.905,2.383,1.836,3.017,1.371.564,1.991,2.232,3.263,2.822,1.129-.08,2.168.785,3.228.51,1.328-.83,3.064-.985,4.207-2.077-.47-.714.677-1.788,1.336-1.269A2.331,2.331,0,0,0,169.353,185c-.522-.763.418-2.139,1.164-1.242a4.726,4.726,0,0,0,1.237-1.247c-.565-.688.948-2.7,1.7-2.059a7.132,7.132,0,0,0,1.164-1.677c-.345-.608.552-2.5,1.319-2.285.293-.488.569-.985.819-1.5-.621-.666.763-3.914,1.746-3.075a18.216,18.216,0,0,0,1.3-3.687.6.6,0,0,1,.22-.852c.164-.417.108-1.145.625-1.256.384-.737.009-2.365,1.03-2.578.09-.368.177-.741.246-1.114-.388-.5-.112-2.316.556-2.476.052-.475.082-.958.108-1.438-.75-.4-.409-3.426.556-3.333a9.974,9.974,0,0,0-.03-1.136c-.733-.311-.638-2.347-.323-2.951a9.521,9.521,0,0,0-.405-1.766,1,1,0,0,1-.47-.728,10.355,10.355,0,0,0-.97-1.216c-.392-.413-1.2-.524-1.241-1.216-.164-.12-.336-.226-.509-.333-.595.386-1.586-.333-1.3-1.043a5.238,5.238,0,0,0-.759-.368l.039-.115a1.441,1.441,0,0,0,1.672-.248,14.3,14.3,0,0,1,3.931,3.825c1,.67,1.121,2.982,1.271,4.118.534,3.594-.521,11.023-2.22,14.16-1.155,3.2-2.181,6.554-4.077,9.421a.674.674,0,0,1,.276.874c-.405.7.065,1.921-.715,2.356-.034.129-.06.257-.095.386.267,1.287-.345,2.6-.44,3.883.582.439.056,2.423-.47,2.778-.043.2-.073.391-.108.586.909.484.216,2.463-.134,3.213.694.426.323,1.646.043,2.259-.017.324-.034.648-.043.972.56.488.056,1.344.095,1.966.659.55.388,2.117-.03,2.769-.03.586-.043,1.171-.039,1.762.78.257.444,1.886.358,2.538.047.688.289,1.682-.259,2.2-.082.892.677,1.779.3,2.618a1.134,1.134,0,0,1,.056.248c.06-.044.125-.089.185-.142a1.322,1.322,0,0,1-.082.541c.052.493.121.981.177,1.469.453.355.151.976.233,1.464-.043,1.025,1.09,2.449.125,3.23a7.971,7.971,0,0,1-1.595,1.518,1.242,1.242,0,0,0-1.59.027v-.47a11.934,11.934,0,0,0,2.405-1.913c-1.888-7.517-1.263-15.3-1.534-23.012-.44-2.108.59-4.3.741-6.408-.569-.461-.065-1.464-.017-2.086.228-1.092.47-2.188.754-3.27a14.542,14.542,0,0,1-1.94,3.173.576.576,0,0,1-.25.466c-.28.7-1.358,2.1-1.379,1.482a6.187,6.187,0,0,1-2.228,2.028,3.751,3.751,0,0,1-2.271,2.254" transform="translate(-87.287 -80.245)" fill="#26466d"/>
                <path id="パス_13269" data-name="パス 13269" d="M156.186,32.908a0,0,0,0,1,0,0s0,0,0,0Z" transform="translate(-88.977 -18.417)" fill="#26466d"/>
                <path id="パス_13270" data-name="パス 13270" d="M155.566,32.073a3.243,3.243,0,0,1-.69-1.5c.181.351.371.692.565,1.034v0a.9.9,0,0,0,.125.457" transform="translate(-88.231 -17.121)" fill="#26466d"/>
                <path id="パス_13271" data-name="パス 13271" d="M152.127,11.711c-.052-.035-.1-.062-.151-.093a2.012,2.012,0,0,1,.487-1.265.594.594,0,0,1,.815.244.642.642,0,0,1,.022.555,6.611,6.611,0,0,0-.034,2.729,27.224,27.224,0,0,0,.862,4.287.961.961,0,0,1,.711.444,1.109,1.109,0,0,0-.828-.067c-1.017-2.148-2.353-4.548-1.884-6.834" transform="translate(-86.581 -5.828)" fill="#26466d"/>
                <path id="パス_13272" data-name="パス 13272" d="M152.672,95.341c-.022.062.022.111.056.16.28-.027.565-.035.845-.035.647,0,1.293.053,1.944.111,1.573-.222.793-2.121-.215-2.6a1.957,1.957,0,0,0-2.379,1.056.62.62,0,0,1,.06.6.679.679,0,0,1,.022.16.63.63,0,0,1-.332.55m.828,1.331a8.655,8.655,0,0,1-1.125-.022,1.4,1.4,0,0,1-.8-1.731,2.921,2.921,0,0,1,1.328-2.631,2.777,2.777,0,0,1,2.677-.5c2.577,1.074,2.823,4.979-.267,4.979-.09,0-.181,0-.28-.013a6.587,6.587,0,0,0-1.534-.08" transform="translate(-86.317 -51.089)" fill="#26466d"/>
                <path id="パス_13273" data-name="パス 13273" d="M154,275.706c-.918-2.645-1.284-1.043-3.314,5.755h-.767c.159-.768.509-1.518.978-1.469a26.664,26.664,0,0,0,1.59-5.777.585.585,0,0,1,1.056-.093.574.574,0,0,1,.306.919c.047.222.1.444.151.666" transform="translate(-85.409 -152.432)" fill="#26466d"/>
                <path id="パス_13274" data-name="パス 13274" d="M152.882,19.985c-.315-1.274-1.19-4.69-.957-6.687.047.031.1.058.151.093-.47,2.285.866,4.686,1.884,6.834a1.109,1.109,0,0,1,.828.067,2.329,2.329,0,0,1,.362,1.531,18.393,18.393,0,0,0,1.823,2.6.64.64,0,0,1,.629.071c.065.062.129.115.194.169a.016.016,0,0,1,0,.009l.052.067a2.516,2.516,0,0,1,.69,1.371,8.448,8.448,0,0,0,1.849,1.6l-.013.027A39.559,39.559,0,0,1,155,23.806c-.009,0-.009-.009-.013-.009-.259-.364-.5-.737-.728-1.123a.831.831,0,0,1-.4-.213.9.9,0,0,1-.125-.457s0,0,0,0a0,0,0,0,0,0,0c-.194-.342-.384-.683-.565-1.034-.1-.368-.19-.728-.293-.981" transform="translate(-86.53 -7.509)" fill="#26466d"/>
                <path id="パス_13275" data-name="パス 13275" d="M151.8,20.825a27.685,27.685,0,0,1-2.043-4.846c-.405-.821-.556-3.514.793-2.822-.233,2,.642,5.414.957,6.687.1.253.19.612.293.981" transform="translate(-85.159 -7.368)" fill="#fec1ae"/>
                <path id="パス_13276" data-name="パス 13276" d="M147.206,297.325c.78-2.454,1.414-4.548,1.935-6.3h.97a53.3,53.3,0,0,1-2.345,6.164q-.084.067-.155.133Z" transform="translate(-83.867 -161.999)" fill="#26466d"/>
                <path id="パス_13277" data-name="パス 13277" d="M137.955,292.87c-.858-.049-1.039,1.447-.81,2.063a5.59,5.59,0,0,1-1.319,2.392h-4.34c-.741-.089-1.491-.16-2.241-.217-.069-2.023-.086-4.047-.168-6.079h8.982a2.631,2.631,0,0,0,0,1.438c-.034.138-.069.271-.1.4" transform="translate(-73.551 -161.999)" fill="#fff"/>
                <path id="パス_13278" data-name="パス 13278" d="M149.439,202.385c-2.556-5.764-3.073-15.429-2.793-23.487l1.026.035a2.849,2.849,0,0,0,.043.732c.806,1.127-.116,2.862.1,4.207.371.377.1.981.086,1.451a26.853,26.853,0,0,0,.009,3.226c.84.954.03,2.986.552,4.3a1.743,1.743,0,0,1,.1,1.779q.058.479.129.958c.965.368.34,2.094.625,2.849.707.972.59,2.374,1.034,3.537Z" transform="translate(-83.51 -99.625)" fill="#26466d"/>
                <path id="パス_13279" data-name="パス 13279" d="M147.736,291.028c-.522,1.748-1.155,3.843-1.935,6.3h-1.065a5.589,5.589,0,0,0,1.319-2.392c-.228-.617-.047-2.112.81-2.063.034-.133.069-.266.1-.4a2.631,2.631,0,0,1,0-1.438Z" transform="translate(-82.462 -161.999)" fill="#26466d"/>
                <path id="パス_13280" data-name="パス 13280" d="M147.6,305.218c-.009.009-.022.018-.03.027h-.384c0-.009,0-.018.009-.027Z" transform="translate(-83.856 -169.892)" fill="#26466d"/>
                <path id="パス_13281" data-name="パス 13281" d="M147.209,2.438a.016.016,0,0,1-.013,0,0,0,0,0,0,0,0Z" transform="translate(-83.862 -1.468)" fill="#26466d"/>
                <path id="パス_13282" data-name="パス 13282" d="M145.778,305.218c0,.009,0,.018-.009.027H144.7c0-.009.013-.018.017-.027Z" transform="translate(-82.439 -169.892)" fill="#26466d"/>
                <path id="パス_13283" data-name="パス 13283" d="M143.355,109.523c-.073-.018-.147-.035-.224-.049a.941.941,0,0,0-.125-.106c.121.049.237.1.349.155" transform="translate(-81.477 -60.949)" fill="#fec1ae"/>
                <path id="パス_13284" data-name="パス 13284" d="M137.887,50.408a12.738,12.738,0,0,0,1.2.541,6.421,6.421,0,0,1-4.3,1.771.617.617,0,0,1-.078-1.22,5.739,5.739,0,0,0,3.181-1.092" transform="translate(-76.475 -28.152)" fill="#26466d"/>
                <path id="パス_13285" data-name="パス 13285" d="M130.846,86.188c-6.461-7.854,11.03-7.841,3.582.577l-.043.018a6.248,6.248,0,0,1-2.427.035,1.774,1.774,0,0,1-1.112-.63" transform="translate(-73.727 -44.82)" fill="#fae57c"/>
                <path id="パス_13286" data-name="パス 13286" d="M136.221,69.191a.5.5,0,0,1-.224-.049.649.649,0,0,1-.4-.453,1.414,1.414,0,0,1-.3-1.708,2.2,2.2,0,0,1,1.952-1.487c1.539-.209,2.741.177,2.642,2.019a2.017,2.017,0,0,1-2.112,1.748,2.472,2.472,0,0,1-.819-.146,2.379,2.379,0,0,1-.435-.009.555.555,0,0,1-.3.084" transform="translate(-77.007 -36.515)" fill="#26466d"/>
                <path id="パス_13287" data-name="パス 13287" d="M152.881,114.206a11.558,11.558,0,0,1,2.435-5.667.654.654,0,0,0,.1.164c2.8,1.336,5.56,2.9,8.6,3.577.366.155.741.3,1.121.43l.259-.186c.142.018.289.035.435.049-.465.741.306,1.482,1.181,1.779l-.039.115c-.733,1-1.655-.564-2.418-.745-.491-.288-1.323.107-1.556-.59-.3-.106-.6-.2-.909-.293-.565.164-1.651-.044-1.573-.839-1-.395-2.276-.5-3-1.389a4.508,4.508,0,0,1-1.461-.976,10.5,10.5,0,0,0-1.513,2.529,1.438,1.438,0,0,1-.345,1.109c-.155.422-.034,1.083-.336,1.416.453.453,1.509.408,1.4,1.269a16.092,16.092,0,0,0-.935,5.258.987.987,0,0,1-.384.825c-.1.564-.2,1.132-.284,1.7,1.319.568-.539,2.733-.181,4.056a.034.034,0,0,0,0-.022c.616.359.328,1.322.047,1.833a13.375,13.375,0,0,0-.034,2.56c.522.28.526,1.7.1,2.072a15.464,15.464,0,0,0,.082,1.549c1.2.435-.047,2.68.737,3.909a.571.571,0,0,1,.707.328,2.815,2.815,0,0,0,1.5-1.762.739.739,0,0,1,.53-1.118,8.1,8.1,0,0,0,1.358-2.756c-.375-.577.1-2.662,1-2.41.539-1.442.026-3.235.78-4.548.634-.546,1.552.506.836,1.029a17.547,17.547,0,0,1-3.28,9.647,4.038,4.038,0,0,1-2.215,2.973c.793,1.229-1.013,1.38-1.358.24-2.435-1.837-1.935-12.1-1.815-15.353-.211-3.244.828-6.661,1.491-9.851a8.971,8.971,0,0,0-1.819-.905c-.75.39-1.991-1.211-3.026-1.34-.5.879-2.978-.692-3.72-.919a.593.593,0,0,1-.711.053.585.585,0,0,1-.655.173c-.634,1.269-.164,5.826-1.552,5.778-.108.448-.2.905-.276,1.362a.613.613,0,0,1,.03.674c.672.461.129,2.134-.405,2.525-.095.626-.172,1.251-.237,1.881.573.719-.211,2.742-.284,4.2l-1.026-.035c.121-3.461.388-6.621.707-9.052-1.521-2.578-3.082-5.636-3.22-8.675-.409-1.123-.866-2.17-1.215-3.315a1.683,1.683,0,0,0-1.168.093l-.009-.027c.552-.226,1.09-.466,1.625-.723,1.543-.666,2.276-2.383,2.694-4.2.276-1.189.418-2.423.56-3.426.078-.577-.422-.985-1.228-1.371,3.629.958,1.25,7.7-.957,9.2a.626.626,0,0,1-.082,1.021c.237,1.216,2.043,4.051,1.345,4.965.172.541.353,1.078.569,1.606,1.129.506.5,2.321,1.384,3.151a32.662,32.662,0,0,0,1.465-5.245c.151-.834.28-2.17,1.435-1.731.405-.493,1.121-.266,1.741.009.289-.941.19-2.09.776-2.884.44-1.127.685-2.281,1.108-3.421.095-2.259,1.871-4.473,3.439-5.977,1.556-1.6,4.043-1.93,5.87-3.226.09-.648.983-.586,1.254-1.145-.086-.461.336-.963.8-.812a2.851,2.851,0,0,0,.4-.71c-.181-.564.2-1.455.866-1.2a7.773,7.773,0,0,0,.315-.732,1.325,1.325,0,0,1,.522-1.531.529.529,0,0,0,.125.3h0c.328.377.694.728,1.039,1.1a.594.594,0,0,1-.28-.018.7.7,0,0,0-.073.049,5.947,5.947,0,0,1-1.379,2.41,3.309,3.309,0,0,1-1.246,1.646c-1.7,2.392-4.8,2.964-7.172,4.406-.181.621-.216,1.819-1.112,1.291-.323.63-.978,1.065-1.259,1.766a.79.79,0,0,1-.621,1.078,3.124,3.124,0,0,0-.263.8c.1.293.254.626,0,.905.026.386-.009.941-.431,1.016-.409,1.278-.858,2.543-1.267,3.816a14.193,14.193,0,0,1-.349,1.58l.078.027c2.056-.564,3.888,1.38,5.832,1.828" transform="translate(-77.125 -50.291)" fill="#26466d"/>
                <path id="パス_13288" data-name="パス 13288" d="M134.675,105.984c.8.621,1.961.559,2.715,1.176-1.155-.5-2.767-.985-4.254-1.762.668.182,1.358-.24,1.539.586" transform="translate(-75.862 -58.74)" fill="#26466d"/>
                <path id="パス_13289" data-name="パス 13289" d="M120.4,297.325h-10.81v-6.3h8.4c.082,2.032.1,4.056.168,6.079.75.058,1.5.129,2.241.217" transform="translate(-62.462 -161.999)" fill="#26466d"/>
                <path id="パス_13290" data-name="パス 13290" d="M132.516,105.075a1.18,1.18,0,0,1-.47-.257c.155.089.31.173.47.257" transform="translate(-75.241 -58.418)" fill="#fec1ae"/>
                <path id="パス_13291" data-name="パス 13291" d="M121.656,89.658c.047.24.1.479.159.719,1.328-.67,1.237,1.655,1.345,2.418.6.009.754.723.733,1.229a4.939,4.939,0,0,0,.978,1.087c.573-.089,1.142.577,1.138,1.14a1.7,1.7,0,0,0,.121.129,7.556,7.556,0,0,1-2.366-2.032,25.551,25.551,0,0,1-1.983-3.435,4.44,4.44,0,0,1-.125-1.256" transform="translate(-69.33 -49.985)" fill="#26466d"/>
                <path id="パス_13292" data-name="パス 13292" d="M121.463,88.545a7.771,7.771,0,0,1-.147-.887,2.678,2.678,0,0,1,.147.887" transform="translate(-69.136 -48.872)" fill="#fec1ae"/>
                <path id="パス_13293" data-name="パス 13293" d="M118.871,90.61a6.492,6.492,0,0,1-1.629-4.131,1.14,1.14,0,0,1-.965-.506l.2-.355c.362.209.733.395,1.116.577.478-.124.728.036.858.328a7.77,7.77,0,0,0,.147.887,4.44,4.44,0,0,0,.125,1.256A25.55,25.55,0,0,0,120.7,92.1a7.556,7.556,0,0,0,2.366,2.032,0,0,0,0,1,0,0,1.18,1.18,0,0,0,.47.257c1.487.777,3.1,1.26,4.254,1.762a.943.943,0,0,1,.125.106c.078.013.151.031.224.049a0,0,0,0,1,0,0c.806.386,1.306.794,1.228,1.371-.142,1-.284,2.236-.56,3.426l-.284-.075c.043-.186.078-.377.108-.568a2.909,2.909,0,0,1,.022-2.3,1.618,1.618,0,0,0-.5-.608.608.608,0,0,1-.724-.4c-2.862-.825-5.681-2.019-7.5-4.566-.7-.328-.793-1.313-1.065-1.979" transform="translate(-66.268 -47.738)" fill="#26466d"/>
                <path id="パス_13294" data-name="パス 13294" d="M116.1,53.768a2.316,2.316,0,0,0-2-.439.59.59,0,0,0,.142-.4c1.164.235,1.987,1.3,2.177-.71a.84.84,0,0,0,.138-1.114,2.912,2.912,0,0,1,.047-.439,1.033,1.033,0,0,0,.612-1.247c.06-.173.121-.319.2-.5a1.16,1.16,0,0,0,.746-1.726c.129-.293.263-.586.409-.874.741.067,1.146-1.083.763-1.642a4.573,4.573,0,0,1,.608-1.007c.569-.075,1.233-.728,1-1.349.366-.319.672-.59,1.069-.887a.554.554,0,0,0,.358-.08,32.419,32.419,0,0,0,4.245,3.856c-.056.058-.112.111-.172.164a7.962,7.962,0,0,1-3.168-2.742c-2.754,2.2-3.849,5.928-5.133,9.132a.712.712,0,0,1-.2.63c-.125.382-.091.932-.543,1.056.073.781-.884.843-1.3.324" transform="translate(-65.034 -23.112)" fill="#fec1ae"/>
                <path id="パス_13295" data-name="パス 13295" d="M113.259,128.182c-.25.169-.543.018-.823.018a76.594,76.594,0,0,1,8.288-3.319c1.017-.417,1.9-1.3,3.073-.728.6-.2.836-.8,1.371-1.043a3.6,3.6,0,0,0,.2-.359c-.358-.528.177-1.274.677-1.464a4.328,4.328,0,0,0,.306-.919l.284.075c-.418,1.815-1.151,3.532-2.694,4.2-.534.257-1.073.5-1.625.723a79.9,79.9,0,0,1-9.056,2.818" transform="translate(-64.083 -67.068)" fill="#26466d"/>
                <path id="パス_13296" data-name="パス 13296" d="M114.881,83.593a7.825,7.825,0,0,1-1.405-.994.774.774,0,0,0,.009-.621c.858,0,.78.031,1.306.763a.654.654,0,0,1,.685.382,1.312,1.312,0,0,0,.444.146c.573-.453,1.478.453.909,1.012.009.071.013.146.026.217-.129-.293-.379-.453-.858-.328-.384-.182-.754-.368-1.116-.577" transform="translate(-64.675 -45.712)" fill="#26466d"/>
                <path id="パス_13297" data-name="パス 13297" d="M113.126,68.588a1.3,1.3,0,0,1,.422-.24.782.782,0,0,1-.422.24" transform="translate(-64.476 -38.131)" fill="#26466d"/>
                <path id="パス_13298" data-name="パス 13298" d="M109.475,70.872a.777.777,0,0,0,.371-1.247,5.139,5.139,0,0,1,.858-.719.827.827,0,0,0,.276-.018c-1.138.932-1.108,3.661-.112,5.152a6.185,6.185,0,0,1,.272.657h-.108a.706.706,0,0,0-.84-.8,1.417,1.417,0,0,1-.405-.719.758.758,0,0,0-.414-1.269,2.418,2.418,0,0,1,.1-1.038" transform="translate(-62.329 -38.431)" fill="#fec1ae"/>
                <path id="パス_13299" data-name="パス 13299" d="M92.107,266.754c2.323-1.1-.578,10.277-1.4,17.053H89.543c.254-2.307.668-4.77.612-5.52-14.835-.013-15.184-4.628.065-.648q.679-5.485,1.888-10.885" transform="translate(-45.005 -148.454)" fill="#b9bec2"/>
                <path id="パス_13300" data-name="パス 13300" d="M108.388,58.061a4.165,4.165,0,0,1-1.672-3.009A3.965,3.965,0,0,1,106.992,53c-.216-.963.8-1.589,1.422-2.108a2.034,2.034,0,0,1,2.646-.7c.25-2.569,1.655-4.881,2.81-7.184.513-1.753,2.2-4.224,4.008-4.575.267-.395,1.1-.337,1.125.284a31.852,31.852,0,0,0,4.2,3.812c.522-.484.349-1.757,1.228-1.708,1.065.324.129,1.771-.233,2.361.616.7,2.53.621,2.405,1.518.362.253.715.595,1.112.816l-.276.568c-.884-.461-1.746-.95-2.595-1.451-.414-.12-.828-.257-1.237-.408-.06-.027-.125-.053-.19-.075a12.738,12.738,0,0,1-1.2-.541c.06-.053.116-.107.172-.164a32.419,32.419,0,0,1-4.245-3.856.554.554,0,0,1-.358.08c-.4.3-.7.568-1.069.887.237.621-.427,1.274-1,1.349a4.573,4.573,0,0,0-.608,1.007c.384.559-.022,1.708-.763,1.642-.147.288-.28.581-.409.874a1.16,1.16,0,0,1-.746,1.726c-.082.182-.142.328-.2.5a1.033,1.033,0,0,1-.612,1.247,2.911,2.911,0,0,0-.047.439.84.84,0,0,1-.138,1.114c-.19,2.015-1.013.945-2.177.71a.59.59,0,0,1-.142.4,1.3,1.3,0,0,0-.422.24.828.828,0,0,1-.276.018,5.14,5.14,0,0,0-.858.719.778.778,0,0,1-.371,1.247,2.418,2.418,0,0,0-.1,1.038.758.758,0,0,1,.414,1.269,1.417,1.417,0,0,0,.405.719.706.706,0,0,1,.84.8h.108a.774.774,0,0,1-.009.621,7.826,7.826,0,0,0,1.405.994l-.2.355a1.359,1.359,0,0,1-1.052-.732,1.438,1.438,0,0,1-1.379-.794" transform="translate(-60.812 -21.352)" fill="#26466d"/>
                <path id="パス_13301" data-name="パス 13301" d="M105.1,77.374a6.788,6.788,0,0,1-.2-1.109l.595-.067a4.165,4.165,0,0,0,1.672,3.009,1.438,1.438,0,0,0,1.379.794,1.359,1.359,0,0,0,1.052.732,1.14,1.14,0,0,0,.965.506,6.492,6.492,0,0,0,1.629,4.131c.272.666.362,1.651,1.065,1.979,1.823,2.547,4.642,3.741,7.5,4.566a.608.608,0,0,0,.724.4,1.618,1.618,0,0,1,.5.608,2.909,2.909,0,0,0-.022,2.3c-.03.191-.065.382-.108.568a4.327,4.327,0,0,1-.306.919c-.5.191-1.034.936-.677,1.464a3.6,3.6,0,0,1-.2.359c-.534.24-.771.848-1.371,1.043-1.172-.572-2.056.311-3.073.728a76.6,76.6,0,0,0-8.288,3.319h-.026c-.341-.049-.763.04-1.013-.262a.653.653,0,0,1,.228-1.007c-.082-.169-.151-.342-.22-.506-.789-.213-1.159-2.543-1.336-3.319-.953-2.165-.836-4.584-.879-6.909.125-3.053-.461-6.093.052-9.119-.453-1.668.263-3.439.353-5.134" transform="translate(-59.585 -42.498)" fill="#fec1ae"/>
                <path id="パス_13302" data-name="パス 13302" d="M105.317,36.4a13.478,13.478,0,0,1,1.043-5.991A26.732,26.732,0,0,1,108.3,23c-.009-3.1,2.366-5.44,3.5-8.138-.375-1.211,1.948-3.315,2.733-4.184,2.2-2.618,5.4-5.6,8.987-5.3a24.174,24.174,0,0,1,10.392-.484c.849.506,2.155.648,2.978,1.22.31.635,1.543,1.522,2.151.856a8.307,8.307,0,0,1,2.28,1.877c-.388.692.569,1.433,1.2,1.353.987.532,1.034,2.334,2.177,2.432.125.209.246.408.358.612,0,.43.4.79.59,1.163.215.346.2.927.629,1.087.478.883.9,1.788,1.31,2.738-.009.635.435,2.418,1.276,2.232a13.48,13.48,0,0,1,.84,2.148,1.187,1.187,0,0,0,.03.16c-1.1.173-.444,1.611.207,1.961a10.966,10.966,0,0,1,.707,2.117c-.733.395-.078,2.339.7,2.29a8.3,8.3,0,0,1,.379,1.438.551.551,0,0,0-.22.612v0c.073.293.138.59.207.892a.594.594,0,0,0,.151.679c.276,1.3.5,2.614.707,3.936-.379.568-.022,1.54.276,2.1a14.682,14.682,0,0,1,.405,3.182c-1.142-.4-1.185,1.278-.345,1.673a9.085,9.085,0,0,1,.319,2.232c-1.043.084-.685,2.365.091,2.609a5.154,5.154,0,0,1-.672,3.035c-.586.315-.53,1.447.241,1.416.207,1.047.483,2.321-.138,3.275a.694.694,0,0,0-.246,1.322,6.17,6.17,0,0,1-.7,2.263,1.1,1.1,0,0,0-.647,1.287,11.517,11.517,0,0,1-2.871,3.781c-.465-.058-.927-.142-1.379-.244a41.57,41.57,0,0,0-4.539-1.881c.172-.781-.793-.954-1.349-.843a4.082,4.082,0,0,1-1.241-.772.576.576,0,0,0,.095-.235c1.875-1.646,4.366-2.343,6.034-4.255,1.815-1.327,4.659-7.122,2.715-9.1a.572.572,0,0,0-.431-.652c-.034-1.034-.5-2.552-1.534-2.911-.052-.714-.461-1.54-1.237-1.535a7.519,7.519,0,0,0,.181-1.1.553.553,0,0,0,.56-.155c1.3-.249,2.871-1.158,2.914-2.685,1.233-1.877-.737-5.888-3.142-4.957-.59-3.057-3.776-4.122-6.474-4.287-.815-.848-2.349-.1-3.474-.275-.634-1.127-2.642-.248-3.78-.852-.086-.55-1.353-.848-1.7-.444a5.213,5.213,0,0,1-1.366-.328.835.835,0,0,0-1.44-.342,1.635,1.635,0,0,1-.776-.217c-.4-.222-.75-.564-1.112-.816.125-.9-1.789-.816-2.405-1.518.362-.59,1.3-2.037.233-2.361-.879-.049-.707,1.225-1.228,1.708A31.851,31.851,0,0,1,118.2,20c-.022-.621-.858-.679-1.125-.284-1.81.351-3.5,2.822-4.008,4.575-1.155,2.3-2.56,4.615-2.81,7.184a2.034,2.034,0,0,0-2.646.7c-.625.519-1.638,1.145-1.422,2.108a3.965,3.965,0,0,0-.276,2.055ZM143,26.219a.53.53,0,0,0-.832-.617c-2.724-2.747-4.138-6.576-5.883-9.993-.009-.022-.022-.049-.03-.071a.192.192,0,0,0-.026-.062,36.06,36.06,0,0,1-1.345-4.153,3.556,3.556,0,0,1-.306-1.97.624.624,0,0,0,.009-.852c0-.963-.125-1.7-.944-1.345a.017.017,0,0,0,0-.013c0,.009-.013.013-.017.018a.016.016,0,0,1,.013,0,5.676,5.676,0,0,0-.246,1.7s0,0,0,0c-.509.972.22,2.716.379,3.674a32.293,32.293,0,0,0,3.879,9.678c-.116.785.595,1.4,1.021,1.975.112.138.224.271.336.4a9.788,9.788,0,0,1-2.849-1.274c-1.677-.253-2.211-4.109-3.939-2.742-.323-.253-.642-.515-.953-.785a.016.016,0,0,0,0-.009.79.79,0,0,0-.194-.169c-.267-.235-.53-.479-.789-.728-1.108-.59-1.009-2.933-2.026-3.47a.961.961,0,0,0-.711-.444,27.224,27.224,0,0,1-.862-4.287,6.611,6.611,0,0,1,.034-2.729A.642.642,0,0,0,126.7,7.4a.594.594,0,0,0-.815-.244,2.012,2.012,0,0,0-.487,1.265c-1.349-.692-1.2,2-.793,2.822a27.686,27.686,0,0,0,2.043,4.846,3.244,3.244,0,0,0,.69,1.5,5.583,5.583,0,0,0,1.125,1.336s0,0,.013.009a29.953,29.953,0,0,0,3.638,4.091c.621.475,2.465,2.037,3.185,1.429,1.69.794,3.073,2.334,5.013,2.463.013,0,.022,0,.034,0a.511.511,0,0,0,.181-.04c.336.3,1.095.226,1.509.395a1.116,1.116,0,0,0,.366.062.831.831,0,0,0,.151-.013c1.052.28,1.375.009.448-1.1" transform="translate(-60.008 -2.636)" fill="#fec1ae"/>
                <path id="パス_13303" data-name="パス 13303" d="M117.67,1.222a0,0,0,0,1,0,0,.016.016,0,0,0,.013,0ZM95.887,53c-.759-1.176-.547-3.022-.573-4.424a61.181,61.181,0,0,1,.34-8c-.246-1.158.319-2.4.431-3.572a10.423,10.423,0,0,1,.272-4.153c-.272-1,.3-2.086.44-3.088-.332-.737.151-1.584.28-2.33.6-1.935.875-3.963,1.625-5.857-.379-1.313.569-2.671.987-3.883.091-1.376,1.03-2.618,1.6-3.847.03-1.327,1.345-2.37,1.991-3.466,2.8-5.7,9.374-9.03,15.409-9.629a14.357,14.357,0,0,1,6.944-.146c.84.257,2.194-.209,2.694.7a34.383,34.383,0,0,1,5.952,2.5.579.579,0,0,0-.444.417,22.494,22.494,0,0,0-5.6-1.722,1.92,1.92,0,0,1-.487-.4.582.582,0,0,1-.319-.106c-1.185-.053-2.366-.28-3.526-.386-.427.364-1.7.479-1.922-.177a9.509,9.509,0,0,0-1.84.24c-.194.723-2.215,1.021-2.659.479a17.01,17.01,0,0,0-2.457.51,3.513,3.513,0,0,1-2.789,1.1,17.5,17.5,0,0,0-1.771.945.558.558,0,0,1-.388.333c-.233.319-.491.821-.961.564-.586.4-1.146.852-1.69,1.3-.672,1-1.81,1.642-2.418,2.756.2.919-1.543,2.112-1.94,3.062.366.555-.276.945-.53,1.353-.483.83-.918,1.686-1.323,2.565.362.639-1.172,2.716-1.306,3.736.888.164.677,1.265-.047,1.522A16.727,16.727,0,0,0,99.171,24c.534.444,0,1.114-.289,1.544-.315.834-.526,1.708-.767,2.569.866.488-.582,2.436-.522,3.421.69.342-.647,2.907-.444,4.034.776.155.569,1.2.108,1.611-.138.608-.233,1.229-.349,1.846.517.293.3.932.043,1.336a9.818,9.818,0,0,0-.362,2.623c.8.315.608,1.788-.052,2.174-.026.8-.069,1.6-.121,2.4a.762.762,0,0,1,.039,1.26,10.556,10.556,0,0,0,.078,2.019c.685.155.672,1.127.448,1.664a10.5,10.5,0,0,0,.4,1.779c.418.386.767,1.265.384,1.775a8.04,8.04,0,0,0,.72,1.584c.647-.053,1.078,1.1.75,1.6a2.261,2.261,0,0,0,.375.7l-.957.475A19.213,19.213,0,0,1,95.887,53" transform="translate(-54.331 -0.252)" fill="#26466d"/>
                <path id="パス_13304" data-name="パス 13304" d="M72.1,114.021a19.308,19.308,0,0,0-.4-2.414,5.161,5.161,0,0,1,.349-2.667c.7-.572,1.646-.75,2.28-1.429,0-.009.013-.013.017-.022a3.943,3.943,0,0,1,2.366.173,1.094,1.094,0,0,1,.461,1.265c-.513,1.526-2.3,1.824-3.358,2.831a4,4,0,0,0-.965,2.343Z" transform="translate(-40.897 -59.851)" fill="#fae57c"/>
                <path id="パス_13305" data-name="パス 13305" d="M78.173,166.661c.125-.635-.091-1.447.582-1.633.44-.674-.616-1.784.4-2.108-.065-.413-.315-.958.121-1.274-.147-.581-.345-1.615.457-1.726.474-1.167-.965-4.593.418-4.451-.453-.386-.759-1.42-.116-1.766.168-.692-.586-1.992.392-2.165.194-.954,1.694-.635,2.371-1.234,0,0,.009,0,.013-.009a20.267,20.267,0,0,0-1.405-5.7,9.077,9.077,0,0,1-.2-3.128.408.408,0,0,0,.134-.346c.323-.018-.026-.8-.263-1.154-.427-.63-.259-.874-.621-1.473a5.967,5.967,0,0,0-.647.541.625.625,0,0,1-.078.24.064.064,0,0,1,.009.027c-1.5,1.012-2.142,2.822-2.987,4.455-.315.639-.625,1.287-.918,1.939v-.009c-.263.586-.509,1.176-.741,1.775.629,1.5-1.569,2.973-1.746,4.584,1.952,1.358-2.06,2.481-1.836,4.366,1.534-.058.409,2.445-.47,2.716-.914,1.34-.513,4.615-2.375,4.784-.328.848-.616,1.717-.879,2.587,1.3,1.171-1.164,3.514-1.694,5.352l-.715-.3a36.629,36.629,0,0,0,1.336-5.107c3.108-6.093,6.763-21.872,11.857-27.485.737-1.895,3.241-2.476,4.8-3.5a10.727,10.727,0,0,1-1.737-1.961l.957-.475c.465.621,1.177,1.047,1.629,1.7a.7.7,0,0,1,.556.164c.293-.138.586-.28.884-.417h0c.28,0,.573.151.823-.018a79.887,79.887,0,0,0,9.056-2.818l.009.027a7.86,7.86,0,0,1-2.228.919c-3.03,1.389-6.232,2.245-9.017,4.056.315,1.513.75,3.63,1.013,5.005a.84.84,0,0,1,.017.1c.1.5.194,1.007.289,1.509.509,1.731.526,3.39.884,5.1,1.685-.324,2.177,2.148,2.6,3.381,1.625-.337,1.185,1.877,1.31,2.915.953-.493,1.388,3.989.759,6.652l-.909-.12a23.62,23.62,0,0,0,.172-2.809c-5.271,1.052-5.81-.8-.375-1.1.009-.386,0-.777-.009-1.167-1.491-.08-3.444-.32-4.84.275-2.168-2.01,3.125-1.242,4.172-1.535a18.6,18.6,0,0,0-.121-2.023c-1.94-.178-3.922.5-5.668.737-1-1.859,3.323-1.6,4.457-1.815-.547-3.031-2.142-2.134-4.077-.812-.276.422-.733,1.1-.983.488a6.39,6.39,0,0,1-1.987.67,18.709,18.709,0,0,1,.22,2.955,49.771,49.771,0,0,1-1.345,9.758,4.748,4.748,0,0,1-.586,1.518v-.009c-.052.146-.1.284-.151.422Z" transform="translate(-37.307 -73.331)" fill="#26466d"/>
                <path id="パス_13306" data-name="パス 13306" d="M33.572,105.542a7.986,7.986,0,0,0,.129,2.4,4.592,4.592,0,0,1,.25,1.4c-.272,1.154-1.2.848-2.138.541a3.217,3.217,0,0,0-1.448-.266,7.188,7.188,0,0,0-4.06,1.691,3.215,3.215,0,0,0-1.534,3.395c.22,2.245,1.862,5.9.621,7.93a4.144,4.144,0,0,1-1.849,1.1,15.354,15.354,0,0,1-2.689.768c-.922.1-1.6-.723-2.224-1.309-1.487-1.424-2-3.648-3.655-4.89a3.3,3.3,0,0,0-1.97-.577,10.681,10.681,0,0,0-2.047.275,8.767,8.767,0,0,1-2.491.257A1.966,1.966,0,0,1,7.13,117.7a11.846,11.846,0,0,1-.526-4.326,7.431,7.431,0,0,1,2.267-3.807c1.293-1.2,3.2-1.389,4.866-1.42,1.25.031,2.53-.044,2.228-1.7a32.635,32.635,0,0,1-.474-4.659c.267-3.51,3.224-3.208,5.435-1.589,1.6,1.043,2.28,3.186,3.952,4.074a4.519,4.519,0,0,0,2.414.271,17.815,17.815,0,0,0,2.823-.364c1.2-.182,2.4-.359,3.582-.63.207-.044.414-.093.621-.142a3.087,3.087,0,0,0-.746,2.13" transform="translate(-3.848 -55.206)" fill="#fae57c"/>
                <path id="パス_13307" data-name="パス 13307" d="M77.4,217.833a29.339,29.339,0,0,1-1.565,3.319c6.594.439,5.125-.328,5.81-5.675.539-1.926-1.724-4.7-.25-6.323-.017-.173-.039-.351-.06-.524-.47-.115-.647-.639-.8-1.061q-.692,1.458-1.362,2.929c1.487,1.7-1.659,5.068-1.776,7.335m-2.888-14.661c-2.073,5.711-1.677,4.06,3.569,6.949h-.009c.022.009.043.022.065.031a.255.255,0,0,1,.034.018c.6-1.3,1.177-2.6,1.81-3.887.224-.515.69-1.22,1.306-.852.625-.528.159-2.023,1.185-1.975.582-1.1.181-2.64.974-3.537-.159-1.46.095-4.455,1.336-1.558.478.266.72-.129.849-.741l.909.12c-.3,1.274-.84,2.134-1.681,1.842.784,5.485,1.56,10.863,2.155,16.25a162.149,162.149,0,0,1,1.069,16.343c.259,2.214-.129,4.42.121,6.63,0,0,0,0,0-.009v.009H79.8v6.3h10.81l.25.027H78.381c.819-6.776,3.72-18.158,1.4-17.053q-1.215,5.391-1.888,10.885c-15.249-3.98-14.9.635-.065.648.056.75-.358,3.213-.612,5.52H60.7c.668-3.656,1.832-7.264,1.8-10.8a10.221,10.221,0,0,1-5.263-5.1l.72-.266c1.741-.737.435,2.463,2.543,2.769.608-.714,1.694.417,1.448,1.14a4.512,4.512,0,0,0,.914.479c.582-.6,1.164.43,1.849.368,3.194,1.229,3.547-5.245,5.06-3.914.922-1.8,1.75-3.506,2.75-5.227-.043.293,0,.586-.017.883a.061.061,0,0,0,.013-.018c1.25-1.309.621-4.562,2.465-4.894,1.259-2.964,2.388-5.968,3.629-9.092-1.905-.648-3.6-1.9-5.508-2.614-.4.408-1-.062-1.03-.541a.6.6,0,0,1-.629-.453c-.629,2.023-11.073,19.307-7.62,10.912-.009.018-.022.04-.03.058-.091-.661.293-2.228,1.233-1.775,1.108-1.118.711-3.545,2.319-4.087,1.194-.932.707-4.965,2.543-4.131.621-.892.573-2.813,1.806-2.982,0,.1-.013.2-.017.306a.954.954,0,0,1,.6-.009c.767-.825.31-1.926,1.108-2.631a1.046,1.046,0,0,0,.159-.4Z" transform="translate(-32.675 -109.775)" fill="#26466d"/>
                <path id="パス_13308" data-name="パス 13308" d="M56.1,242.821c-2.565-5.884,1.211-14.16,3.508-21.233l.715.3a2.171,2.171,0,0,0-.095.6c1.7.577-.659,2.148-.733,3.08.358,2.8-2.095,5.276-2.621,8.236,1.211.24.672,2.143-.4,2.161a10.842,10.842,0,0,0-.276,2.84c1.509-1.083,2,1.779.366,1.921a3.7,3.7,0,0,0,.25,1.824Z" transform="translate(-31.541 -123.372)" fill="#26466d"/>
                <path id="パス_13309" data-name="パス 13309" d="M30.3,135.951a6.016,6.016,0,0,0,3.323,2.609,11.913,11.913,0,0,0,5.073-1.526c1.655-1.007,1.608-3.173,1.353-4.9-.2-1.154-.5-2.281-.737-3.421a5.888,5.888,0,0,1-.216-2.3A3.275,3.275,0,0,1,40.16,125.2a8.872,8.872,0,0,1,2.733-1.42c1.172-.319,2.241.426,3.383.5a2.06,2.06,0,0,0,2.017-1.948l.75.08a6.021,6.021,0,0,0-.009,1.114,2.27,2.27,0,0,1-1.073,2.765,6.815,6.815,0,0,1-4.323,1.158c-.25,0-.543-.107-.776.013a1.03,1.03,0,0,0-.155,1.34c1.543,2.294,2.668,2.973,2.133,6.079a6.051,6.051,0,0,1-3.737,4.748,14.813,14.813,0,0,1-5.379.759c-4.034-.067-4.646-2.378-5.879-4.216Z" transform="translate(-17.091 -68.158)" fill="#fae57c"/>
                <path id="パス_13310" data-name="パス 13310" d="M14.526,143.739c1.728-.2,2.595,1.651,3.336,2.938.259.382.53.781.823,1.176l-.453.217a4.5,4.5,0,0,0-2.444-1.961c-.978-.324-2.039.12-3.017-.253a.555.555,0,0,1-.444.24,2.854,2.854,0,0,1-1.371-.253,4.268,4.268,0,0,1-1.521-1.677c1.685.342,3.414-.24,5.09-.426" transform="translate(-5.477 -80.059)" fill="#fae57c"/>
                <path id="パス_13311" data-name="パス 13311" d="M26.188,128.845a11.912,11.912,0,0,1-5.073,1.526,6.016,6.016,0,0,1-3.323-2.609c-.293-.395-.565-.794-.823-1.176-.741-1.287-1.608-3.142-3.336-2.938-1.677.186-3.4.768-5.09.426a8.87,8.87,0,0,1-.677-1.606,1.966,1.966,0,0,0,1.336.546,8.767,8.767,0,0,0,2.491-.257,10.681,10.681,0,0,1,2.047-.275,3.3,3.3,0,0,1,1.97.577c1.651,1.242,2.168,3.466,3.655,4.89.621.586,1.3,1.411,2.224,1.309a15.356,15.356,0,0,0,2.689-.768,4.144,4.144,0,0,0,1.849-1.1c1.241-2.032-.4-5.684-.621-7.93a3.215,3.215,0,0,1,1.534-3.395,7.188,7.188,0,0,1,4.06-1.691,3.217,3.217,0,0,1,1.448.266c.94.306,1.866.612,2.138-.541a4.592,4.592,0,0,0-.25-1.4,7.986,7.986,0,0,1-.129-2.4,3.087,3.087,0,0,1,.746-2.13c.961-.217,1.922-.439,2.9-.559.026,0,.056,0,.082-.009,0,.009-.013.013-.017.022-.634.679-1.582.856-2.28,1.429a5.161,5.161,0,0,0-.349,2.667,19.3,19.3,0,0,1,.4,2.414,2.06,2.06,0,0,1-2.017,1.948c-1.142-.071-2.211-.816-3.383-.5a8.872,8.872,0,0,0-2.733,1.42,3.275,3.275,0,0,0-1.065,1.216,5.888,5.888,0,0,0,.216,2.3c.241,1.14.539,2.268.737,3.421.254,1.726.3,3.892-1.353,4.9" transform="translate(-4.584 -59.97)" fill="#26466d"/>
                <path id="パス_13312" data-name="パス 13312" d="M21.477,93.753c-1-1.052-1.552-2.5-2.521-3.563a4.646,4.646,0,0,0-4.129-1.526,12.012,12.012,0,0,0-1.776.315c-.358.16-.78.377-1.155.16a3.572,3.572,0,0,0-1.569,2.019c.263.546-.138,1.371-.784,1.158a6.071,6.071,0,0,0,.216,1.961c.272,1.793.371,4.127-1.267,5.272-1.112.7-2.409.932-3.547,1.58a8.878,8.878,0,0,0-2.082,1.842,4.033,4.033,0,0,0-1.392,2.538,8.606,8.606,0,0,0,.19,3.386,8.307,8.307,0,0,0,1.323,1.788,6.482,6.482,0,0,0,.552.55,8.87,8.87,0,0,0,.677,1.606q-.142-.027-.284-.067a7.683,7.683,0,0,1-3.121-3.1,8.117,8.117,0,0,1-.069-5.711,6.016,6.016,0,0,1,1.353-1.806A8.694,8.694,0,0,1,4.874,99.89C6.2,99.117,8.456,99.1,8.68,97.174a8.179,8.179,0,0,0-.06-2.787c-.259-1.176-.582-2.831.6-3.585A5.1,5.1,0,0,1,12.081,87.7c.491-.182,1.185-.519,1.612-.053a6.123,6.123,0,0,1,6.758,2.569c1.207,1.855,2.146,4.122,4.758,3.439a.966.966,0,0,1,.655-.28,18.255,18.255,0,0,0,2.582-.785c.453-.169,1.065-.657,1.444-.115.582-.226,1.159-.461,1.741-.692.526-.2,1.319-.639,1.72-.009a7.422,7.422,0,0,1,1.8.062,9.312,9.312,0,0,0,1.534.08c.284-.027.6-.133.862.058a.611.611,0,0,1,.134.83c-.3.319-.7.532-1.021.83A22.257,22.257,0,0,0,33.7,96.371c-.026,0-.056,0-.082.009-.974.12-1.935.342-2.9.559a2.365,2.365,0,0,1,.8-.524,8.735,8.735,0,0,0,1.134-.612c.56-.413.9-1.047,1.427-1.491.513-.413,1.039-.8,1.517-1.256a8.366,8.366,0,0,0-2.306-.084.5.5,0,0,1-.362-.115.562.562,0,0,1-.427-.129c-1.254.461-2.4.967-3.651,1.393-.5.129-1.069.541-1.577.257a10.079,10.079,0,0,1-3.418.572,4.444,4.444,0,0,1-2.379-1.2" transform="translate(-0.252 -48.732)" fill="#26466d"/>
              </g>
            </g>
          </g>
        </g>
      </g>
    </g>
  </g>
</svg>
