<svg id="logo" xmlns="http://www.w3.org/2000/svg" width="345.211" height="44.224" viewBox="0 0 345.211 44.224">
  <path id="パス_24348" data-name="パス 24348" d="M169.829,18.325c-3.764,3.993-10.608,8.281-12.329,8.281a2.237,2.237,0,0,1-2.043-2.383,1.822,1.822,0,0,1,.281-1.11,1.847,1.847,0,0,1,.887-.731,33.058,33.058,0,0,0,8.37-5.217c1.135-.966,1.59-1.417,2.854-2.673a3.615,3.615,0,0,1,2.948-1.343c1.655,0,2.272.612,3.569,1.9a32.3,32.3,0,0,0,8.481,6.248c.519.258,2.4,1.159,2.66,1.353a1.836,1.836,0,0,1,.715,1.546,2.242,2.242,0,0,1-2.077,2.383c-2.043,0-9.182-4.863-12.393-8.281-.463-.547-.68-.741-.973-.741S170.375,17.722,169.829,18.325Zm-2.92,11.819c0,5.521-1.363,8.856-4.055,11.3-.746.644-2.725,2.158-4.171,2.158a2.238,2.238,0,0,1-2.207-2.3,1.88,1.88,0,0,1,.882-1.587c2.854-1.739,3.406-2.093,4.171-3.542a14.975,14.975,0,0,0,1.2-6.409v-3.51c0-.58,0-2,2.076-2s2.109,1.288,2.109,2Zm12.051,11.722c0,.515,0,2-2.045,2-1.621,0-2.238-.612-2.238-2V26.224c0-.612.065-1.965,2.012-1.965,1.492,0,2.27.46,2.27,1.965Zm12.5-19.442c-.519,0-1.719,0-1.719-1.707,0-1.578.927-1.739,1.719-1.739h7.5c.779,0,1.719.129,1.719,1.675,0,1.642-.927,1.771-1.719,1.771Zm6.553,1.32a1.464,1.464,0,0,1,1.526.741c.1-.1.162-.161.42-.46a14.908,14.908,0,0,0,2.351-3.115c.927-1.578,1.3-1.707,1.914-1.707a1.28,1.28,0,0,1,.422.064c0-.1-.033-.161-.033-.29v-.515h-2.887c-.779,0-1.719-.258-1.719-1.514a1.466,1.466,0,0,1,1.719-1.482h2.9v-.823c0-1.191,1.168-1.288,2.01-1.288.389,0,1.688.064,1.688,1.288v.805h4.477v-.805c0-1.159.842-1.32,2.043-1.32.682,0,1.655.161,1.655,1.32v.805h2.4c.844,0,1.688.258,1.688,1.514,0,1.417-1.2,1.481-1.688,1.481h-2.4v.612c0,1.031-.973,1.159-1.915,1.159a3.99,3.99,0,0,1-.842-.1,2.226,2.226,0,0,1-.311.966h5.321c.615,0,1.232.225,1.232,1.127a1.032,1.032,0,0,1-.08.46,1.056,1.056,0,0,1-.682.607,1.071,1.071,0,0,1-.469.028H213.3v.92h5.028c.584,0,1.006.226,1.006.966,0,.92-.649.92-1.006.92H213.3v.92h5c.584,0,1.039.225,1.039,1,0,.966-.746.966-1.135.966h-4.9v1h5.936c.553,0,1.39.1,1.39,1.256a1.215,1.215,0,0,1-1.39,1.224H205.187c-3.018,0-3.635-.676-3.635-3.607v-1.8a1.674,1.674,0,0,1-.525.406,1.7,1.7,0,0,1-.643.173,1.637,1.637,0,0,1-.734-.2,1.616,1.616,0,0,1-.563-.509,1.929,1.929,0,0,1-1.071.193h-5.709c-.715,0-1.719-.1-1.719-1.707a1.518,1.518,0,0,1,1.719-1.675Zm-5.709-6.119a1.493,1.493,0,0,1-1.719-1.675c0-1.675,1.135-1.675,1.719-1.675h5.709a1.494,1.494,0,0,1,1.721,1.675c0,1.675-1.1,1.675-1.721,1.675Zm0,14.2a1.493,1.493,0,0,1-1.719-1.675c0-1.675,1.168-1.675,1.719-1.675h5.709a1.494,1.494,0,0,1,1.721,1.675c0,1.675-1.233,1.675-1.817,1.675Zm9.571,4.251a1.383,1.383,0,0,1-1.623-1.38c0-1.224.927-1.417,1.623-1.417h14.339c.551,0,2.318.032,2.318,1.9a3.224,3.224,0,0,1-1.266,2.48,19.373,19.373,0,0,1-2.66,2.029,47.012,47.012,0,0,1,5.1.8,1.267,1.267,0,0,1,.811,1.353c0,1.771-1.459,1.771-2.01,1.771-2.531,0-7.04-1.38-8.468-1.9a41.117,41.117,0,0,1-8.76,1.868,1.556,1.556,0,0,1-1.752-1.642c-.519,1.256-1.752,1.288-3.115,1.288h-2.442c-2.725,0-3.375-.58-3.375-3.349V36.5c0-2.737.617-3.349,3.407-3.349h2.4c2.781,0,3.407.58,3.407,3.349v3.381c0,.354-.033.773-.065,1.095a1.607,1.607,0,0,1,1.1-.612c.779-.129,4.282-.58,4.963-.708-1.039-.612-2.725-1.739-2.725-2.641a1.235,1.235,0,0,1,.463-.92Zm-5.03.92a.694.694,0,0,0-.466-.74.7.7,0,0,0-.311-.033h-1.428a.691.691,0,0,0-.586.192.673.673,0,0,0-.165.268.657.657,0,0,0-.028.313v2.19a.657.657,0,0,0,.028.313.673.673,0,0,0,.165.268.69.69,0,0,0,.586.192h1.428a.7.7,0,0,0,.581-.2.705.705,0,0,0,.165-.265.67.67,0,0,0,.031-.311Zm12.88-12.739v-.92h-3.99c-.649,0-.649.419-.649.92Zm0,1.886h-4.634v.92h4.634Zm0,2.866h-4.634c0,.58,0,1,.649,1h3.985Zm-.162-7.927c.682-1.38.973-1.932,2.141-1.932a4.121,4.121,0,0,1,1.1.129v-.819h-4.472v.58c0,1.352-1.853,1.224-2.531,1.127a1.646,1.646,0,0,1-.033.92ZM205.9,36.06a17.143,17.143,0,0,0,4.282,2.351c1.33-.547,3.569-1.449,3.569-2.126,0-.193-.293-.225-.465-.225Zm33.091,5.525c-2.985,0-3.633-.644-3.633-3.607V31.667c0-2.931.615-3.607,3.633-3.607H241.1c2.953,0,3.633.644,3.633,3.607v6.441a22.624,22.624,0,0,0,1.785-1.771,66.165,66.165,0,0,1-.875-9.436h-10.2a1.353,1.353,0,0,1-1.33-.676V42.165c0,.676-.1,1.675-1.557,1.675-1.135,0-1.752-.322-1.752-1.675V38.719a43.492,43.492,0,0,1-5.223,1.192c-1.1,0-1.557-1.192-1.557-2.222,0-1.159.551-1.514,1.525-1.642V17.98c-1.006-.1-1.33-.92-1.33-1.8,0-1.771,1.1-1.84,1.785-1.84H233.5c.584,0,2.012,0,1.721,2.3.129-.129.389-.354,1.232-.354h1.883V14.792c0-1.224.926-1.514,1.686-1.514s1.719.193,1.719,1.514v1.481h2.076c.779,0,1.59.193,1.59,1.707,0,1.61-.779,1.739-1.525,1.771-.195,1.481-.26,1.868-.584,3.639h2.318c-.033-2.705-.1-6.022-.1-8.212,0-.676,0-1.868,1.752-1.868a1.681,1.681,0,0,1,1.493.612c.291.419.291.709.291,2.834v6.63h3.926c.617,0,1.979.032,1.979,1.675,0,1.256-.551,1.84-1.979,1.84h-3.856c.064,1.9.195,3.381.357,4.992.227-.515,1.232-2.9,1.426-3.285.326-.612.584-.8,1.137-.8s2.076.258,2.076,1.38c0,.92-1.655,4.734-3.8,7.821.131.46.649,2.222,1.332,2.222.324,0,.551-.322.81-1.224.195-.741.358-1.32,1.2-1.32a1.677,1.677,0,0,1,1.752,1.61,8.724,8.724,0,0,1-1.426,3.8,3.184,3.184,0,0,1-2.823,1.642c-1.914,0-2.985-1.675-3.633-3.381a30.812,30.812,0,0,1-3.245,2.76,1.86,1.86,0,0,1-2.689-.538,1.829,1.829,0,0,1-.262-.975Zm-8.208-23.573h-1.947v3.381h1.947Zm0,6.7h-1.947v3.542h1.947Zm-1.947,10.821c.422-.064,1.039-.193,1.947-.387v-3.51h-1.947Zm7.773-12.146a29.079,29.079,0,0,0-.52-3.68c-1.59-.129-1.426-1.675-1.363-2.061a1.125,1.125,0,0,1-.648.322v6.068a1.379,1.379,0,0,1,.571-.512,1.4,1.4,0,0,1,.759-.132Zm1.783,9.822h3.245V31.892c0-.547-.26-.805-.779-.805h-1.688a.7.7,0,0,0-.779.805Zm0,2.866v1.514a.678.678,0,0,0,.195.581.689.689,0,0,0,.584.192h1.688a.681.681,0,0,0,.779-.773V36.079Zm.465-16.327c.064.515.389,3.059.389,3.639h1.3a31.681,31.681,0,0,0,.463-3.639Zm13.722,2.512c-.973,0-1.07-.387-1.621-2.061-.293-.92-.927-2.512-1.137-3.124a2.672,2.672,0,0,1-.226-.92c0-.773.973-1.417,1.881-1.417s1.1.483,1.492,1.417a24.013,24.013,0,0,1,1.557,4.509c.038,1.247-1.292,1.6-1.909,1.6Z" transform="translate(89.795 0.361)" fill="#e2740f"/>
  <path id="パス_24349" data-name="パス 24349" d="M154.7,13.509c-.366-1.081-.927-2.806-1.14-3.45l-.065-.193a1.246,1.246,0,0,0-.481-.659,1.265,1.265,0,0,0-.788-.224h-3.9a.763.763,0,0,0-.7.3.777.777,0,0,0-.093.713c.093.3.885,2.645,1.317,3.841a1.342,1.342,0,0,0,.564.682,1.36,1.36,0,0,0,.867.188h3.481c.556,0,.77-.166.885-.322a.9.9,0,0,0,.136-.431.92.92,0,0,0-.088-.443Zm-8.885-3.671a1.225,1.225,0,0,0-.487-.623,1.245,1.245,0,0,0-.769-.2h-3.9a.769.769,0,0,0-.388.053.759.759,0,0,0-.308.237.768.768,0,0,0-.139.352.792.792,0,0,0,.041.375c.1.313.89,2.659,1.317,3.837a1.333,1.333,0,0,0,.563.684,1.35,1.35,0,0,0,.869.186h3.5a1,1,0,0,0,.872-.318.886.886,0,0,0,.061-.879c-.432-1.274-1.163-3.45-1.238-3.68" transform="translate(79.854 -2.289)" fill="#060000"/>
  <path id="パス_24350" data-name="パス 24350" d="M81.684,43.151a4.668,4.668,0,0,1-.794,2.607,4.734,4.734,0,0,1-8.569-1.68,4.677,4.677,0,0,1,2-4.82,4.75,4.75,0,0,1,5.97.575A4.68,4.68,0,0,1,81.684,43.151ZM84.507,9.806a3.462,3.462,0,0,0-.826-3.964,3.508,3.508,0,0,0-1.236-.734,4.065,4.065,0,0,0-4.88,2.148C75.938,10.132,67.5,26,66.084,28.636s-3.2,6.39-4.676,5.82c-1.363-.525-2.966-6.294-3.652-7.941-1.214-2.926-3.68-6.4-7.8-5.521-3.147.672-4.917,3.128-7.782,8.562a51.52,51.52,0,0,1-3.967,6.869c-2.9,3.947-4.57-2.553-5.539-5.916-1.3-4.513-3.661-10.9-8.806-10.894-2.883,0-5.951,1.679-9.775,7.821-2.243,3.584-7.462,13.622-8.231,15.4a3.505,3.505,0,0,0,1.8,4.78,3.915,3.915,0,0,0,4.922-1.771c3.666-5.654,4.676-7.862,6.549-10.462,2.007-2.76,4.737-5.245,6.827,1.38,1.316,4.182,3.61,11.041,9.8,11.083,3.708.027,7.578-3.165,9.38-6.206,2.039-3.441,2.549-5.277,4.1-6.938.793-.847,1.974-1.15,3.091,1.307,1.08,2.374,3.3,9.882,7.276,11.5,5.6,2.3,10.878-8.944,12.7-12.527,1.469-2.894,11.559-23.7,12.2-25.216" transform="translate(-5.524 -4.889)" fill="#209ed8"/>
  <path id="パス_24351" data-name="パス 24351" d="M95.832,10.216A1.686,1.686,0,0,0,94.6,9.8h.028l-34.079.046a1.172,1.172,0,0,0-.89.4,1.242,1.242,0,0,0-.292.81v4.283a1.17,1.17,0,0,0,.356.812,1.187,1.187,0,0,0,.826.334h.195l24.837-.032H86.6c.723,0,.927.129,1.094.35.375.488,0,1.265-.065,1.454a20.768,20.768,0,0,1-10.4,13.171l-.292.152-.195-.267c-1.27-1.725-2.22-2.917-3.323-4.3l-.158-.207a2.125,2.125,0,0,0-1.529-.92H65.98A.807.807,0,0,0,65.5,26a.8.8,0,0,0-.316.375.965.965,0,0,0,.088.892A128.706,128.706,0,0,1,76.607,44.293a1.415,1.415,0,0,0,.535.562,1.431,1.431,0,0,0,.753.2h6.238a.769.769,0,0,0,.419-.126.76.76,0,0,0,.281-.334.845.845,0,0,0,0-.837,50.178,50.178,0,0,0-3.522-5.792l-.209-.308.306-.212c7.29-5.088,14.108-11.57,14.757-26.223a1.373,1.373,0,0,0-.315-1.031Zm35.015-.46a1.166,1.166,0,0,0-.927-.4c-.653,0-3.759.023-5.654.032a1.618,1.618,0,0,0-1.349.888C119.673,17.641,110.3,23.162,97.4,25.32c-.834.161-1.233.649-1.251,1.205v4.426a1.091,1.091,0,0,0,.375.851,1.328,1.328,0,0,0,1.043.318A50.323,50.323,0,0,0,112.4,28.407l.538-.248V43.874a1.173,1.173,0,0,0,.36.846,1.191,1.191,0,0,0,.863.332h4.871a1.177,1.177,0,0,0,.773-.333,1.16,1.16,0,0,0,.348-.762l.037-19.194.167-.11a28.13,28.13,0,0,0,10.721-13.977,1.113,1.113,0,0,0-.2-.92Zm26.1,15.3V24.7l10.893-.028a1.193,1.193,0,0,0,.834-.354,1.246,1.246,0,0,0,.337-.791V19.261a1.145,1.145,0,0,0-.083-.456,1.174,1.174,0,0,0-1.1-.731h-10.8V10.483a1.2,1.2,0,0,0-.093-.467,1.188,1.188,0,0,0-.676-.646,1.2,1.2,0,0,0-.474-.074h-4.806a1.156,1.156,0,0,0-.468.094,1.144,1.144,0,0,0-.389.274,1.176,1.176,0,0,0-.316.8v7.609H133.461a1.184,1.184,0,0,0-1.228,1.215V23.6a1.141,1.141,0,0,0,.1.447,1.153,1.153,0,0,0,.267.373,1.177,1.177,0,0,0,.846.316h.182l16.137-.032-.028.4c-.574,9.275-5.051,11.925-13.477,13.636-.733.175-1.153.529-1.153,1.164v4.407a.96.96,0,0,0,.093.442,1,1,0,0,0,.281.354,1.261,1.261,0,0,0,.89.281c14.108-1.937,19.865-7.821,20.583-20.339Zm48.33-6.7a1.167,1.167,0,0,0-.769-.317h-.2l-23.637.032v-7.6a1.183,1.183,0,0,0-.339-.851,1.245,1.245,0,0,0-.926-.359h-4.529a1.171,1.171,0,0,0-1.086.732,1.121,1.121,0,0,0-.085.45l.036,25.46c0,6.335,2.517,9,9.53,9h.559l21.321-.037a1.183,1.183,0,0,0,.77-.36,1.167,1.167,0,0,0,.327-.781V39.4a1.152,1.152,0,0,0-.087-.451,1.2,1.2,0,0,0-.254-.383,1.194,1.194,0,0,0-.836-.349H185.536c-1.765,0-3.069-.115-3.828-.727-.927-.787-1.039-1.918-1.021-3.68v-9.15l23.763-.037a1.18,1.18,0,0,0,.849-.345,1.154,1.154,0,0,0,.342-.846V19.192a1.107,1.107,0,0,0-.09-.459,1.126,1.126,0,0,0-.271-.383" transform="translate(28.71 -2.111)" fill="#060000"/>
</svg>
