<svg width="16" height="25" viewBox="0 0 16 25" fill="none" xmlns="http://www.w3.org/2000/svg">
<path d="M1.43693 0.715217C1.34362 0.616411 1.22433 0.549119 1.09435 0.52197C0.96438 0.49482 0.829644 0.50905 0.707422 0.562835C0.585201 0.61662 0.481063 0.707508 0.408361 0.823847C0.335659 0.940186 0.297706 1.07667 0.299369 1.21581V15.5002C0.298631 15.9559 0.469158 16.3935 0.773907 16.7179L7.82325 24.2059V7.49769L1.43693 0.715217Z" fill="white"/>
<path opacity="0.5" d="M14.2073 0.716146L7.82324 7.49862V24.2068L14.8726 16.7189C15.1773 16.3944 15.3479 15.9568 15.3471 15.5011V1.21674C15.3492 1.07712 15.3115 0.940035 15.2387 0.823181C15.1659 0.706327 15.0614 0.615068 14.9387 0.561183C14.816 0.507298 14.6807 0.493261 14.5504 0.520883C14.42 0.548505 14.3005 0.616519 14.2073 0.716146V0.716146Z" fill="white"/>
</svg>
