<svg width="14" height="14" viewBox="0 0 14 14" fill="none" xmlns="http://www.w3.org/2000/svg">
<path d="M11.1513 0.722656H0.28867C0.202188 0.722656 0.13208 0.781729 0.13208 0.854598V13.6292C0.13208 13.702 0.202188 13.7611 0.28867 13.7611H11.1513C11.2378 13.7611 11.3079 13.702 11.3079 13.6292V0.854598C11.3079 0.781729 11.2378 0.722656 11.1513 0.722656Z" fill="white"/>
<path d="M8.10652 4.44792H2.4022C2.29414 4.44792 2.1905 4.39886 2.11409 4.31153C2.03768 4.2242 1.99475 4.10576 1.99475 3.98226C1.99475 3.85876 2.03768 3.74032 2.11409 3.65299C2.1905 3.56566 2.29414 3.5166 2.4022 3.5166H8.10652C8.21459 3.5166 8.31822 3.56566 8.39464 3.65299C8.47105 3.74032 8.51398 3.85876 8.51398 3.98226C8.51398 4.10576 8.47105 4.2242 8.39464 4.31153C8.31822 4.39886 8.21459 4.44792 8.10652 4.44792V4.44792Z" fill="#51ACB6"/>
<path d="M8.04832 7.24186H2.46041C2.33691 7.24186 2.21847 7.1928 2.13114 7.10548C2.04381 7.01815 1.99475 6.89971 1.99475 6.77621C1.99475 6.65271 2.04381 6.53426 2.13114 6.44694C2.21847 6.35961 2.33691 6.31055 2.46041 6.31055H8.04832C8.17182 6.31055 8.29026 6.35961 8.37759 6.44694C8.46492 6.53426 8.51398 6.65271 8.51398 6.77621C8.51398 6.89971 8.46492 7.01815 8.37759 7.10548C8.29026 7.1928 8.17182 7.24186 8.04832 7.24186Z" fill="#51ACB6"/>
<path d="M6.18636 10.0358H2.45973C2.33641 10.0358 2.21814 9.98675 2.13094 9.89942C2.04374 9.81209 1.99475 9.69365 1.99475 9.57015C1.99475 9.44665 2.04374 9.32821 2.13094 9.24088C2.21814 9.15355 2.33641 9.10449 2.45973 9.10449H6.18636C6.30968 9.10449 6.42795 9.15355 6.51515 9.24088C6.60235 9.32821 6.65134 9.44665 6.65134 9.57015C6.65134 9.69365 6.60235 9.81209 6.51515 9.89942C6.42795 9.98675 6.30968 10.0358 6.18636 10.0358V10.0358Z" fill="#51ACB6"/>
<path d="M8.18531 12.1405L6.66211 12.3627L6.95025 10.908L11.8258 6.03628C11.8494 6.01248 11.8775 5.99359 11.9084 5.98071C11.9393 5.96782 11.9725 5.96118 12.006 5.96118C12.0395 5.96118 12.0727 5.96782 12.1036 5.98071C12.1346 5.99359 12.1627 6.01248 12.1863 6.03628L13.057 6.90577C13.0808 6.92937 13.0997 6.95745 13.1126 6.98839C13.1255 7.01932 13.1321 7.0525 13.1321 7.08602C13.1321 7.11953 13.1255 7.15271 13.1126 7.18365C13.0997 7.21458 13.0808 7.24266 13.057 7.26626L8.18531 12.1405Z" fill="#87C0C6"/>
</svg>
